<?xml version="1.0" encoding="UTF-8"?>
<svg width="19px" height="19px" viewBox="0 0 19 19" version="1.1" xmlns="http://www.w3.org/2000/svg" xmlns:xlink="http://www.w3.org/1999/xlink">
    <title>文件备份</title>
    <g id="页面-1" stroke="none" stroke-width="1" fill="none" fill-rule="evenodd" opacity="0.5">
        <g id="机构管理-默认" transform="translate(-374.000000, -563.000000)" fill="#000000" fill-rule="nonzero">
            <g id="文件备份" transform="translate(374.000000, 563.000000)">
                <rect id="矩形" opacity="0" x="0" y="0" width="19" height="19"></rect>
                <path d="M17.0525,7.7273 C17.0525,7.39575 16.9575,7.30075 16.62595,7.30075 L2.41775,7.30075 C2.0862,7.30075 1.94275,7.39575 1.94275,7.77575 L1.94275,15.2114 C1.94275,16.20605 2.3693,16.6364 3.31645,16.6364 L15.7263,16.6364 C16.6763,16.6364 17.1,16.20985 17.1,15.2627 C17.0525,12.70055 17.0525,10.2372 17.0525,7.7273 L17.0525,7.7273 Z M2.32275,6.54265 L16.245,6.54265 C17.0506,6.54265 17.0506,6.54265 17.0506,5.78265 C17.0506,4.883 16.6706,4.54765 15.8156,4.54765 L9.8059,4.54765 C9.0459,4.54765 9.0459,4.54765 9.0459,3.78765 C9.0459,2.98205 8.6659,2.64765 7.8622,2.64765 L3.12835,2.64765 C2.27335,2.60015 1.94465,2.93265 1.89335,3.78765 L1.89335,6.11705 C1.9,6.4961 1.995,6.54265 2.32275,6.54265 Z" id="形状"></path>
            </g>
        </g>
    </g>
</svg>