<?xml version="1.0" encoding="UTF-8"?>
<svg width="17px" height="16px" viewBox="0 0 17 16" version="1.1" xmlns="http://www.w3.org/2000/svg" xmlns:xlink="http://www.w3.org/1999/xlink">
    <title>计划书</title>
    <g id="页面-1" stroke="none" stroke-width="1" fill="none" fill-rule="evenodd">
        <g id="工作台-首页" transform="translate(-294.000000, -429.000000)" fill="#595959" fill-rule="nonzero">
            <g id="计划书" transform="translate(294.000000, 429.000000)">
                <path d="M16.8154397,3.96128515 L11.7395442,11.24537 L11.6933192,11.3409102 L11.6009145,11.3884952 L9.70876926,12.1044219 L9.24726658,12.2955023 L9.24726658,11.8182179 L9.2938766,9.8135861 L9.2938766,9.71806903 L9.33969393,9.62289913 L14.5543098,2.24327403 L14.7391645,1.95669969 L15.0157672,2.14775698 L16.723352,3.48404701 L17,3.67473399 L16.8154397,3.96128515 Z M15.1884598,5.28123522 L13.9426947,4.35513394 L9.93810508,9.97233373 L9.90474426,11.4180043 L11.2725153,10.9005874 L15.1884598,5.28123522 Z M14.3374531,3.80149599 L15.5773297,4.72336183 L16.1089965,3.9602205 L14.8990156,3.01349754 L14.3374531,3.80149599 Z M3.20254831,12.3636395 L2.84669954,12.3636395 C2.4536624,12.3636395 2.13502465,12.0379974 2.13502465,11.6363952 C2.13502465,11.2347468 2.45368504,10.9091046 2.84669954,10.9091046 L3.20254831,10.9091046 C3.59556279,10.9091046 3.91422321,11.2347236 3.91422321,11.6363952 C3.91422321,12.0379974 3.59556282,12.3636395 3.20254831,12.3636395 Z M3.20254831,5.09087228 L2.84669954,5.09087228 C2.4536624,5.09087228 2.13502465,4.76525327 2.13502465,4.3636048 C2.13502465,3.9619795 2.45368504,3.63633733 2.84669954,3.63633733 L3.20254831,3.63633733 C3.59556279,3.63633733 3.91422321,3.96197947 3.91422321,4.3636048 C3.91422321,4.76527641 3.59556282,5.09087228 3.20254831,5.09087228 Z M3.20254831,8.72732532 L2.84669954,8.72732532 C2.4536624,8.72732532 2.13502465,8.40163688 2.13502465,8.00001157 C2.13502465,7.5983631 2.45368504,7.27274409 2.84669954,7.27274409 L3.20254831,7.27274409 C3.59556279,7.27274409 3.91422321,7.59833996 3.91422321,8.00001157 C3.91422321,8.40161374 3.59556282,8.72732532 3.20254831,8.72732532 Z M5.69339911,10.9091046 L7.11674888,10.9091046 C7.50978603,10.9091046 7.82842378,11.2347236 7.82842378,11.6363952 C7.82842378,12.0379974 7.50978603,12.3636395 7.11674888,12.3636395 L5.69339911,12.3636395 C5.30036196,12.3636395 4.98172421,12.0379974 4.98172421,11.6363952 C4.98172421,11.2347467 5.30038461,10.9091046 5.69339911,10.9091046 Z M4.98172421,4.36362794 C4.98172421,3.96200263 5.30038461,3.63636047 5.69339911,3.63636047 L10.6751686,3.63636047 C11.0681831,3.63636047 11.3868662,3.96200261 11.3868662,4.36362794 C11.3868662,4.76527641 11.0681831,5.09089542 10.6751686,5.09089542 L5.69339911,5.09089542 C5.30038461,5.09087228 4.98172421,4.76527641 4.98172421,4.36362794 Z M8.18429519,8.72732532 L5.69339911,8.72732532 C5.30036196,8.72732532 4.98172421,8.40163688 4.98172421,8.00001157 C4.98172421,7.5983631 5.30038461,7.27274409 5.69339911,7.27274409 L8.18429519,7.27274409 C8.57730967,7.27274409 8.89597009,7.59833996 8.89597009,8.00001157 C8.89597009,8.40161374 8.57730969,8.72732532 8.18429519,8.72732532 Z M14.0556413,1.45455809 C13.9923849,1.45455809 13.9336354,1.43821812 13.8777396,1.41764273 L13.8777396,1.45455809 L13.778699,1.45455809 C13.6556512,1.23794935 13.4287614,1.09091278 13.1657023,1.09091278 L1.77919854,1.09091278 C1.3861614,1.09091278 1.06752364,1.41655493 1.06752364,1.81818026 L1.06752364,14.1818198 C1.06752364,14.5834451 1.3861614,14.9090873 1.77919854,14.9090873 L13.1656797,14.9090873 C13.5590339,14.9090873 13.877717,14.5834451 13.877717,14.1818198 L13.877717,10.1818371 L13.9134558,10.1818371 C13.8933216,10.1243001 13.877717,10.0642634 13.877717,10.0000376 C13.877717,9.69888227 14.1164518,9.45459279 14.4114675,9.45459279 C14.7061208,9.45459279 14.945218,9.69890541 14.945218,10.0000376 C14.945218,10.0642634 14.9295454,10.1243001 14.9094111,10.1818371 L14.945218,10.1818371 L14.945218,14.1818197 C14.945218,15.1857094 14.1483631,16 13.1660194,16 L1.77919854,16 C0.796447145,16 0,15.1857095 0,14.1818198 L0,1.81818023 C0,0.813943354 0.796469808,0 1.77919854,0 L13.1660647,0 C13.6097659,0 14.0111602,0.170458734 14.3214635,0.446386656 C14.4125319,0.501424111 14.4876108,0.577754449 14.5334508,0.675423946 C14.5480362,0.693870057 14.567491,0.708080738 14.5813744,0.727244337 L14.5536077,0.727244337 C14.573742,0.784781389 14.5893919,0.844424587 14.5893919,0.909066979 C14.5893919,1.21024545 14.3503173,1.45455809 14.0556413,1.45455809 Z" id="形状"></path>
            </g>
        </g>
    </g>
</svg>