<?xml version="1.0" encoding="UTF-8"?>
<svg width="16px" height="21px" viewBox="0 0 16 21" version="1.1" xmlns="http://www.w3.org/2000/svg" xmlns:xlink="http://www.w3.org/1999/xlink">
    <title>bells</title>
    <g id="页面-1" stroke="none" stroke-width="1" fill="none" fill-rule="evenodd" fill-opacity="0.65">
        <g id="首页" transform="translate(-1529.000000, -22.000000)" fill="#000000">
            <g id="bells" transform="translate(1529.000000, 22.000000)">
                <path d="M15.2335435,17.0625721 L14.6507636,17.0625721 L14.6507636,7.87498398 C14.6507636,4.49941955 12.0660907,1.7206332 8.74052791,1.35354291 L8.74052791,0.738307786 C8.74052791,0.33015055 8.40550035,0 7.99131379,0 C7.57723128,0 7.24209967,0.33015055 7.24209967,0.738307786 L7.24209967,1.35354291 C3.91656292,1.7206332 1.33186395,4.49941955 1.33186395,7.87498398 L1.33186395,17.0625721 L0.74921412,17.0625721 C0.335027556,17.0625721 0,17.392697 0,17.8007517 C0,18.2089089 0.335027556,18.5390595 0.74921412,18.5390595 L6.49301562,18.5390595 L6.49301562,19.5235126 C6.49301562,20.3396989 7.16304472,21 7.99131379,21 C8.81958286,21 9.48974203,20.3396989 9.48974203,19.5235126 L9.48974203,18.5390595 L15.2335435,18.5390595 C15.647626,18.5390595 15.9826276,18.2089089 15.9826276,17.8007517 C15.9826276,17.392697 15.647626,17.0625721 15.2335435,17.0625721 Z M13.1524655,17.0625721 L2.83029219,17.0625721 L2.83029219,7.87498398 C2.83029219,5.06548714 5.14031487,2.78909154 7.99131379,2.78909154 C10.8424428,2.78909154 13.1524655,5.06548714 13.1524655,7.87498398 L13.1524655,17.0625721 Z" id="Fill-1"></path>
            </g>
        </g>
    </g>
</svg>