<?xml version="1.0" encoding="UTF-8"?>
<svg width="19px" height="19px" viewBox="0 0 19 19" version="1.1" xmlns="http://www.w3.org/2000/svg" xmlns:xlink="http://www.w3.org/1999/xlink">
    <title>组织架构</title>
    <g id="页面-1" stroke="none" stroke-width="1" fill="none" fill-rule="evenodd">
        <g id="机构管理-默认" transform="translate(-328.000000, -413.000000)" fill-rule="nonzero">
            <g id="组织架构" transform="translate(328.000000, 413.000000)">
                <rect id="矩形" fill="#000000" opacity="0" x="0" y="0" width="19" height="19"></rect>
                <path d="M17.8125,14.25 C17.4845809,14.25 17.21875,13.9841691 17.21875,13.65625 L17.21875,9.5 C17.21875,9.17208093 16.9529191,8.90625 16.625,8.90625 L10.6875,8.90625 C10.3595809,8.90625 10.09375,8.64041907 10.09375,8.3125 L10.09375,6.305625 C10.09375,5.97770593 10.3595809,5.711875 10.6875,5.711875 L11.768125,5.711875 C12.0960441,5.711875 12.361875,5.44604407 12.361875,5.118125 L12.361875,0.59375 C12.361875,0.26583093 12.0960441,0 11.768125,0 L7.231875,0 C6.90395593,0 6.638125,0.26583093 6.638125,0.59375 L6.638125,5.118125 C6.638125,5.44604407 6.90395593,5.711875 7.231875,5.711875 L8.3125,5.711875 C8.64041907,5.711875 8.90625,5.97770593 8.90625,6.305625 L8.90625,8.3125 C8.90625,8.64041907 8.64041907,8.90625 8.3125,8.90625 L2.375,8.90625 C2.04708093,8.90625 1.78125,9.17208093 1.78125,9.5 L1.78125,13.644375 C1.78444103,13.8038946 1.72329698,13.957986 1.61159951,14.0719174 C1.49990205,14.1858488 1.34705153,14.2500319 1.1875,14.25 L0.59375,14.25 C0.26583093,14.25 0,14.5158309 0,14.84375 L0,18.40625 C0,18.7341691 0.26583093,19 0.59375,19 L4.15625,19 C4.48416907,19 4.75,18.7341691 4.75,18.40625 L4.75,14.84375 C4.75,14.5158309 4.48416907,14.25 4.15625,14.25 L3.5625,14.25 C3.23458093,14.25 2.96875,13.9841691 2.96875,13.65625 L2.96875,10.6875 C2.96875,10.3595809 3.23458093,10.09375 3.5625,10.09375 L8.3125,10.09375 C8.64041907,10.09375 8.90625,10.3595809 8.90625,10.6875 L8.90625,13.644375 C8.90944103,13.8038946 8.84829698,13.957986 8.73659951,14.0719174 C8.62490205,14.1858488 8.47205153,14.2500319 8.3125,14.25 L7.706875,14.25 C7.37895593,14.25 7.113125,14.5158309 7.113125,14.84375 L7.113125,18.40625 C7.113125,18.7341691 7.37895593,19 7.706875,19 L11.269375,19 C11.5972941,19 11.863125,18.7341691 11.863125,18.40625 L11.863125,14.84375 C11.863125,14.5158309 11.5972941,14.25 11.269375,14.25 L10.6875,14.25 C10.3595809,14.25 10.09375,13.9841691 10.09375,13.65625 L10.09375,10.6875 C10.09375,10.3595809 10.3595809,10.09375 10.6875,10.09375 L15.4375,10.09375 C15.7654191,10.09375 16.03125,10.3595809 16.03125,10.6875 L16.03125,13.644375 C16.03125,13.9722941 15.7654191,14.238125 15.4375,14.238125 L14.84375,14.238125 C14.5158309,14.238125 14.25,14.5039559 14.25,14.831875 L14.25,18.394375 C14.25,18.7222941 14.5158309,18.988125 14.84375,18.988125 L18.40625,18.988125 C18.7341691,18.988125 19,18.7222941 19,18.394375 L19,14.831875 C19,14.5039559 18.7341691,14.238125 18.40625,14.238125 L17.8125,14.25 Z" id="路径" fill="#1890FF"></path>
            </g>
        </g>
    </g>
</svg>