<?xml version="1.0" encoding="UTF-8"?>
<svg width="26px" height="24px" viewBox="0 0 26 24" version="1.1" xmlns="http://www.w3.org/2000/svg" xmlns:xlink="http://www.w3.org/1999/xlink">
    <title>更多</title>
    <g id="高保真" stroke="none" stroke-width="1" fill="none" fill-rule="evenodd">
        <g id="0030-行政审批/备案-1事项申报-1行政审批" transform="translate(-1727.000000, -177.000000)" fill="#4DA1FF" fill-rule="nonzero">
            <g id="更多" transform="translate(1727.000000, 177.000000)">
                <path d="M8.35093488,4.60791647 L23.9079518,4.60791647 C24.6561255,4.60791647 25.2626403,4.00140177 25.2626403,3.25322797 C25.2626403,2.50505417 24.6561255,1.89853947 23.9079518,1.89853947 L8.35093488,1.89853947 C7.60276109,1.89853947 6.99624642,2.50505419 6.99624642,3.25322797 C6.99624642,4.00140175 7.60276109,4.60791647 8.35093488,4.60791647 L8.35093488,4.60791647 Z M23.9079518,10.7478163 L8.35093488,10.7478163 C7.60284143,10.7479299 6.99645213,11.3544113 6.99645213,12.1025048 C6.99645213,12.8505982 7.60284143,13.4570796 8.35093488,13.4571932 L23.9079518,13.4571932 C24.6560452,13.4570796 25.2624345,12.8505982 25.2624345,12.1025048 C25.2624345,11.3544113 24.6560452,10.7479299 23.9079518,10.7478163 L23.9079518,10.7478163 Z M23.9079518,19.5968673 L8.35093488,19.5968673 C7.60276108,19.5968673 6.99624638,20.203382 6.99624638,20.9515558 C6.99624638,21.6997296 7.60276108,22.3062443 8.35093488,22.3062443 L23.9079518,22.3062443 C24.6561255,22.3062443 25.2626403,21.6997296 25.2626403,20.9515558 C25.2626403,20.203382 24.6561255,19.5968673 23.9079518,19.5968673 L23.9079518,19.5968673 Z" id="形状"></path>
                <path d="M0.910082563,3.25322797 C0.910082563,4.10826564 1.3662397,4.89835304 2.10672405,5.32587189 C2.84720839,5.75339073 3.75952273,5.75339073 4.50000708,5.32587189 C5.24049142,4.89835304 5.69664856,4.10826564 5.69664856,3.25322797 C5.69664856,1.93145427 4.62513927,0.859944969 3.30336556,0.859944969 C1.98159186,0.859944969 0.910082563,1.93145427 0.910082563,3.25322797 L0.910082563,3.25322797 Z" id="路径"></path>
                <path d="M0.910082563,12.059794 C0.910082563,12.9148317 1.3662397,13.7049191 2.10672405,14.1324379 C2.84720839,14.5599568 3.75952273,14.5599568 4.50000708,14.1324379 C5.24049142,13.7049191 5.69664856,12.9148317 5.69664856,12.059794 C5.69664856,10.7380203 4.62513927,9.66651102 3.30336556,9.66651102 C1.98159186,9.66651102 0.910082563,10.7380203 0.910082563,12.059794 Z" id="路径"></path>
                <path d="M0.910082563,20.8663601 C0.910082563,21.7213977 1.3662397,22.5114851 2.10672405,22.939004 C2.84720839,23.3665228 3.75952273,23.3665228 4.50000708,22.939004 C5.24049142,22.5114851 5.69664856,21.7213977 5.69664856,20.8663601 C5.69664856,19.5445864 4.62513927,18.4730771 3.30336556,18.4730771 C1.98159186,18.4730771 0.910082563,19.5445864 0.910082563,20.8663601 L0.910082563,20.8663601 Z" id="路径"></path>
            </g>
        </g>
    </g>
</svg>