<?xml version="1.0" encoding="UTF-8"?>
<svg width="16px" height="16px" viewBox="0 0 16 16" version="1.1" xmlns="http://www.w3.org/2000/svg" xmlns:xlink="http://www.w3.org/1999/xlink">
    <title>加备份</title>
    <g id="页面-1" stroke="none" stroke-width="1" fill="none" fill-rule="evenodd">
        <g id="机构管理-默认" transform="translate(-660.000000, -265.000000)" fill="#000000" fill-rule="nonzero">
            <g id="加备份" transform="translate(660.000000, 265.000000)">
                <path d="M14.64264,13.96112 C14.59912,14.8236 13.53856,14.63816 12.94888,14.63816 L2.83,14.63816 C2.27144,14.63816 1.52336,14.70592 1.52336,13.90416 L1.52336,11.8932 L1.52336,4.45416 L1.52336,2.29608 C1.52336,1.52832 2.1516,1.51864 2.7192,1.51864 L12.80272,1.51864 C13.3396,1.51864 14.24128,1.34768 14.56728,1.88424 C14.67376,2.05952 14.64264,2.32296 14.64264,2.52232 L14.64264,13.96112 C14.64264,14.47696 15.44264,14.47696 15.44264,13.96112 L15.44264,2.49432 C15.44264,2.246 15.44304,2.01456 15.37992,1.7692 C15.21528,1.12896 14.5664,0.71872 13.93096,0.71872 L2.33624,0.71872 C1.38232,0.71872 0.72344,1.3776 0.72344,2.33152 L0.72344,13.92648 C0.72344,14.61168 1.14352,15.1448 1.77392,15.37544 C1.99808,15.45752 2.26216,15.43816 2.49904,15.43816 L13.9656,15.43816 C14.79856,15.43816 15.40216,14.7624 15.44264,13.96112 C15.46864,13.4452 14.66856,13.44776 14.64264,13.96112 L14.64264,13.96112 Z M3.60304,8.47832 L12.56296,8.47832 C13.0788,8.47832 13.0788,7.67832 12.56296,7.67832 L3.60304,7.67832 C3.08712,7.67832 3.08712,8.47832 3.60304,8.47832 Z" id="形状"></path>
            </g>
        </g>
    </g>
</svg>