<?xml version="1.0" encoding="UTF-8"?>
<svg width="35px" height="39px" viewBox="0 0 35 39" version="1.1" xmlns="http://www.w3.org/2000/svg" xmlns:xlink="http://www.w3.org/1999/xlink">
    <title>用户名2</title>
    <g id="页面-1" stroke="none" stroke-width="1" fill="none" fill-rule="evenodd">
        <g id="登录页-密码登录" transform="translate(-1159.000000, -337.000000)" fill="#98ACC2" fill-rule="nonzero">
            <g id="用户名2" transform="translate(1159.000000, 337.000000)">
                <path d="M22.2908745,23.8116667 C32.1609632,25.3933333 35,32.2616667 35,34.775 C35,38.1983333 22.9562738,39 17.5,39 C12.0437262,39 0,38.1766667 0,34.775 C0,32.3266667 2.79467681,25.3066667 12.6647655,23.8333333 C13.2858048,23.7466667 14.1286439,21.7533333 13.5963245,21.385 C10.3580482,19.1966667 7.873891,15.405 7.873891,9.31666667 C7.873891,4.11666667 11.8662864,0 17.5,0 C23.1337136,0 27.126109,4.13833333 27.126109,9.31666667 C27.126109,15.3183333 24.508872,19.1966667 21.2705957,21.385 C20.7604563,21.7316667 21.6698352,23.725 22.2908745,23.8116667 Z" id="路径"></path>
            </g>
        </g>
    </g>
</svg>