<?xml version="1.0" encoding="UTF-8"?>
<svg width="15px" height="16px" viewBox="0 0 15 16" version="1.1" xmlns="http://www.w3.org/2000/svg" xmlns:xlink="http://www.w3.org/1999/xlink">
    <title>更多</title>
    <g id="页面-1" stroke="none" stroke-width="1" fill="none" fill-rule="evenodd">
        <g id="工作台-首页" transform="translate(-1840.000000, -335.000000)" fill-rule="nonzero">
            <g id="更多" transform="translate(1840.000000, 335.000000)">
                <rect id="矩形" fill="#000000" opacity="0" x="0" y="0" width="14.9297778" height="15.504"></rect>
                <path d="M13.6375346,7.82543869 C13.5820326,11.0422938 11.0252167,13.5950921 7.80339185,13.6504929 C4.58138238,13.7059091 2.02342817,10.9588778 1.96937215,7.82543869 C1.91388551,4.60841457 4.6650969,2.05435681 7.80339185,2.00038444 C11.0254629,1.94496829 13.5834786,4.69193814 13.6375346,7.82543869 C13.6480412,8.43391045 14.5941139,8.4349088 14.583679,7.82543869 C14.5231673,4.32185718 11.9290168,1.50890403 8.46183231,1.0896735 C4.98352593,0.66912207 1.77656107,3.25844465 1.13350365,6.61485389 C0.477278351,10.0396425 2.6818071,13.3615088 5.96691783,14.3438092 C9.3350047,15.3509147 12.827925,13.4047758 14.1304227,10.2570218 C14.4473135,9.49116392 14.5693933,8.64906272 14.583679,7.82542333 C14.5940985,7.21596857 13.6480258,7.21698228 13.6375346,7.82543869 Z M7.74262882,10.3574406 L9.9441425,8.15941006 C10.1263854,7.97744911 10.1263854,7.67342826 9.9441425,7.49146731 L7.74264421,5.29340608 C7.31088829,4.86231822 6.64192583,5.53024561 7.07368174,5.96133347 L9.27513389,8.15941006 L9.27513389,7.49148267 L7.07366636,9.68949782 C6.64191044,10.120601 7.31087291,10.7885284 7.74262882,10.3574406 L7.74262882,10.3574406 Z" id="形状" fill="#999999"></path>
            </g>
        </g>
    </g>
</svg>