<?xml version="1.0" encoding="UTF-8"?>
<svg width="29px" height="35px" viewBox="0 0 29 35" version="1.1" xmlns="http://www.w3.org/2000/svg" xmlns:xlink="http://www.w3.org/1999/xlink">
    <title>验证码_fill</title>
    <g id="页面-1" stroke="none" stroke-width="1" fill="none" fill-rule="evenodd">
        <g id="登录页-密码登录" transform="translate(-1162.000000, -521.000000)" fill="#98ACC2" fill-rule="nonzero">
            <g id="验证码_fill" transform="translate(1162.000000, 521.000000)">
                <path d="M26.5833333,5 C26.5833333,5 19.3333333,4.140625 15.7083333,0.547890625 C15.2552083,0 14.8456211,0 14.5,0 C14.1543789,0 13.7447917,0 13.2916667,0.469765625 C9.66666667,4.0625 2.41666667,5 2.41666667,5 C1.0875,5 0,6.125 0,7.5 L0,21.25 C0,25 7.25,35 14.5,35 C21.75,35 29,25 29,21.25 L29,7.5 C29,6.125 27.9125,5 26.5833333,5 Z M23.8129271,12.9141016 L13.2512253,23.84 C13.2472982,23.8441797 13.244013,23.8487109 13.2400104,23.8528125 C13.0040456,24.0969141 12.6947122,24.2189062 12.3854167,24.2187501 C12.0761211,24.2189062 11.7667878,24.0969531 11.5308229,23.8528125 C11.5268203,23.8486719 11.5235352,23.8441406 11.5196081,23.84 L5.18707292,17.2891016 C4.71540755,16.8011719 4.71540755,16.0101172 5.18707292,15.5221875 C5.65873828,15.0342578 6.42342448,15.0342578 6.89508984,15.5221875 L12.3854167,21.2018359 L22.1049102,11.1471875 C22.5765755,10.6592578 23.3412617,10.6592578 23.8129271,11.1471875 C24.2845924,11.6351172 24.2845924,12.4261719 23.8129271,12.9141016 L23.8129271,12.9141016 Z" id="形状"></path>
            </g>
        </g>
    </g>
</svg>