<?xml version="1.0" encoding="UTF-8"?>
<svg width="18px" height="17px" viewBox="0 0 18 17" version="1.1" xmlns="http://www.w3.org/2000/svg" xmlns:xlink="http://www.w3.org/1999/xlink">
    <title>计划书</title>
    <g id="页面-1" stroke="none" stroke-width="1" fill="none" fill-rule="evenodd">
        <g id="首页" transform="translate(-1239.000000, -208.000000)" fill="#595959" fill-rule="nonzero">
            <g id="计划书" transform="translate(1239.000000, 208.000000)">
                <path d="M17.8045832,4.20886547 L12.4301056,11.9482057 L12.3811615,12.0497171 L12.2833212,12.1002762 L10.2798733,12.8609483 L9.79122343,13.0639712 L9.79122343,12.5568565 L9.84057522,10.4269352 L9.84057522,10.3254483 L9.88908769,10.2243303 L15.4104456,2.38347866 L15.6061742,2.07899342 L15.8990476,2.28199179 L17.7070786,3.70179995 L18,3.90440486 L17.8045832,4.20886547 Z M16.0818986,5.61131242 L14.7628532,4.62732982 L10.5226995,10.5956046 L10.4873763,12.1316296 L11.9356045,11.5818742 L16.0818986,5.61131242 Z M15.1808327,4.03908949 L16.4936432,5.01857195 L17.0565846,4.20773429 L15.7754283,3.20184113 L15.1808327,4.03908949 Z M3.39093351,13.136367 L3.01415246,13.136367 C2.59799548,13.136367 2.26061433,12.7903722 2.26061433,12.3636699 C2.26061433,11.9369184 2.59801945,11.5909236 3.01415246,11.5909236 L3.39093351,11.5909236 C3.80706649,11.5909236 4.14447163,11.9368938 4.14447163,12.3636699 C4.14447163,12.7903722 3.80706651,13.136367 3.39093351,13.136367 Z M3.39093351,5.4090518 L3.01415246,5.4090518 C2.59799548,5.4090518 2.26061433,5.0630816 2.26061433,4.6363301 C2.26061433,4.20960322 2.59801945,3.86360841 3.01415246,3.86360841 L3.39093351,3.86360841 C3.80706649,3.86360841 4.14447163,4.20960319 4.14447163,4.6363301 C4.14447163,5.06310618 3.80706651,5.4090518 3.39093351,5.4090518 Z M3.39093351,9.27278315 L3.01415246,9.27278315 C2.59799548,9.27278315 2.26061433,8.92673918 2.26061433,8.50001229 C2.26061433,8.07326079 2.59801945,7.7272906 3.01415246,7.7272906 L3.39093351,7.7272906 C3.80706649,7.7272906 4.14447163,8.07323621 4.14447163,8.50001229 C4.14447163,8.9267146 3.80706651,9.27278315 3.39093351,9.27278315 Z M6.02830494,11.5909236 L7.53538117,11.5909236 C7.95153814,11.5909236 8.28891929,11.9368938 8.28891929,12.3636699 C8.28891929,12.7903722 7.95153814,13.136367 7.53538117,13.136367 L6.02830494,13.136367 C5.61214796,13.136367 5.27476681,12.7903722 5.27476681,12.3636699 C5.27476681,11.9369184 5.61217194,11.5909236 6.02830494,11.5909236 Z M5.27476681,4.63635469 C5.27476681,4.2096278 5.61217194,3.863633 6.02830494,3.863633 L11.3031197,3.863633 C11.7192527,3.863633 12.0566818,4.20962777 12.0566818,4.63635469 C12.0566818,5.06310618 11.7192527,5.40907638 11.3031197,5.40907638 L6.02830494,5.40907638 C5.61217194,5.4090518 5.27476681,5.06310618 5.27476681,4.63635469 Z M8.66572432,9.27278315 L6.02830494,9.27278315 C5.61214796,9.27278315 5.27476681,8.92673918 5.27476681,8.50001229 C5.27476681,8.07326079 5.61217194,7.7272906 6.02830494,7.7272906 L8.66572432,7.7272906 C9.0818573,7.7272906 9.41926244,8.07323621 9.41926244,8.50001229 C9.41926244,8.9267146 9.08185732,9.27278315 8.66572432,9.27278315 Z M14.8824438,1.54546797 C14.8154663,1.54546797 14.753261,1.52810676 14.6940772,1.5062454 L14.6940772,1.54546797 L14.5892107,1.54546797 C14.4589248,1.31532118 14.2186885,1.15909483 13.9401554,1.15909483 L1.88385728,1.15909483 C1.4677003,1.15909483 1.13031915,1.50508961 1.13031915,1.93181652 L1.13031915,15.0681835 C1.13031915,15.4949104 1.4677003,15.8409052 1.88385728,15.8409052 L13.9401314,15.8409052 C14.3566241,15.8409052 14.6940533,15.4949104 14.6940533,15.0681835 L14.6940533,10.8182019 L14.7318944,10.8182019 C14.7105758,10.7570688 14.6940533,10.6932799 14.6940533,10.62504 C14.6940533,10.3050624 14.9468313,10.0455048 15.2592008,10.0455048 C15.5711867,10.0455048 15.8243484,10.305087 15.8243484,10.62504 C15.8243484,10.6932799 15.8077539,10.7570688 15.7864353,10.8182019 L15.8243484,10.8182019 L15.8243484,15.0681835 C15.8243484,16.1348163 14.9806198,17 13.9404912,17 L1.88385728,17 C0.843296977,17 0,16.1348163 0,15.0681835 L0,1.9318165 C0,0.864814814 0.843320974,0 1.88385728,0 L13.9405391,0 C14.4103404,0 14.8353461,0.181112405 15.1639025,0.474285822 C15.2603279,0.532763118 15.3398232,0.613864102 15.3883596,0.717637943 C15.4038031,0.737236935 15.4244023,0.752335784 15.4391023,0.772697108 L15.4097023,0.772697108 C15.4310209,0.833830226 15.4475914,0.897201124 15.4475914,0.965883665 C15.4475914,1.28588579 15.1944536,1.54546797 14.8824438,1.54546797 Z" id="形状"></path>
            </g>
        </g>
    </g>
</svg>