<?xml version="1.0" encoding="UTF-8"?>
<svg width="18px" height="16px" viewBox="0 0 18 16" version="1.1" xmlns="http://www.w3.org/2000/svg" xmlns:xlink="http://www.w3.org/1999/xlink">
    <title>形状结合</title>
    <g id="页面-1" stroke="none" stroke-width="1" fill="none" fill-rule="evenodd">
        <g id="工作台-首页" transform="translate(-294.000000, -190.000000)" fill="#595959" fill-rule="nonzero">
            <path d="M311.699575,191.042414 L311.695112,191.090971 C311.693906,191.100007 311.692455,191.10902 311.690756,191.118 L311.689507,191.123917 L309.090005,203.954439 C309.037062,204.215752 308.792652,204.38448 308.538864,204.352035 L308.45417,204.33362 L304.450472,203.094571 C304.187093,203.013061 304.039338,202.732433 304.120452,202.467771 C304.192554,202.232515 304.421221,202.089062 304.656126,202.117335 L304.744213,202.136143 L308.221796,203.212301 L310.326,192.822328 L303.326872,201.046662 C303.128109,201.280203 303.006095,201.568306 302.97529,201.871628 L302.967555,202.024375 L302.967555,205.019902 C302.967555,205.296832 302.744148,205.521328 302.468561,205.521328 C302.223594,205.521328 302.019856,205.343948 301.977606,205.110034 L301.969566,205.019902 L301.969566,202.024375 C301.969566,201.493237 302.13737,200.977621 302.4461,200.550664 L302.568428,200.394853 L309.139,192.673328 L296.493427,199.334273 L300.658262,200.653897 C300.891893,200.727914 301.033125,200.958645 301.003427,201.1945 L300.984125,201.28289 C300.910467,201.517659 300.680855,201.65958 300.446143,201.629737 L300.358182,201.610341 L295.049021,199.928339 C294.655897,199.803793 294.583496,199.293775 294.889968,199.055775 L294.967445,199.00598 L310.968927,190.579747 L311.000904,190.564213 C311.01556,190.557798 311.030475,190.552116 311.045591,190.547171 L310.968927,190.579747 C311.103368,190.508951 311.24558,190.506232 311.368486,190.551141 C311.377559,190.554819 311.386724,190.558414 311.395804,190.562296 C311.41306,190.569529 311.429659,190.57785 311.44575,190.587043 C311.453221,190.59131 311.460721,190.595834 311.46813,190.600577 C311.484146,190.61088 311.499465,190.621951 311.514134,190.633837 C311.517824,190.636844 311.521361,190.6398 311.524867,190.642814 L311.538501,190.654879 C311.552758,190.667994 311.566284,190.681929 311.578991,190.696615 L311.524867,190.642814 C311.55037,190.664731 311.573131,190.688672 311.593118,190.7142 C311.658758,190.796596 311.699164,190.901037 311.700053,191.016209 C311.699546,191.020236 311.699561,191.023928 311.699535,191.027621 L311.699575,191.042414 L311.699575,191.042414 Z" id="形状结合"></path>
        </g>
    </g>
</svg>