<?xml version="1.0" encoding="UTF-8"?>
<svg width="16px" height="14px" viewBox="0 0 16 14" version="1.1" xmlns="http://www.w3.org/2000/svg" xmlns:xlink="http://www.w3.org/1999/xlink">
    <title>图表-柱状图</title>
    <g id="页面-1" stroke="none" stroke-width="1" fill="none" fill-rule="evenodd">
        <g id="首页" transform="translate(-1240.000000, -712.000000)" fill="#595959" fill-rule="nonzero">
            <g id="图表-柱状图" transform="translate(1240.000000, 712.000000)">
                <path d="M15.4074074,14 L0.592592593,14 C0.265312741,14 0,13.7376412 0,13.4140053 L0,1.69411075 C0,1.3704748 0.265312741,1.10811603 0.592592593,1.10811603 C0.919872444,1.10811603 1.18518519,1.3704748 1.18518519,1.69411075 L1.18518519,12.8280105 L15.4074074,12.8280105 C15.7346873,12.8280105 16,13.0903693 16,13.4140053 C16,13.7376412 15.7346873,14 15.4074074,14 Z M7.14814815,11.3659537 C6.8208683,11.3659537 6.55555556,11.1035949 6.55555556,10.779959 L6.55555556,4.01289189 C6.55555556,3.68925593 6.8208683,3.42689716 7.14814815,3.42689716 C7.475428,3.42689716 7.74074074,3.68925593 7.74074074,4.01289189 L7.74074074,10.779959 C7.74074074,11.1035949 7.475428,11.3659537 7.14814815,11.3659537 Z M3.59259259,11.3735716 C3.26531274,11.3735716 3,11.1112129 3,10.7875769 L3,6.96806329 C3,6.64442734 3.26531274,6.38206856 3.59259259,6.38206856 C3.91987244,6.38206856 4.18518519,6.64442734 4.18518519,6.96806329 L4.18518519,10.7875769 C4.18518519,11.1112129 3.91987244,11.3735716 3.59259259,11.3735716 Z M14.2592593,11.3753296 C13.9319794,11.3753296 13.6666667,11.1129708 13.6666667,10.7893349 L13.6666667,0.585994728 C13.6666667,0.262358777 13.9319794,1.49139545e-09 14.2592593,1.49139545e-09 C14.5865391,1.49139545e-09 14.8518519,0.262358777 14.8518519,0.585994728 L14.8518519,10.7893349 C14.8518519,11.1129708 14.5865391,11.3753296 14.2592593,11.3753296 Z M10.7037037,11.3765016 C10.3764239,11.3765016 10.1111111,11.1141428 10.1111111,10.7905069 L10.1111111,1.69411075 C10.1111111,1.3704748 10.3764239,1.10811603 10.7037037,1.10811603 C11.0309836,1.10811603 11.2962963,1.3704748 11.2962963,1.69411075 L11.2962963,10.7905069 C11.2962963,11.1141428 11.0309836,11.3765016 10.7037037,11.3765016 Z" id="形状"></path>
            </g>
        </g>
    </g>
</svg>