<?xml version="1.0" encoding="UTF-8"?>
<svg width="18px" height="17px" viewBox="0 0 18 17" version="1.1" xmlns="http://www.w3.org/2000/svg" xmlns:xlink="http://www.w3.org/1999/xlink">
    <title>预警</title>
    <g id="页面-1" stroke="none" stroke-width="1" fill="none" fill-rule="evenodd">
        <g id="首页" transform="translate(-306.000000, -711.000000)" fill="#595959" fill-rule="nonzero">
            <g id="预警" transform="translate(306.000000, 711.000000)">
                <path d="M14.3571429,15.5649812 L14.3618524,6.95250036 C14.3618524,5.49380137 13.7919937,4.11798301 12.7582418,3.07842318 C11.7244898,2.03886336 10.3822606,1.46580303 8.93171116,1.46580303 C7.48116171,1.46580303 6.11302985,2.03886336 5.07927787,3.07842318 C4.04552592,4.11798299 3.4756672,5.49380137 3.4756672,6.95250036 L3.48273156,15.5626132 L2.02982734,15.5649812 L2.01569861,6.95486837 C2.01569861,6.01950133 2.19937208,5.11018248 2.56200945,4.250592 C2.91051809,3.42415378 3.40973315,2.68059618 4.04552592,2.04123137 C4.6813187,1.40186655 5.42072215,0.899846784 6.24254318,0.54938014 C7.09497646,0.184705394 7.99921508,0 8.92935636,0 C9.85949764,0 10.7378336,0.184705394 11.5902669,0.54938014 C12.4120879,0.899846784 13.1514913,1.40186655 13.7872841,2.04123137 C14.4230769,2.68059618 14.922292,3.42415378 15.2708006,4.250592 C15.633438,5.10781445 15.8171114,6.0171333 15.8171114,6.95013232 L15.8171114,15.5602452 L14.3571429,15.5649812 Z M17.2700157,17 L0.729984307,17 C0.327315554,17 0,16.6708455 0,16.2659145 C0,15.8609834 0.327315531,15.5318289 0.70408164,15.5318289 L17.244113,15.5318289 C17.6726844,15.5318289 18,15.8609834 18,16.2659145 C18,16.6708455 17.6726844,17 17.2700157,17 Z M11.2229199,8.52249617 L9.36734692,8.52249617 L9.36734692,4.46608163 L6.7276295,9.44602311 L8.64913656,9.44602311 L8.64913656,13.3177323 L11.2229199,8.52249617 Z" id="形状"></path>
            </g>
        </g>
    </g>
</svg>