<?xml version="1.0" encoding="UTF-8"?>
<svg width="18px" height="18px" viewBox="0 0 18 18" version="1.1" xmlns="http://www.w3.org/2000/svg" xmlns:xlink="http://www.w3.org/1999/xlink">
    <title>后台管理-机构分布</title>
    <g id="页面-1" stroke="none" stroke-width="1" fill="none" fill-rule="evenodd">
        <g id="首页-监管二处-担保" transform="translate(-1213.000000, -1166.000000)" fill="#595959" fill-rule="nonzero">
            <g id="后台管理-机构分布" transform="translate(1213.000000, 1166.000000)">
                <path d="M3.03265288,2.52646417 L1.47184926,2.68132659 C1.18312327,2.68478677 0.921210549,2.80188969 0.730666695,2.98924516 C0.536145177,3.18051174 0.415926543,3.44476032 0.415926543,3.7366315 L0.415926543,3.7366315 L0.415926543,16.5376501 C0.415926543,16.8287605 0.535948359,17.0935763 0.730927458,17.2852928 C0.923909271,17.4750454 1.19032496,17.5930338 1.48501619,17.5930338 L1.48501619,17.5930338 L16.5149783,17.5930338 C16.8089031,17.5930338 17.0758915,17.4752359 17.2693278,17.2850364 C17.4638493,17.0937698 17.5840679,16.8295212 17.5840679,16.5376501 L17.5840679,16.5376501 L17.5840679,3.7366315 C17.5840679,3.44552102 17.4640461,3.18070526 17.269067,2.98898876 L17.269067,2.98898876 L17.267,2.987 L17.341812,3.02167619 C17.5265209,3.11081288 17.59014,3.16580232 17.627971,3.22845927 L17.6411349,3.25239671 L17.7500009,16.5383355 C17.7509164,16.8722165 17.613448,17.1743253 17.3915307,17.3931818 C17.1678176,17.6138092 16.8583891,17.75 16.517198,17.75 L16.517198,17.75 L1.48501619,17.75 C1.1439299,17.75 0.834599298,17.6138965 0.610628449,17.3936734 C0.388198699,17.1749656 0.25,16.8731036 0.25,16.5398327 L0.25,16.5398327 L0.25,3.7366315 C0.25,3.40336054 0.388198699,3.10149858 0.610628449,2.88279076 C0.834599298,2.66256762 1.1439299,2.52646417 1.48501619,2.52646417 L1.48501619,2.52646417 L3.03265288,2.52646417 Z" id="路径" stroke="#595959" stroke-width="0.5"></path>
                <path d="" id="路径" stroke="#595959" stroke-width="0.5"></path>
                <path d="M12.3196411,0.25 C13.2094959,0.25 14.0163138,0.614254083 14.600752,1.20195376 C15.1856928,1.79015895 15.5479974,2.60224434 15.5479974,3.49776786 C15.5479974,4.26989365 14.9913143,5.20497786 13.9501146,6.29613924 C13.3291371,6.94674602 12.7153176,7.45582903 12.4754128,7.64765741 C11.84823,7.39653767 11.2732834,6.90812557 10.6890235,6.29598843 C9.64786626,5.20697396 9.09128474,4.26984012 9.09128474,3.49776786 C9.09128474,2.60224434 9.4535893,1.79015895 10.0385301,1.20195376 C10.6229683,0.614254083 11.4297862,0.25 12.3196411,0.25 Z M12.3218608,0.404783558 C11.4778777,0.404783558 10.7130718,0.742628817 10.1590604,1.28736991 C9.60311615,1.83401153 9.25943104,2.58879289 9.25943104,3.42015278 C9.25943104,4.07189362 9.77437302,4.98438174 10.8111593,6.04590633 C11.3463294,6.59432453 11.8838254,7.04512327 12.479708,7.27168064 C13.4712535,6.48297972 15.3865103,4.64571621 15.3865103,3.42015278 C15.3852987,2.58841724 15.0409436,1.83364022 14.4846221,1.28705908 C13.9303492,0.742490738 13.1656746,0.404783558 12.3218608,0.404783558 Z" id="形状" stroke="#595959" stroke-width="0.5"></path>
                <path d="M12.3218608,5.28846853 C11.2941142,5.28846853 10.4572665,4.46562386 10.4572665,3.45507457 C10.4572665,2.44452528 11.2941142,1.62168061 12.3218608,1.62168061 C13.3496074,1.62168061 14.1864551,2.44452528 14.1864551,3.45507457 C14.1864551,4.46562386 13.3496074,5.28846853 12.3218608,5.28846853 Z M12.3218608,2.27646417 C11.6603738,2.27646417 11.123193,2.80465624 11.123193,3.45507457 C11.123193,4.10549291 11.6603738,4.63368498 12.3218608,4.63368498 C12.9833478,4.63368498 13.5205286,4.10549291 13.5205286,3.45507457 C13.5205286,2.80683885 12.9833478,2.27646417 12.3218608,2.27646417 Z" id="形状"></path>
            </g>
        </g>
    </g>
</svg>