<?xml version="1.0" encoding="UTF-8"?>
<svg width="18px" height="18px" viewBox="0 0 18 18" version="1.1" xmlns="http://www.w3.org/2000/svg" xmlns:xlink="http://www.w3.org/1999/xlink">
    <title>消息</title>
    <g id="页面-1" stroke="none" stroke-width="1" fill="none" fill-rule="evenodd">
        <g id="首页-监管二处-担保" transform="translate(-1182.000000, -514.000000)" fill-rule="nonzero">
            <g id="消息" transform="translate(1182.000000, 514.000000)">
                <rect id="矩形" fill="#000000" opacity="0" x="0" y="0" width="18" height="18"></rect>
                <path d="M13.6363636,15.2727273 C13.6363636,15.1090909 13.7454546,15 13.9090909,15 L16.6363636,15 C16.8,15 16.9090909,15.1090909 16.9090909,15.2727273 C16.9090909,15.4363636 16.8,15.5454545 16.6363636,15.5454545 L13.9090909,15.5454545 C13.7454545,15.5454545 13.6363636,15.4363636 13.6363636,15.2727273 L13.6363636,15.2727273 Z M16.6363636,15.8181818 L13.9090909,15.8181818 C13.5818182,15.8181818 13.3636364,15.6 13.3636364,15.2727273 C13.3636364,14.9454545 13.5818182,14.7272727 13.9090909,14.7272727 L16.6363636,14.7272727 C16.9636364,14.7272727 17.1818182,14.9454545 17.1818182,15.2727273 C17.1818182,15.6 16.9636364,15.8181818 16.6363636,15.8181818 Z M13.6363636,15.3201882 L13.9090909,15.3201882 L13.6363636,15.3201882 Z M1.09090909,15.2727273 C1.09090909,15.1090909 1.20000001,15 1.36363637,15 L4.09090909,15 C4.25454546,15 4.36363636,15.1090909 4.36363636,15.2727273 C4.36363636,15.4363636 4.25454544,15.5454545 4.09090909,15.5454545 L1.36363637,15.5454545 C1.20000001,15.5454545 1.09090909,15.4363636 1.09090909,15.2727273 Z M4.0909091,15.8181818 L1.36363637,15.8181818 C1.03636364,15.8181818 0.818181826,15.6 0.818181826,15.2727273 C0.818181826,14.9454545 1.03636364,14.7272727 1.36363637,14.7272727 L4.0909091,14.7272727 C4.41818183,14.7272727 4.63636364,14.9454545 4.63636364,15.2727273 C4.63636364,15.6 4.41818183,15.8181818 4.0909091,15.8181818 L4.0909091,15.8181818 Z M1.09090909,15.3201882 L1.36363637,15.3201882 L1.09090909,15.3201882 Z M7.09090908,17.4545455 C7.09090908,17.2909091 7.2,17.1818182 7.36363637,17.1818182 L10.6363636,17.1818182 C10.8,17.1818182 10.9090909,17.2909091 10.9090909,17.4545455 C10.9090909,17.6181818 10.8,17.7272727 10.6363636,17.7272727 L7.36363637,17.7272727 C7.2,17.7272727 7.09090908,17.6181818 7.09090908,17.4545455 Z M10.6363636,18 L7.36363637,18 C7.03636363,18 6.81818182,17.7818182 6.81818182,17.4545455 C6.81818182,17.1272727 7.03636363,16.9090909 7.36363637,16.9090909 L10.6363636,16.9090909 C10.9636364,16.9090909 11.1818182,17.1272727 11.1818182,17.4545455 C11.1818182,17.7818182 10.9636364,18 10.6363636,18 Z M7.09090908,17.5020064 L7.36363637,17.5020064 L7.09090908,17.5020064 Z M9,0.272727281 C9.16363637,0.272727281 9.27272728,0.381818197 9.27272728,0.545454545 L9.27272728,1.63636363 C9.27272728,1.8 9.16363637,1.90909092 9,1.90909092 C8.83636363,1.90909092 8.72727272,1.8 8.72727272,1.63636363 L8.72727272,0.545454545 C8.72727272,0.38181818 8.83636363,0.272727281 9,0.272727281 L9,0.272727281 Z M9,2.18181818 C8.67272727,2.18181818 8.45454546,1.96363637 8.45454546,1.63636363 L8.45454546,0.545454545 C8.45454546,0.218181814 8.67272727,0 9,0 C9.32727273,0 9.54545454,0.218181814 9.54545454,0.545454545 L9.54545454,1.63636363 C9.54545454,1.96363637 9.32727273,2.18181818 9,2.18181818 Z M9.04746094,0.272727281 L9.04746094,0.545454545 L9.04746094,0.272727281 Z M15.5454545,15.8181818 L2.45454546,15.8181818 L2.45454546,8.18181817 C2.45454546,4.58181817 5.4,1.63636363 9,1.63636363 C12.6,1.63636363 15.5454545,4.58181817 15.5454545,8.18181817 L15.5454545,15.8181818 Z M3.54545455,14.7272727 L14.4545454,14.7272727 L14.4545454,8.18181817 C14.4545454,5.18181817 12,2.72727272 9,2.72727272 C6.00000001,2.72727272 3.54545455,5.18181819 3.54545455,8.18181817 L3.54545455,14.7272727 Z" id="形状" fill="#595959"></path>
            </g>
        </g>
    </g>
</svg>