<?xml version="1.0" encoding="UTF-8"?>
<svg width="16px" height="13px" viewBox="0 0 16 13" version="1.1" xmlns="http://www.w3.org/2000/svg" xmlns:xlink="http://www.w3.org/1999/xlink">
    <title>错误列表备份</title>
    <g id="页面-1" stroke="none" stroke-width="1" fill="none" fill-rule="evenodd">
        <g id="机构管理-默认" transform="translate(-560.000000, -329.000000)" fill="#A7A7A7" fill-rule="nonzero">
            <g id="错误列表备份" transform="translate(560.000000, 329.000000)">
                <path d="M15.3308935,7.15006556 L5.24277815,7.15006556 C4.8730198,7.15006556 4.57378104,6.85934421 4.57378104,6.50007087 C4.57378104,6.14108103 4.87301978,5.85004074 5.24277815,5.85004074 L15.3308935,5.85004074 C15.7007977,5.85004074 16,6.1410633 16,6.50007087 C16,6.85934421 15.7007977,7.15006556 15.3308935,7.15006556 L15.3308935,7.15006556 Z M15.3308935,1.95003721 L5.24277815,1.95003721 C4.8730198,1.95003721 4.57378104,1.65899693 4.57378104,1.30002482 C4.57378104,0.941070416 4.87301978,0.650030129 5.24277815,0.650030129 L15.3308935,0.650030129 C15.7007977,0.650030129 16,0.941070416 16,1.30002482 C16,1.65899693 15.7007977,1.95003721 15.3308935,1.95003721 L15.3308935,1.95003721 Z M1.33810364,13 C0.599170488,13 0,12.4179372 0,11.7000815 C0,10.9821195 0.59917047,10.4000921 1.33810364,10.4000921 C2.07696385,10.4000921 2.67611609,10.9821373 2.67611609,11.7000815 C2.67611609,12.4179549 2.07696384,13 1.33810364,13 L1.33810364,13 Z M1.33810364,7.80006024 C0.599170488,7.80006024 0,7.21790882 0,6.5000886 C0,5.7820912 0.59917047,5.20004607 1.33810364,5.20004607 C2.07696385,5.20004607 2.67611609,5.7820912 2.67611609,6.5000886 C2.67611609,7.21789109 2.07696384,7.80006024 1.33810364,7.80006024 L1.33810364,7.80006024 Z M1.33810364,2.60001417 C0.599170488,2.60001417 0,2.01796904 0,1.3000248 C0,0.582062844 0.59917047,0 1.33810364,0 C2.07696385,0 2.67611609,0.582045131 2.67611609,1.3000248 C2.67611609,2.01798677 2.07696384,2.60001417 1.33810364,2.60001417 L1.33810364,2.60001417 Z M5.24277815,11.0499982 L15.3308935,11.0499982 C15.7007977,11.0499982 16,11.3407373 16,11.7000106 C16,12.059284 15.7007977,12.350023 15.3308935,12.350023 L5.24277815,12.350023 C4.8730198,12.350023 4.57378104,12.059284 4.57378104,11.7000106 C4.57378104,11.3407373 4.87300157,11.0499982 5.24277815,11.0499982 L5.24277815,11.0499982 Z" id="形状"></path>
            </g>
        </g>
    </g>
</svg>