<?xml version="1.0" encoding="UTF-8"?>
<svg width="15px" height="15px" viewBox="0 0 15 15" version="1.1" xmlns="http://www.w3.org/2000/svg" xmlns:xlink="http://www.w3.org/1999/xlink">
    <title>刷新</title>
    <g id="页面-1" stroke="none" stroke-width="1" fill="none" fill-rule="evenodd">
        <g id="机构管理-默认" transform="translate(-588.000000, -328.000000)" fill="#A7A7A7" fill-rule="nonzero">
            <g id="刷新" transform="translate(588.000000, 328.000000)">
                <path d="M15,5.76730736 L10.3850071,5.65192878 L12.4525239,3.59472871 C11.2685751,2.05836615 9.44021698,1.15651147 7.50063661,1.15216419 C4.37603943,1.13742212 1.70573432,3.39957006 1.20657651,6.48417475 C0.707418712,9.56877943 2.52798426,12.5576977 5.4977524,13.529224 C8.46752055,14.5007504 11.7025296,13.1657067 13.1228517,10.3824505 L14.4231259,10.3824505 C13.1273532,13.495026 9.91385378,15.3602854 6.56852138,14.9416157 C3.22318897,14.5229461 0.568441121,11.9232733 0.0796469195,8.58735859 C-0.409147282,5.25144389 1.38817748,1.99938958 4.47276271,0.638516227 C7.55734795,-0.722357125 11.1708783,0.142507995 13.3051439,2.75246508 L14.9111614,1.15216419 L15,5.76730736 Z" id="路径"></path>
            </g>
        </g>
    </g>
</svg>