<?xml version="1.0" encoding="UTF-8"?>
<svg width="24px" height="24px" viewBox="0 0 24 24" version="1.1" xmlns="http://www.w3.org/2000/svg" xmlns:xlink="http://www.w3.org/1999/xlink">
    <title>置顶推荐top</title>
    <g id="页面-1" stroke="none" stroke-width="1" fill="none" fill-rule="evenodd">
        <g id="首页-监管二处-担保" transform="translate(-1783.000000, -553.000000)" fill-rule="nonzero">
            <g id="置顶推荐top" transform="translate(1783.000000, 553.000000)">
                <polygon id="路径" fill="#FE5F45" points="24 11.2869346 12.7025484 0 0 0 24 24"></polygon>
                <path d="M13.5467972,5.07156049 L12.3509997,3.85921698 L8.89552538,7.3724133 L8,6.46446276 L11.4554744,2.95126645 L10.2623576,1.74160874 L10.9918216,1 L14.2763317,4.32991597 L13.5467972,5.07156049 Z M12.4893372,6.87958316 C13.144906,6.21303415 13.8701373,5.86484441 14.6650311,5.83494227 C15.4598544,5.80511177 16.172035,6.10925405 16.8015023,6.74744079 C17.4003181,7.35454363 17.6833068,8.04562314 17.6505037,8.82064348 C17.6177006,9.59566382 17.2888228,10.3008528 16.663835,10.9362821 C16.0117935,11.5992142 15.2928406,11.9446465 14.5070823,11.9726149 C13.7212181,12.0006548 13.0207832,11.7028511 12.4057775,11.079311 C11.8051628,10.4703818 11.5139909,9.77564958 11.532403,8.9952218 C11.5507445,8.21472239 11.8697461,7.50956919 12.4893372,6.87958316 L12.4893372,6.87958316 Z M13.4768172,7.78191139 C13.069741,8.19581423 12.8352515,8.633782 12.7734194,9.09585055 C12.7115167,9.55795492 12.8520058,9.96272594 13.194675,10.3101637 C13.5445751,10.6649068 13.9407522,10.8152053 14.3832064,10.7608443 C14.8256254,10.7065549 15.2558049,10.4670156 15.6736744,10.0421546 C16.1095327,9.59903004 16.3593303,9.15278993 16.4229966,8.70347008 C16.4866628,8.25418604 16.3462443,7.85489406 16.0017409,7.50562999 C15.6518056,7.15085101 15.2466341,7.00338158 14.7861558,7.06322167 C14.3256775,7.12299012 13.8892195,7.36260112 13.4768172,7.78191139 L13.4768172,7.78191139 Z M17.8779034,13.5167109 L16.4190108,15 L15.5262014,14.0948069 L19.7111044,9.84000184 L21.153137,11.3019834 C22.1956415,12.3589075 22.2756388,13.3361164 21.3931289,14.2333236 C20.9644661,14.6692144 20.4634953,14.8589049 19.8903224,14.8025743 C19.3170789,14.7462795 18.799636,14.4730421 18.3378879,13.9829693 L17.8779034,13.5167109 Z M19.912297,11.4483427 L18.561443,12.8217638 L18.9483435,13.214001 C19.4732289,13.7461158 19.9634416,13.7805659 20.4191582,13.3172798 C20.8639756,12.8649877 20.8267635,12.375488 20.3072748,11.8488523 L19.912297,11.4483427 L19.912297,11.4483427 Z" id="形状" fill="#FFFFFF"></path>
            </g>
        </g>
    </g>
</svg>