<?xml version="1.0" encoding="UTF-8"?>
<svg width="20px" height="18px" viewBox="0 0 20 18" version="1.1" xmlns="http://www.w3.org/2000/svg" xmlns:xlink="http://www.w3.org/1999/xlink">
    <!-- Generator: Sketch 63.1 (92452) - https://sketch.com -->
    <title>1非法集资案件管理-1台账管理-1案件维护管理-1行政案件-3案件导入-a</title>
    <desc>Created with Sketch.</desc>
    <g id="页面-1" stroke="none" stroke-width="1" fill="none" fill-rule="evenodd">
        <g id="1非法集资案件管理-1台账管理-1案件维护管理-1行政案件-3案件导入" transform="translate(-199.000000, -677.000000)" fill="#999999" fill-rule="nonzero">
            <path d="M208.999968,677 C209.987227,677 210.890049,677.527662 211.404918,678.397737 L218.578314,690.50541 C219.11275,691.40749 219.140896,692.539733 218.653,693.468201 C218.159831,694.409748 217.209507,695 216.173343,695 L201.826572,695 C200.790388,695 199.840085,694.409748 199.34746,693.46924 C198.85902,692.539733 198.887187,691.40749 199.421601,690.50541 L206.594767,678.39814 C207.109867,677.527641 208.012709,677 208.999968,677 Z M208.999968,678.736335 C208.620387,678.736335 208.273178,678.939261 208.06492,679.29117 L200.891545,691.398822 C200.66686,691.778051 200.654848,692.261605 200.861286,692.654443 C201.05973,693.033312 201.430585,693.263665 201.826572,693.263665 L216.173343,693.263665 C216.569331,693.263665 216.940186,693.033312 217.139173,692.653447 C217.345088,692.261605 217.333055,691.778073 217.108391,691.398843 L209.934765,679.290788 C209.726758,678.939261 209.37955,678.736335 208.999968,678.736335 Z M208.999968,689.015049 C209.631292,689.015049 210.143065,689.554962 210.143065,690.220988 C210.143065,690.886993 209.631292,691.426927 208.999968,691.426927 C208.368644,691.426927 207.856871,690.886993 207.856871,690.220988 C207.856871,689.554962 208.368644,689.015049 208.999968,689.015049 L208.999968,689.015049 Z M208.999968,682.877999 C209.473278,682.877999 209.857296,683.283108 209.857296,683.782453 L209.857296,687.205928 C209.857296,687.705273 209.473299,688.110383 208.999947,688.110383 C208.526637,688.110383 208.14264,687.705273 208.14264,687.20595 L208.14264,683.782453 C208.14264,683.283108 208.526637,682.877999 208.999968,682.877999 L208.999968,682.877999 Z" id="1非法集资案件管理-1台账管理-1案件维护管理-1行政案件-3案件导入-a"></path>
        </g>
    </g>
</svg>