<?xml version="1.0" encoding="UTF-8"?>
<svg width="16px" height="16px" viewBox="0 0 16 16" version="1.1" xmlns="http://www.w3.org/2000/svg" xmlns:xlink="http://www.w3.org/1999/xlink">
    <!-- Generator: Sketch 63.1 (92452) - https://sketch.com -->
    <title>1非法集资案件管理-1台账管理-1案件维护管理-1刑事案件-5推送国家平台(仅省级)-1成功</title>
    <desc>Created with Sketch.</desc>
    <g id="页面-1" stroke="none" stroke-width="1" fill="none" fill-rule="evenodd">
        <g id="1非法集资案件管理-1台账管理-1案件维护管理-1刑事案件-5推送国家平台(仅省级)" transform="translate(-203.000000, -484.000000)" fill-rule="nonzero">
            <g id="1非法集资案件管理-1台账管理-1案件维护管理-1刑事案件-5推送国家平台(仅省级)-1成功" transform="translate(203.000000, 484.000000)">
                <path d="M8,0 C3.57818181,0 0,3.57818181 0,8 C0,12.4218182 3.57818181,16 8,16 C12.4218182,16 16,12.4218182 16,8 C16,3.57818181 12.4218182,0 8,0 Z" id="形状" fill="#409EFF"></path>
                <path d="M4.68504154,4.29783472 C5.01139162,4.29783472 5.281568,4.53834291 5.32799387,4.85178248 L5.33504154,4.94783472 L5.335,8.261 L11.3149585,8.26104623 C11.6413085,8.26104623 11.9114849,8.50155442 11.9579108,8.81499399 L11.9649585,8.91104623 C11.9649585,9.23739631 11.7244503,9.50757269 11.4110107,9.55399856 L11.3149585,9.56104623 L4.68504154,9.56104623 C4.35869146,9.56104623 4.08851508,9.32053804 4.04208921,9.00709847 L4.03504154,8.91104623 L4.03504154,4.94783472 C4.03504154,4.58884963 4.32605645,4.29783472 4.68504154,4.29783472 Z" id="路径" fill="#FFFFFF" transform="translate(8.000000, 6.929440) rotate(-45.000000) translate(-8.000000, -6.929440) "></path>
            </g>
        </g>
    </g>
</svg>