<?xml version="1.0" encoding="UTF-8"?>
<svg width="16px" height="16px" viewBox="0 0 16 16" version="1.1" xmlns="http://www.w3.org/2000/svg" xmlns:xlink="http://www.w3.org/1999/xlink">
    <!-- Generator: Sketch 63.1 (92452) - https://sketch.com -->
    <title>1非法集资案件管理-1台账管理-1案件维护管理-1刑事案件-5推送国家平台(仅省级)-3更新</title>
    <desc>Created with Sketch.</desc>
    <g id="页面-1" stroke="none" stroke-width="1" fill="none" fill-rule="evenodd">
        <g id="1非法集资案件管理-1台账管理-1案件维护管理-1刑事案件-5推送国家平台(仅省级)" transform="translate(-203.000000, -592.000000)">
            <g id="1非法集资案件管理-1台账管理-1案件维护管理-1刑事案件-5推送国家平台(仅省级)-3更新" transform="translate(203.000000, 592.000000)">
                <circle id="椭圆形备份-15" fill="#2ACCA8" cx="8" cy="8" r="8"></circle>
                <path d="M3.7878125,5.781875 C3.7878125,5.781875 4.6409375,4.466875 5.99109375,3.76125 C7.34109375,3.05578125 9.00453125,3.25890625 10.0953125,3.943125 C11.18625,4.6271875 11.5532813,5.20453125 11.5532813,5.20453125 L12.493125,4.67 C12.493125,4.67 12.6875,4.57375 12.6875,4.79828125 L12.6875,8.155 C12.6875,8.155 12.6875,8.45453125 12.460625,8.3475 C12.2696875,8.25765625 10.2060938,7.08578125 9.5559375,6.7159375 C9.19875,6.556875 9.5125,6.42765625 9.5125,6.42765625 L10.4192188,5.91015625 C10.4192188,5.91015625 9.90203125,5.263125 9.145,4.920625 C8.33453125,4.4990625 7.57609375,4.4490625 6.64671875,4.799375 C6.04078125,5.0278125 5.3275,5.61265625 4.8134375,6.47671875 L3.7878125,5.781875 Z M12.2123438,10.2182813 C12.2123438,10.2182813 11.3590625,11.5332813 10.0090625,12.23875 C8.65890625,12.944375 6.995625,12.74125 5.90484375,12.0570313 C4.81390625,11.3728125 4.44671875,10.7954688 4.44671875,10.7954688 L3.5071875,11.3298438 C3.5071875,11.3298438 3.3128125,11.42625 3.3128125,11.2015625 L3.3128125,7.84484375 C3.3128125,7.84484375 3.3128125,7.54546875 3.5396875,7.65234375 C3.73046875,7.74234375 5.79421875,8.91421875 6.444375,9.28390625 C6.80140625,9.44296875 6.48765625,9.5721875 6.48765625,9.5721875 L5.5809375,10.0896875 C5.5809375,10.0896875 6.09828125,10.7365625 6.85515625,11.0792188 C7.6653125,11.5007813 8.4240625,11.5507813 9.35328125,11.2004688 C9.95921875,10.9720313 10.6725,10.3871875 11.1865625,9.523125 L12.2123438,10.2182813 Z" id="形状" fill="#FFFFFF" fill-rule="nonzero" transform="translate(8.000156, 8.000064) rotate(-30.000000) translate(-8.000156, -8.000064) "></path>
            </g>
        </g>
    </g>
</svg>