<?xml version="1.0" encoding="UTF-8"?>
<svg width="18px" height="18px" viewBox="0 0 18 18" version="1.1" xmlns="http://www.w3.org/2000/svg" xmlns:xlink="http://www.w3.org/1999/xlink">
    <!-- Generator: Sketch 63.1 (92452) - https://sketch.com -->
    <title>1非法集资案件管理-2报表管理-1报表报送-省内案件报表报送-1待办</title>
    <desc>Created with Sketch.</desc>
    <g id="页面-1" stroke="none" stroke-width="1" fill="none" fill-rule="evenodd" opacity="0.800000012">
        <g id="1非法集资案件管理-2报表管理-1报表报送-省内案件报表报送" transform="translate(-286.000000, -177.000000)" fill="#595959" fill-rule="nonzero">
            <path d="M303.804583,181.456446 L298.430106,189.651041 L298.381161,189.758524 L298.283321,189.812057 L296.279873,190.617475 L295.791223,190.83244 L295.791223,190.295495 L295.840575,188.040284 L295.840575,187.932828 L295.889088,187.825762 L301.410446,179.523683 L301.606174,179.201287 L301.899048,179.416227 L303.707079,180.919553 L304,181.134076 L303.804583,181.456446 Z M302.081899,182.94139 L300.762853,181.899526 L296.5227,188.218875 L296.487376,189.845255 L297.935604,189.263161 L302.081899,182.94139 Z M301.180833,181.276683 L302.493643,182.313782 L303.056585,181.455248 L301.775428,180.390185 L301.180833,181.276683 Z M289.390934,190.909094 L289.014152,190.909094 C288.597995,190.909094 288.260614,190.542747 288.260614,190.090945 C288.260614,189.63909 288.598019,189.272743 289.014152,189.272743 L289.390934,189.272743 C289.807066,189.272743 290.144472,189.639064 290.144472,190.090945 C290.144472,190.542747 289.807067,190.909094 289.390934,190.909094 Z M289.390934,182.727231 L289.014152,182.727231 C288.597995,182.727231 288.260614,182.36091 288.260614,181.909055 C288.260614,181.457227 288.598019,181.090879 289.014152,181.090879 L289.390934,181.090879 C289.807066,181.090879 290.144472,181.457227 290.144472,181.909055 C290.144472,182.360936 289.807067,182.727231 289.390934,182.727231 Z M289.390934,186.818241 L289.014152,186.818241 C288.597995,186.818241 288.260614,186.451841 288.260614,186.000013 C288.260614,185.548158 288.598019,185.181837 289.014152,185.181837 L289.390934,185.181837 C289.807066,185.181837 290.144472,185.548132 290.144472,186.000013 C290.144472,186.451815 289.807067,186.818241 289.390934,186.818241 Z M292.028305,189.272743 L293.535381,189.272743 C293.951538,189.272743 294.288919,189.639064 294.288919,190.090945 C294.288919,190.542747 293.951538,190.909094 293.535381,190.909094 L292.028305,190.909094 C291.612148,190.909094 291.274767,190.542747 291.274767,190.090945 C291.274767,189.63909 291.612172,189.272743 292.028305,189.272743 Z M291.274767,181.909081 C291.274767,181.457253 291.612172,181.090906 292.028305,181.090906 L297.30312,181.090906 C297.719253,181.090906 298.056682,181.457253 298.056682,181.909081 C298.056682,182.360936 297.719253,182.727257 297.30312,182.727257 L292.028305,182.727257 C291.612172,182.727231 291.274767,182.360936 291.274767,181.909081 Z M294.665724,186.818241 L292.028305,186.818241 C291.612148,186.818241 291.274767,186.451841 291.274767,186.000013 C291.274767,185.548158 291.612172,185.181837 292.028305,185.181837 L294.665724,185.181837 C295.081857,185.181837 295.419262,185.548132 295.419262,186.000013 C295.419262,186.451815 295.081857,186.818241 294.665724,186.818241 Z M300.882444,178.636378 C300.815466,178.636378 300.753261,178.617995 300.694077,178.594848 L300.694077,178.636378 L300.589211,178.636378 C300.458925,178.392693 300.218689,178.227277 299.940155,178.227277 L287.883857,178.227277 C287.4677,178.227277 287.130319,178.593624 287.130319,179.045453 L287.130319,192.954547 C287.130319,193.406376 287.4677,193.772723 287.883857,193.772723 L299.940131,193.772723 C300.356624,193.772723 300.694053,193.406376 300.694053,192.954547 L300.694053,188.454567 L300.731894,188.454567 C300.710576,188.389838 300.694053,188.322296 300.694053,188.250042 C300.694053,187.911243 300.946831,187.636417 301.259201,187.636417 C301.571187,187.636417 301.824348,187.911269 301.824348,188.250042 C301.824348,188.322296 301.807754,188.389838 301.786435,188.454567 L301.824348,188.454567 L301.824348,192.954547 C301.824348,194.083923 300.98062,195 299.940491,195 L287.883857,195 C286.843297,195 286,194.083923 286,192.954547 L286,179.045453 C286,177.915686 286.843321,177 287.883857,177 L299.940539,177 C300.41034,177 300.835346,177.191766 301.163902,177.502185 C301.260328,177.564102 301.339823,177.649974 301.38836,177.759852 C301.403803,177.780604 301.424402,177.796591 301.439102,177.81815 L301.409702,177.81815 C301.431021,177.882879 301.447591,177.949978 301.447591,178.0227 C301.447591,178.361526 301.194454,178.636378 300.882444,178.636378 Z" id="1非法集资案件管理-2报表管理-1报表报送-省内案件报表报送-1待办"></path>
        </g>
    </g>
</svg>