<?xml version="1.0" encoding="UTF-8"?>
<svg width="16px" height="16px" viewBox="0 0 16 16" version="1.1" xmlns="http://www.w3.org/2000/svg" xmlns:xlink="http://www.w3.org/1999/xlink">
    <!-- Generator: Sketch 63.1 (92452) - https://sketch.com -->
    <title>1非法集资案件管理-1台账管理-1案件维护管理-1刑事案件-5推送国家平台(仅省级)-4重复</title>
    <desc>Created with Sketch.</desc>
    <g id="页面-1" stroke="none" stroke-width="1" fill="none" fill-rule="evenodd">
        <g id="1非法集资案件管理-1台账管理-1案件维护管理-1刑事案件-5推送国家平台(仅省级)" transform="translate(-203.000000, -628.000000)" fill-rule="nonzero">
            <g id="1非法集资案件管理-1台账管理-1案件维护管理-1刑事案件-5推送国家平台(仅省级)-4重复" transform="translate(203.011567, 628.011567)">
                <path d="M7.9641791,-2.62012634e-13 C3.56568444,-2.62012634e-13 1.92734717e-13,3.56568444 1.92734717e-13,7.9641791 C1.92734717e-13,12.3626738 3.56568444,15.9283582 7.9641791,15.9283582 C12.3626738,15.9283582 15.9283582,12.3626738 15.9283582,7.9641791 C15.9283582,3.56568444 12.3626738,-2.62012634e-13 7.9641791,-2.62012634e-13 Z" id="路径" fill="#8E80F3"></path>
                <path d="M7.9641791,12.3820896 C7.47619019,12.3820896 7.08059701,11.9864964 7.08059701,11.4985075 C7.08059701,11.0105185 7.47619019,10.6149254 7.9641791,10.6149254 C8.45216802,10.6149254 8.84776119,11.0105185 8.84776119,11.4985075 C8.84776119,11.732848 8.75466978,11.9575906 8.58896599,12.1232943 C8.42326221,12.2889981 8.19851964,12.3820896 7.9641791,12.3820896 Z" id="路径" fill="#FFFFFF"></path>
                <path d="M8.40597015,8.8 C8.40597015,9.28955224 8.20298507,9.68358209 7.9641791,9.68358209 C7.72537313,9.68358209 7.52238806,9.28955224 7.52238806,8.8 L7.08059701,4.87164179 C7.08059701,4.38365288 7.47619019,3.9880597 7.9641791,3.9880597 C8.45216802,3.9880597 8.84776119,4.38365288 8.84776119,4.87164179 L8.40597015,8.8 Z" id="路径" fill="#FFFFFF"></path>
            </g>
        </g>
    </g>
</svg>