<?xml version="1.0" encoding="UTF-8"?>
<svg width="16px" height="16px" viewBox="0 0 16 16" version="1.1" xmlns="http://www.w3.org/2000/svg" xmlns:xlink="http://www.w3.org/1999/xlink">
    <!-- Generator: Sketch 63.1 (92452) - https://sketch.com -->
    <title>1非法集资案件管理-1台账管理-1案件维护管理-1刑事案件-5推送国家平台(仅省级)-2失败</title>
    <desc>Created with Sketch.</desc>
    <g id="页面-1" stroke="none" stroke-width="1" fill="none" fill-rule="evenodd">
        <g id="1非法集资案件管理-1台账管理-1案件维护管理-1刑事案件-5推送国家平台(仅省级)" transform="translate(-203.000000, -556.000000)" fill-rule="nonzero">
            <g id="1非法集资案件管理-1台账管理-1案件维护管理-1刑事案件-5推送国家平台(仅省级)-2失败" transform="translate(203.000000, 556.000000)">
                <path d="M8,0 C3.58913357,0 0,3.58858064 0,8 C0,12.4114194 3.58858064,16 8,16 C12.4108664,16 16,12.4114194 16,8 C16,3.58858064 12.4114194,0 8,0 Z" id="形状" fill="#FE6030"></path>
                <path d="M11.6464405,4.35355953 C11.8748972,4.58201624 11.8977429,4.93822327 11.7149775,5.19223005 L11.6464405,5.27279834 L8.91917894,8.00017894 L11.6464405,10.7272017 C11.9002813,10.9810424 11.9002813,11.3925997 11.6464405,11.6464405 C11.4179838,11.8748972 11.0617767,11.8977429 10.80777,11.7149775 L10.7272017,11.6464405 L8.00017894,8.91917894 L5.27279834,11.6464405 C5.01895755,11.9002813 4.60740032,11.9002813 4.35355953,11.6464405 C4.12510282,11.4179838 4.10225715,11.0617767 4.28502252,10.80777 L4.35355953,10.7272017 L7.08117894,8.00017894 L4.35355953,5.27279834 C4.09971874,5.01895755 4.09971874,4.60740032 4.35355953,4.35355953 C4.58201624,4.12510282 4.93822327,4.10225715 5.19223005,4.28502252 L5.27279834,4.35355953 L8.00017894,7.08117894 L10.7272017,4.35355953 C10.9810424,4.09971874 11.3925997,4.09971874 11.6464405,4.35355953 Z" id="形状结合" fill="#FFFFFF"></path>
            </g>
        </g>
    </g>
</svg>