<?xml version="1.0" encoding="UTF-8"?>
<svg width="18px" height="18px" viewBox="0 0 18 18" version="1.1" xmlns="http://www.w3.org/2000/svg" xmlns:xlink="http://www.w3.org/1999/xlink">
    <!-- Generator: Sketch 63.1 (92452) - https://sketch.com -->
    <title>1非法集资案件管理-2报表管理-1报表报送-省内案件报表报送-2省内案件</title>
    <desc>Created with Sketch.</desc>
    <g id="页面-1" stroke="none" stroke-width="1" fill="none" fill-rule="evenodd" opacity="0.800000012">
        <g id="1非法集资案件管理-2报表管理-1报表报送-省内案件报表报送" transform="translate(-1382.000000, -177.000000)" fill="#595959" fill-rule="nonzero">
            <path d="M1389.13916,182.433298 C1389.13916,182.059516 1389.44138,181.756505 1389.81419,181.756505 L1395.13796,181.756505 C1395.51077,181.756505 1395.81299,182.059516 1395.81299,182.433298 C1395.81299,182.807081 1395.51077,183.110092 1395.13796,183.110092 L1389.81419,183.110092 C1389.44138,183.110092 1389.13916,182.807081 1389.13916,182.433298 Z M1389.81419,185.293879 L1395.13796,185.293879 C1395.51077,185.293879 1395.81299,184.990868 1395.81299,184.617085 C1395.81299,184.243303 1395.51077,183.940292 1395.13796,183.940292 L1389.81419,183.940292 C1389.44138,183.940292 1389.13916,184.243303 1389.13916,184.617085 C1389.13916,184.990868 1389.44138,185.293879 1389.81419,185.293879 L1389.81419,185.293879 Z M1400,189.665062 L1400,193.54715 C1400,194.348473 1399.34927,195 1398.55093,195 L1383.44907,195 C1382.64983,195 1382,194.347571 1382,193.54715 L1382,189.665062 C1382,189.168747 1382.25021,188.730185 1382.62913,188.468492 L1382.62913,180.734095 C1382.63062,179.503224 1383.62547,178.505778 1384.85314,178.504286 L1385.71359,178.504286 C1386.0202,177.606663 1386.86076,177.002684 1387.80709,177 L1397.14866,177 C1398.37647,177.001989 1399.37118,177.999694 1399.37267,179.230711 L1399.37267,188.467589 C1399.75069,188.731087 1400,189.168747 1400,189.665062 Z M1386.93135,179.230711 L1386.93135,188.210408 L1388.49832,188.210408 C1388.8446,188.210472 1389.13467,188.473227 1389.16976,188.818619 C1389.20576,189.173259 1389.9195,189.665965 1390.99955,189.665965 C1392.0796,189.665965 1392.79334,189.172357 1392.82934,188.818619 C1392.86443,188.473227 1393.1545,188.210472 1393.50078,188.210408 L1398.0199,188.210408 L1398.0199,179.230711 C1398.01941,178.746847 1397.62856,178.354581 1397.14596,178.353587 L1387.80529,178.353587 C1387.32289,178.355076 1386.93233,178.747052 1386.93135,179.230711 Z M1383.9783,180.734095 L1383.9783,188.210408 L1385.58038,188.210408 L1385.58038,179.858776 L1384.85134,179.858776 C1384.36958,179.859769 1383.97929,180.251082 1383.9783,180.734095 Z M1398.64994,189.665062 C1398.65017,189.63858 1398.63985,189.6131 1398.62125,189.594289 C1398.60266,189.575478 1398.57734,189.564897 1398.55093,189.564897 L1393.9904,189.564897 C1393.54848,190.425778 1392.38292,191.020454 1391.00045,191.020454 C1389.61798,191.020454 1388.45242,190.425778 1388.0087,189.564897 L1383.44907,189.564897 C1383.42266,189.564897 1383.39734,189.575478 1383.37875,189.594289 C1383.36015,189.6131 1383.34983,189.63858 1383.35006,189.665062 L1383.35006,193.54715 C1383.35006,193.603098 1383.39327,193.646413 1383.44907,193.646413 L1398.55093,193.646413 C1398.60561,193.646413 1398.64994,193.601971 1398.64994,193.54715 L1398.64994,189.665062 Z" id="1非法集资案件管理-2报表管理-1报表报送-省内案件报表报送-2省内案件"></path>
        </g>
    </g>
</svg>