<?xml version="1.0" encoding="UTF-8"?>
<svg width="19px" height="19px" viewBox="0 0 19 19" version="1.1" xmlns="http://www.w3.org/2000/svg" xmlns:xlink="http://www.w3.org/1999/xlink">
    <!-- Generator: Sketch 63.1 (92452) - https://sketch.com -->
    <title>下一页备份 2</title>
    <desc>Created with Sketch.</desc>
    <g id="页面-1" stroke="none" stroke-width="1" fill="none" fill-rule="evenodd">
        <g id="数据填报" transform="translate(-994.000000, -187.000000)" fill-rule="nonzero">
            <g id="下一页备份-2" transform="translate(1003.509277, 196.500000) scale(-1, -1) translate(-1003.509277, -196.500000) translate(994.000000, 187.000000)">
                <rect id="矩形" fill="#000000" opacity="0" x="0" y="0" width="19" height="19"></rect>
                <path d="M9.50253041,19.0000003 C4.25609994,18.9988355 0.00386287839,14.7450251 0.00463918408,9.49859453 C0.00541548977,4.25216399 4.25891123,-0.000387828208 9.50534181,2.60016083e-07 C14.7517724,0.000388348241 19.0046392,4.2535694 19.0046392,9.50000026 C19.0044154,12.0198534 18.0031641,14.4364052 16.2211609,16.2180129 C14.4391578,17.9996206 12.0223838,19.0003356 9.50253041,19.0000003 Z M9.48987836,1.702122 C5.19014869,1.70305364 1.70521901,5.18930495 1.70591761,9.48903467 C1.70661641,13.7887644 5.19267892,17.2738829 9.49240867,17.2734172 C13.7921384,17.2729514 17.2774458,13.7870777 17.277213,9.48734795 C17.2765143,5.18715232 13.790074,1.70165612 9.48987836,1.702122 L9.48987836,1.702122 Z M7.41873835,12.6149338 L10.5332505,9.50126521 L7.39174731,6.36060553 L8.61477848,5.13757436 L11.7562816,8.27865577 L12.9793128,9.49957827 L8.64345645,13.8345911 L7.41873835,12.6149338 Z" id="形状" fill="#409EFF"></path>
            </g>
        </g>
    </g>
</svg>