<?xml version="1.0" encoding="UTF-8"?>
<svg width="80px" height="82px" viewBox="0 0 80 82" version="1.1" xmlns="http://www.w3.org/2000/svg" xmlns:xlink="http://www.w3.org/1999/xlink">
    <!-- Generator: Sketch 63.1 (92452) - https://sketch.com -->
    <title>编组 9</title>
    <desc>Created with Sketch.</desc>
    <g id="页面-1" stroke="none" stroke-width="1" fill="none" fill-rule="evenodd">
        <g id="保理监管-统计查询-正常" transform="translate(-936.000000, -276.000000)">
            <g id="编组-9" transform="translate(936.000000, 276.000000)">
                <rect id="矩形" fill="#409EFF" opacity="0.1" x="0" y="0" width="80" height="82" rx="40"></rect>
                <g id="编组-8" transform="translate(18.032613, 21.000000)">
                    <path d="M29.795122,1.13686838e-13 C32.1809921,1.1324856e-13 34.115122,1.93412988 34.115122,4.32 L34.1152461,17.0128947 C29.3196802,17.7150584 25.5214387,21.5822722 24.8044108,26.4812228 L12.4504313,26.4810796 C11.0739678,26.4810796 9.94809983,25.4081525 9.86353079,24.0530018 L9.85843135,23.8890796 L9.85843135,22.2268235 C9.85843135,20.85036 8.78550427,19.724492 7.43035351,19.639923 L7.26643135,19.6348235 L6.60292683,19.634 L6.60292683,4.32 C6.60292683,1.93412988 8.53705671,1.14125115e-13 10.9229268,1.13686838e-13 L29.795122,1.13686838e-13 Z M19.8087805,6.59858824 C19.2720374,6.59858824 18.8369211,7.03370449 18.8369211,7.5704476 L18.8369211,7.5704476 L18.8369211,14.9963547 L16.5044587,12.5750307 C16.4962927,12.5665537 16.487969,12.5582299 16.4794919,12.550064 C16.1037717,12.1881326 15.505787,12.1993106 15.1438556,12.5750307 C14.7640914,12.969263 14.7640914,13.5932375 15.1438556,13.9874697 L15.1438556,13.9874697 L18.564277,17.5382014 C18.5792154,17.5537089 18.5944423,17.5689358 18.6099497,17.5838742 C19.29727,18.2459701 20.391188,18.2255217 21.0532839,17.5382014 L21.0532839,17.5382014 L24.4737054,13.9874697 C24.8534695,13.5932375 24.8534695,12.969263 24.4737054,12.5750307 C24.4655394,12.5665537 24.4572157,12.5582299 24.4487386,12.550064 C24.0730185,12.1881326 23.4750337,12.1993106 23.1131023,12.5750307 L23.1131023,12.5750307 L20.7806399,14.9963547 L20.7806399,7.5704476 C20.7806399,7.03370449 20.3455236,6.59858824 19.8087805,6.59858824 Z" id="形状结合" fill="#409EFF"></path>
                    <path d="M5.69430591,21.2442353 C7.12582798,21.2442353 8.28630591,22.4047132 8.28630591,23.8362353 L8.28630591,25.4984914 C8.28630591,26.9300135 9.44678384,28.0904914 10.8783059,28.0904914 L24.6826034,28.0904399 C24.6824475,28.1151764 24.6823693,28.1399318 24.6823693,28.1647059 C24.6823693,31.9478579 26.5039071,35.2954767 29.2981141,37.3385609 L3.456,37.3383529 C1.5473039,37.3383529 -2.10341353e-16,35.791049 0,33.8823529 L0,24.7002353 C-2.33747856e-16,22.7915392 1.5473039,21.2442353 3.456,21.2442353 L5.69430591,21.2442353 Z" id="形状结合" fill="#409EFF"></path>
                    <ellipse id="椭圆形" fill="#409EFF" cx="35.6872474" cy="28.1647059" rx="9.43275261" ry="9.65647059"></ellipse>
                    <text id="已" font-family="PingFangSC-Semibold, PingFang SC" font-size="12" font-weight="500" fill="#F9F9F9">
                        <tspan x="29.9941526" y="32.3733333">已</tspan>
                    </text>
                </g>
            </g>
        </g>
    </g>
</svg>