<?xml version="1.0" encoding="UTF-8"?>
<svg width="32px" height="15px" viewBox="0 0 32 15" version="1.1" xmlns="http://www.w3.org/2000/svg" xmlns:xlink="http://www.w3.org/1999/xlink">
    <title>new</title>
    <g id="页面-1" stroke="none" stroke-width="1" fill="none" fill-rule="evenodd">
        <g id="首页-监管二处-担保" transform="translate(-417.000000, -288.000000)" fill-rule="nonzero">
            <g id="new" transform="translate(417.000000, 288.000000)">
                <path d="M6.7182449,0 L29.4705072,0 C30.5750767,-1.31312915e-15 31.4705072,0.8954305 31.4705072,2 C31.4705072,2.15533635 31.4524103,2.31014384 31.4165826,2.46129196 L28.8091752,13.461292 C28.5953966,14.3631707 27.789969,15 26.8630998,15 L0,15 L0,15 L2.82609397,3.07741607 C3.25365131,1.27365852 4.86450636,2.11688309e-15 6.7182449,0 Z" id="矩形" fill="#EB3939"></path>
                <path d="M6.51420728,4 L9.60658888,10.0410959 L9.70322581,10.0410959 L9.70322581,4 L10.6695951,4 L10.6695951,11 L9.12340426,11 L6.12765957,5.15068493 L6.12765957,11 L5.16129032,11 L5.16129032,4 L6.51420728,4 Z M18.9803706,4 L20.7198353,9.75342466 L20.8164722,9.75342466 L22.362663,4 L23.5223061,4 L25.0684969,10.0410959 L26.9045985,4 L27.8709677,4 L25.6483185,11 L24.2954015,11 L22.9424846,5.43835616 L21.3962938,11 L19.9467399,11 L17.9173644,4 L18.9803706,4 Z M16.9509952,4 L16.9509952,4.95890411 L14.4384351,4.95890411 L14.4384351,4.95890411 C14.0518874,5.05479452 13.1821551,5.34246575 13.1821551,6.49315068 C13.0855182,6.68493151 13.0855182,6.78082192 13.0855182,6.97260274 L16.8543583,6.97260274 L16.8543583,7.93150685 L13.0855182,7.93150685 L13.0855182,8.12328767 L13.0855182,8.12328767 C13.0855182,9.36986301 13.4720659,9.94520548 14.2451613,9.94520548 L16.9509952,9.94520548 L16.9509952,10.9041096 L14.2451613,10.9041096 C13.6653397,10.9041096 13.1821551,10.7123288 12.7956074,10.2328767 C12.4090597,9.75342466 12.2157859,8.98630137 12.2157859,8.12328767 L12.2157859,6.49315068 L12.2157859,6.49315068 C12.2157859,4.8630137 13.278792,4.19178082 14.3417982,4 L16.9509952,4 L16.9509952,4 Z" id="形状" fill="#FFFFFF"></path>
            </g>
        </g>
    </g>
</svg>