<?xml version="1.0" encoding="UTF-8"?>
<svg width="80px" height="56px" viewBox="0 0 80 56" version="1.1" xmlns="http://www.w3.org/2000/svg" xmlns:xlink="http://www.w3.org/1999/xlink">
    <title>编组 6</title>
    <defs>
        <linearGradient x1="51.4690961%" y1="28.1515732%" x2="48.8880322%" y2="66.6186022%" id="linearGradient-1">
            <stop stop-color="#AFD9FF" offset="0%"></stop>
            <stop stop-color="#CFEDFF" offset="100%"></stop>
        </linearGradient>
        <linearGradient x1="57.1429082%" y1="10.8511319%" x2="45.840444%" y2="76.1857523%" id="linearGradient-2">
            <stop stop-color="#409EFF" offset="0%"></stop>
            <stop stop-color="#97D3FF" offset="100%"></stop>
        </linearGradient>
        <linearGradient x1="56.1520217%" y1="25.7379193%" x2="43.0277086%" y2="76.64519%" id="linearGradient-3">
            <stop stop-color="#66B6FF" offset="0%"></stop>
            <stop stop-color="#97D3FF" offset="100%"></stop>
        </linearGradient>
        <path d="M18.4919078,8.278289 C15.4978897,6.38681252 15.4867595,3.32384092 18.4919078,1.43236444 C21.8762044,-0.458470154 25.8816244,-0.458470154 29.265921,1.43236444 C32.248809,3.32384092 32.2599392,6.38681252 29.265921,8.278289 C25.8816244,10.1691236 21.8762044,10.1691236 18.4919078,8.278289 L18.4919078,8.278289 Z" id="path-4"></path>
        <filter x="-124.5%" y="-103.3%" width="348.9%" height="513.1%" filterUnits="objectBoundingBox" id="filter-5">
            <feOffset dx="0" dy="11" in="SourceAlpha" result="shadowOffsetOuter1"></feOffset>
            <feGaussianBlur stdDeviation="4.5" in="shadowOffsetOuter1" result="shadowBlurOuter1"></feGaussianBlur>
            <feColorMatrix values="0 0 0 0 0.0816287179   0 0 0 0 0.447286906   0 0 0 0 0.824615036  0 0 0 0.39 0" type="matrix" in="shadowBlurOuter1"></feColorMatrix>
        </filter>
        <linearGradient x1="44.8979438%" y1="24.7857075%" x2="56.9500416%" y2="71.8777975%" id="linearGradient-6">
            <stop stop-color="#66B6FF" offset="0%"></stop>
            <stop stop-color="#97D3FF" offset="100%"></stop>
        </linearGradient>
        <path d="M18.3272524,19.2369141 L18.260369,19.2974807 C18.0602627,19.4056283 17.8250828,19.4056283 17.6249766,19.2974807 L0.212997142,8.37125848 C0.034641398,8.2501252 0.034641398,8.06842527 0.212997142,7.97151864 L0.302175014,7.97151864 C4.69888386,5.68878966 9.70602845,5.20704822 14.403426,6.61482586 L14.403426,10.1276911 C14.3985925,10.1516331 14.3985925,10.1764291 14.403426,10.2003711 C14.4323685,10.2551089 14.4807316,10.2945248 14.5371928,10.309391 C14.5995499,10.3249422 14.6643387,10.3249422 14.7266958,10.309391 L20.3003128,10.309391 C22.596643,13.2892698 21.9055145,16.7779084 18.3272524,19.2369141 Z" id="path-7"></path>
        <filter x="-88.2%" y="-73.8%" width="276.3%" height="395.1%" filterUnits="objectBoundingBox" id="filter-8">
            <feOffset dx="0" dy="11" in="SourceAlpha" result="shadowOffsetOuter1"></feOffset>
            <feGaussianBlur stdDeviation="4.5" in="shadowOffsetOuter1" result="shadowBlurOuter1"></feGaussianBlur>
            <feColorMatrix values="0 0 0 0 0.0816287179   0 0 0 0 0.447286906   0 0 0 0 0.824615036  0 0 0 0.39 0" type="matrix" in="shadowBlurOuter1"></feColorMatrix>
        </filter>
    </defs>
    <g id="页面-1" stroke="none" stroke-width="1" fill="none" fill-rule="evenodd">
        <g id="首页-监管二处-担保" transform="translate(-426.000000, -368.000000)" fill-rule="nonzero">
            <g id="编组-6" transform="translate(435.000000, 368.000000)">
                <path d="M68.0017464,26.3521981 C70.8189305,28.122517 70.8301543,30.9794455 68.0017464,32.7375553 L40.7165886,50.013426 C37.5427275,51.7685563 33.7889928,51.7685563 30.6151316,50.013426 L3.09427324,32.7375553 C0.277089121,30.9672364 0.26586528,28.1103079 3.09427324,26.3521981 L30.379431,9.07632736 C33.5532922,7.32119709 37.3070268,7.32119709 40.480888,9.07632736 L68.0017464,26.3521981 Z" id="路径" fill="url(#linearGradient-1)"></path>
                <path d="M70.114688,29.3401652 C70.1202313,29.4250934 70.1202313,29.510339 70.114688,29.5952672 C70.114688,29.5952672 70.114688,29.7167443 70.114688,29.7896306 C70.114688,29.8625169 70.114688,29.9475508 70.114688,30.0204371 L70.0361226,30.2026528 L69.93511,30.445607 L69.8340974,30.615675 C69.7859899,30.7141827 69.7296357,30.8077069 69.6657431,30.8950724 C69.6256448,30.9454108 69.5881744,30.9981329 69.5535069,31.0529926 C69.4583978,31.1723635 69.357229,31.2859175 69.250469,31.3931286 L69.1270092,31.5267534 L68.9137604,31.7211168 L68.7117352,31.8911848 L68.3189084,32.1219913 L68.0383178,32.3163547 L40.7312446,49.4567765 C40.4104723,49.6535131 40.0765769,49.8240551 39.7323422,49.9669804 L39.4517516,50.0763098 L38.7895579,50.3071163 C38.5538618,50.3678549 38.3181658,50.4407412 38.0712461,50.489332 C37.7827931,50.5646944 37.4904662,50.6214833 37.1958035,50.6594 L36.9937783,50.6594 C36.5912815,50.7079037 36.1866111,50.7322364 35.7816271,50.7322862 L35.5908255,50.7322862 C35.1933069,50.7322173 34.7961082,50.7078832 34.4011216,50.6594 L34.2215436,50.6594 C33.8438066,50.6102416 33.4690469,50.5372308 33.0991814,50.4407412 L32.8859325,50.4407412 C32.5492239,50.3435595 32.2237388,50.23423 31.8982538,50.1127529 L31.7186758,50.0398667 C31.3299432,49.890105 30.954333,49.7030985 30.5963136,49.4810719 L3.10966237,32.2677639 C1.91556832,31.6944595 1.10025973,30.4683372 0.977174118,29.0607679 L0.977174118,33.5918645 C1.09581737,34.9976317 1.90715237,36.224234 3.09843875,36.7988605 L30.5963136,53.9878731 C30.9279528,54.196643 31.2730338,54.3793298 31.6288868,54.5345201 L31.6850049,54.5345201 L31.8645829,54.6074064 L32.5043294,54.8382129 L32.8522617,54.9353946 L33.0655105,54.9353946 L33.2450885,54.9353946 C33.4807845,54.9353946 33.7164806,55.0325763 33.9634003,55.0690195 L34.21032,55.0690195 L34.3898979,55.0690195 L34.6480413,55.2026443 L35.3551295,55.2026443 L36.0846649,55.2026443 C36.3540319,55.2026443 36.6121752,55.2026443 36.8815421,55.2026443 L36.9713311,55.2026443 L37.1733563,55.2026443 C37.3806698,55.1830482 37.5867746,55.150601 37.7906555,55.1054626 L38.0487988,55.1054626 L38.7671107,54.9110992 C38.8905705,54.9110992 39.025254,54.8503606 39.1487138,54.8017698 L39.4293044,54.6924404 L39.7098949,54.5709633 C40.0541296,54.428038 40.388025,54.257496 40.7087973,54.0607679 L68.0495415,36.7988605 L68.1393304,36.7381219 C68.2034214,36.7006394 68.2636233,36.6558428 68.3189084,36.6044971 L68.5770517,36.4222814 L68.7790769,36.2522134 L68.9923257,36.05785 L68.9923257,36.05785 L69.0708911,35.972816 L69.3739289,35.6205324 L69.4412706,35.5354984 L69.4412706,35.4626121 C69.5023903,35.3773429 69.5586142,35.2880917 69.609625,35.1953625 C69.609625,35.1953625 69.6657431,35.1103285 69.6769667,35.0738853 L69.6769667,35.0738853 L69.7779793,34.8309311 C69.803324,34.7900186 69.8222828,34.7448752 69.8340974,34.6973063 C69.8340974,34.6973063 69.8340974,34.6973063 69.8340974,34.6973063 C69.8340974,34.6973063 69.8340974,34.539386 69.8902155,34.4664997 L69.8902155,34.3085795 L69.8902155,34.3085795 C69.8952094,34.2276849 69.8952094,34.1465198 69.8902155,34.0656252 C69.8948074,34.0131025 69.8948074,33.9602278 69.8902155,33.907705 L69.8902155,29.1215064 C69.9730251,29.1841759 70.0484131,29.2576114 70.114688,29.3401652 Z" id="路径" fill="#409EFF"></path>
                <path d="M42.8475398,32.9491796 C43.213687,32.783112 43.4634013,32.4031393 43.4926254,31.9675984 C43.4926254,31.5872357 43.3035486,31.255952 42.8697841,30.9860172 L33.5938968,25.0719903 C32.623162,24.5236922 31.4726692,24.5236922 30.5019343,25.0719903 C30.1418499,25.2373855 29.896723,25.6121772 29.8679708,26.0413017 C29.8971949,26.4768426 30.1469093,26.8568153 30.5130565,27.022883 L39.7889438,32.9369099 C40.255984,33.2280966 40.7878778,33.3684124 41.3238029,33.3418121 C41.8554187,33.3598119 42.3816602,33.2199739 42.8475398,32.9369099 M33.6383855,36.8877743 C34.1124927,37.1691642 34.6464529,37.3047739 35.1843667,37.2804068 C35.7240349,37.2942885 36.2574204,37.1503582 36.7303479,36.8632348 C37.1086448,36.7208454 37.3629243,36.328741 37.3629243,35.8877884 C37.3629243,35.4468359 37.1086448,35.0547315 36.7303479,34.9123421 L27.4767049,29.0105849 C27.0061877,28.7292842 26.4768178,28.5896342 25.9418459,28.6056827 C25.4133378,28.5830437 24.8895599,28.7232505 24.4292311,29.0105849 C24.0681353,29.1861841 23.8184211,29.5597164 23.7730233,29.9921662 C23.7730233,30.3847987 23.9732223,30.7038126 24.4069868,30.9860172 L33.6828741,36.9000441 M47.4743612,26.0535715 C47.1532518,26.259357 46.8610106,26.5156196 46.6068322,26.8142969 C46.3656229,27.0707038 46.1892685,27.3921357 46.0952125,27.7467991 C46.0005635,28.0751957 46.0244692,28.4312222 46.1619455,28.7406501 C46.35571,29.1438365 46.6590897,29.4699376 47.0294746,29.6731523 L50.6441789,31.9675984 L36.7192257,40.8631783 C36.23965,41.1784745 35.7119902,41.3946847 35.1621223,41.5012061 C34.5986384,41.6257809 34.0231219,41.6711308 33.4493086,41.6361735 C32.8900866,41.5998655 32.3352223,41.5053778 31.7921057,41.3539689 C31.3286925,41.2242319 30.8807262,41.0347932 30.4574457,40.7895597 L18.2230619,33.0227982 C17.9148119,32.8238926 17.6581786,32.5407796 17.4778767,32.2007239 C17.2910538,31.856954 17.1769966,31.4710881 17.1442117,31.0719055 C17.1215304,30.6736447 17.1944199,30.2758253 17.3555329,29.9185476 C17.5407446,29.5065997 17.8409424,29.1711262 18.2119398,28.9615059 L34.8951903,18.2377309 C35.3026005,17.9883284 35.7410619,17.8064232 36.1964839,17.6978613 C36.7441559,17.5571338 37.3028464,17.4749556 37.8648089,17.4524659 C38.4335856,17.4232612 39.0035863,17.4561404 39.5665005,17.5506241 C40.0575361,17.6151159 40.5330514,17.7816491 40.9678935,18.0414147 L50.4217355,24.0658695 L47.3408952,26.029032 M53.0576891,27.857227 C53.0576891,28.3970967 53.0576891,28.8388082 53.0576891,29.1823617 C53.0606386,29.4628404 53.0345173,29.7427719 52.9798339,30.0167057 C52.9475116,30.1959467 52.8704723,30.3616739 52.7573906,30.4952266 C52.6655916,30.5887136 52.5649082,30.6709891 52.4570921,30.7406219 L52.0678162,30.9982869 L48.4086233,28.6670315 C48.2695336,28.5911478 48.1736789,28.4440241 48.1528134,28.274399 C48.1551885,28.1058705 48.197357,27.9409378 48.2751573,27.7958782 C48.3632275,27.6325793 48.4718203,27.4838651 48.5977001,27.3541666 C48.7030921,27.2395186 48.8185937,27.1367613 48.9424873,27.0474225 L51.9899611,25.0965298 L52.0678162,25.0965298 C52.1939282,25.177625 52.3098471,25.2766285 52.4126034,25.3910042 C52.5181066,25.5249811 52.6009804,25.6787409 52.6572911,25.8449855 C52.7434491,26.0908634 52.8067984,26.3457407 52.8463679,26.6057109 C52.8463679,26.9124551 52.9575896,27.3173573 53.0132004,27.8326875" id="形状" fill="url(#linearGradient-2)"></path>
                <g id="路径">
                    <use fill="black" fill-opacity="1" filter="url(#filter-5)" xlink:href="#path-4"></use>
                    <use fill="url(#linearGradient-3)" xlink:href="#path-4"></use>
                </g>
                <path d="M25.9465184,5.92728206 C25.6960732,5.8204733 25.3953222,5.8204733 25.144877,5.92728206 C24.0569784,6.36754569 22.7711423,6.36754569 21.6832437,5.92728206 C21.2614718,5.80799545 20.9796076,5.48969185 20.9796076,5.13268003 C20.9796076,4.77566821 21.2614718,4.45736462 21.6832437,4.33807801 C21.9018731,4.23148506 21.889727,4.06675049 21.6832437,3.96015754 C21.4299737,3.86275959 21.1348722,3.86275959 20.8816022,3.96015754 C20.2546811,4.13273172 19.8339936,4.60358085 19.8339936,5.13268003 C19.8339936,5.66177922 20.2546811,6.13262835 20.8816022,6.30520253 C22.4719949,6.95394851 24.3561257,6.95394851 25.9465184,6.30520253 C26.177294,6.19860958 26.177294,6.03387501 25.9465184,5.93697233" id="路径" fill="#D4EBF9"></path>
                <path d="M31.5035454,4.85532672 C31.5085019,4.93919789 31.5085019,5.02334957 31.5035454,5.10722074 C31.5035454,5.19538365 31.5035454,5.28354656 31.5035454,5.37170947 C31.4901744,5.44878762 31.4715529,5.52458166 31.4478472,5.59841409 C31.4478472,5.67398229 31.4478472,5.7621452 31.3810092,5.85030811 C31.3598167,5.92379393 31.3337502,5.99536707 31.3030316,6.06441803 C31.270469,6.15494956 31.233274,6.24326177 31.1916351,6.32890675 C31.1623607,6.39457585 31.1288512,6.45771991 31.0913782,6.51782727 L30.9131437,6.82010009 C30.8758009,6.88188175 30.8348652,6.94078701 30.7906075,6.99642591 C30.6633962,7.13089358 30.5295028,7.25704559 30.38958,7.37426694 L30.2670438,7.51280865 L30.033111,7.72691857 L29.8214576,7.92843379 L29.5429662,8.129949 L29.2756145,8.34405892 C28.9178709,8.56539294 28.5454227,8.75488653 28.161649,8.91082047 L27.872018,9.03676748 C27.6380852,9.13752509 27.3930128,9.2130933 27.1479404,9.2886615 L26.3904439,9.50277142 C26.0853822,9.5809144 25.7767068,9.63978089 25.4658526,9.67909724 L25.2319198,9.67909724 C24.8063709,9.72972009 24.3787574,9.75494449 23.9508595,9.75466544 L23.7503457,9.75466544 C23.3270389,9.75466544 22.903732,9.75466544 22.4915648,9.66650254 L22.3021906,9.66650254 C21.8865509,9.61753642 21.4737152,9.54184565 21.0656889,9.43979792 L20.8540355,9.43979792 C20.4959041,9.33893046 20.1426687,9.21701614 19.7957683,9.07455158 L19.6063942,8.99898338 C19.2204221,8.82895381 18.8477862,8.62251235 18.4924287,8.38184303 C17.6763995,7.90149152 17.0025914,7.16156289 16.5541288,6.25333854 C16.3539731,5.82172136 16.2470854,5.34264046 16.2422184,4.85532672 L16.2422184,7.86546028 C16.3626772,9.42060261 17.2137881,10.7822315 18.4701494,11.4297607 C18.8304607,11.6525462 19.2024758,11.8502315 19.5841149,12.0217116 L19.6509528,12.0217116 L19.8291873,12.0972798 L20.5087062,12.3491739 L20.8874545,12.4499315 L21.1102476,12.4499315 L21.2996217,12.4499315 C21.5446941,12.4499315 21.8009062,12.5632838 22.0571182,12.6010679 L22.3356096,12.6010679 L22.5249837,12.6010679 L22.7923354,12.6010679 C23.0485475,12.6010679 23.2936199,12.6010679 23.549832,12.6010679 L24.3296078,12.6010679 L25.1762215,12.6010679 L25.2764784,12.6010679 L25.5104112,12.6010679 L26.1453715,12.5003103 L26.4238629,12.4121474 C26.6839888,12.3601163 26.9407672,12.2885886 27.192499,12.1980375 C27.3261749,12.1980375 27.4598508,12.1350639 27.5935266,12.0846851 L27.905437,11.9587381 L28.2062076,11.8327911 C28.5704905,11.7214229 28.9277604,11.5825699 29.2756145,11.417166 L29.3758714,11.3541925 L29.5652455,11.2156508 L29.8437369,11.0015408 L30.0553903,10.8126203 L30.2893231,10.5985104 L30.2893231,10.5985104 C30.3346971,10.5598491 30.3694576,10.5074478 30.38958,10.447374 C30.5087045,10.3299623 30.616946,10.1991424 30.7126299,10.0569383 L30.7906075,9.96877536 L30.7906075,9.89320715 L30.9799817,9.59093433 L31.0468196,9.46498732 L31.0468196,9.38941911 L31.1582161,9.12493039 C31.1582161,9.12493039 31.1582161,9.02417278 31.2139144,8.97379398 C31.2696127,8.92341517 31.2139144,8.97379398 31.2139144,8.97379398 L31.3921489,8.63373705 C31.3921489,8.63373705 31.3921489,8.52038474 31.3921489,8.45741123 L31.3921489,8.45741123 C31.3971458,8.36513648 31.3971458,8.27260256 31.3921489,8.18032781 C31.3983385,8.12176084 31.3983385,8.06256896 31.3921489,8.00400199 L31.3921489,7.91583909 L31.3921489,7.91583909 L31.5035454,4.85532672 Z" id="路径" fill="#409EFF"></path>
                <g id="路径">
                    <use fill="black" fill-opacity="1" filter="url(#filter-8)" xlink:href="#path-7"></use>
                    <use fill="url(#linearGradient-6)" xlink:href="#path-7"></use>
                </g>
                <path d="M21.6298812,14.5631407 C21.6298812,14.7148492 21.6298812,14.8665577 21.6298812,15.0182662 L21.5629537,15.3216833 C21.5323278,15.4647834 21.4913085,15.6052298 21.4402533,15.7417992 C21.4402533,15.8351583 21.3733258,15.9401873 21.3287075,16.0452163 C21.2840891,16.1502453 21.2060071,16.3252936 21.1390796,16.4653322 L20.9829154,16.7570794 C20.8936788,16.9087879 20.782133,17.0721663 20.6705872,17.2355447 L20.4921139,17.4806123 C20.2825763,17.7607344 20.0512604,18.0222526 19.8005298,18.2624947 C19.6666749,18.4025334 19.5105107,18.5192323 19.3655012,18.647601 L19.1424096,18.8459891 C18.8995934,19.043539 18.6463569,19.2266559 18.383898,19.3944738 L18.3169705,19.4528232 C18.2201644,19.5045774 18.1133389,19.5325175 18.0046423,19.5345124 L18.0046423,19.5345124 C17.8959456,19.5325175 17.7891201,19.5045774 17.692314,19.4528232 L0.213085308,8.92658538 C0.138085381,8.88985761 0.0871939687,8.81443083 0.0792303339,8.7281973 L0.0792303339,11.5873195 C0.0863939424,11.6710791 0.138232594,11.7433903 0.213085308,11.7740377 L17.6476957,22.2769358 L17.7034686,22.2769358 L17.7592415,22.2769358 L18.0938789,22.2769358 L18.171961,22.2769358 C18.2049418,22.2853472 18.2393714,22.2853472 18.2723522,22.2769358 L18.3504343,22.2769358 C18.6120773,22.103623 18.8652335,21.9166692 19.1089458,21.7167812 L19.3320374,21.530063 L19.7336024,21.1682965 L19.7336024,21.1682965 C19.9853629,20.9213647 20.2201899,20.6561914 20.436341,20.3747442 L20.5032685,20.3047249 C20.5032685,20.3047249 20.5701959,20.1880261 20.6148143,20.1296766 C20.7254385,19.9775017 20.8260611,19.8176458 20.915988,19.6512113 C20.949561,19.607329 20.9794192,19.5604726 21.0052246,19.5111726 C21.0319561,19.4669534 21.0543777,19.4200387 21.0721521,19.371134 C21.1446355,19.2318645 21.2079907,19.0876037 21.26178,18.9393482 C21.2981042,18.8807947 21.3280368,18.8181639 21.3510166,18.75263 L21.3510166,18.6359311 C21.3510166,18.4958925 21.4290987,18.3558538 21.4625624,18.2158152 C21.4862999,18.1474042 21.5049464,18.0771756 21.5183353,18.0057572 C21.5229255,17.9787392 21.5229255,17.951086 21.5183353,17.924068 C21.5183353,17.7723595 21.5183353,17.620651 21.5741082,17.4689425 C21.6298812,17.3172339 21.5741082,17.3172339 21.5741082,17.2472146 L21.5741082,14.2247139 C21.5982574,14.3364428 21.6168732,14.4494022 21.6298812,14.5631407 Z" id="路径" fill="#409EFF"></path>
            </g>
        </g>
    </g>
</svg>