<?xml version="1.0" encoding="UTF-8"?>
<svg width="79px" height="56px" viewBox="0 0 79 56" version="1.1" xmlns="http://www.w3.org/2000/svg" xmlns:xlink="http://www.w3.org/1999/xlink">
    <title>编组 17</title>
    <defs>
        <linearGradient x1="51.4690961%" y1="28.1515732%" x2="48.8880322%" y2="66.6186022%" id="linearGradient-1">
            <stop stop-color="#FFD6B3" offset="0%"></stop>
            <stop stop-color="#FDE5D3" offset="100%"></stop>
        </linearGradient>
        <linearGradient x1="57.1429082%" y1="10.8511319%" x2="45.840444%" y2="76.1857523%" id="linearGradient-2">
            <stop stop-color="#FFB270" offset="2%"></stop>
            <stop stop-color="#FCD0A7" offset="100%"></stop>
        </linearGradient>
        <linearGradient x1="56.1520217%" y1="25.7379193%" x2="43.0277086%" y2="76.64519%" id="linearGradient-3">
            <stop stop-color="#F9A054" offset="0%"></stop>
            <stop stop-color="#FFD2A9" offset="100%"></stop>
        </linearGradient>
        <path d="M18.9672898,8.28085222 C15.9732717,6.38937573 15.9621415,3.32640414 18.9672898,1.43492765 C22.3515864,-0.455906941 26.3570064,-0.455906941 29.7413031,1.43492765 C32.724191,3.32640414 32.7353212,6.38937573 29.7413031,8.28085222 C26.3570064,10.1716868 22.3515864,10.1716868 18.9672898,8.28085222 L18.9672898,8.28085222 Z" id="path-4"></path>
        <filter x="-124.5%" y="-103.3%" width="348.9%" height="513.1%" filterUnits="objectBoundingBox" id="filter-5">
            <feOffset dx="0" dy="11" in="SourceAlpha" result="shadowOffsetOuter1"></feOffset>
            <feGaussianBlur stdDeviation="4.5" in="shadowOffsetOuter1" result="shadowBlurOuter1"></feGaussianBlur>
            <feColorMatrix values="0 0 0 0 0.743178216   0 0 0 0 0.419977922   0 0 0 0 0.137689059  0 0 0 0.39 0" type="matrix" in="shadowBlurOuter1"></feColorMatrix>
        </filter>
        <linearGradient x1="44.8979438%" y1="24.7857075%" x2="56.9500416%" y2="71.8777975%" id="linearGradient-6">
            <stop stop-color="#F9A054" offset="0%"></stop>
            <stop stop-color="#FFD2A9" offset="100%"></stop>
        </linearGradient>
        <path d="M18.8026344,19.2394773 L18.735751,19.3000439 C18.5356447,19.4081915 18.3004648,19.4081915 18.1003586,19.3000439 L0.688379145,8.37382169 C0.510023401,8.25268841 0.510023401,8.07098848 0.688379145,7.97408185 L0.777557017,7.97408185 C5.17426586,5.69135287 10.1814105,5.20961143 14.878808,6.61738907 L14.878808,10.1302543 C14.8739745,10.1541963 14.8739745,10.1789923 14.878808,10.2029343 C14.9077505,10.2576721 14.9561136,10.297088 15.0125748,10.3119542 C15.0749319,10.3275054 15.1397207,10.3275054 15.2020778,10.3119542 L20.7756948,10.3119542 C23.072025,13.291833 22.3808965,16.7804716 18.8026344,19.2394773 Z" id="path-7"></path>
        <filter x="-88.2%" y="-73.8%" width="276.3%" height="395.1%" filterUnits="objectBoundingBox" id="filter-8">
            <feOffset dx="0" dy="11" in="SourceAlpha" result="shadowOffsetOuter1"></feOffset>
            <feGaussianBlur stdDeviation="4.5" in="shadowOffsetOuter1" result="shadowBlurOuter1"></feGaussianBlur>
            <feColorMatrix values="0 0 0 0 0.743178216   0 0 0 0 0.419977922   0 0 0 0 0.137689059  0 0 0 0.39 0" type="matrix" in="shadowBlurOuter1"></feColorMatrix>
        </filter>
    </defs>
    <g id="页面-1" stroke="none" stroke-width="1" fill="none" fill-rule="evenodd">
        <g id="首页-监管二处-担保" transform="translate(-718.000000, -368.000000)" fill-rule="nonzero">
            <g id="编组-17" transform="translate(727.000000, 368.000000)">
                <path d="M66.6812408,26.3547613 C69.4984249,28.1250802 69.5096488,30.9820087 66.6812408,32.7401185 L39.3960831,50.0159892 C36.2222219,51.7711195 32.4684873,51.7711195 29.2946261,50.0159892 L1.77376767,32.7401185 C-1.04341644,30.9697996 -1.05464029,28.1128711 1.77376767,26.3547613 L29.0589254,9.07889058 C32.2327866,7.3237603 35.9865212,7.3237603 39.1603824,9.07889058 L66.6812408,26.3547613 Z" id="路径" fill="url(#linearGradient-1)"></path>
                <path d="M68.7941824,29.3427285 C68.7997258,29.4276566 68.7997258,29.5129023 68.7941824,29.5978304 C68.7941824,29.5978304 68.7941824,29.7193075 68.7941824,29.7921938 C68.7941824,29.8650801 68.7941824,29.9501141 68.7941824,30.0230003 L68.715617,30.205216 L68.6146044,30.4481703 L68.5135918,30.6182382 C68.4654843,30.7167459 68.4091301,30.8102701 68.3452375,30.8976356 C68.3051393,30.947974 68.2676689,31.0006961 68.2330013,31.0555559 C68.1378922,31.1749267 68.0367234,31.2884807 67.9299635,31.3956918 L67.8065036,31.5293166 L67.5932548,31.72368 L67.3912296,31.893748 L66.9984028,32.1245545 L66.7178123,32.3189179 L39.410739,49.4593397 C39.0899667,49.6560763 38.7560713,49.8266183 38.4118366,49.9695436 L38.1312461,50.078873 L37.4690523,50.3096795 C37.2333563,50.3704181 36.9976602,50.4433044 36.7507405,50.4918952 C36.4622876,50.5672576 36.1699607,50.6240466 35.875298,50.6619632 L35.6732728,50.6619632 C35.2707759,50.7104669 34.8661055,50.7347996 34.4611215,50.7348495 L34.27032,50.7348495 C33.8728013,50.7347805 33.4756027,50.7104464 33.080616,50.6619632 L32.901038,50.6619632 C32.523301,50.6128048 32.1485413,50.5397941 31.7786758,50.4433044 L31.565427,50.4433044 C31.2287183,50.3461227 30.9032333,50.2367933 30.5777482,50.1153161 L30.3981702,50.0424299 C30.0094377,49.8926682 29.6338274,49.7056617 29.275808,49.4836351 L1.78915681,32.2703271 C0.595062758,31.6970227 -0.220245839,30.4709004 -0.343331447,29.0633311 L-0.343331447,33.5944277 C-0.224688193,35.0001949 0.586646804,36.2267972 1.77793318,36.8014237 L29.275808,53.9904363 C29.6074472,54.1992062 29.9525283,54.3818931 30.3083813,54.5370833 L30.3644994,54.5370833 L30.5440773,54.6099696 L31.1838238,54.8407761 L31.5317561,54.9379578 L31.7450049,54.9379578 L31.9245829,54.9379578 C32.160279,54.9379578 32.395975,55.0351395 32.6428947,55.0715827 L32.8898144,55.0715827 L33.0693924,55.0715827 L33.3275357,55.2052075 L34.0346239,55.2052075 L34.7641594,55.2052075 C35.0335263,55.2052075 35.2916696,55.2052075 35.5610365,55.2052075 L35.6508255,55.2052075 L35.8528507,55.2052075 C36.0601643,55.1856114 36.266269,55.1531642 36.47015,55.1080258 L36.7282933,55.1080258 L37.4466051,54.9136624 C37.5700649,54.9136624 37.7047484,54.8529239 37.8282083,54.804333 L38.1087988,54.6950036 L38.3893894,54.5735265 C38.733624,54.4306012 39.0675195,54.2600592 39.3882918,54.0633311 L66.7290359,36.8014237 L66.8188249,36.7406851 C66.8829158,36.7032026 66.9431178,36.658406 66.9984028,36.6070603 L67.2565461,36.4248446 L67.4585713,36.2547766 L67.6718202,36.0604132 L67.6718202,36.0604132 L67.7503855,35.9753793 L68.0534233,35.6230956 L68.1207651,35.5380616 L68.1207651,35.4651753 C68.1818848,35.3799061 68.2381087,35.2906549 68.2891194,35.1979257 C68.2891194,35.1979257 68.3452375,35.1128917 68.3564611,35.0764486 L68.3564611,35.0764486 L68.4574737,34.8334943 C68.4828185,34.7925818 68.5017773,34.7474384 68.5135918,34.6998695 C68.5135918,34.6998695 68.5135918,34.6998695 68.5135918,34.6998695 C68.5135918,34.6998695 68.5135918,34.5419492 68.56971,34.469063 L68.56971,34.3111427 L68.56971,34.3111427 C68.5747038,34.2302481 68.5747038,34.149083 68.56971,34.0681885 C68.5743018,34.0156657 68.5743018,33.962791 68.56971,33.9102682 L68.56971,29.1240696 C68.6525195,29.1867391 68.7279075,29.2601746 68.7941824,29.3427285 Z" id="路径" fill="#F4A048"></path>
                <path d="M42.424978,32.9517429 C42.7911252,32.7856752 43.0408395,32.4057025 43.0700637,31.9701616 C43.0700637,31.5897989 42.8809868,31.2585152 42.4472223,30.9885804 L33.171335,25.0745535 C32.2006002,24.5262554 31.0501074,24.5262554 30.0793726,25.0745535 C29.7192881,25.2399487 29.4741612,25.6147404 29.445409,26.0438649 C29.4746332,26.4794059 29.7243475,26.8593785 30.0904947,27.0254462 L39.366382,32.9394731 C39.8334222,33.2306598 40.365316,33.3709756 40.9012411,33.3443753 C41.4328569,33.3623751 41.9590984,33.2225371 42.424978,32.9394731 M33.2158237,36.8903375 C33.6899309,37.1717274 34.2238912,37.3073371 34.7618049,37.28297 C35.3014731,37.2968517 35.8348586,37.1529214 36.3077861,36.865798 C36.686083,36.7234086 36.9403626,36.3313042 36.9403626,35.8903517 C36.9403626,35.4493991 36.686083,35.0572947 36.3077861,34.9149053 L27.0541431,29.0131482 C26.5836259,28.7318474 26.054256,28.5921974 25.5192841,28.6082459 C24.990776,28.5856069 24.4669981,28.7258137 24.0066694,29.0131482 C23.6455736,29.1887473 23.3958593,29.5622796 23.3504615,29.9947294 C23.3504615,30.3873619 23.5506605,30.7063758 23.984425,30.9885804 L33.2603123,36.9026073 M47.0517995,26.0561347 C46.73069,26.2619202 46.4384488,26.5181829 46.1842704,26.8168602 C45.9430611,27.073267 45.7667067,27.3946989 45.6726508,27.7493623 C45.5780017,28.0777589 45.6019074,28.4337854 45.7393838,28.7432133 C45.9331482,29.1463997 46.2365279,29.4725009 46.6069128,29.6757155 L50.2216171,31.9701616 L36.2966639,40.8657415 C35.8170882,41.1810377 35.2894284,41.3972479 34.7395606,41.5037693 C34.1760766,41.6283441 33.6005602,41.673694 33.0267468,41.6387367 C32.4675248,41.6024287 31.9126605,41.507941 31.3695439,41.3565321 C30.9061307,41.2267952 30.4581644,41.0373564 30.0348839,40.7921229 L17.8005002,33.0253614 C17.4922502,32.8264558 17.2356168,32.5433428 17.055315,32.2032872 C16.868492,31.8595172 16.7544348,31.4736513 16.72165,31.0744687 C16.6989686,30.6762079 16.7718581,30.2783885 16.9329711,29.9211108 C17.1181829,29.5091629 17.4183806,29.1736894 17.789378,28.9640691 L34.4726285,18.2402941 C34.8800387,17.9908916 35.3185002,17.8089864 35.7739221,17.7004245 C36.3215941,17.559697 36.8802846,17.4775188 37.4422471,17.4550292 C38.0110238,17.4258244 38.5810245,17.4587036 39.1439387,17.5531873 C39.6349744,17.6176791 40.1104897,17.7842123 40.5453317,18.0439779 L49.9991737,24.0684327 L46.9183335,26.0315952 M52.6351273,27.8597902 C52.6351273,28.3996599 52.6351273,28.8413714 52.6351273,29.1849249 C52.6380768,29.4654036 52.6119555,29.7453351 52.5572721,30.0192689 C52.5249498,30.1985099 52.4479105,30.3642371 52.3348288,30.4977898 C52.2430298,30.5912768 52.1423464,30.6735523 52.0345303,30.7431851 L51.6452545,31.0008502 L47.9860615,28.6695947 C47.8469719,28.593711 47.7511171,28.4465873 47.7302517,28.2769622 C47.7326267,28.1084337 47.7747952,27.9435011 47.8525955,27.7984414 C47.9406657,27.6351425 48.0492585,27.4864283 48.1751383,27.3567298 C48.2805304,27.2420818 48.3960319,27.1393245 48.5199255,27.0499857 L51.5673993,25.099093 L51.6452545,25.099093 C51.7713664,25.1801882 51.8872853,25.2791917 51.9900416,25.3935674 C52.0955449,25.5275443 52.1784186,25.6813041 52.2347293,25.8475487 C52.3208874,26.0934266 52.3842366,26.3483039 52.4238061,26.6082741 C52.4238061,26.9150183 52.5350278,27.3199205 52.5906387,27.8352507" id="形状" fill="url(#linearGradient-2)"></path>
                <g id="路径">
                    <use fill="black" fill-opacity="1" filter="url(#filter-5)" xlink:href="#path-4"></use>
                    <use fill="url(#linearGradient-3)" xlink:href="#path-4"></use>
                </g>
                <path d="M31.9789274,4.85788994 C31.9838839,4.94176111 31.9838839,5.02591279 31.9789274,5.10978396 C31.9789274,5.19794686 31.9789274,5.28610977 31.9789274,5.37427268 C31.9655564,5.45135083 31.9469349,5.52714488 31.9232292,5.6009773 C31.9232292,5.67654551 31.9232292,5.76470841 31.8563912,5.85287132 C31.8351988,5.92635714 31.8091322,5.99793029 31.7784136,6.06698124 C31.745851,6.15751277 31.708656,6.24582498 31.6670171,6.33146996 C31.6377427,6.39713906 31.6042332,6.46028312 31.5667602,6.52039048 L31.3885257,6.8226633 C31.3511829,6.88444496 31.3102472,6.94335023 31.2659895,6.99898912 C31.1387782,7.1334568 31.0048848,7.25960881 30.864962,7.37683015 L30.7424258,7.51537186 L30.508493,7.72948178 L30.2968396,7.930997 L30.0183482,8.13251222 L29.7509965,8.34662214 C29.3932529,8.56795615 29.0208047,8.75744974 28.637031,8.91338368 L28.3474,9.03933069 C28.1134672,9.1400883 27.8683948,9.21565651 27.6233224,9.29122472 L26.8658259,9.50533463 C26.5607642,9.58347761 26.2520888,9.6423441 25.9412346,9.68166045 L25.7073018,9.68166045 C25.2817529,9.7322833 24.8541394,9.75750771 24.4262415,9.75722866 L24.2257277,9.75722866 C23.8024209,9.75722866 23.379114,9.75722866 22.9669468,9.66906575 L22.7775726,9.66906575 C22.361933,9.62009963 21.9490972,9.54440886 21.541071,9.44236113 L21.3294175,9.44236113 C20.9712861,9.34149367 20.6180507,9.21957935 20.2711503,9.0771148 L20.0817762,9.00154659 C19.6958041,8.83151703 19.3231682,8.62507557 18.9678107,8.38440624 C18.1517815,7.90405473 17.4779734,7.1641261 17.0295108,6.25590176 C16.8293551,5.82428457 16.7224674,5.34520367 16.7176005,4.85788994 L16.7176005,7.86802349 C16.8380592,9.42316582 17.6891701,10.7847947 18.9455314,11.4323239 C19.3058428,11.6551094 19.6778578,11.8527948 20.0594969,12.0242749 L20.1263348,12.0242749 L20.3045693,12.0998431 L20.9840882,12.3517371 L21.3628365,12.4524947 L21.5856296,12.4524947 L21.7750037,12.4524947 C22.0200761,12.4524947 22.2762882,12.565847 22.5325002,12.6036311 L22.8109916,12.6036311 L23.0003657,12.6036311 L23.2677174,12.6036311 C23.5239295,12.6036311 23.7690019,12.6036311 24.025214,12.6036311 L24.8049898,12.6036311 L25.6516035,12.6036311 L25.7518604,12.6036311 L25.9857932,12.6036311 L26.6207535,12.5028735 L26.8992449,12.4147106 C27.1593708,12.3626795 27.4161492,12.2911518 27.6678811,12.2006007 C27.8015569,12.2006007 27.9352328,12.1376272 28.0689086,12.0872484 L28.380819,11.9613013 L28.6815896,11.8353543 C29.0458725,11.7239861 29.4031424,11.5851331 29.7509965,11.4197292 L29.8512534,11.3567557 L30.0406275,11.218214 L30.3191189,11.0041041 L30.5307723,10.8151835 L30.7647051,10.6010736 L30.7647051,10.6010736 C30.8100791,10.5624123 30.8448396,10.5100111 30.864962,10.4499372 C30.9840865,10.3325255 31.092328,10.2017057 31.1880119,10.0595015 L31.2659895,9.97133857 L31.2659895,9.89577037 L31.4553637,9.59349754 L31.5222016,9.46755053 L31.5222016,9.39198232 L31.6335981,9.1274936 C31.6335981,9.1274936 31.6335981,9.02673599 31.6892964,8.97635719 C31.7449947,8.92597838 31.6892964,8.97635719 31.6892964,8.97635719 L31.8675309,8.63630026 C31.8675309,8.63630026 31.8675309,8.52294795 31.8675309,8.45997444 L31.8675309,8.45997444 C31.8725278,8.3676997 31.8725278,8.27516577 31.8675309,8.18289102 C31.8737205,8.12432405 31.8737205,8.06513217 31.8675309,8.00656521 L31.8675309,7.9184023 L31.8675309,7.9184023 L31.9789274,4.85788994 Z" id="路径" fill="#F4A048"></path>
                <g id="路径">
                    <use fill="black" fill-opacity="1" filter="url(#filter-8)" xlink:href="#path-7"></use>
                    <use fill="url(#linearGradient-6)" xlink:href="#path-7"></use>
                </g>
                <path d="M22.1052632,14.5657039 C22.1052632,14.7174124 22.1052632,14.8691209 22.1052632,15.0208295 L22.0383357,15.3242465 C22.0077098,15.4673466 21.9666905,15.607793 21.9156353,15.7443624 C21.9156353,15.8377215 21.8487078,15.9427505 21.8040895,16.0477795 C21.7594711,16.1528085 21.6813891,16.3278568 21.6144616,16.4678954 L21.4582975,16.7596426 C21.3690608,16.9113511 21.257515,17.0747295 21.1459692,17.2381079 L20.9674959,17.4831756 C20.7579583,17.7632976 20.5266424,18.0248158 20.2759118,18.265058 C20.1420569,18.4050966 19.9858927,18.5217955 19.8408832,18.6501642 L19.6177916,18.8485523 C19.3749754,19.0461022 19.1217389,19.2292191 18.85928,19.397037 L18.7923526,19.4553864 C18.6955464,19.5071406 18.5887209,19.5350807 18.4800243,19.5370756 L18.4800243,19.5370756 C18.3713276,19.5350807 18.2645021,19.5071406 18.167696,19.4553864 L0.688467311,8.92914859 C0.613467385,8.89242082 0.562575972,8.81699404 0.554612337,8.73076052 L0.554612337,11.5898828 C0.561775946,11.6736423 0.613614597,11.7459535 0.688467311,11.7766009 L18.1230777,22.279499 L18.1788506,22.279499 L18.2346235,22.279499 L18.5692609,22.279499 L18.647343,22.279499 C18.6803238,22.2879104 18.7147534,22.2879104 18.7477342,22.279499 L18.8258163,22.279499 C19.0874593,22.1061862 19.3406155,21.9192325 19.5843278,21.7193444 L19.8074194,21.5326262 L20.2089844,21.1708598 L20.2089844,21.1708598 C20.4607449,20.9239279 20.6955719,20.6587546 20.911723,20.3773075 L20.9786505,20.3072881 C20.9786505,20.3072881 21.0455779,20.1905893 21.0901963,20.1322398 C21.2008205,19.980065 21.3014431,19.820209 21.39137,19.6537745 C21.424943,19.6098922 21.4548012,19.5630358 21.4806066,19.5137358 C21.5073381,19.4695166 21.5297597,19.4226019 21.5475341,19.3736972 C21.6200175,19.2344277 21.6833727,19.0901669 21.737162,18.9419114 C21.7734862,18.8833579 21.8034188,18.8207271 21.8263986,18.7551932 L21.8263986,18.6384943 C21.8263986,18.4984557 21.9044807,18.3584171 21.9379444,18.2183784 C21.9616819,18.1499674 21.9803284,18.0797388 21.9937173,18.0083205 C21.9983076,17.9813024 21.9983076,17.9536492 21.9937173,17.9266312 C21.9937173,17.7749227 21.9937173,17.6232142 22.0494903,17.4715057 C22.1052632,17.3197971 22.0494903,17.3197971 22.0494903,17.2497778 L22.0494903,14.2272772 C22.0736394,14.339006 22.0922552,14.4519654 22.1052632,14.5657039 Z" id="路径" fill="#F4A048"></path>
                <path d="M17.9403144,12.6894076 C17.7820931,12.6149842 17.5943098,12.6149842 17.4360885,12.6894076 L16.9318626,12.957459 C16.8664159,12.9745535 16.8212931,13.0292486 16.8212931,13.0914848 C16.8212931,13.153721 16.8664159,13.2084161 16.9318626,13.2255105 L18.808052,14.2333841 L14.2934713,14.2333841 L14.1058524,14.2333841 L14.0237691,14.3620488 L14.0237691,14.7480429 L14.0941262,14.8874297 L14.2817451,14.8874297 L18.808052,14.8874297 L16.8966841,15.8845812 C16.8966841,15.8845812 16.7911484,15.9703576 16.8028746,16.0132459 C16.8146008,16.0561341 16.8028746,16.1097444 16.8966841,16.1526326 L17.3891838,16.4206841 C17.5474051,16.4951075 17.7351884,16.4951075 17.8934097,16.4206841 L21.0008483,14.8016532 C21.1255438,14.7560799 21.2073194,14.645668 21.2073194,14.5228797 C21.2073194,14.4000914 21.1255438,14.2896795 21.0008483,14.2441061 L17.9403144,12.6036311" id="路径" fill="#FFE3CC"></path>
            </g>
        </g>
    </g>
</svg>