<?xml version="1.0" encoding="UTF-8"?>
<svg width="18px" height="18px" viewBox="0 0 18 18" version="1.1" xmlns="http://www.w3.org/2000/svg" xmlns:xlink="http://www.w3.org/1999/xlink">
    <title>统计</title>
    <g id="页面-1" stroke="none" stroke-width="1" fill="none" fill-rule="evenodd">
        <g id="首页-监管二处-担保" transform="translate(-1182.000000, -188.000000)" fill="#595959" fill-rule="nonzero">
            <g id="统计" transform="translate(1182.000000, 188.000000)">
                <path d="M17.4384,10.0062 L8.7084,10.0062 C8.397,10.0062 8.145,9.7542 8.145,9.4428 L8.145,0.5634 C8.145,0.252 8.397,0 8.7084,0 C13.8312,0 18,4.2372 18,9.4446 C18,9.7542 17.748,10.0062 17.4384,10.0062 L17.4384,10.0062 Z M9.2718,8.8812 L16.857,8.8812 C16.5834,4.7448 13.3308,1.4274 9.2718,1.1448 L9.2718,8.8812 Z" id="形状"></path>
                <path d="M8.5518,18 C3.8358,18 0,14.1264 0,9.3636 C0,5.2722 2.8764,1.7136 6.84,0.9 C7.14419844,0.837370909 7.44157091,1.03320156 7.5042,1.3374 C7.56682909,1.64159844 7.37099844,1.93897091 7.0668,2.0016 C3.6234,2.7072 1.125,5.8032 1.125,9.3636 C1.125,13.5054 4.4568,16.875 8.5518,16.875 C11.916,16.875 14.868,14.58 15.7302,11.295 C15.812455,10.9981502 16.117989,10.8225051 16.4159075,10.900801 C16.713826,10.9790969 16.893523,11.2822656 16.8192,11.5812 C15.8256,15.3594 12.4272,18 8.5518,18 Z" id="路径"></path>
            </g>
        </g>
    </g>
</svg>