<?xml version="1.0" encoding="UTF-8"?>
<svg width="18px" height="18px" viewBox="0 0 18 18" version="1.1" xmlns="http://www.w3.org/2000/svg" xmlns:xlink="http://www.w3.org/1999/xlink">
    <title>放大</title>
    <g id="页面-1" stroke="none" stroke-width="1" fill="none" fill-rule="evenodd">
        <g id="首页-监管二处-担保" transform="translate(-287.000000, -1166.000000)" fill="#595959" fill-rule="nonzero">
            <g id="放大" transform="translate(287.000000, 1166.000000)">
                <path d="M7.84922017,8.44318038e-08 C10.9252888,-0.000449732092 13.7179906,1.79645696 14.9926044,4.59626433 C16.2672183,7.3960717 15.7886921,10.6824658 13.7685939,13.0024524 C13.8078321,13.023755 13.8448282,13.0517848 13.8795821,13.0865417 L17.8426477,17.049952 C18.0550794,17.2699178 18.0520414,17.6195646 17.8358195,17.8358053 C17.6195977,18.0520459 17.2699813,18.0550842 17.0500346,17.842634 L13.086969,13.8792237 C13.0536589,13.8459867 13.0246569,13.8086953 13.0006448,13.7682258 C10.3720521,16.0564078 6.54949696,16.3369002 3.61510496,14.4569203 C0.680712957,12.5769404 -0.662520497,8.98687696 0.317056706,5.64221846 C1.29663391,2.29755996 4.3643434,-0.000410165755 7.84922017,8.44318038e-08 Z M7.85024627,0.85 C4.78352911,0.85 2.07391289,2.84643493 1.16501165,5.77562339 C0.256110412,8.70481186 1.35959141,11.8846099 3.88754826,13.6209027 C6.41550511,15.3571955 9.77922074,15.2456307 12.1865937,13.3456472 L12.4432514,13.1309694 L12.8142383,12.807786 L13.1292272,12.4461006 C14.1639177,11.2621574 14.7675268,9.76287263 14.8418336,8.19221362 L14.85,7.85036256 C14.85,3.98416908 11.7161035,0.85 7.85024627,0.85 Z M7.84922017,3.36357322 C7.99788641,3.36357322 8.14046367,3.42263578 8.24558659,3.52776783 C8.3507095,3.63289988 8.40976694,3.77548954 8.40976694,3.92416872 L8.40976694,7.28774177 L11.7730475,7.28774177 C12.0826289,7.28774177 12.3335942,7.53872893 12.3335942,7.84833728 C12.3335942,8.15794563 12.0826289,8.4089328 11.7730475,8.4089328 L8.40864583,8.4089328 L8.40976694,11.7725058 C8.40976694,12.0821142 8.1588016,12.3331014 7.84922018,12.3331014 C7.53963875,12.3331014 7.28867342,12.0821142 7.28867342,11.7725058 L7.28755232,8.4089328 L3.9253929,8.4089328 C3.61581148,8.4089328 3.36484615,8.15794563 3.36484615,7.84833728 C3.36484615,7.53872893 3.61581148,7.28774177 3.9253929,7.28774177 L7.28867342,7.28774177 L7.28867342,3.92416872 C7.28867342,3.61456037 7.53963875,3.36357322 7.84922017,3.36357322 Z" id="形状"></path>
            </g>
        </g>
    </g>
</svg>