<?xml version="1.0" encoding="UTF-8"?>
<svg width="16px" height="18px" viewBox="0 0 16 18" version="1.1" xmlns="http://www.w3.org/2000/svg" xmlns:xlink="http://www.w3.org/1999/xlink">
    <title>消息</title>
    <g id="页面-1" stroke="none" stroke-width="1" fill="none" fill-rule="evenodd">
        <g id="首页-监管二处-担保" transform="translate(-1182.000000, -514.000000)" fill="#595959" fill-rule="nonzero">
            <g id="消息" transform="translate(1182.000000, 514.000000)">
                <path d="M12.5333333,15.2727273 C12.5333333,15.1090909 12.64,15 12.8,15 L15.4666667,15 C15.6266667,15 15.7333333,15.1090909 15.7333333,15.2727273 C15.7333333,15.4363636 15.6266667,15.5454545 15.4666667,15.5454545 L12.8,15.5454545 C12.64,15.5454545 12.5333333,15.4363636 12.5333333,15.2727273 L12.5333333,15.2727273 Z M15.4666667,15.8181818 L12.8,15.8181818 C12.48,15.8181818 12.2666667,15.6 12.2666667,15.2727273 C12.2666667,14.9454545 12.48,14.7272727 12.8,14.7272727 L15.4666667,14.7272727 C15.7866667,14.7272727 16,14.9454545 16,15.2727273 C16,15.6 15.7866667,15.8181818 15.4666667,15.8181818 Z M12.5333333,15.3201882 L12.8,15.3201882 L12.5333333,15.3201882 Z M0.266666658,15.2727273 C0.266666658,15.1090909 0.373333332,15 0.533333333,15 L3.2,15 C3.36,15 3.46666666,15.1090909 3.46666666,15.2727273 C3.46666666,15.4363636 3.35999998,15.5454545 3.2,15.5454545 L0.533333333,15.5454545 C0.373333332,15.5454545 0.266666658,15.4363636 0.266666658,15.2727273 Z M3.2,15.8181818 L0.533333333,15.8181818 C0.21333333,15.8181818 0,15.6 0,15.2727273 C0,14.9454545 0.21333333,14.7272727 0.533333333,14.7272727 L3.2,14.7272727 C3.52,14.7272727 3.73333333,14.9454545 3.73333333,15.2727273 C3.73333333,15.6 3.52,15.8181818 3.2,15.8181818 L3.2,15.8181818 Z M0.266666658,15.3201882 L0.533333333,15.3201882 L0.266666658,15.3201882 Z M6.13333332,17.4545455 C6.13333332,17.2909091 6.24,17.1818182 6.4,17.1818182 L9.6,17.1818182 C9.76,17.1818182 9.86666668,17.2909091 9.86666668,17.4545455 C9.86666668,17.6181818 9.76,17.7272727 9.6,17.7272727 L6.4,17.7272727 C6.24,17.7272727 6.13333332,17.6181818 6.13333332,17.4545455 Z M9.6,18 L6.4,18 C6.08,18 5.86666667,17.7818182 5.86666667,17.4545455 C5.86666667,17.1272727 6.08,16.9090909 6.4,16.9090909 L9.6,16.9090909 C9.92,16.9090909 10.1333333,17.1272727 10.1333333,17.4545455 C10.1333333,17.7818182 9.92,18 9.6,18 Z M6.13333332,17.5020064 L6.4,17.5020064 L6.13333332,17.5020064 Z M8,0.272727281 C8.16,0.272727281 8.26666668,0.381818197 8.26666668,0.545454545 L8.26666668,1.63636363 C8.26666668,1.8 8.16,1.90909092 8,1.90909092 C7.84,1.90909092 7.73333332,1.8 7.73333332,1.63636363 L7.73333332,0.545454545 C7.73333332,0.38181818 7.84,0.272727281 8,0.272727281 L8,0.272727281 Z M8,2.18181818 C7.68,2.18181818 7.46666667,1.96363637 7.46666667,1.63636363 L7.46666667,0.545454545 C7.46666667,0.218181814 7.68,0 8,0 C8.32,0 8.53333333,0.218181814 8.53333333,0.545454545 L8.53333333,1.63636363 C8.53333333,1.96363637 8.32,2.18181818 8,2.18181818 Z M8.04640625,0.272727281 L8.04640625,0.545454545 L8.04640625,0.272727281 Z M14.4,15.8181818 L1.6,15.8181818 L1.6,8.18181817 C1.6,4.58181817 4.48,1.63636363 8,1.63636363 C11.52,1.63636363 14.4,4.58181817 14.4,8.18181817 L14.4,15.8181818 Z M2.66666667,14.7272727 L13.3333333,14.7272727 L13.3333333,8.18181817 C13.3333333,5.18181817 10.9333333,2.72727272 8,2.72727272 C5.06666668,2.72727272 2.66666667,5.18181819 2.66666667,8.18181817 L2.66666667,14.7272727 Z" id="形状"></path>
            </g>
        </g>
    </g>
</svg>