<?xml version="1.0" encoding="UTF-8"?>
<svg width="20px" height="19px" viewBox="0 0 20 19" version="1.1" xmlns="http://www.w3.org/2000/svg" xmlns:xlink="http://www.w3.org/1999/xlink">
    <title>编组 4</title>
    <g id="页面-1" stroke="none" stroke-width="1" fill="none" fill-rule="evenodd">
        <g id="首页-监管二处-担保" transform="translate(-1212.000000, -1166.000000)" fill="#595959" fill-rule="nonzero">
            <g id="编组-4" transform="translate(1213.000000, 1166.000000)">
                <g id="后台管理-机构分布" transform="translate(-0.000000, 0.000000)">
                    <path d="M16.517198,18 L1.48501619,18 C0.665926543,18 0,17.3452164 0,16.5398327 L0,3.7366315 C0,2.93124773 0.665926543,2.27646417 1.48501619,2.27646417 L6.08434824,2.27646417 C6.26858791,2.27646417 6.41731151,2.42269916 6.41731151,2.60385595 C6.41731151,2.78501273 6.26858791,2.93124773 6.08434824,2.93124773 L1.48501619,2.93124773 C1.0344059,2.93124773 0.665926543,3.29137868 0.665926543,3.7366315 L0.665926543,16.5376501 C0.665926543,16.9807203 1.03218614,17.3430338 1.48501619,17.3430338 L16.5149783,17.3430338 C16.9655886,17.3430338 17.3340679,16.9829029 17.3340679,16.5376501 L17.3340679,3.7366315 C17.3340679,3.2935613 16.9678083,2.93124773 16.5149783,2.93124773 C16.3307386,2.93124773 16.182015,2.78501273 16.182015,2.60385595 C16.182015,2.42269916 16.3307386,2.27646417 16.5149783,2.27646417 C17.3340679,2.27646417 18,2.93124773 18,3.7366315 L18,16.5376501 C18.0022142,17.3452164 17.3362877,18 16.517198,18 Z" id="路径" stroke="#595959" stroke-width="0.2"></path>
                    <path d="M11.3196411,0.25 C12.2094959,0.25 13.0163138,0.614254083 13.600752,1.20195376 C14.1856928,1.79015895 14.5479974,2.60224434 14.5479974,3.49776786 C14.5479974,4.26989365 13.9913143,5.20497786 12.9501146,6.29613924 C12.3291371,6.94674602 11.7153176,7.45582903 11.4754128,7.64765741 C10.84823,7.39653767 10.2732834,6.90812557 9.68902348,6.29598843 C8.64786626,5.20697396 8.09128474,4.26984012 8.09128474,3.49776786 C8.09128474,2.60224434 8.4535893,1.79015895 9.03853013,1.20195376 C9.62296826,0.614254083 10.4297862,0.25 11.3196411,0.25 Z M11.3218608,0.404783558 C10.4778777,0.404783558 9.7130718,0.742628817 9.15906041,1.28736991 C8.60311615,1.83401153 8.25943104,2.58879289 8.25943104,3.42015278 C8.25943104,4.07189362 8.77437302,4.98438174 9.81115933,6.04590633 C10.3463294,6.59432453 10.8838254,7.04512327 11.479708,7.27168064 C12.4712535,6.48297972 14.3865103,4.64571621 14.3865103,3.42015278 C14.3852987,2.58841724 14.0409436,1.83364022 13.4846221,1.28705908 C12.9303492,0.742490738 12.1656746,0.404783558 11.3218608,0.404783558 Z" id="形状" stroke="#595959" stroke-width="0.5"></path>
                    <path d="M11.3218608,5.28846853 C10.2941142,5.28846853 9.45726649,4.46562386 9.45726649,3.45507457 C9.45726649,2.44452528 10.2941142,1.62168061 11.3218608,1.62168061 C12.3496074,1.62168061 13.1864551,2.44452528 13.1864551,3.45507457 C13.1864551,4.46562386 12.3496074,5.28846853 11.3218608,5.28846853 Z M11.3218608,2.27646417 C10.6603738,2.27646417 10.123193,2.80465624 10.123193,3.45507457 C10.123193,4.10549291 10.6603738,4.63368498 11.3218608,4.63368498 C11.9833478,4.63368498 12.5205286,4.10549291 12.5205286,3.45507457 C12.5205286,2.80683885 11.9833478,2.27646417 11.3218608,2.27646417 Z" id="形状"></path>
                </g>
                <g id="金额" transform="translate(3.000000, 8.000000)">
                    <path d="M7.54798967,1.79754884 C7.53985579,2.11634261 7.25074138,2.34522575 6.99393658,2.50392734 C6.56089761,2.77152984 6.04950222,2.91224061 5.55044322,3.01327599 C4.330948,3.26023686 2.98420267,3.21334776 1.7956614,2.84805599 C1.28060576,2.68974551 0.126271993,2.21020773 0.54394696,1.50952198 C0.738075669,1.18386215 1.15683515,0.985007155 1.50275118,0.848989641 C2.04121433,0.637315101 2.6250013,0.529413667 3.20164852,0.474832837 C4.20347195,0.380011682 5.24451878,0.451540381 6.20585355,0.74704169 C6.67752847,0.892011155 7.53307755,1.21393376 7.54798967,1.79754884 C7.55512942,2.07727559 8.00701189,2.07797089 7.99987214,1.79754884 C7.9789048,0.976533221 7.01779597,0.54975111 6.3260091,0.327994761 C5.14939752,-0.0491605121 3.83157268,-0.0718880392 2.61605402,0.11245263 C1.75910411,0.242386293 0.646253151,0.532281768 0.153746447,1.29019917 C-0.291402973,1.97524073 0.312537947,2.62834208 0.91539435,2.95621816 C1.51581059,3.28274711 2.21925603,3.43858059 2.89744124,3.52179898 C3.72560624,3.62344273 4.56113693,3.60766818 5.3855513,3.48264505 C6.03698507,3.38386939 6.70590669,3.19818159 7.26484012,2.85270579 C7.64952766,2.61495761 7.98816839,2.25822669 7.99991733,1.79754884 C8.00701189,1.51712679 7.55512942,1.51782209 7.54798967,1.79754884 L7.54798967,1.79754884 Z M7.54798967,3.22243008 C7.53533696,3.70448831 6.8904103,4.00177132 6.49876377,4.15617075 C5.71325647,4.46614294 4.84374422,4.56661338 4.00080266,4.57043752 C3.15429123,4.57430511 2.29295806,4.45580039 1.50275118,4.15617075 C1.11038164,4.00746407 0.466132799,3.70066418 0.453525278,3.22243008 C0.446159593,2.94270332 -0.00572287608,2.94200803 0.00164280817,3.22243008 C0.0181365183,3.84937087 0.631612159,4.24921021 1.16533054,4.48630655 C2.04247961,4.87597718 3.04303777,5.00065266 4.00080266,5.00504172 C4.96358345,5.00943078 5.95252824,4.86367911 6.83618441,4.48630655 C7.37152957,4.25768415 7.98355919,3.84337393 7.99987214,3.22243008 C8.00723783,2.94200803 7.55535536,2.94274678 7.54798967,3.22243008 L7.54798967,3.22243008 Z M7.54798967,4.67716564 C7.53533696,5.15926733 6.8904103,5.45655034 6.49876377,5.61103668 C5.71325647,5.92100886 4.84374422,6.02147931 4.00080266,6.02530344 C3.15429123,6.02917103 2.29295806,5.91066632 1.50275118,5.61103668 C1.11038164,5.46224308 0.466132799,5.15544319 0.453525278,4.67716564 C0.446159593,4.39743888 -0.00572287608,4.39678704 0.00164280817,4.67716564 C0.0181365183,5.30414988 0.631612159,5.70403268 1.16533054,5.94117248 C2.04247961,6.3308431 3.04303777,6.45551858 4.00080266,6.45990765 C4.96358345,6.46429671 5.95252824,6.31854504 6.83618441,5.94117248 C7.37152957,5.71255007 7.98355919,5.29810949 7.99987214,4.67716564 C8.00723783,4.39678704 7.55535536,4.39743888 7.54798967,4.67716564 Z M7.54798967,6.21716201 C7.53533696,6.69926371 6.8904103,6.99654671 6.49876377,7.15103306 C5.71325647,7.46100524 4.84374422,7.56147569 4.00080266,7.56529982 C3.15429123,7.56916741 2.29295806,7.4506627 1.50275118,7.15103306 C1.11038164,7.00223946 0.466132799,6.69543957 0.453525278,6.21716201 C0.446159593,5.93743526 -0.00572287608,5.93678342 0.00164280817,6.21716201 C0.0181365183,6.84414626 0.631612159,7.24402906 1.16533054,7.4811254 C2.04247961,7.87083948 3.04303777,7.99551496 4.00080266,7.99990402 C4.96358345,8.00429309 5.95252824,7.85854141 6.83618441,7.4811254 C7.37152957,7.25254645 7.98355919,6.83810587 7.99987214,6.21716201 C8.00723783,5.93678342 7.55535536,5.93747872 7.54798967,6.21716201 L7.54798967,6.21716201 Z M2.92459937,0.917737151 L3.82660197,1.7851204 C3.91367972,1.8688168 4.0590955,1.8688168 4.14612807,1.7851204 L5.05956329,0.906742764 C5.26580245,0.708452695 4.94627635,0.401131335 4.74008238,0.59946486 L3.82660197,1.4778425 L4.14612807,1.4778425 L3.24412547,0.610459247 C3.03788631,0.412125721 2.7184054,0.719403626 2.92459937,0.917737151 Z M2.94891065,1.84878355 L5.02698256,1.84878355 C5.31835638,1.84878355 5.31835638,1.41422281 5.02698256,1.41422281 L2.94891065,1.41422281 C2.65749165,1.41422281 2.65749165,1.84878355 2.94891065,1.84878355 Z M2.94891065,2.47702803 L5.02698256,2.47702803 C5.31835638,2.47702803 5.31835638,2.04246728 5.02698256,2.04246728 L2.94891065,2.04246728 C2.65749165,2.04246728 2.65749165,2.47702803 2.94891065,2.47702803 Z M3.76198278,1.62050879 L3.76198278,2.81733255 C3.76198278,3.09758077 4.21391044,3.09758077 4.21391044,2.81733255 L4.21391044,1.62050879 C4.21391044,1.34030402 3.76198278,1.34030402 3.76198278,1.62050879 Z" id="形状"></path>
                </g>
            </g>
        </g>
    </g>
</svg>