<?xml version="1.0" encoding="UTF-8"?>
<svg width="44px" height="44px" viewBox="0 0 44 44" version="1.1" xmlns="http://www.w3.org/2000/svg" xmlns:xlink="http://www.w3.org/1999/xlink">
    <!-- Generator: Sketch 63.1 (92452) - https://sketch.com -->
    <title>机构信息-监管端-许可证信息-1新增</title>
    <desc>Created with Sketch.</desc>
    <g id="页面-1" stroke="none" stroke-width="1" fill="none" fill-rule="evenodd">
        <g id="机构信息-监管端-许可证信息" transform="translate(-1524.000000, -290.000000)" fill="#999999" fill-rule="nonzero">
            <path d="M1556,310 C1562.62742,310 1568,315.372583 1568,322 C1568,328.627417 1562.62742,334 1556,334 C1549.37258,334 1544,328.627417 1544,322 C1544,315.372583 1549.37258,310 1556,310 Z M1556,313 C1551.02944,313 1547,317.029437 1547,322 C1547,326.970563 1551.02944,331 1556,331 C1560.97056,331 1565,326.970563 1565,322 C1565,317.029437 1560.97056,313 1556,313 Z M1559.98551,290 C1561.58427,290 1562.90272,291.28965 1562.99486,292.901714 L1563,293.082109 L1563,303.932195 C1563,304.764624 1562.32518,305.439441 1561.49275,305.439441 C1560.70657,305.439441 1560.06097,304.837521 1559.99167,304.069385 L1559.98551,303.932195 L1559.98551,293.086925 L1559.9808,293.082109 L1527.0192,293.082109 L1527.01449,293.086925 L1527.01449,326.913075 L1527.0192,326.917891 L1537.27489,326.917891 C1538.12599,326.917891 1538.81594,327.607844 1538.81594,328.458945 C1538.81594,329.262763 1538.20052,329.922841 1537.41515,329.993702 L1537.27489,330 L1527.01449,330 C1525.41573,330 1524.09728,328.71035 1524.00514,327.098286 L1524,326.917891 L1524,293.082109 C1524,291.447491 1525.26136,290.099461 1526.83805,290.005258 L1527.01449,290 L1559.98551,290 Z M1556,315.75 C1556.64721,315.75 1557.17953,316.241875 1557.24355,316.872195 L1557.25,317 L1557.25,320.75 L1561,320.75 C1561.69036,320.75 1562.25,321.309644 1562.25,322 C1562.25,322.647209 1561.75813,323.179534 1561.12781,323.243546 L1561,323.25 L1557.25,323.25 L1557.25,327 C1557.25,327.690356 1556.69036,328.25 1556,328.25 C1555.35279,328.25 1554.82047,327.758125 1554.75645,327.127805 L1554.75,327 L1554.75,323.25 L1551,323.25 C1550.30964,323.25 1549.75,322.690356 1549.75,322 C1549.75,321.352791 1550.24187,320.820466 1550.87219,320.756454 L1551,320.75 L1554.75,320.75 L1554.75,317 C1554.75,316.309644 1555.30964,315.75 1556,315.75 Z M1541.59014,304.003587 C1542.41534,304.003587 1543.08203,304.6743 1543.08203,305.504483 C1543.08203,306.285833 1542.49147,306.925921 1541.73402,306.998522 L1541.59014,307.00538 L1531.49189,307.00538 C1530.66669,307.00538 1530,306.334667 1530,305.504483 C1530,304.723134 1530.59056,304.083046 1531.34802,304.010445 L1531.49189,304.003587 L1541.59014,304.003587 Z M1554.6442,298 C1555.4694,298 1556.14076,298.670713 1556.14076,299.500897 C1556.14076,300.282246 1555.55019,300.922334 1554.79274,300.994935 L1554.64886,301.001793 L1531.49189,301.001793 C1530.66669,301.001793 1530,300.33108 1530,299.500897 C1530,298.719548 1530.59056,298.079459 1531.34802,298.006858 L1531.49189,298 L1554.6442,298 Z" id="机构信息-监管端-许可证信息-1新增"></path>
        </g>
    </g>
</svg>