<?xml version="1.0" encoding="UTF-8"?>
<svg width="44px" height="44px" viewBox="0 0 44 44" version="1.1" xmlns="http://www.w3.org/2000/svg" xmlns:xlink="http://www.w3.org/1999/xlink">
    <!-- Generator: Sketch 63.1 (92452) - https://sketch.com -->
    <title>机构信息-监管端-许可证信息-6历史记录</title>
    <desc>Created with Sketch.</desc>
    <g id="页面-1" stroke="none" stroke-width="1" fill="none" fill-rule="evenodd">
        <g id="机构信息-监管端-许可证信息" transform="translate(-1524.000000, -810.000000)" fill="#999999" fill-rule="nonzero">
            <path d="M1556,830 C1562.62742,830 1568,835.372583 1568,842 C1568,848.627417 1562.62742,854 1556,854 C1549.37258,854 1544,848.627417 1544,842 C1544,835.372583 1549.37258,830 1556,830 Z M1556,833 C1551.02944,833 1547,837.029437 1547,842 C1547,846.970563 1551.02944,851 1556,851 C1560.97056,851 1565,846.970563 1565,842 C1565,837.029437 1560.97056,833 1556,833 Z M1559.98551,810 C1561.58427,810 1562.90272,811.28965 1562.99486,812.901714 L1563,813.082109 L1563,823.932195 C1563,824.764624 1562.32518,825.439441 1561.49275,825.439441 C1560.70657,825.439441 1560.06097,824.837521 1559.99167,824.069385 L1559.98551,823.932195 L1559.98551,813.086925 L1559.9808,813.082109 L1527.0192,813.082109 L1527.01449,813.086925 L1527.01449,846.913075 L1527.0192,846.917891 L1537.27489,846.917891 C1538.12599,846.917891 1538.81594,847.607844 1538.81594,848.458945 C1538.81594,849.262763 1538.20052,849.922841 1537.41515,849.993702 L1537.27489,850 L1527.01449,850 C1525.41573,850 1524.09728,848.71035 1524.00514,847.098286 L1524,846.917891 L1524,813.082109 C1524,811.447491 1525.26136,810.099461 1526.83805,810.005258 L1527.01449,810 L1559.98551,810 Z M1556,835.75 C1556.64721,835.75 1557.17953,836.241875 1557.24355,836.872195 L1557.25,837 L1557.25,841.75 L1561,841.75 C1561.64721,841.75 1562.17953,842.241875 1562.24355,842.872195 L1562.25,843 C1562.25,843.647209 1561.75813,844.179534 1561.12781,844.243546 L1561,844.25 L1556,844.25 C1555.35279,844.25 1554.82047,843.758125 1554.75645,843.127805 L1554.75,843 L1554.75,837 C1554.75,836.309644 1555.30964,835.75 1556,835.75 Z M1541.59014,824.003587 C1542.41534,824.003587 1543.08203,824.6743 1543.08203,825.504483 C1543.08203,826.285833 1542.49147,826.925921 1541.73402,826.998522 L1541.59014,827.00538 L1531.49189,827.00538 C1530.66669,827.00538 1530,826.334667 1530,825.504483 C1530,824.723134 1530.59056,824.083046 1531.34802,824.010445 L1531.49189,824.003587 L1541.59014,824.003587 Z M1554.6442,818 C1555.4694,818 1556.14076,818.670713 1556.14076,819.500897 C1556.14076,820.282246 1555.55019,820.922334 1554.79274,820.994935 L1554.64886,821.001793 L1531.49189,821.001793 C1530.66669,821.001793 1530,820.33108 1530,819.500897 C1530,818.719548 1530.59056,818.079459 1531.34802,818.006858 L1531.49189,818 L1554.6442,818 Z" id="机构信息-监管端-许可证信息-6历史记录"></path>
        </g>
    </g>
</svg>