<?xml version="1.0" encoding="UTF-8"?>
<svg width="44px" height="44px" viewBox="0 0 44 44" version="1.1" xmlns="http://www.w3.org/2000/svg" xmlns:xlink="http://www.w3.org/1999/xlink">
    <!-- Generator: Sketch 63.1 (92452) - https://sketch.com -->
    <title>机构信息-监管端-许可证信息-4补办</title>
    <desc>Created with Sketch.</desc>
    <g id="页面-1" stroke="none" stroke-width="1" fill="none" fill-rule="evenodd">
        <g id="机构信息-监管端-许可证信息" transform="translate(-1524.000000, -602.000000)" fill="#999999" fill-rule="nonzero">
            <path d="M1556.8451,622 C1561.79381,622 1566.16803,625.103104 1567.90947,629.707472 C1568.09578,630.200089 1567.98865,630.753034 1567.64218,631.136908 L1567.5506,631.229221 L1559.0723,639.007111 C1558.56603,639.471555 1557.80607,639.482308 1557.28858,639.051818 L1557.18846,638.95984 L1551.94928,633.652148 C1551.41554,633.111422 1551.41554,632.234732 1551.94928,631.694006 C1552.44967,631.187075 1553.24153,631.155392 1553.77835,631.598957 L1553.88215,631.694006 L1558.20091,636.068615 L1564.98451,629.846154 L1564.9318,629.740849 C1563.42709,626.810153 1560.45547,624.870625 1557.10998,624.773089 L1556.8451,624.769231 C1551.81289,624.769231 1547.73348,628.901987 1547.73348,634 C1547.73348,639.098013 1551.81289,643.230769 1556.8451,643.230769 C1559.1576,643.230769 1561.33173,642.356402 1563.00146,640.805123 C1563.55778,640.288274 1564.42234,640.326166 1564.93252,640.889758 C1565.4427,641.45335 1565.4053,642.32922 1564.84898,642.84607 C1562.67987,644.861294 1559.84847,646 1556.8451,646 C1550.30323,646 1545,640.627417 1545,634 C1545,627.372583 1550.30323,622 1556.8451,622 Z M1559.98551,602 C1561.58427,602 1562.90272,603.28965 1562.99486,604.901714 L1563,605.082109 L1563,615.932195 C1563,616.764624 1562.32518,617.439441 1561.49275,617.439441 C1560.70657,617.439441 1560.06097,616.837521 1559.99167,616.069385 L1559.98551,615.932195 L1559.98551,605.086925 L1559.9808,605.082109 L1527.0192,605.082109 L1527.01449,605.086925 L1527.01449,638.913075 L1527.0192,638.917891 L1537.27489,638.917891 C1538.12599,638.917891 1538.81594,639.607844 1538.81594,640.458945 C1538.81594,641.262763 1538.20052,641.922841 1537.41515,641.993702 L1537.27489,642 L1527.01449,642 C1525.41573,642 1524.09728,640.71035 1524.00514,639.098286 L1524,638.917891 L1524,605.082109 C1524,603.447491 1525.26136,602.099461 1526.83805,602.005258 L1527.01449,602 L1559.98551,602 Z M1541.59014,616.003587 C1542.41534,616.003587 1543.08203,616.6743 1543.08203,617.504483 C1543.08203,618.285833 1542.49147,618.925921 1541.73402,618.998522 L1541.59014,619.00538 L1531.49189,619.00538 C1530.66669,619.00538 1530,618.334667 1530,617.504483 C1530,616.723134 1530.59056,616.083046 1531.34802,616.010445 L1531.49189,616.003587 L1541.59014,616.003587 Z M1554.6442,610 C1555.4694,610 1556.14076,610.670713 1556.14076,611.500897 C1556.14076,612.282246 1555.55019,612.922334 1554.79274,612.994935 L1554.64886,613.001793 L1531.49189,613.001793 C1530.66669,613.001793 1530,612.33108 1530,611.500897 C1530,610.719548 1530.59056,610.079459 1531.34802,610.006858 L1531.49189,610 L1554.6442,610 Z" id="机构信息-监管端-许可证信息-4补办"></path>
        </g>
    </g>
</svg>