<?xml version="1.0" encoding="UTF-8"?>
<svg width="44px" height="44px" viewBox="0 0 44 44" version="1.1" xmlns="http://www.w3.org/2000/svg" xmlns:xlink="http://www.w3.org/1999/xlink">
    <!-- Generator: Sketch 63.1 (92452) - https://sketch.com -->
    <title>机构信息-监管端-许可证信息-5注销收回</title>
    <desc>Created with Sketch.</desc>
    <g id="页面-1" stroke="none" stroke-width="1" fill="none" fill-rule="evenodd">
        <g id="机构信息-监管端-许可证信息" transform="translate(-1524.000000, -706.000000)" fill="#999999" fill-rule="nonzero">
            <path d="M1556,726 C1562.62742,726 1568,731.372583 1568,738 C1568,744.627417 1562.62742,750 1556,750 C1549.37258,750 1544,744.627417 1544,738 C1544,731.372583 1549.37258,726 1556,726 Z M1556,729 C1551.02944,729 1547,733.029437 1547,738 C1547,742.970563 1551.02944,747 1556,747 C1560.97056,747 1565,742.970563 1565,738 C1565,733.029437 1560.97056,729 1556,729 Z M1559.98551,706 C1561.58427,706 1562.90272,707.28965 1562.99486,708.901714 L1563,709.082109 L1563,719.932195 C1563,720.764624 1562.32518,721.439441 1561.49275,721.439441 C1560.70657,721.439441 1560.06097,720.837521 1559.99167,720.069385 L1559.98551,719.932195 L1559.98551,709.086925 L1559.9808,709.082109 L1527.0192,709.082109 L1527.01449,709.086925 L1527.01449,742.913075 L1527.0192,742.917891 L1537.27489,742.917891 C1538.12599,742.917891 1538.81594,743.607844 1538.81594,744.458945 C1538.81594,745.262763 1538.20052,745.922841 1537.41515,745.993702 L1537.27489,746 L1527.01449,746 C1525.41573,746 1524.09728,744.71035 1524.00514,743.098286 L1524,742.917891 L1524,709.082109 C1524,707.447491 1525.26136,706.099461 1526.83805,706.005258 L1527.01449,706 L1559.98551,706 Z M1553.25341,733.494774 L1553.34835,733.580583 L1556,736.232233 L1558.65165,733.580583 C1559.13981,733.092427 1559.93126,733.092427 1560.41942,733.580583 C1560.87706,734.038228 1560.90567,734.762447 1560.50523,735.253414 L1560.41942,735.34835 L1557.76777,738 L1560.41942,740.65165 C1560.90757,741.139806 1560.90757,741.931262 1560.41942,742.419417 C1559.96177,742.877063 1559.23755,742.905666 1558.74659,742.505226 L1558.65165,742.419417 L1556,739.767767 L1553.34835,742.419417 C1552.86019,742.907573 1552.06874,742.907573 1551.58058,742.419417 C1551.12294,741.961772 1551.09433,741.237553 1551.49477,740.746586 L1551.58058,740.65165 L1554.23223,738 L1551.58058,735.34835 C1551.09243,734.860194 1551.09243,734.068738 1551.58058,733.580583 C1552.03823,733.122937 1552.76245,733.094334 1553.25341,733.494774 Z M1541.59014,720.003587 C1542.41534,720.003587 1543.08203,720.6743 1543.08203,721.504483 C1543.08203,722.285833 1542.49147,722.925921 1541.73402,722.998522 L1541.59014,723.00538 L1531.49189,723.00538 C1530.66669,723.00538 1530,722.334667 1530,721.504483 C1530,720.723134 1530.59056,720.083046 1531.34802,720.010445 L1531.49189,720.003587 L1541.59014,720.003587 Z M1554.6442,714 C1555.4694,714 1556.14076,714.670713 1556.14076,715.500897 C1556.14076,716.282246 1555.55019,716.922334 1554.79274,716.994935 L1554.64886,717.001793 L1531.49189,717.001793 C1530.66669,717.001793 1530,716.33108 1530,715.500897 C1530,714.719548 1530.59056,714.079459 1531.34802,714.006858 L1531.49189,714 L1554.6442,714 Z" id="机构信息-监管端-许可证信息-5注销收回"></path>
        </g>
    </g>
</svg>