<?xml version="1.0" encoding="UTF-8"?>
<svg width="14px" height="13px" viewBox="0 0 14 13" version="1.1" xmlns="http://www.w3.org/2000/svg" xmlns:xlink="http://www.w3.org/1999/xlink">
    <!-- Generator: Sketch 63.1 (92452) - https://sketch.com -->
    <title>机构信息-监管端-基本信息-1感叹号</title>
    <desc>Created with Sketch.</desc>
    <g id="页面-1" stroke="none" stroke-width="1" fill="none" fill-rule="evenodd">
        <g id="机构信息-监管端-基本信息-加编辑" transform="translate(-903.000000, -261.000000)" fill="#F56C6C" fill-rule="nonzero">
            <path d="M911.224702,261.704171 L911.23572,261.723996 L916.836464,271.997035 C916.943846,272.193998 917,272.413624 917,272.636656 C917,273.382093 916.386066,273.987787 915.624029,273.999815 L915.600885,274 L904.399398,274 C904.170515,274 903.945126,273.945291 903.742994,273.840659 C903.067426,273.490933 902.80652,272.678437 903.153122,272.017045 L903.163819,271.997035 L908.764548,261.723996 C908.895508,261.483787 909.097212,261.28724 909.343723,261.159629 C910.019292,260.809902 910.856269,261.054055 911.224687,261.704171 L911.224702,261.704171 Z M909.990712,270.719454 C909.679249,270.719454 909.431751,270.956803 909.431751,271.266211 C909.431751,271.575619 909.679234,271.812969 909.990727,271.812969 C910.310745,271.812969 910.553958,271.575619 910.553958,271.266211 C910.553958,270.956803 910.310745,270.719454 909.990727,270.719454 L909.990712,270.719454 Z M910.000141,265.365488 C909.745153,265.365488 909.537953,265.564905 909.533828,265.812409 L909.53377,265.819936 L909.53377,269.45552 C909.53377,269.706503 909.742573,269.909968 910.000141,269.909968 C910.25513,269.909968 910.46233,269.710551 910.466455,269.463047 L910.466513,269.45552 L910.466513,265.819936 C910.466513,265.568953 910.25771,265.365488 910.000141,265.365488 Z" id="机构信息-监管端-基本信息-1感叹号"></path>
        </g>
    </g>
</svg>