<?xml version="1.0" encoding="UTF-8"?>
<svg width="44px" height="44px" viewBox="0 0 44 44" version="1.1" xmlns="http://www.w3.org/2000/svg" xmlns:xlink="http://www.w3.org/1999/xlink">
    <!-- Generator: Sketch 63.1 (92452) - https://sketch.com -->
    <title>机构信息-监管端-许可证信息-3换证</title>
    <desc>Created with Sketch.</desc>
    <g id="页面-1" stroke="none" stroke-width="1" fill="none" fill-rule="evenodd">
        <g id="机构信息-监管端-许可证信息" transform="translate(-1524.000000, -498.000000)" fill="#999999" fill-rule="nonzero">
            <path d="M1559.84724,518 C1560.44581,518 1561.02664,518.242602 1561.45673,518.69252 L1561.45673,518.69252 L1567.3715,524.907554 C1568.2095,525.785334 1568.2095,527.165962 1567.3715,528.048153 L1567.3715,528.048153 L1561.45673,534.254365 C1561.02221,534.704282 1560.44137,534.946885 1559.84724,534.946885 C1559.57234,534.946885 1559.29744,534.893953 1559.03141,534.78809 C1558.1668,534.444036 1557.60814,533.614777 1557.60814,532.670833 L1557.60814,532.670833 L1557.60814,531.413711 L1549.97746,531.413711 C1549.19267,531.413711 1548.55863,530.782944 1548.55863,530.002205 L1548.55863,530.002205 L1548.55863,528.793604 L1544.04495,533.530969 L1548.55419,538.268333 L1548.55419,537.064143 C1548.55419,536.283404 1549.18823,535.652637 1549.97303,535.652637 L1549.97303,535.652637 L1553.18314,535.652637 C1553.96794,535.652637 1554.60198,536.283404 1554.60198,537.064143 C1554.60198,537.844881 1553.96794,538.475648 1553.18314,538.475648 L1553.18314,538.475648 L1551.39186,538.475648 L1551.39186,539.723948 C1551.39186,540.667892 1550.8332,541.497151 1549.96859,541.841206 C1549.70256,541.947069 1549.42766,542 1549.15276,542 C1548.55863,542 1547.97336,541.761808 1547.54327,541.30748 L1547.54327,541.30748 L1541.6285,535.101268 C1540.7905,534.223488 1540.7905,532.84286 1541.6285,531.960669 L1541.6285,531.960669 L1547.54771,525.750046 C1547.98222,525.300129 1548.56306,525.057526 1549.1572,525.057526 C1549.4321,525.057526 1549.707,525.110458 1549.97303,525.216321 C1550.83763,525.560375 1551.3963,526.389634 1551.3963,527.333578 L1551.3963,527.333578 L1551.3963,528.5907 L1559.02697,528.5907 C1559.81177,528.5907 1560.44581,529.221467 1560.44581,530.002205 L1560.44581,530.002205 L1560.44581,531.210807 L1564.95948,526.473442 L1560.44581,521.736078 L1560.44581,522.940268 C1560.44581,523.721007 1559.81177,524.351774 1559.02697,524.351774 L1559.02697,524.351774 L1555.81686,524.351774 C1555.03206,524.351774 1554.39802,523.721007 1554.39802,522.940268 C1554.39802,522.159529 1555.03206,521.528763 1555.81686,521.528763 L1555.81686,521.528763 L1557.60814,521.528763 L1557.60814,520.276052 C1557.60814,519.332108 1558.1668,518.502849 1559.03141,518.158794 C1559.29744,518.052931 1559.57234,518 1559.84724,518 Z M1559.98551,498 C1561.64348,498 1563,499.386949 1563,501.082109 L1563,501.082109 L1563,511.932195 C1563,512.764624 1562.32518,513.439441 1561.49275,513.439441 C1560.66032,513.439441 1559.98551,512.764624 1559.98551,511.932195 L1559.98551,511.932195 L1559.98551,501.086925 L1559.9808,501.082109 L1527.0192,501.082109 L1527.01449,501.086925 L1527.01449,534.913075 L1527.0192,534.917891 L1537.27489,534.917891 C1538.12599,534.917891 1538.81594,535.607844 1538.81594,536.458945 C1538.81594,537.310046 1538.12599,538 1537.27489,538 L1537.27489,538 L1527.01449,538 C1525.35652,538 1524,536.613051 1524,534.917891 L1524,534.917891 L1524,501.082109 C1524,499.386949 1525.35652,498 1527.01449,498 L1527.01449,498 Z M1541.59014,512.003587 C1542.41534,512.003587 1543.08203,512.6743 1543.08203,513.504483 C1543.08203,514.334667 1542.41534,515.00538 1541.59014,515.00538 L1541.59014,515.00538 L1531.49189,515.00538 C1530.66669,515.00538 1530,514.334667 1530,513.504483 C1530,512.6743 1530.66669,512.003587 1531.49189,512.003587 L1531.49189,512.003587 Z M1554.6442,506 C1555.4694,506 1556.14076,506.670713 1556.14076,507.500897 C1556.14076,508.33108 1555.47407,509.001793 1554.64886,509.001793 L1554.64886,509.001793 L1531.49189,509.001793 C1530.66669,509.001793 1530,508.33108 1530,507.500897 C1530,506.670713 1530.66669,506 1531.49189,506 L1531.49189,506 Z" id="机构信息-监管端-许可证信息-3换证"></path>
        </g>
    </g>
</svg>