<?xml version="1.0" encoding="UTF-8"?>
<svg width="12px" height="12px" viewBox="0 0 12 12" version="1.1" xmlns="http://www.w3.org/2000/svg" xmlns:xlink="http://www.w3.org/1999/xlink">
    <title>系统对接备份</title>
    <g id="页面-1" stroke="none" stroke-width="1" fill="none" fill-rule="evenodd">
        <g id="右边栏收起" transform="translate(-631.000000, -170.000000)" fill-rule="nonzero">
            <g id="系统对接备份" transform="translate(631.000000, 170.000000)">
                <rect id="矩形" fill="#000000" opacity="0" x="0" y="0" width="12" height="12"></rect>
                <path d="M11.2177754,0.832409611 L11.1672549,0.780761964 C10.6648153,0.278320087 9.99173867,0 9.27325457,0 C8.5551297,0 7.88169381,0.278320087 7.37743415,0.782606095 L4.69795221,3.46436776 C4.18747776,3.97450948 3.8985442,4.61061494 3.88389934,5.25513872 C3.86888327,5.91285882 4.20797816,6.86536446 4.8774026,7.50036823 C4.8774026,7.50036823 5.19390154,7.78020912 5.54297123,7.46764089 C5.84832187,7.19421853 5.53698396,6.85093474 5.53698396,6.85093474 C4.73070256,6.11049219 4.49341517,4.76352213 5.24541599,4.0114879 L7.92784367,1.33008549 C8.28672049,0.970467964 8.7653307,0.772355602 9.27471546,0.772355602 C9.78447143,0.772355602 10.2631056,0.970467964 10.6230841,1.33008549 L10.6710541,1.37696713 C11.0321222,1.73877605 11.2302409,2.2177831 11.2302409,2.7275536 C11.2302409,3.23731213 11.0321222,3.71631917 10.6721677,4.0752182 L9.4581893,5.28590219 C9.36701519,5.35364407 9.31280647,5.4616814 9.31280647,5.57483202 C9.31280647,5.77222589 9.47320537,5.93261738 9.67059362,5.93261738 C9.73870478,5.93261738 9.80205007,5.91503827 9.85882134,5.87989199 L9.87054441,5.87257534 C9.90020534,5.85278088 9.9269325,5.82752586 9.9507259,5.79748089 L9.98187166,5.76416678 L11.2262175,4.61571623 C11.7224183,4.11950128 12,3.44641741 12,2.72754162 C12,2.00977949 11.7224183,1.33668365 11.2177754,0.832409611 Z M6.37733292,4.12499777 C6.07266482,4.30116018 6.07188647,4.65323353 6.34140931,4.89932922 C6.78049157,5.19777907 7.44497052,5.98148686 7.44497052,6.45023142 C7.44497052,7.01566115 7.17345991,7.57691164 6.75892544,7.99073943 L4.07798262,10.6721299 C3.71873459,11.0317594 3.2401124,11.2295125 2.73071566,11.2295125 C2.22097166,11.2295125 1.74234948,11.0317594 1.38274221,10.6721299 L1.33074877,10.6197637 C0.97187195,10.2608767 0.773741283,9.7815104 0.774483702,9.2710214 C0.774842942,8.76196939 0.972949658,8.28406404 1.3325689,7.92518896 L2.51685046,6.7408497 C2.62963861,6.64894252 2.67981192,6.54492874 2.67981192,6.43287983 C2.67981192,6.23219286 2.51685046,6.06959799 2.31654044,6.06959799 C2.24439386,6.06959799 2.17409136,6.09121265 2.11329665,6.13185537 L2.1059802,6.13771108 C2.07851062,6.15749358 2.05470524,6.18019795 2.03493529,6.20435127 L0.777776699,7.38356528 C-0.26041553,8.42286484 -0.26041553,10.1242793 0.784733903,11.1694465 L0.83380555,11.2177891 C1.33916687,11.7227936 2.01224353,12 2.73035642,12 C3.44846931,12 4.12155795,11.7227936 4.62544641,11.21925 L7.30641317,8.53711713 C8.8678926,6.94996698 8.14208008,5.51661016 7.12732202,4.50001497 C7.12731005,4.500003 6.68202497,3.94960174 6.37733292,4.12499777 Z" id="形状" fill="#006569"></path>
            </g>
        </g>
    </g>
</svg>