<?xml version="1.0" encoding="UTF-8"?>
<svg width="18px" height="18px" viewBox="0 0 18 18" version="1.1" xmlns="http://www.w3.org/2000/svg" xmlns:xlink="http://www.w3.org/1999/xlink">
    <title>jg-public-kapian-shehuirongzi.svg</title>
    <g id="页面-1" stroke="none" stroke-width="1" fill="none" fill-rule="evenodd">
        <g id="金融发展-全省总览" transform="translate(-834.000000, -186.000000)" fill-rule="nonzero">
            <g id="jg-public-kapian-shehuirongzi.svg" transform="translate(834.000000, 186.000000)">
                <rect id="矩形" fill="#000000" opacity="0" x="0" y="0" width="18" height="18"></rect>
                <path d="M4.5,3.29999999 L16.8,3.29999999 C17.4627417,3.29999999 18,3.8372583 18,4.5 L18,16.605 C18,17.2677417 17.4627417,17.805 16.8,17.805 L4.5,17.805 C3.8372583,17.805 3.29999999,17.2677417 3.29999999,16.605 L3.29999999,4.5 C3.29999999,3.8372583 3.8372583,3.29999999 4.5,3.29999999 Z M4.5,4.5 L4.5,16.8 L16.8,16.8 L16.8,4.5 L4.5,4.5 Z" id="形状" fill="#595959"></path>
                <path d="M14.7,2.39999999 L14.7,1.20000001 C14.7,0.537258303 14.1627417,0 13.5,0 L1.20000001,0 C0.537258303,0 0,0.537258303 0,1.20000001 L0,13.305 C0,13.9677417 0.53725831,14.505 1.20000001,14.505 L2.39999999,14.505 L2.39999999,13.5 L1.20000001,13.5 L1.20000001,1.20000001 L13.5,1.20000001 L13.5,2.39999999 L14.7,2.39999999 Z" id="路径" fill="#595959"></path>
                <polygon id="路径" fill="#595959" points="14.7 9.94379999 11.3577 9.94379999 11.3577 6.60000001 10.2348 6.60000001 10.2348 9.94379999 6.89999999 9.94379999 6.89999999 11.0595 10.242 11.0595 10.242 14.4 11.3592 14.4 11.3592 11.0595 14.7 11.0595"></polygon>
            </g>
        </g>
    </g>
</svg>