<?xml version="1.0" encoding="UTF-8"?>
<svg width="12px" height="14px" viewBox="0 0 12 14" version="1.1" xmlns="http://www.w3.org/2000/svg" xmlns:xlink="http://www.w3.org/1999/xlink">
    <title>文件_提示</title>
    <g id="页面-1" stroke="none" stroke-width="1" fill="none" fill-rule="evenodd">
        <g id="机构信息-监管端-基本信息-加编辑" transform="translate(-773.000000, -388.000000)" fill="#909399" fill-rule="nonzero">
            <g id="文件_提示" transform="translate(773.000000, 388.000000)">
                <path d="M8.04277965,11.816 C8.04277965,12.0990606 8.27067107,12.3289595 8.55278686,12.3305019 C8.68858869,12.3308753 8.81891598,12.2768185 8.91481165,12.1803402 C9.01070731,12.0838619 9.06422872,11.9529531 9.06349175,11.8167 C9.06310478,11.5339125 8.83532839,11.3044387 8.55348454,11.3028981 C8.41768271,11.3025246 8.28735542,11.3565815 8.19145976,11.4530598 C8.09556409,11.5495381 8.04204268,11.6804469 8.04277965,11.8167 L8.04277965,11.816 Z M8.23394995,10.7891 L8.87232147,10.7891 C8.94208885,10.7891 8.99999577,10.731 8.99999577,10.6603 L8.99999577,8.8627 C8.99999577,8.79183819 8.94294675,8.73428511 8.87232147,8.73389999 L8.23394995,8.73389999 C8.16418256,8.73389999 8.10627564,8.79199999 8.10627564,8.8627 L8.10627564,10.6603 C8.10627564,10.731 8.1634849,10.7891 8.23394995,10.7891 L8.23394995,10.7891 Z M8.80813547,3.7891 L8.80813547,3.0184 C8.80813547,2.94770001 8.75092621,2.8896 8.68115884,2.8896 L2.55209454,2.8896 C2.48232715,2.8896 2.42442023,2.94769999 2.42442023,3.0184 L2.42442023,3.7884 C2.42442023,3.8598 2.48232715,3.9172 2.55209454,3.9172 L8.68046116,3.9172 C8.75022855,3.9172 8.80743779,3.8598 8.80743781,3.7891 L8.80813547,3.7891 Z M2.55348989,5.20100001 C2.48372251,5.20100001 2.42581559,5.2591 2.42581559,5.3298 L2.42581559,6.09980001 C2.42581559,6.1705 2.48372251,6.2286 2.55348989,6.2286 L5.4899989,6.2286 C5.55976629,6.2286 5.61767321,6.17119999 5.61767321,6.1005 L5.61767321,5.3305 C5.61767321,5.25980001 5.56046395,5.2017 5.4899989,5.2017 L2.55279221,5.2017 L2.55348989,5.20100001 Z M8.55348454,7.063 C7.63799705,7.06429853 6.76053006,7.4304809 6.11416407,8.08097121 C5.46779808,8.73146152 5.1054946,9.61296035 5.10697146,10.5315 C5.1054946,11.4500396 5.46779808,12.3315385 6.11416406,12.9820288 C6.76053005,13.6325191 7.63799705,13.9987015 8.55348454,14 C9.46885096,13.9987014 10.3462121,13.6326151 10.992558,12.9822763 C11.638904,12.3319374 12.0012892,11.4506185 11.9999966,10.5322 C12.0012892,9.61378153 11.638904,8.73246259 10.992558,8.08212373 C10.3462121,7.43178488 9.46885096,7.06569864 8.55348454,7.06439999 L8.55348454,7.063 Z M10.2697621,12.257 C9.81608312,12.7161309 9.19786295,12.9735729 8.55348454,12.9717101 C7.90969053,12.9733829 7.29205661,12.7162279 6.83860234,12.2577 C6.38205002,11.8002509 6.12638758,11.1788701 6.12835674,10.5315 C6.12620393,9.88457392 6.38133822,9.26350803 6.837207,8.806 C7.29066127,8.34747212 7.90829518,8.09031707 8.5520892,8.09198774 C9.19636656,8.08994213 9.81457234,8.34712602 10.2683667,8.806 C10.7246632,9.26356418 10.9800687,9.88493076 10.9779147,10.5322 C10.9798838,11.1795701 10.7242214,11.8009509 10.2676691,12.2584 L10.2697621,12.257 Z M4.8509297,12.4586 L1.14907254,12.4586 L1.14907254,1.1557 L10.0848785,1.1557 L10.0848785,6.6787 C10.0848785,6.74939999 10.1427854,6.80750001 10.2125528,6.80750001 L11.106273,6.80750001 C11.1760403,6.80750001 11.2339492,6.74940001 11.2339492,6.6787 L11.2339492,0.513800011 C11.234318,0.377660674 11.1806763,0.246969775 11.0848617,0.150573125 C10.9890472,0.0541764758 10.8589375,-2.65269288e-14 10.72325,-2.65269288e-14 L0.510701017,-2.65269288e-14 C0.375013585,-2.65269288e-14 0.244903839,0.0541764758 0.14908932,0.150573125 C0.0532748014,0.246969775 -0.000366935182,0.377660674 1.88942972e-06,0.513800011 L1.88942972e-06,13.1012 C1.88942972e-06,13.3854 0.22814313,13.6143 0.510701017,13.6143 L4.8509297,13.6143 C4.92069709,13.6143 4.97860401,13.5569 4.97860401,13.4862 L4.97860401,12.5874 C4.97860504,12.5165382 4.92155497,12.4589851 4.8509297,12.4586 Z" id="形状"></path>
            </g>
        </g>
    </g>
</svg>