<?xml version="1.0" encoding="UTF-8"?>
<svg width="26px" height="24px" viewBox="0 0 26 24" version="1.1" xmlns="http://www.w3.org/2000/svg" xmlns:xlink="http://www.w3.org/1999/xlink">
    <title>收起</title>
    <g id="页面-1" stroke="none" stroke-width="1" fill="none" fill-rule="evenodd">
        <g id="首页-监管二处-担保" transform="translate(-272.000000, -24.000000)" fill="#005890">
            <g id="收起" transform="translate(272.000000, 24.000000)">
                <path d="M0.119541594,12.3039171 L6.13109905,18.5387661 C6.39417134,18.8117455 6.84210526,18.6188401 6.84210526,18.2330292 L6.84210526,5.76697079 C6.84210526,5.38115995 6.39417134,5.18825449 6.13109905,5.4612339 L0.123096595,11.6924432 C-0.0404348149,11.8635103 -0.0404348149,12.1364897 0.119541594,12.3039171 Z M25.2693514,1.33333333 L0.733910414,1.33333333 C0.329444225,1.33333333 0,1.03407409 0,0.666666682 C0,0.299259279 0.329444225,-5.55111512e-16 0.733910414,-5.55111512e-16 L25.2660896,-5.55111512e-16 C25.6705557,-5.55111512e-16 26,0.299259248 26,0.666666682 C26,1.03407412 25.6738176,1.33333333 25.2693514,1.33333333 Z M25.2941138,9.33333333 L11.6532546,9.33333333 C11.2642329,9.33333333 10.9473684,9.03407409 10.9473684,8.66666665 C10.9473684,8.29925922 11.2642329,8 11.6532546,8 L25.2941138,8 C25.6831355,8 26,8.29925925 26,8.66666665 C26,9.03407405 25.6831355,9.33333333 25.2941138,9.33333333 L25.2941138,9.33333333 Z M25.2941138,16 L11.6532546,16 C11.2642329,16 10.9473684,15.7007408 10.9473684,15.3333333 C10.9473684,14.9659259 11.2642329,14.6666667 11.6532546,14.6666667 L25.2941138,14.6666667 C25.6831355,14.6666667 26,14.9659259 26,15.3333333 C26,15.7007407 25.6831355,16 25.2941138,16 L25.2941138,16 Z M25.2693514,24 L0.733910414,24 C0.329444225,24 0,23.7007408 0,23.3333333 C0,22.9659259 0.329444225,22.6666667 0.733910414,22.6666667 L25.2660896,22.6666667 C25.6705557,22.6666667 26,22.9659259 26,23.3333333 C26,23.7007407 25.6738176,24 25.2693514,24 Z" id="形状"></path>
            </g>
        </g>
    </g>
</svg>