<?xml version="1.0" encoding="UTF-8"?>
<svg width="18px" height="18px" viewBox="0 0 18 18" version="1.1" xmlns="http://www.w3.org/2000/svg" xmlns:xlink="http://www.w3.org/1999/xlink">
    <title>jg-public-kapian-qinglizhengdunjigou.svg</title>
    <g id="页面-1" stroke="none" stroke-width="1" fill="none" fill-rule="evenodd">
        <g id="地方金融组织风险" transform="translate(-287.000000, -542.000000)" fill-rule="nonzero">
            <g id="jg-public-kapian-qinglizhengdunjigou.svg" transform="translate(287.000000, 542.000000)">
                <rect id="矩形" fill="#000000" opacity="0" x="0" y="0" width="18" height="18"></rect>
                <path d="M12.3704473,11.2393828 C12.7071738,11.2393828 12.9316113,11.0147695 12.9316113,10.6781133 L12.9316113,5.62737305 C12.9316113,5.29062891 12.7071738,5.06613867 12.3704473,5.06613867 C12.0337559,5.06613867 11.8091602,5.29062891 11.8091602,5.62737305 L11.8091602,10.6781309 C11.8091777,10.9586953 12.0337559,11.2393828 12.3704473,11.2393828 Z M9.00326953,11.2393828 C9.34004883,11.2393828 9.56445117,11.0147695 9.56445117,10.6781133 L9.56445117,3.94370508 C9.56445117,3.60696094 9.34004883,3.38250586 9.00326953,3.38250586 C8.66652539,3.38250586 8.44205273,3.60696094 8.44205273,3.94370508 L8.44205273,10.6781309 C8.44203516,10.9586953 8.66652539,11.2393828 9.00326953,11.2393828 Z M0.0240820312,0.0153632813 L0.0240820312,1.1377793 L1.14651562,1.1377793 L1.14651562,11.800459 C1.14651562,13.1473477 2.04438867,14.0453262 3.39125977,14.0453262 L6.75854297,14.0453262 L4.51367578,17.973668 L6.19729102,17.973668 L8.44203516,14.0453262 L9.56443359,14.0453262 L11.8091602,17.973668 L13.4928633,17.973668 L11.2481367,14.0453086 L14.6152617,14.0453086 C15.9621855,14.0453086 16.8599707,13.1473301 16.8599707,11.8004414 L16.8599707,1.13776172 L17.9824043,1.13776172 L17.9824043,0.0153632813 L0.0240820312,0.0153632813 Z M15.7376777,11.8004414 C15.7376777,12.4739473 15.2886973,12.9228926 14.6152441,12.9228926 L3.39124219,12.9228926 C2.71785937,12.9228926 2.26891406,12.4739473 2.26891406,11.8004414 L2.26891406,1.13776172 L15.7376777,1.13776172 L15.7376777,11.8004414 L15.7376777,11.8004414 Z M5.63610937,11.2393828 C5.97283594,11.2393828 6.19729102,11.0147695 6.19729102,10.6781133 L6.19729102,8.43331641 C6.19729102,8.09655469 5.97283594,7.87211719 5.63610937,7.87211719 C5.29934766,7.87211719 5.07485742,8.09655469 5.07485742,8.43331641 L5.07485742,10.6781309 C5.074875,10.9586953 5.29936523,11.2393828 5.63610937,11.2393828 L5.63610937,11.2393828 Z" id="形状" fill="#595959"></path>
            </g>
        </g>
    </g>
</svg>