<?xml version="1.0" encoding="UTF-8"?>
<svg width="19px" height="18px" viewBox="0 0 19 18" version="1.1" xmlns="http://www.w3.org/2000/svg" xmlns:xlink="http://www.w3.org/1999/xlink">
    <!-- Generator: Sketch 63.1 (92452) - https://sketch.com -->
    <title>编组 2</title>
    <desc>Created with Sketch.</desc>
    <g id="页面-1" stroke="none" stroke-width="1" fill="none" fill-rule="evenodd">
        <g id="1非法集资案件管理-3案件查询-1报表查询-2报送处非联办报表查询" transform="translate(-928.000000, -279.000000)" fill="#606367" fill-rule="nonzero">
            <g id="重置" transform="translate(927.000000, 277.000000)">
                <g id="编组-2" transform="translate(1.144000, 0.771180)">
                    <path d="M10.2094681,18.4562155 C11.2818991,18.4450754 12.3247604,18.2166359 13.3091245,17.7772129 C14.2595572,17.3529285 15.1152262,16.7509328 15.8523405,15.9879416 C16.5894548,15.2249505 17.17113,14.3391433 17.5812145,13.355128 C18.0059105,12.3360042 18.2269109,11.2562551 18.2380456,10.1457695 C18.24918,9.03530496 18.0498094,7.95990153 17.645444,6.94938975 C17.2550091,5.97371101 16.6909783,5.09980499 15.9690128,4.35197031 C15.2470474,3.60413562 14.4032736,3.01979316 13.4611524,2.61516798 C12.4853959,2.19612708 11.4468991,1.98928703 10.3744681,2.00042709 C8.31444022,2.02182599 6.35321832,2.85499468 4.8520968,4.34644681 C3.35563247,5.83328642 2.46970966,7.81975185 2.35755261,9.93989947 L3.65321206,9.98611097 C3.84827861,6.2986123 6.79469764,3.38104828 10.3609963,3.34400273 C14.0270196,3.30592128 16.9785699,6.36325177 16.9405077,10.1592689 C16.9024455,13.9552861 13.8889628,17.0746004 10.2229396,17.1126819 C8.8085317,17.1273743 7.46284583,16.68782 6.33141182,15.841556 L5.55759838,16.9362179 C6.91054492,17.9481708 8.51914663,18.473774 10.2094681,18.4562155 Z" id="路径" transform="translate(10.298020, 10.228321) rotate(-15.000000) translate(-10.298020, -10.228321) "></path>
                    <path d="M3.26070314,12.9788198 C3.41955727,12.9788198 3.5784114,12.9156922 3.69959769,12.7894369 L5.97819142,10.4159352 C6.22060286,10.1634449 6.22060286,9.7540466 5.97819142,9.50153607 C5.73579941,9.24902555 5.34277489,9.24902555 5.10038288,9.50153607 L2.82180858,11.8750379 C2.57939714,12.1275484 2.57939714,12.5369467 2.82180858,12.7894369 C2.94301431,12.9156922 3.10186844,12.9788198 3.26070314,12.9788198 L3.26070314,12.9788198 Z" id="路径"></path>
                    <path d="M2.89929686,12.9788198 C3.05817043,12.9788198 3.21698569,12.9157122 3.33819142,12.7894362 C3.58060286,12.5369448 3.58060286,12.1275449 3.33819142,11.8750333 L1.05961712,9.50152167 C0.817244551,9.24903035 0.424220029,9.24903035 0.181808584,9.50152167 C-0.0606028614,9.75403325 -0.0606028614,10.163413 0.181808584,10.4159246 L2.46040231,12.7894362 C2.58156916,12.9156717 2.74046217,12.9788198 2.89929686,12.9788198 L2.89929686,12.9788198 Z" id="路径"></path>
                </g>
            </g>
        </g>
    </g>
</svg>