<?xml version="1.0" encoding="UTF-8"?>
<svg width="18px" height="18px" viewBox="0 0 18 18" version="1.1" xmlns="http://www.w3.org/2000/svg" xmlns:xlink="http://www.w3.org/1999/xlink">
    <title>jg-public-kapian-zhengcewenjian.svg</title>
    <g id="页面-1" stroke="none" stroke-width="1" fill="none" fill-rule="evenodd">
        <g id="小贷" transform="translate(-1034.000000, -470.000000)" fill-rule="nonzero">
            <g id="jg-public-kapian-zhengcewenjian.svg" transform="translate(1034.000000, 470.000000)">
                <rect id="矩形" fill="#000000" opacity="0" x="0" y="0" width="18" height="18"></rect>
                <g id="编组-5" transform="translate(1.000000, 0.000000)" fill="#595959">
                    <path d="M8.08370903,18 L2.76037952,18 C1.23649804,17.9973314 0.00200013331,16.7622918 0,15.2384093 L0,2.76280196 C0.000666792924,1.23817045 1.23574918,0.00200418483 2.76037952,0 L13.0412489,0 C14.5649345,0.00200177368 15.7996267,1.23669394 15.8016284,2.76037952 L15.8016284,9.43664625 C15.8016284,9.74770361 15.5494666,9.99986542 15.2384093,9.99986542 C14.9273519,9.99986542 14.6751901,9.74770361 14.6751901,9.43664625 L14.6751901,2.76037952 C14.6745221,1.85825556 13.9433729,1.12710632 13.0412489,1.12643833 L2.76037952,1.12643833 C1.85825556,1.12710632 1.12710632,1.85825556 1.12643833,2.76037952 L1.12643833,15.2105511 C1.12710632,16.1126751 1.85825556,16.8438243 2.76037952,16.8444923 L8.08976515,16.8444923 C8.40054614,16.8451585 8.65231812,17.0969305 8.65298433,17.4077115 C8.65853915,17.5614099 8.60193241,17.7108638 8.4959497,17.8223166 C8.389967,17.9337694 8.24354845,17.9978194 8.08976515,18 L8.08370903,18 Z" id="路径"></path>
                    <path d="M11.9995963,4.92968171 L3.66153019,4.92968171 C3.46031136,4.92968171 3.27437749,4.82233275 3.17376808,4.64807214 C3.07315866,4.47381152 3.07315866,4.25911359 3.17376808,4.08485297 C3.27437749,3.91059235 3.46031136,3.8032434 3.66153019,3.8032434 L11.9995963,3.8032434 C12.3106536,3.8032434 12.5628154,4.0554052 12.5628154,4.36646255 C12.5628154,4.6775199 12.3106536,4.92968171 11.9995963,4.92968171 Z M9.15443105,7.94320704 L3.66153019,7.94320704 C3.35047283,7.94320704 3.09831102,7.69104524 3.09831102,7.37998788 C3.09831102,7.06893052 3.35047283,6.81676871 3.66153019,6.81676871 L9.15443105,6.81676871 C9.46548841,6.81676871 9.71765022,7.06893052 9.71765022,7.37998788 C9.71765022,7.69104524 9.46548841,7.94320704 9.15443105,7.94320704 Z M6.14090573,11.0390956 L3.66153019,11.0390956 C3.35047283,11.0390956 3.09831102,10.7869338 3.09831102,10.4758765 C3.09831102,10.1648191 3.35047283,9.91265729 3.66153019,9.91265729 L6.14090573,9.91265729 C6.45196309,9.91265729 6.7041249,10.1648191 6.7041249,10.4758765 C6.7041249,10.7869338 6.45196309,11.0390956 6.14090573,11.0390956 L6.14090573,11.0390956 Z M10.9858018,17.4900747 C10.8250632,17.4862105 10.6685952,17.4375502 10.5340152,17.3495727 C10.2995663,17.1843375 10.1797157,16.899986 10.2251531,16.6167822 L10.5340152,14.8144808 L9.21014736,13.5463293 C9.00747606,13.3380305 8.93251905,13.0368143 9.01392908,12.7578225 C9.1001047,12.4800474 9.34358885,12.2803999 9.63286455,12.2503196 L11.4363771,11.9971738 L12.2527421,10.3632326 C12.3847733,10.1102543 12.6433576,9.94852328 12.9286051,9.94051545 C13.2161765,9.94063702 13.4785109,10.1047135 13.6044681,10.3632326 L14.4220443,11.9971738 L16.2243456,12.2503196 C16.5140788,12.2799406 16.7581441,12.4796737 16.8444923,12.7578225 C16.936719,13.0367212 16.8598322,13.3437968 16.6470628,13.5463293 L15.3231949,14.8144808 L15.6332683,16.6167822 C15.6911782,16.9016429 15.5679802,17.1927946 15.3231949,17.3495727 C15.0943255,17.5219638 14.7855249,17.5437838 14.5346881,17.405289 L12.9286051,16.5574322 L11.3237333,17.405289 C11.2222874,17.4673624 11.1046167,17.497729 10.9858018,17.4924971 L10.9858018,17.4900747 Z M10.5909427,13.236256 L11.4920934,14.1095485 C11.6648612,14.2895809 11.7475758,14.5377248 11.7173811,14.7854115 L11.4920934,16.0257049 L12.6185317,15.4334163 C12.8400137,15.3207907 13.1019821,15.3207907 13.3234641,15.4334163 L14.4499024,16.0257049 L14.2246148,14.79389 C14.1810418,14.5450342 14.2657305,14.2909679 14.4499024,14.118027 L15.3510531,13.2447345 L14.1119709,13.0763744 C13.8639413,13.0419138 13.651125,12.8821872 13.5487518,12.6536572 L12.9855326,11.5272189 L12.4223134,12.6536572 C12.3038537,12.8692967 12.0981388,13.0233622 11.857883,13.0763744 L10.5909427,13.236256 Z" id="形状"></path>
                </g>
            </g>
        </g>
    </g>
</svg>