<?xml version="1.0" encoding="UTF-8"?>
<svg width="18px" height="18px" viewBox="0 0 18 18" version="1.1" xmlns="http://www.w3.org/2000/svg" xmlns:xlink="http://www.w3.org/1999/xlink">
    <title>jg-public-kapian-feifajizi.svg</title>
    <g id="页面-1" stroke="none" stroke-width="1" fill="none" fill-rule="evenodd">
        <g id="金融风险防控--全省总览" transform="translate(-287.000000, -542.000000)" fill-rule="nonzero">
            <g id="jg-public-kapian-feifajizi.svg" transform="translate(287.000000, 542.000000)">
                <rect id="矩形" fill="#000000" opacity="0" x="0" y="0" width="18" height="18"></rect>
                <path d="M5.58984375,8.33203125 L12.4277344,8.33203125 C12.7383926,8.33203125 12.9902344,8.58387305 12.9902344,8.89453125 C12.9902344,9.20518945 12.7383926,9.45703125 12.4277344,9.45703125 L5.58984375,9.45703125 C5.27918555,9.45703125 5.02734375,9.20518945 5.02734375,8.89453125 C5.02734375,8.58387305 5.27918555,8.33203125 5.58984375,8.33203125 Z M5.58984375,10.5820312 L12.4277344,10.5820312 C12.7383926,10.5820312 12.9902344,10.833873 12.9902344,11.1445312 C12.9902344,11.4551895 12.7383926,11.7070312 12.4277344,11.7070312 L5.58984375,11.7070312 C5.27918555,11.7070312 5.02734375,11.4551895 5.02734375,11.1445312 C5.02734375,10.833873 5.27918555,10.5820312 5.58984375,10.5820312 Z M5.58984375,12.8320312 L12.4277344,12.8320312 C12.7383926,12.8320312 12.9902344,13.083873 12.9902344,13.3945312 C12.9902344,13.7051895 12.7383926,13.9570312 12.4277344,13.9570312 L5.58984375,13.9570312 C5.27918555,13.9570312 5.02734375,13.7051895 5.02734375,13.3945312 C5.02734375,13.083873 5.27918555,12.8320312 5.58984375,12.8320312 Z M14.5195312,1.125 C15.1991016,1.125 15.75,1.67589844 15.75,2.35546875 L15.75,15.6445312 C15.75,16.3241016 15.1991016,16.875 14.5195312,16.875 L3.48046875,16.875 C2.80089844,16.875 2.25,16.3241016 2.25,15.6445312 L2.25,2.35546875 C2.25,1.67589844 2.80089844,1.125 3.48046875,1.125 L14.5195312,1.125 Z M9.22851562,2.25 L9.22851562,5.21578125 L10.6889238,4.37632031 L12.1491211,5.21578125 L12.1491211,2.25 L9.22851562,2.25 Z M14.625,15.0162891 L14.625,2.98371094 C14.625,2.57848242 14.2936348,2.25 13.884873,2.25 L13.4407969,2.25 L13.4407969,5.91848438 C13.4406211,6.30130078 13.1435684,6.6196582 12.7585898,6.64961133 L12.748957,6.64961133 L12.7267559,6.65070117 L12.6564434,6.65070117 L12.6334863,6.64887305 L12.6195996,6.64758984 L12.5972227,6.64483008 L12.5826152,6.64263281 L12.5620664,6.63895898 C12.5565117,6.63786914 12.551168,6.63695508 12.5457891,6.63567188 L12.5272793,6.63162891 L12.5087871,6.62705859 L12.4932305,6.62264648 L12.4726992,6.61640625 L12.4595684,6.61201172 L12.4373496,6.60410156 L12.4260645,6.59970703 L12.4027559,6.58998633 L12.3925781,6.58541602 C12.3847388,6.58183061 12.3769679,6.57809752 12.3692695,6.57421875 L12.3588984,6.56908594 L12.3372598,6.55734375 L12.3305801,6.55366992 L10.774459,5.66516602 L9.21890039,6.55514648 L9.21723047,6.55606055 C9.20703516,6.56193164 9.19668164,6.56743359 9.18613477,6.57275977 L9.18448242,6.57367383 C9.17393555,6.57898242 9.16338867,6.58411523 9.15247266,6.58889648 L9.15043359,6.58889648 C9.1400625,6.5934668 9.12969141,6.59787891 9.11914453,6.6019043 L9.11527734,6.60338086 C9.10566211,6.60724805 9.09585352,6.61072852 9.08585156,6.61401563 L9.07955859,6.61603711 C9.07124414,6.61897266 9.06162891,6.62173242 9.05273437,6.62429883 L9.04311914,6.62686523 C9.03534961,6.6290625 9.02738672,6.63108398 9.01942383,6.63291211 L9.00629297,6.63584766 L8.98555078,6.64006641 L8.96909766,6.64300195 L8.95058789,6.64556836 L8.93116406,6.64795898 L8.9150625,6.64961133 L8.89379297,6.65126367 L8.80054102,6.65126367 L8.78925586,6.65033203 C8.78010411,6.64974093 8.77097138,6.6488851 8.76186914,6.64776563 L8.75870508,6.64776563 C8.64117566,6.6339297 8.52868032,6.59210111 8.43066211,6.52579102 L8.42749805,6.52359375 C8.41918359,6.51735352 8.41067578,6.51128906 8.40253711,6.50525977 L8.39105859,6.49625977 C8.38569727,6.4922168 8.37977344,6.4874707 8.37495703,6.48360352 C8.37014062,6.47975391 8.36514844,6.47516602 8.36089453,6.47150977 C8.35664062,6.46781836 8.35275586,6.46435547 8.34813281,6.4603125 C8.34350977,6.45626953 8.33925586,6.45205078 8.33480859,6.44783203 L8.32185352,6.43535156 C8.31816211,6.43169531 8.31612305,6.42932227 8.31113086,6.42417188 C8.30612109,6.41903906 8.30112891,6.41390625 8.2963125,6.40858008 L8.28892969,6.3999668 C8.28318164,6.39335742 8.27745117,6.38676563 8.27170312,6.37978711 L8.26783594,6.37483008 C8.26098047,6.36639258 8.25449414,6.35795508 8.24821875,6.34916602 L8.24821875,6.34805859 C8.20428779,6.28774244 8.16984614,6.22105844 8.14608984,6.15032227 C8.14257422,6.1396875 8.13923437,6.12887695 8.13607031,6.11804883 L8.13496289,6.11400586 C8.13237891,6.10391602 8.1299707,6.09510938 8.12775586,6.08558203 C8.12701758,6.08264648 8.1257168,6.07988672 8.1257168,6.07696875 C8.12387109,6.06888281 8.12237695,6.06081445 8.12072461,6.05274609 L8.11850977,6.0397207 C8.11738477,6.03293555 8.1153457,6.02615039 8.1153457,6.01917188 L8.11313086,6.00229688 L8.11147852,5.98396289 C8.11091602,5.97735352 8.11091602,5.96947852 8.10998437,5.96415234 C8.10907031,5.95882617 8.10907031,5.95351758 8.10907031,5.94801563 L8.10907031,2.25 L4.11514453,2.25 C3.70634766,2.25 3.375,2.57848242 3.375,2.98371094 L3.375,15.0162891 C3.375,15.4215176 3.70636523,15.75 4.11512695,15.75 L13.884873,15.75 C14.2936348,15.75 14.625,15.4215176 14.625,15.0162891 Z" id="形状" fill="#595959"></path>
            </g>
        </g>
    </g>
</svg>