<?xml version="1.0" encoding="UTF-8"?>
<svg width="18px" height="18px" viewBox="0 0 18 18" version="1.1" xmlns="http://www.w3.org/2000/svg" xmlns:xlink="http://www.w3.org/1999/xlink">
    <title>jg-public-kapian-shangyebaoli.svg</title>
    <g id="页面-1" stroke="none" stroke-width="1" fill="none" fill-rule="evenodd">
        <g id="地方金融监管-全省总览" transform="translate(-287.000000, -542.000000)" fill-rule="nonzero">
            <g id="jg-public-kapian-shangyebaoli.svg" transform="translate(287.000000, 542.000000)">
                <rect id="矩形" fill="#000000" opacity="0" x="0" y="0" width="18" height="18"></rect>
                <path d="M16.8156641,16.2219086 L16.2981125,16.2219086 L16.2981125,10.4208855 C16.2981125,10.1097195 16.1425295,9.69059798 15.7710355,9.535015 L11.071794,6.46145705 L11.071794,1.64790969 L11.0209914,1.53995414 C10.8082554,1.01605221 10.3415064,0.752513678 9.7668019,0.857294051 L2.39724819,3.0513318 C1.97812665,3.2069148 1.66696066,3.62603633 1.66696066,4.09596049 L1.66696066,16.2219086 L1.13988357,16.2219086 C0.819192094,16.2219086 0.612806484,16.4854472 0.612806484,16.7489857 C0.612806484,17.0696772 0.82554242,17.2760628 1.13988357,17.2760628 L16.8156641,17.2760628 C17.1363556,17.2760628 17.3427412,17.0633269 17.3427412,16.7489857 C17.3395661,16.4282942 17.1268301,16.2219086 16.8156641,16.2219086 Z M15.2471335,10.3637326 L15.2471335,16.2219086 L11.071794,16.2219086 L11.071794,7.65849356 L15.2471335,10.3637326 Z M2.69888869,4.09596049 L10.0112895,1.90192273 L10.0112895,16.2219086 L2.69888869,16.2219086 L2.69888869,4.09596049 Z M7.92520727,5.7152937 L4.79449638,5.7152937 C4.4738049,5.7152937 4.26741929,5.9216793 4.26741929,6.24237079 C4.26741929,6.56306227 4.48015523,6.76944788 4.79449638,6.76944788 L7.92520727,6.76944788 C8.24589875,6.76944788 8.45228435,6.56306227 8.45228435,6.24237079 C8.45228435,5.91850415 8.23637326,5.7152937 7.92520727,5.7152937 Z M7.92520727,8.84282943 L4.79449638,8.84282943 C4.4738049,8.84282943 4.26741929,9.05556537 4.26741929,9.3699065 L4.26741929,9.37625683 C4.26741929,9.69694831 4.48015523,9.90333392 4.79449638,9.90333392 L7.92520727,9.90333392 C8.24589875,9.90333392 8.45228435,9.69059798 8.45228435,9.37625683 L8.45228435,9.37308168 L8.45228435,9.3699065 C8.45228435,9.04921502 8.23637326,8.84282943 7.92520727,8.84282943 L7.92520727,8.84282943 Z M7.92520727,11.9830658 L4.79449638,11.9830658 C4.4738049,11.9830658 4.26741929,12.1894514 4.26741929,12.5101429 L4.26741929,12.5164932 C4.26741929,12.8371847 4.48015523,13.0435703 4.79449638,13.0435703 L7.92520727,13.0435703 C8.24589875,13.0435703 8.45228435,12.8371847 8.45228435,12.5164932 L8.45228435,12.513318 L8.45228435,12.5101429 C8.45228435,12.1894514 8.23637326,11.9830658 7.92520727,11.9830658 L7.92520727,11.9830658 Z M12.1068972,12.5164932 C12.1068972,12.8371847 12.3196331,13.0435703 12.6339742,13.0435703 L13.6786029,13.0435703 C13.9992944,13.0435703 14.20568,12.8371847 14.20568,12.5164932 L14.20568,12.513318 L14.20568,12.5101429 C14.20568,12.1894514 13.9929441,11.9830658 13.6786029,11.9830658 L12.6339742,11.9830658 C12.3132828,11.9830658 12.1068972,12.1894514 12.1068972,12.5101429 L12.1068972,12.5164932 L12.1068972,12.5164932 Z" id="形状" fill="#595959"></path>
            </g>
        </g>
    </g>
</svg>