<?xml version="1.0" encoding="UTF-8"?>
<svg width="12px" height="12px" viewBox="0 0 12 12" version="1.1" xmlns="http://www.w3.org/2000/svg" xmlns:xlink="http://www.w3.org/1999/xlink">
    <!-- Generator: Sketch 63.1 (92452) - https://sketch.com -->
    <title>形状</title>
    <desc>Created with Sketch.</desc>
    <g id="页面-1" stroke="none" stroke-width="1" fill="none" fill-rule="evenodd">
        <g id="1非法集资案件管理-1台账管理-1案件维护管理-1行政案件-1新增" transform="translate(-1831.000000, -1803.000000)" fill="#606266" fill-rule="nonzero">
            <path d="M1835.5,1807.32005 C1835.22391,1807.32005 1835,1807.53501 1835,1807.80006 L1835,1812.12011 C1835,1812.38517 1835.22391,1812.60012 1835.5,1812.60012 C1835.77609,1812.60012 1836,1812.38517 1836,1812.12011 L1836,1807.80006 C1836,1807.53501 1835.77609,1807.32005 1835.5,1807.32005 Z M1838,1807.80006 L1838,1812.12011 C1838,1812.38517 1838.22391,1812.60012 1838.5,1812.60012 C1838.77609,1812.60012 1839,1812.38517 1839,1812.12011 L1839,1807.80006 C1839,1807.53501 1838.77609,1807.32005 1838.5,1807.32005 C1838.22391,1807.32005 1838,1807.53501 1838,1807.80006 Z M1842.5,1804.92002 L1839.49656,1804.92002 C1839.49703,1804.90877 1839.5,1804.89827 1839.5,1804.88702 L1839.5,1803.99301 C1839.5,1803.44551 1839.03594,1803 1838.46563,1803 L1835.53437,1803 C1834.96406,1803 1834.5,1803.44551 1834.5,1803.99301 L1834.5,1804.88687 C1834.5,1804.89812 1834.50312,1804.90877 1834.50344,1804.91987 L1831.5,1804.91987 C1831.22391,1804.91987 1831,1805.13483 1831,1805.39988 C1831,1805.66493 1831.22391,1805.87989 1831.5,1805.87989 L1832,1805.87989 L1832,1814.51999 C1832,1814.78505 1832.22391,1815 1832.5,1815 L1841.5,1815 C1841.77609,1815 1842,1814.78505 1842,1814.51999 L1842,1805.88004 L1842.5,1805.88004 C1842.77609,1805.88004 1843,1805.66508 1843,1805.40003 C1843,1805.13498 1842.77609,1804.92002 1842.5,1804.92002 Z M1835.5,1804.88702 L1835.53437,1803.96001 L1838.5,1803.99301 L1838.5,1804.88687 C1838.5,1804.90517 1838.48469,1804.91987 1838.46563,1804.91987 L1835.5,1804.88702 Z M1841,1814.04014 L1833,1814.04014 L1833,1805.88004 L1841,1805.88004 L1841,1814.04014 Z" id="形状"></path>
        </g>
    </g>
</svg>