<?xml version="1.0" encoding="UTF-8"?>
<svg width="18px" height="18px" viewBox="0 0 18 18" version="1.1" xmlns="http://www.w3.org/2000/svg" xmlns:xlink="http://www.w3.org/1999/xlink">
    <title>jg-public-kapian-jinrongfazhangaikuang.svg</title>
    <g id="页面-1" stroke="none" stroke-width="1" fill="none" fill-rule="evenodd">
        <g id="金融发展-全省总览" transform="translate(-1381.000000, -186.000000)" fill-rule="nonzero">
            <g id="jg-public-kapian-jinrongfazhangaikuang.svg" transform="translate(1381.000000, 186.000000)">
                <rect id="矩形" fill="#000000" opacity="0" x="0" y="0" width="18" height="18"></rect>
                <path d="M15.9785156,13.6933594 L2.02148438,13.6933594 C1.53607786,13.6933594 1.14257812,13.2998596 1.14257812,12.8144531 L1.14257812,2.02148437 C1.14257812,1.53607786 1.53607786,1.14257812 2.02148438,1.14257812 L15.9785156,1.14257812 C16.4639221,1.14257812 16.8574219,1.53607786 16.8574219,2.02148438 L16.8574219,12.8144531 C16.8574219,13.2998596 16.4639221,13.6933594 15.9785156,13.6933594 Z M15.8027344,2.54882812 C15.8027344,2.35466552 15.6453345,2.19726562 15.4511719,2.19726562 L2.54882812,2.19726562 C2.35466552,2.19726562 2.19726562,2.35466552 2.19726562,2.54882812 L2.19726562,12.2871094 C2.19726562,12.481272 2.35466552,12.6386719 2.54882812,12.6386719 L15.4511719,12.6386719 C15.6453345,12.6386719 15.8027344,12.481272 15.8027344,12.2871094 L15.8027344,2.54882812 Z M10.7402344,9.15820312 C10.5342946,9.3641389 10.2004046,9.3641389 9.99446484,9.15820312 L7.63273828,6.79649414 L5.27099414,9.15820312 C5.06505557,9.36414655 4.73115924,9.36415048 4.52521582,9.15821191 C4.3192724,8.95227334 4.31926846,8.61837702 4.52520703,8.41243359 L7.25976562,5.67794531 C7.46570535,5.47200954 7.79959543,5.47200954 8.00553516,5.67794531 L10.3671738,8.03956641 L12.7287949,5.67794531 C12.8618177,5.54375224 13.0564708,5.49098549 13.2390556,5.53962336 C13.4216404,5.58826123 13.5642485,5.73086939 13.6128864,5.91345416 C13.6615243,6.09603893 13.6087575,6.29069206 13.4745645,6.42371484 L10.7402344,9.15820312 Z M3.19921875,15.8027344 L14.8007812,15.8027344 C15.0920252,15.8027344 15.328125,16.0388342 15.328125,16.3300781 C15.328125,16.621322 15.0920252,16.8574219 14.8007812,16.8574219 L3.19921875,16.8574219 C2.90797484,16.8574219 2.671875,16.621322 2.671875,16.3300781 C2.671875,16.0388342 2.90797484,15.8027344 3.19921875,15.8027344 Z" id="形状" fill="#595959"></path>
            </g>
        </g>
    </g>
</svg>