<?xml version="1.0" encoding="UTF-8"?>
<svg width="18px" height="18px" viewBox="0 0 18 18" version="1.1" xmlns="http://www.w3.org/2000/svg" xmlns:xlink="http://www.w3.org/1999/xlink">
    <title>jg-public-kapian-zhaiquanfabu.svg</title>
    <g id="页面-1" stroke="none" stroke-width="1" fill="none" fill-rule="evenodd">
        <g id="证券期货基金" transform="translate(-834.000000, -186.000000)" fill-rule="nonzero">
            <g id="jg-public-kapian-zhaiquanfabu.svg" transform="translate(834.000000, 186.000000)">
                <rect id="矩形" fill="#000000" opacity="0" x="0" y="0" width="17.8444918" height="18"></rect>
                <path d="M17.9323824,14.6815414 L14.6475627,8.62886927 C14.9829397,7.87103331 15.1699345,7.03196091 15.1699345,6.15004463 C15.1693829,2.7542496 12.4058318,0 8.99634889,0 C5.58631437,0 2.82221164,2.7542496 2.82221164,6.15004463 C2.82221164,7.05310465 3.01748052,7.91109513 3.36830258,8.68339783 L0.0691410715,14.6787594 C-0.0370964279,14.8717708 -0.0197661515,15.1099536 0.113269628,15.2852507 C0.246206916,15.4610775 0.471814184,15.5434268 0.686940914,15.4927931 L3.50565273,14.849022 L4.46986177,17.5259301 C4.55133314,17.7494212 4.76279047,17.8975525 4.9988529,17.8966627 C5.20460231,17.8966627 5.39490674,17.7841062 5.49309277,17.6016024 L8.36586208,12.2694865 C8.76747414,12.3098054 9.17198806,12.311296 9.57388142,12.2739378 L12.5084307,17.6060537 C12.6157982,17.7997845 12.8252682,17.9126058 13.0445927,17.8948326 C13.2652355,17.8775838 13.4555399,17.7329161 13.5300069,17.5259301 L14.4942159,14.849022 L17.3129278,15.4927931 C17.5286061,15.545096 17.7520069,15.4610775 17.8849442,15.2869199 C18.018849,15.1126576 18.0374831,14.8748603 17.9323824,14.6815414 L17.9323824,14.6815414 Z M5.10034859,15.9646322 L4.39429162,14.0038291 C4.2969,13.7355842 4.01642298,13.5827828 3.74063732,13.6477241 L1.65556282,14.1240145 L4.0307826,9.80624142 C4.82702106,10.8762639 5.94324719,11.6596717 7.21465825,12.0408003 L5.10034859,15.9646322 L5.10034859,15.9646322 Z M3.95024798,6.15004463 C3.95024798,3.3785462 6.21404315,1.12339999 8.99634889,1.12339999 C11.778103,1.12339999 14.0413466,3.37854618 14.0413466,6.15004463 C14.0413466,8.92209948 11.778103,11.1778021 8.99634889,11.1778021 C6.21404315,11.1778021 3.95024798,8.92209948 3.95024798,6.15004463 Z M14.2597829,13.6477241 C13.9838167,13.5824669 13.7029936,13.7353278 13.605577,14.0038291 L12.894004,15.979099 L10.733911,12.0535978 C12.0577678,11.6680029 13.1962846,10.8517434 13.9883923,9.76784884 L16.3547864,14.1262402 L14.2597829,13.6477241 L14.2597829,13.6477241 Z" id="形状" fill="#595959"></path>
            </g>
        </g>
    </g>
</svg>