<?xml version="1.0" encoding="UTF-8"?>
<svg width="18px" height="18px" viewBox="0 0 18 18" version="1.1" xmlns="http://www.w3.org/2000/svg" xmlns:xlink="http://www.w3.org/1999/xlink">
    <title>jg-public-kapian-fengxianpaicha.svg</title>
    <g id="页面-1" stroke="none" stroke-width="1" fill="none" fill-rule="evenodd">
        <g id="非法金融活动" transform="translate(-288.000000, -186.000000)" fill-rule="nonzero">
            <g id="jg-public-kapian-fengxianpaicha.svg" transform="translate(288.000000, 186.000000)">
                <rect id="矩形" fill="#000000" opacity="0" x="0" y="0" width="17.9999986" height="17.9999986"></rect>
                <path d="M16.7120987,11.3693991 C17.9789986,12.6512991 18.0446986,14.7131989 16.9823987,16.1633988 C17.0099987,16.1759988 17.0354987,16.1927988 17.0585987,16.2125988 L17.9276986,17.1725987 C18.0710986,17.2970987 17.9777986,17.6327987 17.8511987,17.7731987 C17.7851987,17.8457987 17.5733987,17.9999993 17.4743987,17.9999993 C17.3900271,18.0001651 17.3084683,17.9696739 17.2448987,17.9141986 L16.3574988,16.9796987 C16.3368569,16.9620652 16.3185132,16.9419072 16.3028988,16.9196987 C14.8106989,18.3377986 12.7544991,17.9675987 11.3084992,16.5044988 C10.6150437,15.8081518 10.2327121,14.8609352 10.2484769,13.8783208 C10.2642417,12.8957065 10.6767624,11.9612422 11.3921991,11.2874991 C12.884099,9.86939926 15.2660989,9.90599925 16.7120987,11.3693991 L16.7120987,11.3693991 Z M9.02309932,0 C10.1903992,0 10.6151992,1.01219992 10.6151992,1.06529991 L15.3173989,9.49829928 C14.8065449,9.34502831 14.2733356,9.27979743 13.740599,9.30539931 L9.55349928,1.70429987 L9.55349928,1.65089988 C9.55349928,1.65089988 9.55349928,1.59779989 9.50039929,1.59779989 L9.47789929,1.55579988 C9.41759929,1.45379988 9.3011993,1.33139989 9.02279933,1.33139991 C8.70419935,1.33139991 8.49209937,1.70429988 8.49209936,1.70429987 L8.43899936,1.81079986 L1.22069991,14.7557989 C1.22069991,14.8628989 1.16759992,14.9159989 1.16759992,15.0227989 C1.16759992,15.4487988 1.48619989,15.8999988 1.80449986,15.8999988 L9.78149927,15.8999988 C9.97575055,16.2999046 10.2270758,16.6694649 10.5275992,16.9970987 L10.6250992,17.0999987 L1.80449986,17.0999987 C0.79649994,17.0999987 0,16.1945988 0,15.0224989 C0,14.4599989 0.164399982,14.1038989 0.203999979,14.0264989 L7.43069945,1.01219992 C7.43069945,0.958799934 7.9079994,0 9.02279933,0 L9.02309932,0 Z M13.985999,11.4119991 C12.5228991,11.4119991 11.4170991,12.5936991 11.4173991,14.0513989 C11.4176991,15.5090988 12.5237991,16.6910987 13.986899,16.6907988 C15.4256988,16.6907988 16.6802987,15.5477988 16.7186988,14.1239989 L16.7198987,14.0513989 C16.7180987,12.618299 15.4877988,11.4527991 14.0588989,11.4128991 L13.985999,11.4116991 L13.985999,11.4119991 Z M9.02249932,12.0395991 C9.24119931,12.0395991 9.45059928,12.1298991 9.62159927,12.2771991 C9.38646681,12.8967181 9.28841563,13.559843 9.33419931,14.2208989 C9.23441224,14.2578034 9.12889178,14.276795 9.02249932,14.2769989 C8.49179937,14.2769989 8.0144994,13.744199 8.0144994,13.157999 C8.0144994,12.5189991 8.43839937,12.0395991 9.02249932,12.0395991 L9.02249932,12.0395991 Z M9.02249932,4.63469965 C9.55319928,4.63469965 10.0307993,5.16749961 10.0307993,5.75339956 L9.60659928,10.8674992 C9.60659928,11.2232992 9.41309929,11.4821991 9.07229932,11.5049991 L9.02249932,11.5070991 C8.65079935,11.5070991 8.43899936,11.2400992 8.43899936,10.8674992 L8.01419939,5.75339956 C8.01419939,5.1140996 8.43839937,4.63469965 9.02249932,4.63469965 L9.02249932,4.63469965 Z" id="形状" fill="#595959"></path>
            </g>
        </g>
    </g>
</svg>