<?xml version="1.0" encoding="UTF-8"?>
<svg width="22px" height="22px" viewBox="0 0 22 22" version="1.1" xmlns="http://www.w3.org/2000/svg" xmlns:xlink="http://www.w3.org/1999/xlink">
    <!-- Generator: Sketch 63.1 (92452) - https://sketch.com -->
    <title>路径备份 33</title>
    <desc>Created with Sketch.</desc>
    <g id="页面-1" stroke="none" stroke-width="1" fill="none" fill-rule="evenodd">
        <g id="1非法集资案件管理-1台账管理-1案件维护管理-1行政案件-2更新查看-1案件历史情况查看" transform="translate(-1593.000000, -732.000000)" fill="#A9A9A9" fill-rule="nonzero">
            <path d="M1614.66083,734.038596 C1615.11306,733.586336 1615.11306,732.840527 1614.66083,732.38812 L1614.61208,732.339195 C1614.15985,731.886935 1613.4145,731.886935 1612.96213,732.339195 L1604.0046,741.312775 L1595.04692,732.339195 C1594.5947,731.886935 1593.84919,731.886935 1593.39712,732.339195 L1593.34821,732.38812 C1593.12558,732.60492 1593,732.90254 1593,733.213358 C1593,733.524175 1593.12558,733.821796 1593.34821,734.038596 L1602.30589,742.999945 L1593.34821,751.961441 C1592.89614,752.413701 1592.89614,753.159657 1593.34821,753.61177 L1593.39712,753.660695 C1593.84919,754.113102 1594.5947,754.113102 1595.04692,753.660695 L1604.0046,744.699346 L1612.96213,753.660695 C1613.4145,754.113102 1614.15985,754.113102 1614.61208,753.660695 L1614.66083,753.61177 C1615.11306,753.159657 1615.11306,752.413701 1614.66083,751.961441 L1605.7033,742.999945 L1614.66083,734.038596 Z" id="路径备份-33"></path>
        </g>
    </g>
</svg>