<?xml version="1.0" encoding="UTF-8"?>
<svg width="18px" height="18px" viewBox="0 0 18 18" version="1.1" xmlns="http://www.w3.org/2000/svg" xmlns:xlink="http://www.w3.org/1999/xlink">
    <title>jg-public-kapian-farenjigou.svg</title>
    <g id="页面-1" stroke="none" stroke-width="1" fill="none" fill-rule="evenodd">
        <g id="保险业" transform="translate(-286.000000, -578.000000)" fill-rule="nonzero">
            <g id="jg-public-kapian-farenjigou.svg" transform="translate(286.000000, 578.000000)">
                <rect id="矩形" fill="#000000" opacity="0" x="0" y="0" width="18" height="18"></rect>
                <g id="编组-2" transform="translate(0.000000, 2.000000)" fill="#595959">
                    <path d="M18,14.5951291 C18,14.5951291 18,14.591833 18,14.5951291 L18,14.591833 C17.7264237,11.7077458 15.7751328,9.31807361 13.1316609,8.40175792 C14.49295,7.62717451 15.4224501,6.18018678 15.4224501,4.50247207 C15.4224501,2.01391687 13.4052371,0 10.919978,0 C8.43142282,0 6.41750595,2.01721296 6.41750595,4.50247207 C6.41750595,6.12744919 7.28767625,7.54147592 8.5764512,8.33253983 C5.82750412,9.19282183 3.78062626,11.6385277 3.50045779,14.5984252 L3.50375389,14.5984252 C3.50375389,14.8752976 3.73118476,15.0994323 4.00805713,15.0994323 C4.2849295,15.0994323 4.51236037,14.8752976 4.51236037,14.5951291 C4.85845083,11.4572423 7.52169932,9.00494415 10.7518769,9.00494415 C13.9820546,9.00494415 16.6453031,11.4572423 16.9913935,14.5984252 L16.9946896,14.5984252 C16.9946896,14.8752976 17.2221205,15.0994323 17.4989929,15.0994323 C17.7758652,15.0994323 18,14.8720015 18,14.5951291 L18,14.5951291 Z M7.42281633,4.49917598 C7.42281633,2.5742538 8.98846365,1.00531038 10.9166819,1.00531038 C12.8449002,1.00531038 14.4105475,2.5709577 14.4105475,4.49917598 C14.4105475,6.42409815 12.8449002,7.99304157 10.9166819,7.99304157 C8.98846365,7.99304157 7.42281633,6.42409815 7.42281633,4.49917598 L7.42281633,4.49917598 Z" id="形状"></path>
                    <path d="M6.50320454,1.86229628 L6.55264604,1.85900018 L6.55264604,1.85570408 C6.79985351,1.82933529 6.99102728,1.62168101 6.99102728,1.36788134 C6.99102728,1.09760117 6.77348471,0.880058597 6.50320454,0.880058597 C4.3145944,0.880058597 2.5347006,2.65995239 2.5347006,4.84856253 C2.5347006,6.30873466 3.10492584,7.48214613 4.14649332,8.16773485 C1.82933529,8.93902216 0.243911372,11.0221571 0,13.632668 L0,13.6887017 L0.00659219923,13.6887017 C0.0329609962,13.9326131 0.240615272,14.127083 0.494414942,14.127083 C0.764695111,14.127083 0.982237685,13.9095404 0.982237685,13.6425563 C1.28547885,10.8507599 3.4642007,8.82365867 6.15711408,8.82365867 C6.18348288,8.82365867 6.21314778,8.82695477 6.23951657,8.82695477 C6.25929317,8.82695477 6.28236587,8.83025087 6.30214246,8.83025087 L6.35488006,8.83025087 L6.35488006,8.82365867 C6.60538363,8.80058597 6.80314961,8.5896356 6.80314961,8.33253983 C6.80314961,8.06225966 6.58231093,7.83812489 6.30873466,7.83812489 L6.29555027,7.83812489 C4.71012635,7.83482879 3.51364219,6.54934994 3.51364219,4.84856253 C3.51364219,3.20380883 4.85515473,1.86229628 6.50320454,1.86229628 Z" id="路径"></path>
                </g>
            </g>
        </g>
    </g>
</svg>