<?xml version="1.0" encoding="UTF-8"?>
<svg width="18px" height="18px" viewBox="0 0 18 18" version="1.1" xmlns="http://www.w3.org/2000/svg" xmlns:xlink="http://www.w3.org/1999/xlink">
    <title>jg-public-kapian-yuqi90tianyishang.svg</title>
    <g id="页面-1" stroke="none" stroke-width="1" fill="none" fill-rule="evenodd">
        <g id="金融机构和金融市场风险-银行" transform="translate(-834.000000, -542.000000)" fill-rule="nonzero">
            <g id="jg-public-kapian-yuqi90tianyishang.svg" transform="translate(834.000000, 542.000000)">
                <rect id="矩形" fill="#000000" opacity="0" x="0" y="0" width="18" height="18"></rect>
                <path d="M9.00056475,0 C4.03032755,0 0.00115421484,4.02917334 0.00115421484,8.99941054 L0.00115421484,9.03540818 C-0.000354076079,9.05788143 -0.000354076079,9.08043052 0.00115421484,9.10290377 C0.00958938457,9.14203576 0.0232086925,9.17986717 0.0416515605,9.21539638 L0.0416515605,9.26039345 C0.0556607178,9.2763507 0.0706913609,9.29138134 0.0866486074,9.3053905 C0.252110183,9.49708836 0.531997637,9.54088027 0.748105277,9.40888371 L3.67291371,7.57750368 C3.88576922,7.51693004 4.03801849,7.32970531 4.05392004,7.10897069 C4.06982159,6.88823607 3.94598018,6.68112199 3.74400485,6.59066426 C3.54202953,6.50020653 3.30504531,6.54571935 3.1509479,6.70456085 L0.955091725,8.09946949 C1.40455838,4.13885079 4.66892196,1.09402221 8.651203,0.920937137 C12.633484,0.747852066 16.149718,3.4979701 16.9411276,7.40465561 C17.7325372,11.3113411 15.5638299,15.2131047 11.8281516,16.6035105 C8.0924733,17.9939163 3.90047149,16.4595853 1.9450269,12.9861494 C1.82077097,12.7699441 1.54477259,12.6954044 1.32856727,12.8196603 C1.11236195,12.9439162 1.03782224,13.2199146 1.16207817,13.4361199 C3.31914764,17.2428365 7.90157417,18.9465053 12.0215583,17.4734913 C16.1415425,16.0004772 18.6050819,11.7776708 17.8596787,7.46624251 C17.1142754,3.1548142 13.375953,0.00424831917 9.00056475,0 Z" id="路径" fill="#595959"></path>
                <polygon id="路径" fill="#595959" points="11.2054203 4.63919613 9.00056475 6.84405172 6.79570917 4.63919613 6.16125073 5.27365457 7.93863431 7.05553785 6.30074159 7.05553785 6.30074159 7.95547891 8.55059423 7.95547891 8.55059423 9.14340111 6.29624188 9.14340111 6.29624188 10.0433422 8.55059423 10.0433422 8.55059423 13.3551252 9.45053527 13.3551252 9.45053527 10.0433422 11.6958882 10.0433422 11.6958882 9.14340111 9.45053527 9.14340111 9.45053527 7.95547891 11.7003879 7.95547891 11.7003879 7.05553785 10.0579955 7.05553785 11.8398788 5.27365457"></polygon>
            </g>
        </g>
    </g>
</svg>