<?xml version="1.0" encoding="UTF-8"?>
<svg width="18px" height="16px" viewBox="0 0 18 16" version="1.1" xmlns="http://www.w3.org/2000/svg" xmlns:xlink="http://www.w3.org/1999/xlink">
    <title>形状</title>
    <g id="页面-1" stroke="none" stroke-width="1" fill="none" fill-rule="evenodd">
        <g id="工作台-典当" transform="translate(-287.000000, -840.000000)" fill="#595959" fill-rule="nonzero">
            <path d="M301.455588,849.113904 C300.734885,848.393201 299.894651,847.827185 298.959494,847.431677 C298.72219,847.331482 298.481369,847.243591 298.237033,847.168005 C298.398752,847.048474 298.551682,846.916638 298.69758,846.772498 C299.444651,846.025427 299.855979,845.034021 299.855979,843.977576 C299.855979,842.92113 299.444651,841.929724 298.69758,841.182654 C297.95051,840.435584 296.959104,840.024255 295.902658,840.024255 C294.846213,840.024255 293.854807,840.435584 293.107737,841.182654 C292.360666,841.929724 291.949338,842.92113 291.949338,843.977576 C291.949338,845.034021 292.360666,846.025427 293.107737,846.772498 C293.251877,846.916638 293.406565,847.048474 293.568283,847.168005 C293.323948,847.243591 293.083127,847.331482 292.845823,847.431677 C291.910666,847.827185 291.070432,848.393201 290.349729,849.113904 C289.629026,849.834607 289.06301,850.674841 288.667502,851.609998 C288.257932,852.578552 288.05051,853.606873 288.05051,854.666834 C288.05051,855.310193 288.574338,855.835779 289.219455,855.835779 L302.589377,855.835779 C303.232737,855.835779 303.758323,855.311951 303.758323,854.666834 C303.754807,853.606873 303.547385,852.578552 303.137815,851.609998 C302.742307,850.674841 302.176291,849.834607 301.455588,849.113904 Z M293.074338,843.977576 C293.074338,842.418396 294.343479,841.149255 295.902658,841.149255 C297.461838,841.149255 298.729221,842.418396 298.729221,843.977576 C298.729221,845.536755 297.46008,846.805896 295.900901,846.805896 C294.341721,846.805896 293.074338,845.536755 293.074338,843.977576 Z M302.585862,854.710779 L289.217698,854.710779 C289.193088,854.710779 289.173752,854.691443 289.173752,854.666834 C289.173752,852.870349 289.873362,851.181091 291.14426,849.910193 C292.415158,848.639294 294.104416,847.939685 295.900901,847.939685 C297.697385,847.939685 299.386643,848.639294 300.657541,849.910193 C301.92844,851.181091 302.62816,852.870349 302.62816,854.666834 C302.629807,854.691443 302.610471,854.710779 302.585862,854.710779 Z M291.079221,847.359607 C291.100315,847.350818 291.121408,847.340271 291.142502,847.329724 C291.14426,847.329724 291.147776,847.331482 291.149533,847.331482 L291.149533,847.326209 L291.153049,847.322693 C291.671604,847.092419 291.668088,846.355896 291.147776,846.129138 C290.231955,845.712537 289.593869,844.789685 289.593869,843.720935 C289.593869,842.421912 290.536057,841.339099 291.771799,841.117615 C292.040744,841.070154 292.237619,840.836365 292.237619,840.563904 C292.237619,840.214099 291.922971,839.948669 291.57844,840.008435 C290.82258,840.140271 290.126487,840.500623 289.572776,841.056091 C288.860862,841.768005 288.468869,842.713709 288.468869,843.720935 C288.468869,844.728162 288.860862,845.673865 289.572776,846.385779 C289.678244,846.491248 289.790744,846.589685 289.90676,846.681091 L289.90676,846.686365 C289.537619,846.904334 289.121018,847.199646 288.699143,847.602185 C288.024143,848.247302 287.47219,849.134998 287.052073,850.042029 C286.914963,850.335584 287.059104,850.685388 287.361448,850.801404 C287.639182,850.90863 287.950315,850.78031 288.075119,850.511365 C289.013791,848.48988 290.465744,847.607459 291.079221,847.359607 Z M304.770823,850.040271 C304.350705,849.13324 303.798752,848.245544 303.12551,847.602185 C302.703635,847.199646 302.287033,846.904334 301.917893,846.686365 L301.917893,846.681091 C302.033908,846.589685 302.146408,846.491248 302.251877,846.385779 C302.963791,845.673865 303.354026,844.728162 303.354026,843.720935 C303.354026,842.713709 302.962033,841.768005 302.250119,841.056091 C301.696408,840.500623 301.000315,840.140271 300.244455,840.008435 C299.899924,839.948669 299.585276,840.214099 299.585276,840.563904 C299.585276,840.836365 299.782151,841.070154 300.051096,841.117615 C301.286838,841.339099 302.229026,842.421912 302.229026,843.720935 C302.229026,844.789685 301.59094,845.712537 300.675119,846.129138 C300.154807,846.355896 300.151291,847.092419 300.669846,847.322693 L300.673362,847.324451 L300.673362,847.329724 C300.675119,847.329724 300.678635,847.327966 300.680393,847.327966 C300.701487,847.338513 300.72258,847.34906 300.743674,847.357849 C301.357151,847.605701 302.809104,848.488123 303.747776,850.509607 C303.87258,850.778552 304.183713,850.906873 304.461448,850.799646 C304.763791,850.68363 304.907932,850.333826 304.770823,850.040271 L304.770823,850.040271 Z" id="形状"></path>
        </g>
    </g>
</svg>