<?xml version="1.0" encoding="UTF-8"?>
<svg width="16px" height="16px" viewBox="0 0 16 16" version="1.1" xmlns="http://www.w3.org/2000/svg" xmlns:xlink="http://www.w3.org/1999/xlink">
    <title>1-最大化备份 4</title>
    <g id="页面-1" stroke="none" stroke-width="1" fill="none" fill-rule="evenodd">
        <g id="首页-监管二处-担保" transform="translate(-1769.000000, -840.000000)" fill="#BABABA" fill-rule="nonzero">
            <g id="1-最大化备份-4" transform="translate(1769.000000, 840.000000)">
                <path d="M6.55896607,8.56698075 L1.33979537,13.8609859 L1.29240711,9.07169193 C1.29240711,8.71118394 1.00161551,8.41622286 0.646203554,8.41622286 C0.290791599,8.41622286 0,8.71118394 0,9.07169193 L0.0473882606,15.300833 C0.0473882606,15.4931039 0.129240711,15.6657108 0.258481422,15.7858801 C0.376952073,15.9169739 0.547119009,16 0.736672052,16 L7.10393107,16 C7.45934303,16 7.75013463,15.7050389 7.75013463,15.3445309 C7.75013463,14.9840229 7.45934303,14.6890619 7.10393107,14.6890619 L2.35002693,14.6890619 L7.4722671,9.49337703 C7.72428648,9.23774409 7.72428648,8.82042879 7.4722671,8.56698075 C7.22240172,8.31353271 6.81098546,8.31353271 6.55896607,8.56698075 Z M9.44103393,7.43301925 L14.6602046,2.13901407 L14.7075929,6.92830807 C14.7075929,7.28881606 14.9983845,7.58377714 15.3537964,7.58377714 C15.7092084,7.58377714 16,7.28881606 16,6.92830807 L15.9526117,0.699167008 C15.9526117,0.506896081 15.8707593,0.334289226 15.7415186,0.214119896 C15.6230479,0.0830260822 15.452881,0 15.2633279,0 L8.89606893,0 C8.54065697,0 8.24986537,0.294961082 8.24986537,0.65546907 C8.24986537,1.01597706 8.54065697,1.31093814 8.89606893,1.31093814 L13.6499731,1.31093814 L8.5277329,6.50662297 C8.27571352,6.76225591 8.27571352,7.17957121 8.5277329,7.43301925 C8.77975229,7.68865219 9.19116855,7.68865219 9.44103393,7.43301925 Z" id="形状"></path>
            </g>
        </g>
    </g>
</svg>