<?xml version="1.0" encoding="UTF-8"?>
<svg width="18px" height="18px" viewBox="0 0 18 18" version="1.1" xmlns="http://www.w3.org/2000/svg" xmlns:xlink="http://www.w3.org/1999/xlink">
    <title>jg-public-kapian-nongdaidanbao.svg</title>
    <g id="页面-1" stroke="none" stroke-width="1" fill="none" fill-rule="evenodd">
        <g id="小贷" transform="translate(-287.000000, -754.000000)" fill-rule="nonzero">
            <g id="jg-public-kapian-nongdaidanbao.svg" transform="translate(287.000000, 754.000000)">
                <rect id="矩形" fill="#000000" opacity="0" x="0" y="0" width="18" height="18"></rect>
                <path d="M10.4493333,9.8193355 C10.3089036,9.81974653 10.1748087,9.76092874 10.08,9.65733333 L7.47,6.86666667 L5.112,9.35066667 C5.01505738,9.44975809 4.88195416,9.50511748 4.74333333,9.504 L1.57533333,9.504 C1.44160997,9.50417723 1.31331259,9.4511343 1.21875581,9.35657752 C1.12419903,9.26202074 1.0711561,9.13372337 1.07133289,9 C1.07133289,4.626 4.626,1.07132917 9,1.07132917 C11.9439481,1.06832472 14.6470662,2.69712667 16.02,5.30133333 C16.1553333,5.544 16.056,5.85 15.8133333,5.98533333 C15.57,6.12 15.264,6.02133333 15.1293333,5.778 C13.933678,3.50617057 11.576587,2.08498337 9.00933333,2.088 C5.364,2.088 2.36733333,4.92333333 2.106,8.496 L4.52733333,8.496 L7.11,5.78733333 C7.20741966,5.68758045 7.34143288,5.6320633 7.48085507,5.6337006 C7.62027725,5.6353379 7.75294977,5.69398686 7.848,5.796 L10.8273333,8.982 C11.016,9.18866667 11.0073333,9.504 10.8,9.702 C10.698048,9.77633209 10.5754961,9.81710506 10.4493333,9.81866667 L10.4493333,9.8193355 Z M8.82,16.9286667 C5.87619641,16.9318056 3.17311389,15.3032818 1.8,12.6993333 C1.73675249,12.5813194 1.72299485,12.4430086 1.76175562,12.314848 C1.80051639,12.1866874 1.88861814,12.0791829 2.00666667,12.016 C2.25302985,11.8884842 2.55613238,11.9800649 2.69066667,12.2226667 C3.886322,14.4944961 6.24341297,15.9156833 8.81066667,15.9126667 C12.456,15.9126667 15.4533333,13.078 15.714,9.50466667 L13.284,9.50466667 L10.368,12.4386667 C10.2710574,12.5377581 10.1379542,12.5931175 9.99933333,12.592 C9.86323084,12.59318 9.73278631,12.5376203 9.63933333,12.4386667 L6.912,9.568 C6.71892022,9.36391008 6.72696329,9.04218702 6.93,8.848 C7.133909,8.65474224 7.45562683,8.6624873 7.65,8.86533333 L10.0166667,11.3586667 L12.7166667,8.64066667 C12.8111626,8.54322124 12.940929,8.48795037 13.0766667,8.48733333 L16.2453333,8.48733333 C16.524,8.48733333 16.7493333,8.71266667 16.7493333,8.99133333 C16.7493333,13.3746667 13.194,16.9293333 8.82,16.9293333 L8.82,16.9286667 Z" id="形状" fill="#595959"></path>
            </g>
        </g>
    </g>
</svg>