<?xml version="1.0" encoding="UTF-8"?>
<svg width="18px" height="18px" viewBox="0 0 18 18" version="1.1" xmlns="http://www.w3.org/2000/svg" xmlns:xlink="http://www.w3.org/1999/xlink">
    <title>jg-public-kapian-zhuyingkuisun.svg</title>
    <g id="页面-1" stroke="none" stroke-width="1" fill="none" fill-rule="evenodd">
        <g id="企业债务风险-上市公司" transform="translate(-835.000000, -542.000000)" fill-rule="nonzero">
            <g id="jg-public-kapian-zhuyingkuisun.svg" transform="translate(835.000000, 542.000000)">
                <rect id="矩形" fill="#000000" opacity="0" x="0" y="0" width="18" height="18"></rect>
                <path d="M1.318,17.9979885 C0.607473055,17.9859173 0.0295507897,17.4230936 0,16.714422 L0,2.26182244 C0.00399824123,1.92168623 0.145762999,1.59764844 0.392999995,1.3635255 C0.641184797,1.12465094 0.974276764,0.993964073 1.31899999,1.0002143 L12.489,1.0002143 C13.1971503,1.01641928 13.771145,1.5784111 13.801,2.28477891 L13.801,11.7029232 L16.58,11.7029232 L16.58,11.6979327 L16.687,11.6979327 C17.3893056,11.7281729 17.9556639,12.2822656 18,12.9824973 L18,15.4408366 C17.9597422,16.8741022 16.7774924,18.0115119 15.341,17.9990891 L1.318,17.9979885 Z M1.318,16.8002593 L12.994,16.8002593 C12.7340931,16.3845011 12.592688,15.9058759 12.585,15.4158839 L12.585,2.29476 C12.5858846,2.28713331 12.5858846,2.27943021 12.585,2.27180351 C12.5813124,2.23022648 12.5458009,2.19872047 12.504,2.19990554 L1.325,2.19990554 C1.27124959,2.20334839 1.22841509,2.24610183 1.225,2.29975053 L1.225,16.7084334 C1.2241154,16.71606 1.2241154,16.7237631 1.225,16.7313898 C1.22921953,16.7751725 1.26811916,16.8073044 1.312,16.8032536 L1.318,16.8002593 Z M13.777,15.3929274 C13.8531514,16.1568789 14.4979999,16.7382718 15.2671766,16.736469 C16.0363532,16.7346578 16.6784525,16.1502415 16.751,15.3859407 L16.751,13.0274122 C16.7514369,13.0224311 16.7514369,13.0174215 16.751,13.0124405 C16.7452742,12.9687622 16.7059394,12.9374422 16.662,12.9415749 L13.777,12.9415749 L13.777,15.3929274 Z M3.84200001,13.3048861 C3.49438011,13.3185694 3.19947291,13.0525912 3.178,12.7060215 L3.178,12.6421426 C3.18674202,12.2872813 3.47060001,12.0004627 3.82600001,11.9873839 L5.45900001,11.9873839 C5.65153234,11.9856911 5.83799022,12.0545926 5.983,12.1810168 C6.1197259,12.2972274 6.19925117,12.4669001 6.20100001,12.646135 C6.17738108,13.0318162 5.84659095,13.3263351 5.46,13.3058842 L3.84200001,13.3048861 Z M3.84200001,10.1678336 C3.47749207,10.1678336 3.18200001,9.87290066 3.18200001,9.50908248 C3.18200001,9.1452643 3.47749207,8.8503314 3.84200001,8.8503314 L9.674,8.8503314 C10.0385079,8.8503314 10.334,9.1452643 10.334,9.50908248 C10.334,9.87290066 10.0385079,10.1678336 9.674,10.1678336 L3.84200001,10.1678336 Z M3.84200001,7.02778673 C3.48829871,7.01402676 3.20866607,6.72383285 3.20866607,6.37053281 C3.20866607,6.01723276 3.48829871,5.72703885 3.84200001,5.71327888 L9.674,5.71327888 C10.0282461,5.72704947 10.3083147,6.01768714 10.3083147,6.37153092 C10.3083147,6.72537469 10.0282461,7.01601236 9.674,7.02978295 L3.84200001,7.02778673 Z" id="形状" fill="#595959"></path>
            </g>
        </g>
    </g>
</svg>