<?xml version="1.0" encoding="UTF-8"?>
<svg width="18px" height="18px" viewBox="0 0 18 18" version="1.1" xmlns="http://www.w3.org/2000/svg" xmlns:xlink="http://www.w3.org/1999/xlink">
    <title>jg-public-kapian-daxingqiyezhaiwufengxian.svg</title>
    <g id="页面-1" stroke="none" stroke-width="1" fill="none" fill-rule="evenodd">
        <g id="企业债务风险" transform="translate(-287.000000, -542.000000)" fill-rule="nonzero">
            <g id="jg-public-kapian-daxingqiyezhaiwufengxian.svg" transform="translate(287.000000, 542.000000)">
                <rect id="矩形" fill="#000000" opacity="0" x="0" y="0" width="18" height="18"></rect>
                <path d="M14.3571429,16.478022 L14.3618524,7.91365777 C14.3618524,6.46310832 13.7919937,5.09497646 12.7582418,4.06122448 C11.7244898,3.02747253 10.3822606,2.45761381 8.93171116,2.45761381 C7.48116171,2.45761381 6.11302985,3.02747253 5.07927787,4.06122448 C4.04552592,5.09497643 3.4756672,6.46310832 3.4756672,7.91365777 L3.48273156,16.4756672 L2.02982734,16.478022 L2.01569861,7.91601255 C2.01569861,6.98587127 2.19937208,6.08163265 2.56200945,5.22684457 C2.91051809,4.40502354 3.40973315,3.66562009 4.04552592,3.02982731 C4.6813187,2.39403453 5.42072215,1.89481947 6.24254318,1.54631083 C7.09497646,1.18367347 7.99921508,1 8.92935636,1 C9.85949764,1 10.7378336,1.18367347 11.5902669,1.54631083 C12.4120879,1.89481947 13.1514913,2.39403453 13.7872841,3.02982731 C14.4230769,3.66562009 14.922292,4.40502354 15.2708006,5.22684457 C15.633438,6.07927785 15.8171114,6.98351647 15.8171114,7.91130297 L15.8171114,16.4733124 L14.3571429,16.478022 Z M17.2700157,17.9050235 L0.729984307,17.9050235 C0.327315554,17.9050235 0,17.577708 0,17.1750392 C0,16.7723704 0.327315531,16.4450549 0.70408164,16.4450549 L17.244113,16.4450549 C17.6726844,16.4450549 18,16.7723704 18,17.1750392 C18,17.577708 17.6726844,17.9050235 17.2700157,17.9050235 Z M11.2229199,9.47488225 L9.36734692,9.47488225 L9.36734692,5.44113029 L6.7276295,10.3932496 L8.64913656,10.3932496 L8.64913656,14.2433281 L11.2229199,9.47488225 Z" id="形状" fill="#595959"></path>
            </g>
        </g>
    </g>
</svg>