<?xml version="1.0" encoding="UTF-8"?>
<svg width="18px" height="18px" viewBox="0 0 18 18" version="1.1" xmlns="http://www.w3.org/2000/svg" xmlns:xlink="http://www.w3.org/1999/xlink">
    <title>jg-public-kapian-rongzizulin.svg</title>
    <g id="页面-1" stroke="none" stroke-width="1" fill="none" fill-rule="evenodd">
        <g id="地方金融组织风险" transform="translate(-834.000000, -186.000000)" fill-rule="nonzero">
            <g id="jg-public-kapian-rongzizulin.svg" transform="translate(834.000000, 186.000000)">
                <rect id="矩形" fill="#000000" opacity="0" x="0" y="0" width="18" height="18"></rect>
                <path d="M3.375,7.875 L11.25,7.875 L11.25,9 L3.375,9 L3.375,7.875 Z M3.375,4.5 L11.25,4.5 L11.25,5.625 L3.375,5.625 L3.375,4.5 Z M3.375,11.25 L11.25,11.25 L11.25,12.375 L3.375,12.375 L3.375,11.25 Z M1.125,1.125 L1.125,16.875 L13.5,16.875 L13.5,1.125 L1.125,1.125 Z M0,0 L14.625,0 L14.625,18 L0,18 L0,0 Z M16.875,2.25 L16.875,1.125 L18,2.25 L16.875,2.25 Z M18,15.75 L16.875,16.875 L16.875,15.75 L18,15.75 Z M16.875,2.25 L13.50075,2.25 L13.5,1.125 L18,1.125 L18,16.875 L13.5108,16.875 L13.5108,15.75 L16.875,15.75 L16.875,2.25 Z M18,15.75 L16.875,16.875 L16.875,15.75 L18,15.75 Z M16.875,1.125 L18,2.25 L16.875,2.25 L16.875,1.125 Z M16.875,15.75 L16.875,2.25 L13.50075,2.25 L13.5,1.125 L18,1.125 L18,16.875 L13.5108,16.875 L13.5108,15.75 L16.875,15.75 Z" id="形状" fill="#595959"></path>
            </g>
        </g>
    </g>
</svg>