<?xml version="1.0" encoding="UTF-8"?>
<svg width="18px" height="18px" viewBox="0 0 18 18" version="1.1" xmlns="http://www.w3.org/2000/svg" xmlns:xlink="http://www.w3.org/1999/xlink">
    <title>jg-public-kapian-qinglizhengdunjigou.svg</title>
    <g id="页面-1" stroke="none" stroke-width="1" fill="none" fill-rule="evenodd">
        <g id="金融机构和金融市场风险" transform="translate(-834.000000, -542.000000)" fill-rule="nonzero">
            <g id="jg-public-kapian-qinglizhengdunjigou.svg" transform="translate(834.000000, 542.000000)">
                <rect id="矩形" fill="#000000" opacity="0" x="0" y="0" width="18" height="18"></rect>
                <path d="M17.9203043,14.4255311 L17.4787197,14.1706164 C17.4666765,14.1625876 17.4586477,14.1485372 17.4626621,14.1344867 C17.4887557,14.0160618 17.5028061,13.8956296 17.5028061,13.7691759 C17.5028061,13.6447293 17.4887557,13.52229 17.4626621,13.403865 C17.4586477,13.3898146 17.4666765,13.373757 17.4787197,13.3677354 L17.9203043,13.1128207 C17.996578,13.0686622 18.0226716,12.9703093 17.9785132,12.8940356 L17.6573607,12.3380405 C17.6132023,12.2617668 17.5148494,12.2356731 17.4385757,12.2798316 L16.9969911,12.5347463 C16.9849479,12.5427751 16.9688903,12.5407679 16.9568471,12.5307319 C16.778206,12.3661413 16.5634354,12.2396875 16.3245783,12.1654211 C16.3105278,12.1614067 16.3004918,12.1473562 16.3004918,12.1333058 L16.3004918,11.4950154 C16.3004918,11.4769506 16.2844342,11.460893 16.2663694,11.460893 L15.3711571,11.460893 C15.3530922,11.460893 15.3370346,11.4769506 15.3370346,11.4950154 L15.3370346,12.1333058 C15.3370346,12.1473562 15.3269986,12.1614067 15.3129482,12.1654211 C15.0760983,12.2396875 14.8593204,12.3661413 14.6806794,12.5307319 C14.6706434,12.5407679 14.6545857,12.5427751 14.6405353,12.5347463 L14.1989508,12.2798316 C14.1226771,12.2356731 14.0243241,12.2617668 13.9801657,12.3380405 L13.6590133,12.8940356 C13.6148548,12.9703093 13.6409485,13.0686622 13.7172222,13.1128207 L14.1808859,13.3797786 C14.1507779,13.5042251 14.1347203,13.6346933 14.1347203,13.7691759 C14.1347203,13.9036585 14.1507779,14.0341266 14.1808859,14.1585732 L13.7172222,14.4255311 C13.6409485,14.4696896 13.6148548,14.5680425 13.6590133,14.6443162 L13.9801657,15.2003113 C14.0243241,15.276585 14.1226771,15.3026786 14.1989508,15.2585202 L14.6626146,14.989555 C14.84527,15.1621744 15.0660623,15.2946498 15.3129482,15.3709235 C15.3269986,15.3749379 15.3370346,15.3889883 15.3370346,15.4030388 L15.3370346,16.0433364 C15.3370346,16.0614012 15.3530922,16.0774588 15.3711571,16.0774588 L16.2663694,16.0774588 C16.2844342,16.0774588 16.3004918,16.0614012 16.3004918,16.0433364 L16.3004918,15.405046 C16.3004918,15.3909955 16.3105278,15.3769451 16.3245783,15.3729307 C16.5614282,15.2986642 16.7761988,15.1722105 16.9568471,15.0076199 C16.9668831,14.9975838 16.9829407,14.9955766 16.9969911,15.0036054 L17.4385757,15.2585202 C17.5148494,15.3026786 17.6132023,15.276585 17.6573607,15.2003113 L17.9785132,14.6443162 C18.0226716,14.5680425 17.996578,14.4696896 17.9203043,14.4255311 L17.9203043,14.4255311 Z M16.5293129,13.8835864 L16.5232913,13.9197161 C16.5172697,13.9458097 16.5112481,13.9698961 16.5032193,13.9939826 C16.4731112,14.0883211 16.4229312,14.1726236 16.3587007,14.2448829 C16.3406359,14.2649549 16.3225711,14.2850269 16.302499,14.3030918 C16.2563334,14.345243 16.2041461,14.3813727 16.1479444,14.4094735 C16.1258652,14.4215167 16.1017788,14.4315527 16.0776923,14.4395815 L16.0415627,14.4516247 C16.0074403,14.463668 15.9713106,14.4716968 15.9331738,14.4777184 C15.8950369,14.48374 15.8589073,14.4857472 15.8187632,14.4857472 C15.7986912,14.4857472 15.7806264,14.4857472 15.7605543,14.48374 C15.7043527,14.4797256 15.648151,14.4676824 15.5959637,14.4516247 C15.4976108,14.4195095 15.4092939,14.3673222 15.3350274,14.3010846 C15.2788257,14.2509045 15.2326601,14.1926956 15.1945232,14.1284651 C15.1664224,14.0802923 15.1443432,14.028105 15.1282855,13.9739105 C15.1222639,13.9558457 15.1182495,13.9377809 15.1142351,13.9177089 C15.1122279,13.9036585 15.1082135,13.889608 15.1062063,13.8775648 C15.1021919,13.8534784 15.1001847,13.8313992 15.0981775,13.8073127 C15.0981775,13.7952695 15.0961703,13.7812191 15.0961703,13.7691759 C15.0961703,13.7571327 15.0961703,13.7430823 15.0981775,13.731039 C15.1001847,13.7049454 15.1021919,13.680859 15.1062063,13.6567725 L15.1122279,13.6206429 C15.1242711,13.5644412 15.142336,13.5102468 15.1664224,13.4600667 C15.1985376,13.3918218 15.2426961,13.3295985 15.2928762,13.2774113 C15.3049194,13.2633608 15.3189698,13.2513176 15.3330202,13.2392744 C15.4072867,13.1730367 15.4956036,13.1208495 15.5919493,13.0887342 C15.6260718,13.076691 15.6622014,13.0686622 15.7003383,13.0626406 C15.7103743,13.0606334 15.7184031,13.0606334 15.7284391,13.0586262 C15.7565399,13.0546118 15.7846408,13.0526046 15.8147488,13.0526046 C15.8428496,13.0526046 15.8709505,13.0546118 15.8970441,13.056619 L15.9331738,13.0626406 C15.9693034,13.0686622 16.0034259,13.076691 16.0355411,13.086727 C16.083714,13.1027846 16.1298796,13.1228567 16.1740381,13.1489503 C16.2181965,13.1750439 16.2583406,13.2031448 16.2944702,13.2372672 C16.3225711,13.2613536 16.3486647,13.2894545 16.3707439,13.3175553 C16.4169096,13.3757642 16.4550464,13.4399947 16.4831473,13.5102468 C16.4971977,13.5463764 16.5072337,13.582506 16.5152625,13.6206429 L16.5212841,13.6567725 C16.5273057,13.6929022 16.5293129,13.731039 16.5293129,13.7691759 C16.5373417,13.8073127 16.5353345,13.8454496 16.5293129,13.8835864 L16.5293129,13.8835864 Z M12.3804253,3.09888718 L16.8886022,4.07037321 C16.9046598,4.07438762 16.9146958,4.08843803 16.9146958,4.10248845 L16.9146958,10.5516302 C16.9146958,10.569695 16.9307534,10.5857527 16.9488182,10.5857527 L17.9443907,10.5857527 C17.9624555,10.5857527 17.9785132,10.569695 17.9785132,10.5516302 L17.9785132,3.69502634 C17.9785132,3.47222685 17.8099081,3.27752821 17.571051,3.22734814 L11.9308119,2.01299061 L11.9267975,2.01299061 C11.9207759,2.0109834 11.9167615,2.0109834 11.9107399,2.0089762 C11.9067255,2.0089762 11.9027111,2.006969 11.8986967,2.006969 C11.8926751,2.006969 11.8886606,2.0049618 11.882639,2.0049618 C11.8786246,2.0049618 11.8746102,2.00295459 11.8685886,2.00295459 C11.862567,2.00295459 11.8585526,2.00295459 11.852531,2.00094739 L11.7782645,2.00094739 C11.7722429,2.00094739 11.7682285,2.00094739 11.7622069,2.00295459 C11.7581925,2.00295459 11.7521709,2.00295459 11.7481565,2.0049618 C11.7421349,2.0049618 11.7381205,2.006969 11.7320988,2.006969 C11.7280844,2.006969 11.7220628,2.0089762 11.7180484,2.0089762 C11.714034,2.0089762 11.7080124,2.0109834 11.703998,2.0109834 C11.6999836,2.0109834 11.693962,2.01299061 11.6899476,2.01299061 L11.6859332,2.01299061 L6.17816942,3.19924731 C6.17415501,3.20125451 6.16813341,3.20125451 6.164119,3.19924731 L0.654348028,2.01299061 C0.495779027,1.97886816 0.329181217,2.01299061 0.202727457,2.10331472 C0.074266494,2.19564604 0,2.33414301 0,2.4806688 L0,14.3512646 C0,14.5740641 0.168605013,14.7687628 0.409469318,14.8189428 L6.04770125,16.0333004 C6.05773727,16.0353076 6.06978048,16.0373148 6.0818237,16.039322 L6.0878453,16.039322 C6.09988852,16.0413292 6.10992453,16.0413292 6.12196775,16.0433364 L6.13200376,16.0433364 C6.14605418,16.0433364 6.15809739,16.0453436 6.17214781,16.0453436 C6.18619823,16.0453436 6.19824144,16.0453436 6.21229186,16.0433364 L6.22232787,16.0433364 C6.23437109,16.0433364 6.2444071,16.0413292 6.25645032,16.039322 L6.26247193,16.039322 C6.27451514,16.0373148 6.28455115,16.0353076 6.29659437,16.0333004 L11.8043581,14.8470436 C11.8083725,14.8450364 11.8143942,14.8450364 11.8184086,14.8470436 L12.6192824,15.0196631 C12.6393544,15.0236775 12.6594264,15.0076199 12.6594264,14.9875478 L12.6594264,14.0662419 C12.6594264,14.0501842 12.6473832,14.0361338 12.6333328,14.0341266 L12.3683821,13.9779249 C12.3523244,13.9739105 12.3422884,13.9598601 12.3422884,13.9458097 L12.3422884,3.13300962 C12.3402812,3.1109304 12.3603532,3.09487278 12.3804253,3.09888718 Z M1.1039614,3.09888718 L5.6121383,4.07037321 C5.62819592,4.07438762 5.63823194,4.08843803 5.63823194,4.10248845 L5.63823194,14.9132813 C5.63823194,14.9353606 5.61815991,14.9514182 5.59808788,14.9453966 L1.08991098,13.9759177 C1.07385336,13.9719033 1.06381735,13.9578529 1.06381735,13.9438025 L1.06381735,3.13300962 C1.06381735,3.1109304 1.08388937,3.09487278 1.1039614,3.09888718 Z M6.72814291,4.07037321 L11.2363198,3.09888718 C11.2563918,3.09487278 11.2764639,3.1109304 11.2764639,3.13100242 L11.2764639,13.9417953 C11.2764639,13.9578529 11.2644207,13.9719033 11.2503702,13.9739105 L6.74219333,14.9453966 C6.72212131,14.949411 6.70204928,14.9333534 6.70204928,14.9132813 L6.70204928,4.10449565 C6.70204928,4.08843803 6.71208529,4.07438762 6.72814291,4.07037321 Z" id="形状" fill="#595959"></path>
            </g>
        </g>
    </g>
</svg>