<?xml version="1.0" encoding="UTF-8"?>
<svg width="18px" height="18px" viewBox="0 0 18 18" version="1.1" xmlns="http://www.w3.org/2000/svg" xmlns:xlink="http://www.w3.org/1999/xlink">
    <title>jg-public-kapian-nongdaizichan.svg</title>
    <g id="页面-1" stroke="none" stroke-width="1" fill="none" fill-rule="evenodd">
        <g id="小贷" transform="translate(-287.000000, -470.000000)" fill-rule="nonzero">
            <g id="jg-public-kapian-nongdaizichan.svg" transform="translate(287.000000, 470.000000)">
                <rect id="矩形" fill="#000000" opacity="0" x="0" y="0" width="18" height="18"></rect>
                <path d="M8.9685681,18 C6.62165308,18 4.34807916,17.0779977 2.6298021,15.3597206 C0.932479627,13.6623981 0,11.3993015 0,9 C0,6.60069849 0.932479627,4.33760186 2.6298021,2.64027939 C4.32712456,0.942956927 6.59022119,0 8.9895227,0 C8.9895227,0 8.9895227,0 8.9895227,0 C11.3888242,0 13.6519208,0.932479627 15.3492433,2.6298021 C17.0465658,4.32712456 17.9790454,6.59022119 17.9790454,9 C17.9790454,11.3993015 17.0465658,13.6623981 15.3492433,15.3597206 C15.1187427,15.5902212 14.7310827,15.5902212 14.5005821,15.3597206 C14.2700815,15.12922 14.2700815,14.74156 14.5005821,14.5110594 C17.5389988,11.4726426 17.5389988,6.52735739 14.5005821,3.48894063 C13.0232829,2.01164144 11.0745052,1.20488941 8.9895227,1.20488941 C6.90454016,1.20488941 4.94528522,2.01164144 3.47846333,3.48894063 C0.440046566,6.52735739 0.440046566,11.4726426 3.47846333,14.5110594 C5.57392317,16.6065192 8.63329453,17.3294529 11.451688,16.3969732 C11.766007,16.2922002 12.1012806,16.459837 12.2060536,16.774156 C12.3108265,17.088475 12.1431898,17.4237485 11.8288708,17.5285215 C10.8859139,17.8428405 9.92200233,18 8.9685681,18 Z M8.36088475,13.8300349 L8.36088475,13.8300349 C8.20372526,13.8300349 8.04656577,13.7671711 7.94179278,13.6519208 L4.32712456,10.0477299 C4.09662398,9.81722934 4.09662398,9.42956927 4.32712456,9.19906868 L9.19906868,4.33760186 C9.42956927,4.10710128 9.81722934,4.10710128 10.0477299,4.33760186 L13.6519208,7.94179278 C13.8824214,8.17229336 13.8824214,8.55995343 13.6519208,8.79045402 L8.77997672,13.6519208 C8.67520373,13.7671711 8.51804424,13.8300349 8.36088475,13.8300349 Z M5.60535506,9.62863795 L8.36088475,12.3841676 L12.3736903,8.37136205 L9.61816065,5.61583236 L5.60535506,9.62863795 Z M14.8463329,15.6111758 C14.6891735,15.6111758 14.5424913,15.548312 14.427241,15.4330617 L10.2887078,11.3050058 C10.0582072,11.0745052 10.0582072,10.6868452 10.2887078,10.4563446 C10.5192084,10.225844 10.9068685,10.225844 11.137369,10.4563446 L15.2759022,14.5948778 C15.5064028,14.8253783 15.5064028,15.2130384 15.2759022,15.443539 C15.1501746,15.5587893 14.9930151,15.6111758 14.8463329,15.6111758 Z" id="形状" fill="#595959"></path>
            </g>
        </g>
    </g>
</svg>