<?xml version="1.0" encoding="UTF-8"?>
<svg width="18px" height="18px" viewBox="0 0 18 18" version="1.1" xmlns="http://www.w3.org/2000/svg" xmlns:xlink="http://www.w3.org/1999/xlink">
    <title>jg-public-kapian-jiangbuzijin.svg</title>
    <g id="页面-1" stroke="none" stroke-width="1" fill="none" fill-rule="evenodd">
        <g id="融资担保（再担保）公司" transform="translate(-750.000000, -754.000000)" fill-rule="nonzero">
            <g id="jg-public-kapian-jiangbuzijin.svg" transform="translate(750.000000, 754.000000)">
                <rect id="矩形" fill="#000000" opacity="0" x="0" y="0" width="18" height="18"></rect>
                <path d="M14.2312246,6.26035822 C13.8209769,5.80376314 13.3749459,5.38063515 12.8973787,4.99500345 C12.8295795,4.93965716 12.7776924,4.90091474 12.7175033,4.85456221 C13.5608425,4.54739025 14.1509724,3.81197631 14.1509724,2.94096394 C14.1509724,1.76900606 13.1007764,0.871704191 11.854101,0.871704191 C11.5840152,0.871171958 11.3163965,0.923097972 11.0661081,1.02459836 C10.9756583,1.06058205 10.8886032,1.10457264 10.8059805,1.15604581 C10.7617035,1.17541701 10.6689984,1.15327849 10.6434007,1.12007071 L10.6427089,1.12076254 C10.5175016,0.925168129 10.3669942,0.74697852 10.1950957,0.590821736 C9.79867784,0.225536162 9.32961797,0 8.79275888,0 C8.25659161,0 7.78683989,0.225536162 7.39042202,0.590821736 C7.22230842,0.744002399 7.0748618,0.918426634 6.9518026,1.10969328 L6.95111078,1.10900146 C6.91444386,1.15397032 6.82104698,1.1774925 6.78853102,1.1608886 C6.70298017,1.10767934 6.61292814,1.06207458 6.51940965,1.02459836 C6.26904635,0.923350462 6.00147754,0.871434121 5.73141672,0.871704191 C4.48474134,0.871704191 3.43523715,1.76900606 3.43523715,2.94096394 C3.43523715,3.68537167 3.86832195,4.33015605 4.52002461,4.69405795 C4.45014992,4.74732877 4.3802752,4.80059957 4.31178416,4.85525406 C3.8329048,5.23385349 3.38756252,5.65304001 2.98070567,6.10815589 C1.7485587,7.48973787 1,9.06987471 1,10.8236605 C1,15.6872165 4.4190176,18 8.53747406,18 C10.2635868,18 11.950957,17.6347144 13.3159351,16.7733877 C15.1693443,15.6035053 16.2229995,13.6387117 16.2229995,10.8236605 C16.2229995,9.17434083 15.469598,7.64332386 14.2312246,6.26035822 Z M8.53747406,16.9131371 C4.91298333,16.9131371 2.02044739,14.9573372 2.02044739,10.8229687 C2.02044739,9.3874241 2.65277886,8.05288646 3.72096242,6.85533092 C4.08746012,6.44526025 4.48858819,6.0675101 4.91990161,5.72626642 C5.09152556,5.59126618 5.2683045,5.46295143 5.44984242,5.34160965 C6.0247521,4.93827351 5.97078946,4.22845723 5.40764088,3.92543624 L5.40902453,3.91920977 L5.40556538,3.91713428 L5.39864709,3.91367513 L5.3792759,3.90398954 L5.35229457,3.89015296 L5.35229457,3.89084479 L5.33776616,3.88323468 L5.3266969,3.87908371 L5.32462143,3.87770006 L5.3239296,3.87839188 L5.26512415,3.85417787 C4.76769929,3.69990005 4.45568452,3.32631254 4.45568454,2.94027212 C4.45568454,2.42693519 5.00499656,1.95787532 5.73141672,1.9578753 C5.92362266,1.95750489 6.11272568,2.00632871 6.28072874,2.09970019 L6.34299332,2.13775078 C6.80444308,2.3764317 7.39872398,2.22630485 7.72941811,1.81120762 L7.77231149,1.7482512 C7.85181289,1.62390399 7.9479452,1.51101254 8.05803676,1.41271427 C8.28357292,1.20447381 8.52986395,1.08547927 8.7934507,1.08547927 C9.05565378,1.08547927 9.30194481,1.20447381 9.52817282,1.41271427 C9.67138137,1.54416173 9.7710047,1.6756092 9.81320624,1.7482512 L9.84779769,1.80013836 C10.1694981,2.22630487 10.7700054,2.36882158 11.2328388,2.14328542 L11.3054808,2.09970019 C11.4734716,2.00692554 11.6621949,1.9581383 11.854101,1.9578753 C12.581213,1.9578753 13.130525,2.42762702 13.130525,2.94096394 C13.130525,3.32631254 12.8178185,3.69990007 12.3210854,3.85417787 L12.2484434,3.88323468 C12.1608459,3.92948526 12.0691277,3.96746955 11.9744792,3.99669458 C11.2591283,4.23122453 11.1373664,5.00538088 11.7171189,5.43777384 C11.773157,5.47582442 11.8278115,5.51456682 11.882466,5.55330924 C12.4680824,5.9814186 13.0074036,6.46949732 13.4916596,7.00960874 C14.5674533,8.2099316 15.2025521,9.50088401 15.2025521,10.8229687 C15.2025521,15.1711123 12.4421555,16.9131371 8.53747406,16.9131371 L8.53747406,16.9131371 Z M10.6641556,10.5164886 C10.8986855,10.5164886 11.0889384,10.3103236 11.0889384,10.0550388 C11.0889384,9.80113768 10.8986855,9.59428089 10.6641556,9.59428087 L8.92697365,9.59428087 L10.5396264,7.8467215 C10.7057363,7.66124161 10.7057363,7.38049873 10.5396264,7.19501883 C10.4631008,7.10925754 10.3536208,7.06021918 10.2386809,7.06021918 C10.1237411,7.06021918 10.014261,7.10925754 9.93773543,7.19501883 L8.53816589,8.71219925 L7.13790454,7.19501883 C7.06137893,7.10925753 6.9518989,7.06021918 6.83695904,7.06021918 C6.72201918,7.06021918 6.61253915,7.10925753 6.53601353,7.19501883 C6.37053249,7.38073871 6.37053249,7.66100162 6.53601353,7.8467215 L8.14935815,9.59428087 L6.41148437,9.59428087 C6.17695442,9.59428087 5.98600969,9.80113766 5.98600969,10.0550388 C5.98600969,10.3103236 6.17695442,10.5164886 6.41148437,10.5164886 L8.11269123,10.5164886 L8.11269123,10.9772465 L6.41148437,10.9772465 C6.17695442,10.9772465 5.98600969,11.1834115 5.98600969,11.4380045 C5.98600969,11.6925974 6.17695442,11.8987624 6.41148437,11.8987624 L8.11269123,11.8987624 L8.11269123,13.2263817 C8.11269123,13.4207856 8.30294414,13.5785226 8.53747406,13.5785226 C8.77269583,13.5785226 8.96294874,13.4207856 8.96294874,13.2263817 L8.96294874,11.8987624 L10.6641556,11.8987624 C10.8986855,11.8987624 11.0889384,11.6925974 11.0889384,11.4380045 C11.0889384,11.1834115 10.8986855,10.9772465 10.6641556,10.9772465 L8.96294874,10.9772465 L8.96294874,10.5164886 L10.6641556,10.5164886 L10.6641556,10.5164886 Z" id="形状" fill="#595959"></path>
            </g>
        </g>
    </g>
</svg>