<?xml version="1.0" encoding="UTF-8"?>
<svg width="18px" height="18px" viewBox="0 0 18 18" version="1.1" xmlns="http://www.w3.org/2000/svg" xmlns:xlink="http://www.w3.org/1999/xlink">
    <title>jg-public-kapian-yinhangye.svg</title>
    <g id="页面-1" stroke="none" stroke-width="1" fill="none" fill-rule="evenodd">
        <g id="银行业" transform="translate(-286.000000, -184.000000)" fill-rule="nonzero">
            <g id="jg-public-kapian-yinhangye.svg" transform="translate(286.000000, 184.000000)">
                <rect id="矩形" fill="#000000" opacity="0" x="0" y="0" width="18" height="18"></rect>
                <path d="M15.435,8.685 C15.4125,8.685 15.4125,8.685 15.435,8.685 C15.2325,8.595 15.0525,8.505 14.8725,8.4375 C15.165,8.0325 15.3225,7.6275 15.3225,7.2 C15.3225,6.5475 14.985,5.94 14.355,5.4 C15.0075,4.86 15.3225,4.2525 15.3225,3.6 C15.3,1.575 11.9475,0 7.65,0 C3.3525,0 0,1.575 0,3.6 C0,4.2525 0.3375,4.86 0.9675,5.4 C0.3375,5.94 0,6.5475 0,7.2 C0,7.8525 0.3375,8.46 0.9675,9 C0.3375,9.54 0,10.1475 0,10.8 C0,11.4525 0.3375,12.06 0.9675,12.6 C0.3375,13.14 0,13.7475 0,14.4 C0,15.345 0.6975,16.1775 2.0025,16.875 C3.465,17.595 5.5125,18 7.65,18 C8.8425,18 10.035,17.865 11.1375,17.6175 C11.7225,17.865 12.375,18 13.05,18 C15.7725,18 18,15.7725 18,13.05 C18,11.2275 17.01,9.5625 15.435,8.685 Z M7.65,0.9 C11.6325,0.9 14.4,2.3175 14.4,3.6 C14.4,4.2075 13.815,4.7025 13.32,5.0175 C13.2075,5.1075 13.05,5.175 12.8925,5.265 C11.565,5.9175 9.6525,6.3 7.65,6.3 C5.6475,6.3 3.7575,5.9175 2.4075,5.265 L1.9575,5.0175 C1.485,4.7025 0.9,4.2075 0.9,3.6 C0.9,2.3175 3.6675,0.9 7.65,0.9 Z M1.755,5.94 L1.98,6.075 C1.98,6.075 2.0025,6.075 2.0025,6.0975 C3.465,6.8175 5.5125,7.2225 7.65,7.2225 C9.7875,7.2225 11.835,6.8175 13.2975,6.0975 C13.3875,6.0525 13.4775,6.0075 13.545,5.9625 C13.9725,6.2775 14.4,6.705 14.4,7.2225 C14.4,7.5375 14.2425,7.875 13.905,8.19 C13.6125,8.1225 13.3425,8.1 13.05,8.1 C11.565,8.1 10.215,8.7525 9.315,9.81 C8.73,9.8775 8.1675,9.9 7.65,9.9 C5.6475,9.9 3.735,9.5175 2.4075,8.865 C2.25,8.775 2.0925,8.7075 1.98,8.6175 C1.485,8.3025 0.9,7.8075 0.9,7.2 C0.9,6.6825 1.3275,6.2325 1.755,5.94 Z M1.755,9.54 C1.845,9.585 1.9125,9.63 2.025,9.675 C3.4875,10.395 5.535,10.8 7.6725,10.8 C8.01,10.8 8.325,10.7775 8.685,10.755 C8.325,11.43 8.1225,12.2175 8.1225,13.05 C8.1225,13.2075 8.1225,13.3425 8.145,13.5 L7.6725,13.5 C5.625,13.5 3.7125,13.1175 2.4525,12.4875 L2.0025,12.24 C1.485,11.9025 0.9,11.4075 0.9,10.8 C0.9,10.2825 1.3275,9.855 1.755,9.54 Z M7.65,17.1 C5.6475,17.1 3.735,16.7175 2.4075,16.065 C1.44,15.57 0.9,14.9625 0.9,14.4 C0.9,13.8825 1.3275,13.4325 1.755,13.14 L2.0025,13.275 C3.4425,13.995 5.445,14.4 7.65,14.4 L8.28,14.4 C8.5725,15.4125 9.1575,16.29 9.9675,16.92 C9.2025,17.0325 8.4375,17.1 7.65,17.1 Z M13.05,17.1 C11.0925,17.1 9.4725,15.705 9.09,13.8825 C9.09,13.86 9.09,13.8375 9.0675,13.815 C9.0225,13.5675 9,13.32 9,13.05 C9,10.8225 10.8225,9 13.05,9 C13.725,9 14.3775,9.1575 15.0075,9.495 C16.29,10.1925 17.1,11.565 17.1,13.05 C17.1,15.2775 15.2775,17.1 13.05,17.1 Z" id="形状" fill="#595959"></path>
                <path d="M13.3875,11.385 C13.2975,11.295 13.185,11.25 13.0725,11.25 C12.96,11.25 12.8475,11.295 12.7575,11.385 L11.4075,12.735 C11.2275,12.915 11.2275,13.185 11.4075,13.365 L12.7575,14.715 C12.8475,14.805 12.96,14.85 13.0725,14.85 C13.185,14.85 13.2975,14.805 13.3875,14.715 L14.7375,13.365 C14.9175,13.185 14.9175,12.915 14.7375,12.735 L13.3875,11.385 Z M13.0725,13.77 L12.3525,13.05 L13.0725,12.33 L13.7925,13.05 L13.0725,13.77 L13.0725,13.77 Z" id="形状" fill="#595959"></path>
            </g>
        </g>
    </g>
</svg>