<?xml version="1.0" encoding="UTF-8"?>
<svg width="18px" height="18px" viewBox="0 0 18 18" version="1.1" xmlns="http://www.w3.org/2000/svg" xmlns:xlink="http://www.w3.org/1999/xlink">
    <title>jg-public-kapian-nongshanghang.svg</title>
    <g id="页面-1" stroke="none" stroke-width="1" fill="none" fill-rule="evenodd">
        <g id="金融机构和金融市场风险-银行" transform="translate(-1381.000000, -186.000000)" fill-rule="nonzero">
            <g id="jg-public-kapian-nongshanghang.svg" transform="translate(1381.000000, 186.000000)">
                <rect id="矩形" fill="#000000" opacity="0" x="0" y="0" width="18" height="18"></rect>
                <path d="M8.991,17.811 C8.892,17.811 8.802,17.784 8.721,17.73 C6.534,16.407 4.95,15.309 3.78,13.896 C2.43,12.276 1.773,10.386 1.701,7.956 L1.701,7.911 C1.701,7.776 1.692,7.65 1.692,7.524 C1.692,7.398 1.692,7.263 1.701,7.137 L1.701,4.635 C1.701,4.347 1.935,4.104 2.232,4.104 C4.833,4.104 7.245,2.7 8.532,0.441 C8.622,0.279 8.802,0.171 8.991,0.171 C9.18,0.171 9.36,0.27 9.45,0.441 C10.737,2.7 13.158,4.104 15.759,4.104 C16.047,4.104 16.29,4.338 16.29,4.635 L16.29,7.956 C16.29,7.992 16.29,8.028 16.281,8.055 C16.101,13.203 13.257,15.318 9.27,17.739 C9.18,17.784 9.09,17.811 8.991,17.811 Z M2.763,7.938 C2.826,10.116 3.411,11.79 4.599,13.221 C5.625,14.463 7.056,15.471 9,16.659 C12.69,14.409 15.102,12.51 15.237,7.929 C15.237,7.902 15.237,7.884 15.246,7.857 L15.246,5.139 C12.753,4.977 10.458,3.699 9.009,1.674 C7.542,3.699 5.247,4.977 2.763,5.139 L2.763,7.155 C2.763,7.281 2.754,7.407 2.754,7.524 C2.754,7.65 2.754,7.767 2.763,7.893 L2.763,7.938 Z" id="形状" fill="#595959"></path>
                <path d="M9.189,13.599 C9.126,13.599 9.063,13.59 9,13.563 C8.73,13.455 8.595,13.149 8.694,12.879 L9.891,9.792 L7.713,9.792 C7.542,9.792 7.38,9.711 7.281,9.567 C7.182,9.423 7.155,9.243 7.218,9.081 L8.496,5.481 C8.595,5.202 8.892,5.058 9.171,5.157 C9.45,5.256 9.594,5.553 9.495,5.832 L8.46,8.739 L10.665,8.739 C10.836,8.739 11.007,8.829 11.097,8.973 C11.196,9.117 11.214,9.297 11.151,9.459 L9.675,13.266 C9.603,13.473 9.405,13.599 9.189,13.599 L9.189,13.599 Z" id="路径" fill="#595959"></path>
            </g>
        </g>
    </g>
</svg>