<?xml version="1.0" encoding="UTF-8"?>
<svg width="18px" height="18px" viewBox="0 0 18 18" version="1.1" xmlns="http://www.w3.org/2000/svg" xmlns:xlink="http://www.w3.org/1999/xlink">
    <title>jg-public-kapian-zhengquanqhuojigou.svg</title>
    <g id="页面-1" stroke="none" stroke-width="1" fill="none" fill-rule="evenodd">
        <g id="金融机构和金融市场风险-银行" transform="translate(-1381.000000, -542.000000)" fill-rule="nonzero">
            <g id="jg-public-kapian-zhengquanqhuojigou.svg" transform="translate(1381.000000, 542.000000)">
                <rect id="矩形" fill="#000000" opacity="0" x="0" y="0" width="18" height="18"></rect>
                <path d="M16.6674999,11.6676219 C17.9308645,12.9492831 18.185817,14.8155354 17.1264144,16.2651653 C17.1540093,16.2783628 17.1795045,16.2948597 17.2023003,16.314656 L17.9254655,17.0183249 C18.0682389,17.1425018 17.9752563,17.4784392 17.8489798,17.6185131 C17.783592,17.6913995 17.5721314,17.8452708 17.4734498,17.8455708 C17.3888655,17.8455708 17.3072807,17.8149765 17.2442925,17.7594868 L16.5034305,17.0816131 C16.4827903,17.0639852 16.4644497,17.0438307 16.4488407,17.0216243 C14.9608179,18.4394601 12.7205354,18.2645927 11.2787041,16.8017653 C10.5870368,16.1047044 10.2058914,15.1580465 10.2215876,14.1761855 C10.2372839,13.1943244 10.6484937,12.2603333 11.3620885,11.5857372 C12.8498113,10.1679014 15.2253687,10.2044946 16.6674999,11.6676219 L16.6674999,11.6676219 Z M9.4478452,0.117374133 C9.4478452,0.224754117 12.4694822,2.37145412 16.3888519,2.37145412 C16.7013936,2.37145412 17.0766237,2.55771942 17.1033187,2.85646375 L17.1051184,2.89785604 L17.1051184,9.53052015 C17.1051184,9.79927008 16.9899399,10.1184106 16.8921581,10.4552478 C16.5238267,10.116311 16.3168653,9.84906079 15.8774472,9.65949611 C15.8867454,9.59590796 15.8924444,9.53471936 15.894544,9.47653021 L15.894544,3.30817957 C12.7373323,3.20169941 9.94575243,1.88134545 9.07471473,1.24216455 C7.35153581,2.82886889 4.3119022,3.17650412 2.75789176,3.30817957 L2.40275793,3.30817957 L2.40275793,9.19968179 C2.40275793,11.3298849 4.7444216,16.1343896 7.46581453,16.1343896 C7.79485321,16.1343896 8.43403412,16.0684019 8.77657029,15.9487242 C8.92744218,16.1787814 9.10350937,16.3980405 9.30387203,16.6026024 C9.43284799,16.7345778 9.56782285,16.8575549 9.70729685,16.9712337 C9.11340751,17.2285857 8.21177552,17.3761583 7.62148552,17.3761583 C4.28040807,17.3761583 1.28546613,12.1166383 1.20178172,9.40754306 L1.20058195,9.32625821 L1.20058195,2.8561638 C1.20148177,2.6752975 1.20958028,2.57691582 1.30946166,2.47823422 C1.40004478,2.38915081 1.49092785,2.37415361 1.64449923,2.37175406 L1.7449805,2.37115417 C3.37787624,2.37115417 7.27055091,1.9416342 8.68568722,0.224454182 C8.90344665,0.00969419531 9.23008577,-0.0976857891 9.4478452,0.11707418 L9.4478452,0.117374133 Z M13.9491065,11.710214 C12.4898784,11.710214 11.3875838,12.8916938 11.3875838,14.3491223 C11.3875838,15.8065507 12.4907782,16.9883305 13.9500063,16.9880306 C15.3849389,16.9880306 16.6360058,15.8452435 16.6743986,14.4217088 L16.6755984,14.3491223 C16.6737988,12.9162893 15.4470274,11.7510064 14.0219929,11.7111138 L13.9491065,11.709914 L13.9491065,11.710214 Z M9.26607908,11.1664044 C9.55342554,11.1664044 9.84047205,11.414769 10.0243378,11.704815 C9.827603,12.0992888 9.69342381,12.5219634 9.62661189,12.9576816 C9.51239502,13.0053076 9.38982734,13.0296783 9.26607908,13.0293807 C9.01846811,13.0306499 8.78060636,12.9329565 8.60537586,12.7580077 C8.43014537,12.5830588 8.33206957,12.3453545 8.33294703,12.0977418 C8.33215032,11.8502332 8.43022042,11.6126522 8.60537707,11.4377772 C8.78053371,11.2629022 9.01827218,11.1652145 9.26577912,11.1664044 L9.26607908,11.1664044 Z M9.42145012,4.33608804 C10.1533138,4.33608804 10.1965057,4.91677984 10.1989053,5.25811623 L10.1992052,5.31930484 L10.0264374,9.57971099 C10.0264374,9.90724996 9.76728568,10.2350889 9.50783402,10.2350889 C9.17879534,10.2350889 8.92804205,9.93784424 8.83026028,9.62620232 L8.81676279,9.57971099 L8.64399498,5.31930484 L8.64519476,5.23622032 C8.65719251,4.81629857 8.77357085,4.33638798 9.42145012,4.33638798 L9.42145012,4.33608804 Z" id="形状" fill="#595959"></path>
            </g>
        </g>
    </g>
</svg>