<?xml version="1.0" encoding="UTF-8"?>
<svg width="10px" height="13px" viewBox="0 0 10 13" version="1.1" xmlns="http://www.w3.org/2000/svg" xmlns:xlink="http://www.w3.org/1999/xlink">
    <!-- Generator: Sketch 63.1 (92452) - https://sketch.com -->
    <title>路径</title>
    <desc>Created with Sketch.</desc>
    <g id="页面-1" stroke="none" stroke-width="1" fill="none" fill-rule="evenodd">
        <g id="1非法集资案件管理-1台账管理-1案件维护管理-1行政案件-1新增" transform="translate(-1810.000000, -1803.000000)" fill="#606266" fill-rule="nonzero">
            <path d="M1816.83769,1805.14606 C1816.64226,1804.95131 1816.32538,1804.95131 1816.12995,1805.14606 C1815.93451,1805.3408 1815.93451,1805.65653 1816.12995,1805.85127 L1819.30939,1809.01932 L1809.4824,1809.01932 C1809.21598,1809.01932 1809,1809.23454 1809,1809.5 C1809,1809.76547 1809.21599,1809.98068 1809.4824,1809.98068 L1819.3094,1809.98068 L1816.12995,1813.14874 C1815.93451,1813.34347 1815.93451,1813.65921 1816.12995,1813.85395 C1816.22767,1813.95132 1816.35575,1814 1816.48382,1814 C1816.61189,1814 1816.73997,1813.95132 1816.83769,1813.85395 L1820.85342,1809.8526 C1820.94727,1809.75908 1821,1809.63225 1821,1809.5 C1821,1809.36775 1820.94727,1809.24091 1820.85342,1809.1474 L1816.83769,1805.14606 Z" id="路径" transform="translate(1815.000000, 1809.500000) rotate(-270.000000) translate(-1815.000000, -1809.500000) "></path>
        </g>
    </g>
</svg>