<?xml version="1.0" encoding="UTF-8"?>
<svg width="16px" height="16px" viewBox="0 0 16 16" version="1.1" xmlns="http://www.w3.org/2000/svg" xmlns:xlink="http://www.w3.org/1999/xlink">
    <title>刷新备份 6</title>
    <g id="页面-1" stroke="none" stroke-width="1" fill="none" fill-rule="evenodd">
        <g id="首页-监管二处-担保" transform="translate(-1052.000000, -515.000000)" fill="#BABABA" fill-rule="nonzero">
            <g id="刷新备份-6" transform="translate(1052.000000, 515.000000)">
                <path d="M16,6.15179451 L11.077341,6.02872403 L13.2826922,3.83437729 C12.0198135,2.19559056 10.0695648,1.23361223 8.00067905,1.22897513 C4.6677754,1.21325026 1.81944994,3.62620807 1.28701495,6.91645306 C0.754579959,10.2066981 2.69651654,13.3948775 5.86426923,14.4311723 C9.03202192,15.4674671 12.4826983,14.0434204 13.9977084,11.0746139 L15.3846676,11.0746139 C14.0025101,14.3946944 10.5747774,16.3843044 7.0064228,15.9377234 C3.43806824,15.4911425 0.606337196,12.7181582 0.0849567141,9.15984916 C-0.436423768,5.60154015 1.48072264,2.13268222 4.7709469,0.681083975 C8.06117115,-0.770514266 11.9156035,0.152008528 14.1921535,2.93596275 L15.9052388,1.22897513 L16,6.15179451 Z" id="路径"></path>
            </g>
        </g>
    </g>
</svg>