<?xml version="1.0" encoding="UTF-8"?>
<svg width="18px" height="18px" viewBox="0 0 18 18" version="1.1" xmlns="http://www.w3.org/2000/svg" xmlns:xlink="http://www.w3.org/1999/xlink">
    <title>jg-public-kapian-kedaizichan.svg</title>
    <g id="页面-1" stroke="none" stroke-width="1" fill="none" fill-rule="evenodd">
        <g id="小贷" transform="translate(-660.000000, -470.000000)" fill-rule="nonzero">
            <g id="jg-public-kapian-kedaizichan.svg" transform="translate(660.000000, 470.000000)">
                <rect id="矩形" fill="#000000" opacity="0" x="0" y="0" width="17.9551122" height="18"></rect>
                <path d="M16.0024938,-1.87350135e-16 L4.78054863,-1.87350135e-16 C4.47317007,0.005985119 4.22542157,0.254352991 4.21945137,0.5625 C4.22542157,0.870647009 4.47317007,1.11901488 4.78054863,1.125 L16.0024938,1.125 C16.3098723,1.11901488 16.5576208,0.870647009 16.563591,0.5625 C16.5576208,0.254352991 16.3098723,0.005985119 16.0024938,-1.87350135e-16 Z" id="路径" fill="#595959"></path>
                <path d="M5.37531172,9.0675 L5.37531172,0.5625 C5.36934153,0.254352991 5.12159303,0.005985119 4.81421446,0 C4.5068359,0.005985119 4.2590874,0.254352991 4.25311721,0.5625 L4.25311721,9.0675 C4.2590874,9.37564701 4.5068359,9.62401488 4.81421446,9.63 C5.12159303,9.62401488 5.36934153,9.37564701 5.37531172,9.0675 L5.37531172,9.0675 Z M16.563591,9.0675 L16.563591,0.5625 C16.5576208,0.254352991 16.3098723,0.005985119 16.0024938,0 C15.6951152,0.005985119 15.4473667,0.254352991 15.4413965,0.5625 L15.4413965,9.0675 C15.4473667,9.37564701 15.6951152,9.62401488 16.0024938,9.63 C16.3098723,9.62401488 16.5576208,9.37564701 16.563591,9.0675 L16.563591,9.0675 Z M17.9551122,17.4375 L17.9551122,9.0675 C17.9551122,8.75683983 17.7039004,8.505 17.394015,8.505 C17.0841295,8.505 16.8329177,8.75683983 16.8329177,9.0675 L16.8329177,17.4375 C16.8329177,17.7481602 17.0841295,18 17.394015,18 C17.7039004,18 17.9551122,17.7481602 17.9551122,17.4375 Z M1.12219451,17.4375 L1.12219451,9.0675 C1.11622432,8.75935299 0.86847582,8.51098512 0.561097257,8.505 C0.256111405,8.51654986 0.011521061,8.76175168 0,9.0675 L0,17.4375 C0.00597019351,17.745647 0.253718694,17.9940149 0.561097257,18 C0.86847582,17.9940149 1.11622432,17.745647 1.12219451,17.4375 Z M2.51371571,9.0675 L2.51371571,3.375 C2.51371571,3.06433983 2.26250391,2.8125 1.95261845,2.8125 C1.642733,2.8125 1.3915212,3.06433983 1.3915212,3.375 L1.3915212,9.0675 C1.3915212,9.37816017 1.642733,9.63 1.95261845,9.63 C2.26250391,9.63 2.51371571,9.37816017 2.51371571,9.0675 L2.51371571,9.0675 Z" id="形状" fill="#595959"></path>
                <path d="M17.394015,8.505 L0.605985037,8.505 C0.300999185,8.51654986 0.0564088416,8.76175168 0.0448877805,9.0675 C0.0508579741,9.37564701 0.298606475,9.62401488 0.605985037,9.63 L17.4389027,9.63 C17.7462813,9.62401488 17.9940298,9.37564701 18,9.0675 C17.9940298,8.75935299 17.7462813,8.51098512 17.4389027,8.505 L17.394015,8.505 Z M17.394015,16.875 L0.605985037,16.875 C0.296099579,16.875 0.0448877805,17.1268398 0.0448877805,17.4375 C0.0448877805,17.7481602 0.296099579,18 0.605985037,18 L17.4389027,18 C17.7487882,18 18,17.7481602 18,17.4375 C18,17.1268398 17.7487882,16.875 17.4389027,16.875 L17.394015,16.875 Z M13.8478803,12.79125 L4.03990025,12.79125 C3.73252169,12.7972351 3.48477319,13.045603 3.47880299,13.35375 C3.48477319,13.661897 3.73252169,13.9102649 4.03990025,13.91625 L13.8478803,13.91625 C14.1552589,13.9102649 14.4030074,13.661897 14.4089776,13.35375 C14.3974565,13.0480017 14.1528662,12.8027999 13.8478803,12.79125 L13.8478803,12.79125 Z" id="形状" fill="#595959"></path>
                <path d="M4.60099751,14.625 L4.60099751,11.9025 C4.60099751,11.5918398 4.34978571,11.34 4.03990025,11.34 C3.73001479,11.34 3.47880299,11.5918398 3.47880299,11.9025 L3.47880299,14.625 C3.47880299,14.9356602 3.73001479,15.1875 4.03990025,15.1875 C4.34978571,15.1875 4.60099751,14.9356602 4.60099751,14.625 Z M14.4089776,14.625 L14.4089776,11.9025 C14.4030074,11.594353 14.1552589,11.3459851 13.8478803,11.34 C13.5405017,11.3459851 13.2927532,11.594353 13.286783,11.9025 L13.286783,14.625 C13.2927532,14.933147 13.5405017,15.1815149 13.8478803,15.1875 C14.1528662,15.1759501 14.3974565,14.9307483 14.4089776,14.625 L14.4089776,14.625 Z M13.1633416,2.80125 L10.4588529,2.80125 C10.1514743,2.80723512 9.9037258,3.05560299 9.89775561,3.36375 C9.9037258,3.67189701 10.1514743,3.92026488 10.4588529,3.92625 L13.1633416,3.92625 C13.4707202,3.92026488 13.7184687,3.67189701 13.7244389,3.36375 C13.7184687,3.05560299 13.4707202,2.80723512 13.1633416,2.80125 L13.1633416,2.80125 Z M4.63466334,2.80125 L1.93017456,2.80125 C1.622796,2.80723512 1.3750475,3.05560299 1.36907731,3.36375 C1.3750475,3.67189701 1.622796,3.92026488 1.93017456,3.92625 L4.63466334,3.92625 C4.93964919,3.91470014 5.18423954,3.66949832 5.1957606,3.36375 C5.1897904,3.05560299 4.9420419,2.80723512 4.63466334,2.80125 Z M7.97880299,2.80125 L7.14837905,2.80125 C6.84100049,2.80723512 6.59325199,3.05560299 6.5872818,3.36375 C6.59325199,3.67189701 6.84100049,3.92026488 7.14837905,3.92625 L7.97880299,3.92625 C8.28378884,3.91470014 8.52837919,3.66949832 8.53990025,3.36375 C8.53393006,3.05560299 8.28618156,2.80723512 7.97880299,2.80125 L7.97880299,2.80125 Z M13.1633416,5.625 L10.4588529,5.625 C10.1489674,5.625 9.89775561,5.87683983 9.89775561,6.1875 C9.89775561,6.49816017 10.1489674,6.75 10.4588529,6.75 L13.1633416,6.75 C13.4732271,6.75 13.7244389,6.49816017 13.7244389,6.1875 C13.7244389,5.87683983 13.4732271,5.625 13.1633416,5.625 Z M7.97880299,5.625 L7.14837905,5.625 C6.83849359,5.625 6.5872818,5.87683983 6.5872818,6.1875 C6.5872818,6.49816017 6.83849359,6.75 7.14837905,6.75 L7.97880299,6.75 C8.28868845,6.75 8.53990025,6.49816017 8.53990025,6.1875 C8.53990025,5.87683983 8.28868845,5.625 7.97880299,5.625 Z" id="形状" fill="#595959"></path>
            </g>
        </g>
    </g>
</svg>