<?xml version="1.0" encoding="UTF-8"?>
<svg width="18px" height="18px" viewBox="0 0 18 18" version="1.1" xmlns="http://www.w3.org/2000/svg" xmlns:xlink="http://www.w3.org/1999/xlink">
    <title>jg-public-kapian-guanzhudaikaunlv.svg</title>
    <g id="页面-1" stroke="none" stroke-width="1" fill="none" fill-rule="evenodd">
        <g id="金融机构和金融市场风险-银行" transform="translate(-834.000000, -186.000000)" fill-rule="nonzero">
            <g id="jg-public-kapian-guanzhudaikaunlv.svg" transform="translate(834.000000, 186.000000)">
                <rect id="矩形" fill="#000000" opacity="0" x="0" y="0" width="18" height="18"></rect>
                <path d="M8.98745291,0 C11.7268215,0 13.9476265,2.220805 13.9476265,4.9601736 C13.9476265,6.74110138 13.0092518,8.30265421 11.5998862,9.17744847 C12.7870167,9.53635802 13.8870374,10.1370323 14.8307629,10.941692 C15.0147793,11.0983617 15.1012352,11.3413021 15.0575635,11.5789998 C15.0138917,11.8166975 14.8467272,12.0130407 14.619039,12.0940688 C14.3913509,12.1750968 14.1377304,12.1284996 13.953714,11.9718299 C12.5690341,10.7903704 10.8076659,10.1427415 8.98745291,10.1458096 C4.99947334,10.1458096 1.68607739,13.2037566 1.34968743,17.1509275 C1.31414662,17.5198493 0.98832695,17.7914591 0.619033418,17.7600154 C0.249739887,17.7285717 -0.025469728,17.4057869 0.00187299116,17.0361671 C0.32135327,13.2880796 2.91980784,10.2226923 6.37569604,9.17767394 C4.96633036,8.30333059 4.02727931,6.74132685 4.02727931,4.9601736 C4.02727931,2.220805 6.24808431,0 8.98745291,0 Z M17.7793606,13.2610241 L17.8019068,13.282443 C17.9283291,13.401559 18,13.5675606 18,13.7412591 C18,13.9149576 17.9283291,14.0809592 17.8019068,14.2000751 L14.3721723,17.4332065 C14.2424298,17.55574 14.0694322,17.6218909 13.8910354,17.6171838 C13.7125613,17.621951 13.5394714,17.5557958 13.4096731,17.4332065 L11.4400333,15.5765233 C11.3136111,15.4574074 11.2419401,15.2914058 11.2419401,15.1177073 C11.2419401,14.9440087 11.3136111,14.7780071 11.4400333,14.6588912 L11.462805,14.6374723 C11.7233653,14.3918098 12.130248,14.3918098 12.3908084,14.6374723 L13.8910354,16.0515727 L16.8513572,13.2610241 C17.1119176,13.0153616 17.5188003,13.0153616 17.7793606,13.2610241 Z M8.98745291,1.35277462 C6.99504137,1.35277462 5.38005393,2.96776204 5.38005393,4.9601736 C5.38005393,6.95258516 6.99504135,8.56757258 8.98745291,8.56757258 C10.9798645,8.56757258 12.5948519,6.95258516 12.5948519,4.9601736 C12.5948519,2.96776204 10.9798645,1.35277462 8.98745291,1.35277462 Z" id="形状" fill="#595959"></path>
            </g>
        </g>
    </g>
</svg>