<?xml version="1.0" encoding="UTF-8"?>
<svg width="18px" height="10px" viewBox="0 0 18 10" version="1.1" xmlns="http://www.w3.org/2000/svg" xmlns:xlink="http://www.w3.org/1999/xlink">
    <title>下拉</title>
    <g id="页面-1" stroke="none" stroke-width="1" fill="none" fill-rule="evenodd">
        <g id="首页-监管二处-担保" transform="translate(-1775.000000, -31.000000)" fill="#160A0A">
            <path d="M1775.21947,40.7746972 C1775.51215,41.0751009 1775.98495,41.0751009 1776.27765,40.7746972 L1783.95495,32.8255528 L1791.7223,40.7515892 C1792.01499,41.051993 1792.48778,41.051993 1792.78049,40.7515892 C1793.07317,40.4511855 1793.07317,39.965918 1792.78049,39.6654917 L1784.51782,31.2541878 C1784.49531,31.2310798 1784.49531,31.2310798 1784.4728,31.2310798 C1784.33771,31.0924319 1784.13508,31 1783.95497,31 C1783.75235,31 1783.57223,31.0693239 1783.41463,31.2310798 L1775.21951,39.6885997 C1774.92683,39.9890034 1774.92683,40.4742709 1775.21951,40.7746972 L1775.21947,40.7746972" id="下拉" transform="translate(1784.000000, 36.000000) rotate(-180.000000) translate(-1784.000000, -36.000000) "></path>
        </g>
    </g>
</svg>