<?xml version="1.0" encoding="UTF-8"?>
<svg width="18px" height="18px" viewBox="0 0 18 18" version="1.1" xmlns="http://www.w3.org/2000/svg" xmlns:xlink="http://www.w3.org/1999/xlink">
    <title>jg-public-kapian-chanye.svg</title>
    <g id="页面-1" stroke="none" stroke-width="1" fill="none" fill-rule="evenodd">
        <g id="银行业" transform="translate(-833.000000, -184.000000)" fill-rule="nonzero">
            <g id="jg-public-kapian-chanye.svg" transform="translate(833.000000, 184.000000)">
                <rect id="矩形" fill="#000000" opacity="0" x="0" y="0" width="18" height="18"></rect>
                <path d="M0.837903556,0.561651844 C1.24856059,0.21000895 1.78355432,0.00875037293 2.32404247,0.00040699409 C6.76719695,0 11.2103514,0.00040699409 15.6535059,0 C16.0747448,0.00325595272 16.4943557,0.121487736 16.854342,0.340043562 C17.3691895,0.648952076 17.7578688,1.16115414 17.9141546,1.74112072 C17.9833436,1.98735214 18.0030828,2.24436891 17.9996233,2.4993507 L17.9996233,11.0448021 C17.9984024,11.3223721 18.0020653,11.599942 17.9977919,11.877512 C17.9916869,12.2857271 17.8791531,12.6919072 17.6707721,13.0433466 C17.4764324,13.3726048 17.2008974,13.6534307 16.8761161,13.8550963 C16.5114494,14.082606 16.0834952,14.2036867 15.6541164,14.2091812 C13.5937088,14.2097916 11.5333012,14.2089777 9.47289366,14.2095881 C9.47330065,14.9199963 9.47289366,15.6304045 9.47309716,16.3408127 C11.2685516,16.3412197 13.0638025,16.3410162 14.8592569,16.3410162 C14.9406558,16.3416267 15.024293,16.3347078 15.1038604,16.3574995 C15.2601461,16.3986059 15.3916052,16.525995 15.4339326,16.6824842 C15.4776845,16.836328 15.4412585,17.0135739 15.3307596,17.1313987 C15.2438664,17.2292808 15.1144422,17.2868705 14.9837971,17.2872775 C10.9946446,17.2872775 7.00549199,17.2872775 3.01633942,17.287074 C2.88528732,17.287074 2.7558632,17.2290773 2.66896997,17.1311952 C2.53221995,16.9858983 2.51003877,16.7504523 2.60893834,16.5789042 C2.69054065,16.4356423 2.85028583,16.3404057 3.01572893,16.3412197 C4.85269675,16.3408127 6.68986807,16.3414232 8.5268359,16.3408127 L8.5268359,14.2095881 C6.61559165,14.2091812 4.70434741,14.2095881 2.79310316,14.2093847 C2.48663661,14.2071462 2.17630362,14.2258679 1.87512799,14.1566789 C1.22821089,14.0235918 0.650889772,13.6005215 0.321021062,13.0297123 C0.107145668,12.6646386 0,12.2417717 0.000309719284,11.8195154 C0,8.8004332 0.000309719284,5.78135104 0.000309719284,2.76226889 C0.00214119269,2.50403114 -0.01006863,2.24396191 0.0322587553,1.98836962 C0.118744999,1.43668914 0.41137375,0.921434619 0.837903556,0.561651844 M2.13275525,0.96681446 C1.75608222,1.03071253 1.40932326,1.2531348 1.19585486,1.5701832 C1.02959777,1.8109202 0.94575699,2.10334546 0.946774475,2.39495672 C0.946309284,5.4954377 0.946977972,8.59612217 0.946570978,11.6966031 C0.945349995,11.8197189 0.94779196,11.9436486 0.967124179,12.0655433 C1.02247538,12.4139302 1.21396609,12.738508 1.49194306,12.9556394 C1.73817448,13.152828 2.05176343,13.2600709 2.36677685,13.2629199 C6.78245923,13.2635304 11.1983451,13.2629199 15.614231,13.2633297 C15.9257849,13.2639374 16.2375424,13.1636133 16.4851983,12.9733436 C16.7698907,12.7598752 16.9687073,12.4355009 17.0295529,12.0848755 C17.0671999,11.8622497 17.0488851,11.6357575 17.0533621,11.4110968 C17.0531586,8.40605593 17.0535656,5.40081157 17.0531586,2.39577071 C17.0580425,1.9828752 16.8787616,1.57120068 16.5657832,1.30075311 C16.3108014,1.07588888 15.9734033,0.947075247 15.6333597,0.946261258 C11.2042465,0.946668253 6.77513334,0.946261258 2.34602015,0.946464755 C2.2743892,0.947889235 2.20316523,0.955215128 2.13275525,0.96681446 L2.13275525,0.96681446 Z M6.74623676,2.89026853 C7.64406572,2.50749059 8.66826634,2.43504564 9.61249263,2.67924209 C10.3878164,2.87724472 11.104533,3.29197169 11.6674058,3.86013544 C12.4583988,4.65377392 12.9337679,5.75367545 12.958391,6.87494416 C12.9671414,7.07599924 12.9614435,7.27746132 12.9630715,7.47871989 C11.720722,7.47912689 10.4783726,7.4781094 9.2360231,7.47912689 C9.85139816,8.54606189 10.4677907,9.61218291 11.0833693,10.6787109 C10.7596055,10.8577883 10.4417431,11.052128 10.0933561,11.1813486 C9.23459862,11.5138628 8.27226109,11.5669755 7.38074054,11.3386518 C6.7083863,11.1681213 6.07856295,10.8358106 5.55618604,10.3799773 C4.96930056,9.86981017 4.51794411,9.20417134 4.26520078,8.46852952 C3.96199019,7.59471321 3.94143699,6.62688126 4.20293069,5.74004114 C4.38017661,5.13606191 4.68908513,4.57135761 5.09953867,4.09415704 C5.54621468,3.57340811 6.11437843,3.15746015 6.74623676,2.89026853 M6.71978214,3.96168047 C6.14368201,4.2972471 5.66505696,4.79927431 5.36001489,5.39246819 C5.07471203,5.93946825 4.94081097,6.56359368 4.97214952,7.17957924 C5.00348806,7.8777776 5.25216145,8.56356264 5.67340033,9.12134804 C6.09016228,9.67811595 6.67521629,10.1068842 7.33230824,10.3356149 C8.11414389,10.6097254 8.99365812,10.5954806 9.76511542,10.29227 C9.04209041,9.03893174 8.31743744,7.78640743 7.59461593,6.53286563 C9.05755619,6.53184814 10.5202929,6.53306913 11.9832332,6.53225514 C11.8985784,5.90548424 11.6407477,5.30333649 11.2445389,4.81026315 C10.7799552,4.22683712 10.1265262,3.79501639 9.40472215,3.60433966 C8.50953865,3.36095719 7.51952553,3.49078831 6.71978214,3.96168047 Z M10.3229008,8.07455924 C11.8576755,8.07333826 13.3922467,8.07415225 14.926818,8.07415225 C14.9225445,8.41256783 14.9445222,8.75362888 14.8897815,9.0896025 C14.754863,10.0490911 14.2219042,10.9422396 13.4469874,11.5230202 C13.1871217,11.7248892 12.890423,11.8693721 12.6065447,12.0329838 C11.8446517,10.7137124 11.0831658,9.39464457 10.3229008,8.07455924 M11.96268,9.020617 C12.2890893,9.5853213 12.613667,10.1514501 12.9417043,10.7153404 C13.4648952,10.2953225 13.8313934,9.68320338 13.9420958,9.02041351 C13.2823583,9.02021001 12.6224174,9.02000651 11.96268,9.020617 Z" id="形状" fill="#595959"></path>
            </g>
        </g>
    </g>
</svg>