<?xml version="1.0" encoding="UTF-8"?>
<svg width="18px" height="18px" viewBox="0 0 18 18" version="1.1" xmlns="http://www.w3.org/2000/svg" xmlns:xlink="http://www.w3.org/1999/xlink">
    <title>jg-public-kapian-laiyuanqudao.svg</title>
    <g id="页面-1" stroke="none" stroke-width="1" fill="none" fill-rule="evenodd">
        <g id="非法金融活动" transform="translate(-858.000000, -542.000000)" fill-rule="nonzero">
            <g id="jg-public-kapian-laiyuanqudao.svg" transform="translate(858.000000, 542.000000)">
                <rect id="矩形" fill="#000000" opacity="0" x="0" y="0" width="18" height="18"></rect>
                <path d="M16.2490909,10.53 L14.2854545,10.53 C14.2894026,10.4837204 14.2894026,10.4371887 14.2854545,10.3909091 C14.0979915,9.42766836 13.4148051,8.63554566 12.4895455,8.30863637 C12.4350998,8.29246696 12.378614,8.28420076 12.3218182,8.2840909 L9.61363637,8.2840909 L9.61363637,7.4659091 L11.5772727,7.4659091 C11.9161747,7.4659091 12.1909091,7.19117474 12.1909091,6.85227273 L12.1909091,1.70181817 C12.1909091,1.36291617 11.9161747,1.08818183 11.5772727,1.08818183 L6.42272727,1.08818183 C6.08382527,1.08818183 5.80909091,1.36291617 5.8090909,1.70181817 L5.8090909,6.85636363 C5.8090909,7.19526564 6.08382526,7.47 6.42272727,7.47 L8.38636363,7.47 L8.38636363,8.28818183 L5.5759091,8.28818183 C4.15227273,8.37409092 3.76363637,10.2027273 3.72272727,10.4113636 C3.7186786,10.4508055 3.7186786,10.4905582 3.72272727,10.53 L1.7509091,10.53 C1.41200709,10.53 1.13727273,10.8047344 1.13727273,11.1436364 L1.13727273,16.2981818 C1.13727273,16.6370838 1.4120071,16.9118182 1.7509091,16.9118182 L6.90545454,16.9118182 C7.24435654,16.9118182 7.51909089,16.6370838 7.5190909,16.2981818 L7.5190909,11.1436364 C7.5190909,10.8047344 7.24435655,10.53 6.90545454,10.53 L4.95818183,10.53 C5.06045456,10.1209091 5.32227273,9.53181817 5.61272727,9.51136363 L12.1990909,9.51136363 C12.6050571,9.71813623 12.9029318,10.0889902 13.0172727,10.53 L11.0945455,10.53 C10.7556435,10.53 10.4809091,10.8047344 10.4809091,11.1436364 L10.4809091,16.2981818 C10.4809091,16.6370838 10.7556435,16.9118182 11.0945455,16.9118182 L16.2490909,16.9118182 C16.5879929,16.9118182 16.8627273,16.6370838 16.8627273,16.2981818 L16.8627273,11.1436364 C16.8627273,10.8047344 16.5879929,10.53 16.2490909,10.53 L16.2490909,10.53 Z M7.03636363,2.31545454 L10.9636364,2.31545454 L10.9636364,6.24272727 L7.03636363,6.24272727 L7.03636363,2.31545454 Z M6.29181817,15.6845455 L2.36454546,15.6845455 L2.36454546,11.7572727 L6.29181817,11.7572727 L6.29181817,15.6845455 Z M15.6354545,15.6845455 L11.7081818,15.6845455 L11.7081818,11.7572727 L15.6354545,11.7572727 L15.6354545,15.6845455 Z" id="形状" fill="#595959"></path>
            </g>
        </g>
    </g>
</svg>