<?xml version="1.0" encoding="UTF-8"?>
<svg width="18px" height="18px" viewBox="0 0 18 18" version="1.1" xmlns="http://www.w3.org/2000/svg" xmlns:xlink="http://www.w3.org/1999/xlink">
    <title>jg-public-kapian-xinfangyuqing.svg</title>
    <g id="页面-1" stroke="none" stroke-width="1" fill="none" fill-rule="evenodd">
        <g id="小贷" transform="translate(-1482.000000, -186.000000)" fill-rule="nonzero">
            <g id="jg-public-kapian-xinfangyuqing.svg" transform="translate(1482.000000, 186.000000)">
                <rect id="矩形" fill="#000000" opacity="0" x="0" y="0" width="18" height="18"></rect>
                <g id="编组-3" transform="translate(1.000000, 0.000000)" fill="#595959">
                    <path d="M16.1629091,12.2465455 C16.3963636,11.4807273 16.5141818,10.6843636 16.5141818,9.87490909 C16.5141818,6.34472727 14.1752727,3.17018182 10.8152727,2.12072727 C10.7301818,0.936 9.73963636,0 8.53309091,0 C7.35709091,0 6.38618182,0.892363636 6.25963636,2.03563636 C6.25527273,2.03563636 6.25090909,2.03781818 6.24872727,2.03781818 C2.72727273,2.99781818 0.268363636,6.22254545 0.268363636,9.87490909 C0.268363636,10.7214545 0.399272727,11.5570909 0.654545455,12.3556364 C0.248727273,12.768 0,13.3330909 0,13.9570909 C0,15.2181818 1.02545455,16.2458182 2.28872727,16.2458182 C2.592,16.2458182 2.88218182,16.1869091 3.14618182,16.0778182 C4.61018182,17.3170909 6.46909091,18 8.39345455,18 C10.3352727,18 12.2138182,17.304 13.6843636,16.0407273 L13.6909091,16.0341818 C13.9810909,16.1694545 14.3061818,16.2436364 14.6487273,16.2436364 C15.9098182,16.2436364 16.9352727,15.2181818 16.9352727,13.9549091 C16.9330909,13.2763636 16.6341818,12.6654545 16.1629091,12.2465455 L16.1629091,12.2465455 Z M8.53527273,1.06909091 C9.20727273,1.06909091 9.75272727,1.61454545 9.75272727,2.28654545 C9.75272727,2.95854545 9.20727273,3.504 8.53527273,3.504 C7.86327273,3.504 7.31781818,2.95854545 7.31781818,2.28654545 C7.31781818,1.61672727 7.86327273,1.06909091 8.53527273,1.06909091 L8.53527273,1.06909091 Z M1.06909091,13.9570909 C1.06909091,13.2850909 1.61454545,12.7396364 2.28654545,12.7396364 C2.95854545,12.7396364 3.504,13.2850909 3.504,13.9570909 C3.504,14.6290909 2.95854545,15.1745455 2.28654545,15.1745455 C1.61454545,15.1745455 1.06909091,14.6269091 1.06909091,13.9570909 L1.06909091,13.9570909 Z M4.03854545,15.4254545 C4.37236364,15.0283636 4.57309091,14.5156364 4.57309091,13.9570909 C4.57309091,12.696 3.54763636,11.6705455 2.28654545,11.6705455 C2.04654545,11.6705455 1.81527273,11.7076364 1.59709091,11.7774545 C1.42472727,11.1621818 1.33963636,10.5250909 1.33963636,9.87709091 C1.33963636,6.75054545 3.41454545,3.98618182 6.40145455,3.10909091 C6.73090909,3.96654545 7.56436364,4.57527273 8.53745455,4.57527273 C9.48,4.57527273 10.2894545,4.00363636 10.6407273,3.18763636 C13.4792727,4.14327273 15.4450909,6.86181818 15.4450909,9.87490909 C15.4450909,10.5076364 15.3621818,11.1316364 15.1963636,11.736 C15.0196364,11.6923636 14.8341818,11.6683636 14.6443636,11.6683636 C13.3832727,11.6683636 12.3578182,12.6938182 12.3578182,13.9549091 C12.3578182,14.4807273 12.5367273,14.9650909 12.8356364,15.3512727 C11.5832727,16.3701818 10.0123636,16.9287273 8.39127273,16.9287273 C6.80945455,16.9287273 5.27563636,16.3985455 4.03854545,15.4254545 Z M14.6465455,15.1745455 C13.9745455,15.1745455 13.4290909,14.6290909 13.4290909,13.9570909 C13.4290909,13.2850909 13.9745455,12.7396364 14.6465455,12.7396364 C15.3185455,12.7396364 15.864,13.2850909 15.864,13.9570909 C15.864,14.6269091 15.3163636,15.1745455 14.6465455,15.1745455 Z" id="形状"></path>
                    <path d="M3.42109091,12.7396364 C3.336,12.7396364 3.24872727,12.72 3.17018182,12.6763636 C2.91054545,12.5367273 2.81018182,12.2138182 2.94981818,11.952 L7.31345455,3.78763636 C7.45309091,3.528 7.776,3.42763636 8.03781818,3.56727273 C8.29745455,3.70690909 8.39781818,4.02981818 8.25818182,4.29163636 L3.89454545,12.456 C3.79854545,12.6370909 3.61309091,12.7396364 3.42109091,12.7396364 Z M12.8923636,14.1381818 L4.00363636,14.1381818 C3.70909091,14.1381818 3.46909091,13.8981818 3.46909091,13.6036364 C3.46909091,13.3090909 3.70909091,13.0690909 4.00363636,13.0690909 L12.8923636,13.0690909 C13.1869091,13.0690909 13.4269091,13.3090909 13.4269091,13.6036364 C13.4269091,13.8981818 13.1890909,14.1381818 12.8923636,14.1381818 Z M13.7563636,12.7396364 C13.5665455,12.7396364 13.3832727,12.6392727 13.2872727,12.4625455 L8.81672727,4.296 C8.67490909,4.03636364 8.77090909,3.71127273 9.02836364,3.56945455 C9.288,3.42545455 9.61309091,3.52145455 9.75490909,3.78109091 L14.2232727,11.9476364 C14.3650909,12.2072727 14.2690909,12.5323636 14.0116364,12.6741818 C13.9309091,12.7178182 13.8414545,12.7396364 13.7563636,12.7396364 L13.7563636,12.7396364 Z" id="形状"></path>
                </g>
            </g>
        </g>
    </g>
</svg>