<?xml version="1.0" encoding="UTF-8"?>
<svg width="16px" height="16px" viewBox="0 0 16 16" version="1.1" xmlns="http://www.w3.org/2000/svg" xmlns:xlink="http://www.w3.org/1999/xlink">
    <!-- Generator: Sketch 63.1 (92452) - https://sketch.com -->
    <title>形状备份 6</title>
    <desc>Created with Sketch.</desc>
    <g id="页面-1" stroke="none" stroke-width="1" fill="none" fill-rule="evenodd">
        <g id="1非法集资案件管理-1台账管理-1案件维护管理-1行政案件-选中" transform="translate(-344.000000, -793.000000)" fill="#409EFF" fill-rule="nonzero">
            <path d="M348.167679,804.882353 C348.167679,805.117647 348.167679,805.235294 348.280318,805.352941 C348.392958,805.470588 348.505598,805.470588 348.618238,805.470588 L348.730878,805.470588 L351.772157,804.647059 L359.656955,796.411765 C359.994874,796.058824 360.220154,795.470588 359.656955,794.882353 L358.530555,793.705882 C357.967355,793.117647 357.404155,793.117647 356.840955,793.823529 L348.956158,801.823529 L348.167679,804.882353 Z M357.404155,794.529412 C357.516795,794.411765 357.742075,794.411765 357.854715,794.529412 L358.643195,795.352941 C358.755835,795.470588 358.755835,795.705882 358.643195,795.823529 L357.854715,796.647059 L356.615676,795.352941 L357.404155,794.529412 Z M355.827196,796.176471 L357.066235,797.470588 L351.546877,803.235294 L350.307838,801.941176 L355.827196,796.176471 Z M349.631998,802.764706 L350.758398,803.941176 L349.294078,804.294118 L349.631998,802.764706 Z M359.206395,799 C358.755835,799 358.530555,799.235294 358.530555,799.470588 L358.530555,807 C358.530555,807.352941 358.192635,807.705882 357.854715,807.705882 L345.802239,807.705882 C345.464319,807.705882 345.1264,807.352941 345.1264,807 L345.1264,794.882353 C345.1264,794.529412 345.464319,794.176471 345.802239,794.176471 L353.687037,794.176471 C353.912317,794.176471 354.137596,793.941176 354.137596,793.588235 C354.137596,793.235294 353.912317,793 353.574397,793 L345.689599,793 C344.78848,793 344,793.823529 344,794.764706 L344,807.235294 C344,808.176471 344.78848,809 345.689599,809 L358.079995,809 C358.981115,809 359.769594,808.176471 359.769594,807.235294 L359.769594,799.588235 C359.769594,799.235294 359.544315,799 359.206395,799 Z" id="形状备份-6"></path>
        </g>
    </g>
</svg>