<?xml version="1.0" encoding="UTF-8"?>
<svg width="18px" height="18px" viewBox="0 0 18 18" version="1.1" xmlns="http://www.w3.org/2000/svg" xmlns:xlink="http://www.w3.org/1999/xlink">
    <title>形状结合</title>
    <g id="页面-1" stroke="none" stroke-width="1" fill="none" fill-rule="evenodd">
        <g id="首页-监管二处-担保" transform="translate(-1228.000000, -27.000000)" fill="#160A0A" fill-rule="nonzero">
            <path d="M1241.75568,40.1299827 L1245.87004,44.2451377 C1246.04332,44.4184479 1246.04332,44.6995956 1245.87004,44.8709802 C1245.78533,44.9576353 1245.67174,45 1245.55814,45 C1245.44455,45 1245.33096,44.9576353 1245.24432,44.8709802 L1241.12996,40.7558251 C1240.95668,40.5825149 1240.95668,40.3013672 1241.12996,40.1299827 C1241.30323,39.9566724 1241.58433,39.9566724 1241.75568,40.1299827 Z M1235.5,27 C1239.63614,27 1243,30.3638576 1243,34.5 C1243,38.6361424 1239.63422,42 1235.5,42 C1231.36386,42 1228,38.6342213 1228,34.5 C1228,30.3657787 1231.36386,27 1235.5,27 Z M1235.5,27.883709 C1231.85182,27.883709 1228.88371,30.8518186 1228.88371,34.5 C1228.88371,38.1481814 1231.85182,41.116291 1235.5,41.116291 C1239.14818,41.116291 1242.11629,38.1481814 1242.11629,34.5 C1242.11629,30.8518186 1239.14818,27.883709 1235.5,27.883709 Z" id="形状结合"></path>
        </g>
    </g>
</svg>