<?xml version="1.0" encoding="UTF-8"?>
<svg width="16px" height="16px" viewBox="0 0 16 16" version="1.1" xmlns="http://www.w3.org/2000/svg" xmlns:xlink="http://www.w3.org/1999/xlink">
    <title>jg-public-kapian-ditu.svg</title>
    <g id="页面-1" stroke="none" stroke-width="1" fill="none" fill-rule="evenodd">
        <g id="地方金融监管-全省总览" transform="translate(-1815.000000, -187.000000)" fill="#BABABA" fill-rule="nonzero">
            <path d="M1823,187 C1827.41828,187 1831,190.581717 1831,195 C1831,199.418283 1827.41828,203 1823,203 C1818.58172,203 1815,199.418283 1815,195 C1815,190.581717 1818.58172,187 1823,187 Z M1818.84931,189.446074 L1818.8197,189.46812 C1817.14725,190.733958 1816.06667,192.740789 1816.06667,195 C1816.06667,195.142662 1816.07098,195.284326 1816.07947,195.424865 L1816.07965,195.424812 C1817.53785,194.987764 1818.61616,195.076522 1819.32223,195.795006 C1819.67942,196.158493 1819.88161,196.559474 1819.94867,197.033373 L1819.95224,197.06054 C1819.96822,197.18565 1819.97386,197.289213 1819.97673,197.485208 L1819.97828,197.60363 C1819.98438,197.928767 1820.01487,198.009231 1820.17151,198.208919 C1820.28924,198.357681 1820.4233,198.487536 1820.59354,198.617659 C1820.67614,198.680567 1820.76096,198.740508 1820.84783,198.797369 L1820.88441,198.8212 L1821.18816,199.022279 L1821.20711,199.035068 C1821.89746,199.501333 1822.2391,199.945035 1822.35932,200.622511 C1822.43802,201.067567 1822.42621,201.496749 1822.324,201.90078 C1822.54868,201.922505 1822.77428,201.933333 1823,201.933333 C1826.82917,201.933333 1829.93333,198.829173 1829.93333,195 C1829.93333,194.051095 1829.74271,193.146711 1829.39768,192.323077 C1829.4104,192.436879 1829.41668,192.551309 1829.4165,192.665819 C1829.4165,193.636094 1828.6386,195.183135 1827.49925,196.685423 C1827.45728,196.740878 1827.41818,196.800919 1827.37972,196.868914 L1827.36652,196.892513 L1827.34788,196.928223 C1827.30202,197.01763 1827.26152,197.109683 1827.22659,197.203897 L1827.21023,197.249204 C1827.19201,197.299468 1827.17441,197.349952 1827.15741,197.400642 L1827.14082,197.450783 L1827.06821,197.675532 C1826.73788,198.672705 1826.23505,199.136259 1825.30571,199.136259 C1824.73201,199.136259 1824.33528,198.870787 1824.11028,198.323416 L1824.10081,198.299996 C1823.95517,197.934511 1823.86969,197.453975 1823.75771,196.482488 L1823.73939,196.321472 L1823.66975,195.699487 C1823.63943,195.432642 1823.61886,195.26128 1823.5973,195.100263 L1823.58226,194.98837 C1823.40573,193.69567 1823.06742,192.274684 1822.8553,191.856776 L1822.84878,191.844165 C1822.7841,191.72107 1822.57223,191.636076 1821.77519,191.522453 L1821.75086,191.51901 L1821.70491,191.512838 L1821.61587,191.500156 C1820.69332,191.367019 1820.31066,191.253717 1819.8774,190.959046 C1819.3355,190.590136 1818.98981,190.073695 1818.84931,189.446074 L1818.84931,189.446074 Z M1816.25781,196.485967 L1816.22836,196.495438 C1816.78884,199.045021 1818.75254,201.06862 1821.26866,201.715416 C1821.35295,201.437244 1821.36686,201.135688 1821.30901,200.808571 C1821.24647,200.456161 1821.08558,200.243237 1820.62897,199.931835 L1820.57956,199.898479 L1820.30231,199.715327 L1820.28944,199.706658 L1820.26173,199.688589 C1820.16513,199.625309 1820.07058,199.55895 1819.97823,199.489614 L1819.94721,199.466212 C1819.70721,199.282792 1819.50954,199.091273 1819.33368,198.869093 C1819.01101,198.45773 1818.91854,198.156138 1818.91097,197.565797 L1818.90976,197.473008 C1818.9073,197.324477 1818.90309,197.260691 1818.8921,197.179889 C1818.85787,196.937962 1818.76089,196.745623 1818.56144,196.542653 C1818.17893,196.153427 1817.43614,196.110172 1816.25781,196.485967 L1816.25781,196.485967 Z M1823,188.066667 C1821.86368,188.066667 1820.79122,188.340022 1819.84475,188.824571 C1819.85756,189.381931 1820.06041,189.785605 1820.45994,190.065079 L1820.47746,190.077173 C1820.74698,190.260486 1821.00546,190.335706 1821.79825,190.448758 L1821.85014,190.456107 L1821.89637,190.462314 L1821.95631,190.470876 C1822.46877,190.545043 1822.80074,190.617712 1823.06211,190.721365 C1823.40262,190.856392 1823.6395,191.055848 1823.79262,191.347237 C1824.08067,191.893235 1824.45243,193.452566 1824.64443,194.883291 L1824.66368,195.027951 C1824.67486,195.113962 1824.68612,195.205307 1824.69884,195.312865 L1824.72969,195.579924 L1824.80937,196.290595 C1824.91567,197.223269 1824.99345,197.66631 1825.09686,197.917886 L1825.10829,197.945463 C1825.15763,198.062725 1825.17291,198.069342 1825.29647,198.069592 L1825.30573,198.069592 C1825.70325,198.069592 1825.84798,197.947621 1826.03608,197.398377 L1826.05441,197.343884 L1826.12626,197.121507 C1826.14558,197.062248 1826.16562,197.003226 1826.18637,196.944455 L1826.22115,196.847402 C1826.27373,196.703756 1826.33541,196.563604 1826.40581,196.427799 L1826.42973,196.382475 C1826.49704,196.259523 1826.56862,196.147559 1826.64898,196.041338 C1827.65678,194.712517 1828.34983,193.334234 1828.34983,192.665819 C1828.34983,192.375215 1828.29118,192.111813 1828.12662,191.668058 L1828.05504,191.475095 C1827.98119,191.274105 1827.93988,191.153525 1827.91284,191.059255 C1827.85836,190.869235 1827.84541,190.727376 1827.89618,190.564986 C1827.93079,190.452964 1827.984,190.347558 1828.05356,190.253173 C1826.7889,188.907246 1824.9926,188.066667 1823,188.066667 Z" id="jg-public-kapian-ditu.svg"></path>
        </g>
    </g>
</svg>