<?xml version="1.0" encoding="UTF-8"?>
<svg width="18px" height="18px" viewBox="0 0 18 18" version="1.1" xmlns="http://www.w3.org/2000/svg" xmlns:xlink="http://www.w3.org/1999/xlink">
    <title>形状</title>
    <g id="页面-1" stroke="none" stroke-width="1" fill="none" fill-rule="evenodd" opacity="0.8">
        <g id="首页-监管二处-担保" transform="translate(-1445.000000, -26.000000)" fill="#160A0A" fill-rule="nonzero">
            <path d="M1445.33542,32.1514856 L1452.199,36.2139768 C1452.7622,36.5529363 1453.38048,36.7211605 1453.99875,36.7211605 C1454.61702,36.7211605 1455.23529,36.5529363 1455.7985,36.2139768 L1462.66208,32.1514856 C1463.05757,31.9255126 1463.11264,31.3053424 1462.66208,31.0216209 L1455.62829,26.5071837 C1455.12265,26.1682243 1454.55945,26 1453.99625,26 C1453.43304,26 1452.86984,26.1682243 1452.36421,26.5071837 L1445.33542,31.0241317 C1444.88486,31.3053424 1444.94493,31.9280234 1445.33542,32.1514856 Z M1452.98498,27.4110755 C1453.26533,27.2428512 1453.60325,27.1298647 1453.99875,27.1298647 C1454.39424,27.1298647 1454.72966,27.2428512 1455.01252,27.4110755 L1461.36796,31.5288046 L1455.18023,35.1970986 C1454.78473,35.4230715 1454.39424,35.536058 1453.94368,35.536058 C1453.49312,35.536058 1453.10013,35.4230716 1452.70713,35.1970986 L1446.5194,31.5313154 L1452.98498,27.4110755 Z M1445.28035,35.5938067 L1452.199,39.9375087 C1452.7622,40.2764681 1453.38048,40.4446924 1453.99875,40.4446924 C1454.61702,40.4446924 1455.23529,40.2764681 1455.7985,39.9375087 L1462.71715,35.5938067 C1462.88486,35.4808202 1462.9975,35.3125959 1462.9975,35.1418608 C1462.9975,34.6899149 1462.49186,34.4087041 1462.15394,34.6899149 L1455.2378,39.0361278 C1454.8423,39.2621007 1454.45181,39.3750872 1454.00125,39.3750872 C1453.55069,39.3750872 1453.1577,39.2621007 1452.76471,39.0361278 L1445.84355,34.6346771 C1445.50563,34.3534663 1445,34.6346771 1445,35.086623 C1445,35.3125959 1445.11264,35.4808202 1445.28035,35.5938067 Z M1462.15645,38.2452225 L1455.2378,42.5889245 C1454.8423,42.8148975 1454.45181,42.9278839 1454.00125,42.9278839 C1453.55069,42.9278839 1453.1577,42.8148975 1452.76471,42.5889245 L1445.84606,38.2452225 C1445.50814,37.9640117 1445.0025,38.2452225 1445.0025,38.6971684 C1445.0025,38.8653927 1445.11514,39.0938764 1445.28285,39.1491142 L1452.2015,43.4928163 C1452.76471,43.8317757 1453.38298,44 1454.00125,44 C1454.61952,44 1455.2378,43.8317757 1455.801,43.4928163 L1462.71965,39.1491142 C1462.88736,39.0361278 1463,38.8679035 1463,38.6971684 C1462.9975,38.2452225 1462.49186,37.9640117 1462.15645,38.2452225 L1462.15645,38.2452225 Z" id="形状"></path>
        </g>
    </g>
</svg>