<?xml version="1.0" encoding="UTF-8"?>
<svg width="18px" height="18px" viewBox="0 0 18 18" version="1.1" xmlns="http://www.w3.org/2000/svg" xmlns:xlink="http://www.w3.org/1999/xlink">
    <title>区域</title>
    <g id="页面-1" stroke="none" stroke-width="1" fill="none" fill-rule="evenodd">
        <g id="金融机构和金融市场风险" transform="translate(-1381.000000, -436.000000)" fill-rule="nonzero">
            <g id="区域" transform="translate(1381.000000, 436.000000)">
                <rect id="矩形" fill="#000000" opacity="0" x="0" y="0" width="18" height="18"></rect>
                <g id="编组-2" transform="translate(1.000000, 0.000000)" fill="#595959">
                    <path d="M13.6125,3.9375 C13.275,3.15 12.825,2.475 12.2625,1.9125 C11.7,1.35 11.025,0.9 10.2375,0.5625 C9.45,0.1125 8.6625,0 7.875,0 C7.0875,0 6.3,0.1125 5.5125,0.45 C4.725,0.7875 4.05,1.2375 3.4875,1.8 C2.925,2.475 2.475,3.15 2.1375,3.9375 C1.8,4.725 1.6875,5.5125 1.6875,6.3 C1.6875,7.0875 1.8,7.875 2.1375,8.6625 C2.475,9.45 2.925,10.125 3.4875,10.6875 L7.2,14.4 C7.3125,14.625 7.65,14.7375 7.875,14.7375 C8.1,14.7375 8.4375,14.625 8.55,14.4 L12.2625,10.6875 C12.825,10.125 13.275,9.3375 13.6125,8.6625 C13.95,7.875 14.0625,7.0875 14.0625,6.3 C14.0625,5.5125 13.95,4.725 13.6125,3.9375 Z M11.475,10.0125 L8.1,13.5 C7.9875,13.6125 7.875,13.6125 7.7625,13.5 L4.275,10.0125 C3.2625,9 2.7,7.65 2.7,6.3 C2.7,4.95 3.2625,3.6 4.1625,2.5875 C5.175,1.575 6.4125,1.0125 7.7625,1.0125 C9.1125,1.0125 10.4625,1.575 11.3625,2.5875 C12.375,3.6 12.825,4.8375 12.825,6.3 C13.05,7.65 12.4875,9 11.475,10.0125 Z" id="形状"></path>
                    <path d="M7.875,3.6 C6.3,3.6 5.0625,4.8375 5.0625,6.4125 C5.0625,7.9875 6.3,9.225 7.875,9.225 C9.45,9.225 10.6875,7.9875 10.6875,6.4125 C10.6875,4.8375 9.45,3.6 7.875,3.6 Z M7.875,8.2125 C6.8625,8.2125 6.075,7.425 6.075,6.4125 C6.075,5.4 6.8625,4.725 7.875,4.725 C8.8875,4.725 9.675,5.5125 9.675,6.525 C9.675,7.5375 8.8875,8.2125 7.875,8.2125 Z M14.9625,13.8375 C15.3,14.0625 15.75,14.5125 15.75,15.1875 C15.75,15.8625 15.3,16.2 14.9625,16.5375 C14.5125,16.875 13.95,17.1 13.275,17.325 C11.8125,17.775 9.9,18 7.875,18 C5.85,18 3.9375,17.775 2.475,17.325 C1.8,17.1 1.125,16.875 0.7875,16.5375 C0.45,16.2 0,15.75 0,15.1875 C0,14.625 0.45,14.175 0.7875,13.8375 C1.2375,13.5 1.8,13.275 2.475,13.05 L3.825,12.7125 C4.1625,12.7125 4.5,12.9375 4.5,13.275 C4.5,13.5 4.275,13.725 4.05,13.8375 C3.6,13.95 3.15,14.0625 2.8125,14.175 C1.35,14.625 1.0125,15.075 1.0125,15.3 C1.0125,15.525 1.35,15.975 2.8125,16.425 C4.1625,16.875 5.9625,17.1 7.875,17.1 C9.7875,17.1 11.5875,16.875 12.9375,16.425 C14.4,15.975 14.7375,15.525 14.7375,15.3 C14.7375,15.075 14.4,14.625 12.9375,14.175 C12.6,14.0625 12.15,13.95 11.7,13.8375 C11.475,13.8375 11.25,13.6125 11.25,13.275 C11.25,12.9375 11.5875,12.7125 11.925,12.7125 L13.275,13.05 C13.95,13.275 14.5125,13.6125 14.9625,13.8375 Z" id="形状"></path>
                </g>
            </g>
        </g>
    </g>
</svg>