<?xml version="1.0" encoding="UTF-8"?>
<svg width="18px" height="18px" viewBox="0 0 18 18" version="1.1" xmlns="http://www.w3.org/2000/svg" xmlns:xlink="http://www.w3.org/1999/xlink">
    <title>jg-public-kapian-kedaidanbao.svg</title>
    <g id="页面-1" stroke="none" stroke-width="1" fill="none" fill-rule="evenodd">
        <g id="小贷" transform="translate(-1034.000000, -754.000000)" fill-rule="nonzero">
            <g id="jg-public-kapian-kedaidanbao.svg" transform="translate(1034.000000, 754.000000)">
                <rect id="矩形" fill="#000000" opacity="0" x="0" y="0" width="18" height="18"></rect>
                <path d="M3.4,4.8 L7,4.8 C7.22,4.8 7.4,4.62 7.4,4.4 C7.4,4.18 7.22,4 7,4 L3.4,4 C3.18,4 3,4.18 3,4.4 C3,4.62 3.18,4.8 3.4,4.8 Z M4.2,8 L3.4,8 C3.18,8 3,8.18 3,8.4 C3,8.62 3.18,8.8 3.4,8.8 L4.2,8.8 C4.42,8.8 4.6,8.62 4.6,8.4 C4.6,8.18 4.42,8 4.2,8 Z M16.88,8.12 C16.8,8.04 16.7,8 16.6,8 C16.58,8 15.44,8 14.2,7.56 L14.2,3.4 C14.2,2.08 13.12,1 11.8,1 L3.4,1 C2.08,1 1,2.08 1,3.4 L1,14.6 C1,15.92 2.08,17 3.4,17 L11.2,17 C16.94,17 17,8.48 17,8.4 C17,8.3 16.96,8.2 16.88,8.12 Z M3.4,16.2 C2.52,16.2 1.8,15.48 1.8,14.6 L1.8,3.4 C1.8,2.52 2.52,1.8 3.4,1.8 L11.8,1.8 C12.68,1.8 13.4,2.52 13.4,3.4 L13.4,7.22 C12.68,6.86 12,6.34 11.54,5.58 C11.46,5.46 11.34,5.38 11.2,5.38 C11.06,5.38 10.94,5.46 10.86,5.58 C9.4,7.96 5.84,8 5.8,8 C5.58,8 5.4,8.18 5.4,8.4 C5.4,8.46 5.44,14.08 8.52,16.2 L3.4,16.2 Z M11.2,16.2 C6.9,16.2 6.3,10.34 6.22,8.78 C7.22,8.7 9.74,8.34 11.2,6.5 C12.68,8.34 15.2,8.72 16.18,8.78 C16.1,10.34 15.5,16.2 11.2,16.2 Z" id="形状" fill="#595959"></path>
            </g>
        </g>
    </g>
</svg>