<?xml version="1.0" encoding="UTF-8"?>
<svg width="14px" height="14px" viewBox="0 0 14 14" version="1.1" xmlns="http://www.w3.org/2000/svg" xmlns:xlink="http://www.w3.org/1999/xlink">
    <!-- Generator: Sketch 63.1 (92452) - https://sketch.com -->
    <title>形状备份</title>
    <desc>Created with Sketch.</desc>
    <g id="页面-1" stroke="none" stroke-width="1" fill="none" fill-rule="evenodd">
        <g id="1非法集资案件管理-1台账管理-1案件维护管理-1行政案件-选中" transform="translate(-1566.000000, -343.000000)" fill="#C0C4CC" fill-rule="nonzero">
            <path d="M1575.64926,351.51607 L1576.79642,351.51607 C1576.83207,351.51607 1576.86096,351.487176 1576.86096,351.451534 L1576.86096,350.304372 C1576.86096,350.268729 1576.83207,350.239835 1576.79642,350.239835 L1575.64926,350.239835 C1575.61362,350.239835 1575.58472,350.268729 1575.58472,350.304372 L1575.58472,351.451534 C1575.58472,351.487176 1575.61362,351.51607 1575.64926,351.51607 L1575.64926,351.51607 Z M1572.43189,351.51607 L1573.57905,351.51607 C1573.6147,351.51607 1573.64359,351.487176 1573.64359,351.451534 L1573.64359,350.304372 C1573.64359,350.268729 1573.6147,350.239835 1573.57905,350.239835 L1572.43189,350.239835 C1572.39625,350.239835 1572.36735,350.268729 1572.36735,350.304372 L1572.36735,351.451534 C1572.36735,351.487176 1572.39625,351.51607 1572.43189,351.51607 L1572.43189,351.51607 Z M1576.79641,352.792288 L1575.64924,352.792288 C1575.6136,352.792288 1575.58471,352.821182 1575.58471,352.856825 L1575.58471,354.003987 C1575.58471,354.039629 1575.6136,354.068523 1575.64924,354.068523 L1576.79641,354.068523 C1576.83205,354.068523 1576.86094,354.039629 1576.86094,354.003987 L1576.86094,352.856825 C1576.86094,352.821182 1576.83205,352.792288 1576.79641,352.792288 L1576.79641,352.792288 Z M1572.43517,354.068506 L1573.58233,354.068506 C1573.61797,354.068506 1573.64687,354.039612 1573.64687,354.00397 L1573.64687,352.856807 C1573.64687,352.821165 1573.61797,352.792271 1573.58233,352.792271 L1572.43517,352.792271 C1572.39953,352.792271 1572.37063,352.821165 1572.37063,352.856807 L1572.37063,354.00397 C1572.37063,354.039612 1572.39953,354.068506 1572.43517,354.068506 L1572.43517,354.068506 Z M1570.39177,352.792288 L1569.2446,352.792288 C1569.20896,352.792288 1569.18007,352.821182 1569.18007,352.856825 L1569.18007,354.003987 C1569.18007,354.039629 1569.20896,354.068523 1569.2446,354.068523 L1570.39177,354.068523 C1570.42741,354.068523 1570.4563,354.039629 1570.4563,354.003987 L1570.4563,352.856825 C1570.4563,352.821182 1570.42741,352.792288 1570.39177,352.792288 L1570.39177,352.792288 Z M1570.39177,350.239835 L1569.2446,350.239835 C1569.20896,350.239835 1569.18007,350.268729 1569.18007,350.304372 L1569.18007,351.451534 C1569.18007,351.487176 1569.20896,351.51607 1569.2446,351.51607 L1570.39177,351.51607 C1570.42741,351.51607 1570.4563,351.487176 1570.4563,351.451534 L1570.4563,350.304372 C1570.4563,350.268729 1570.42741,350.239835 1570.39177,350.239835 L1570.39177,350.239835 Z M1578.68098,344.319037 L1576.68089,344.319037 L1576.68089,343.659587 C1576.68089,343.329802 1576.41713,343 1576.02144,343 C1575.62561,343 1575.36185,343.263763 1575.36185,343.659587 L1575.36185,344.319037 L1570.63813,344.319037 L1570.63813,343.659587 C1570.63813,343.329802 1570.37427,343 1569.97856,343 C1569.58287,343 1569.31911,343.263763 1569.31911,343.659587 L1569.31911,344.319037 L1567.27622,344.319037 C1566.57429,344.319037 1566,344.893344 1566,345.595255 L1566,355.845001 C1566,356.480259 1566.51974,357 1567.15498,357 L1578.72378,357 C1579.42571,357 1580,356.425693 1580,355.723782 L1580,345.638075 C1580,344.912585 1579.40645,344.319037 1578.68098,344.319037 Z M1578.68098,348.644213 L1578.68098,355.680963 L1567.31902,355.680963 L1567.31902,348.627379 L1578.66413,348.627379 C1578.67343,348.627379 1578.68098,348.634925 1578.68098,348.644213 Z M1578.61644,347.308358 L1567.38356,347.308358 C1567.36644,347.308358 1567.35003,347.301559 1567.33792,347.289456 C1567.32582,347.277353 1567.31902,347.260938 1567.31902,347.243822 L1567.31902,345.702611 C1567.31902,345.685495 1567.32582,345.66908 1567.33792,345.656977 C1567.35003,345.644874 1567.36644,345.638075 1567.38356,345.638075 L1569.31909,345.638075 L1569.31909,346.297645 C1569.31909,346.62743 1569.58286,346.957232 1569.97854,346.957232 C1570.37427,346.957232 1570.63811,346.693349 1570.63811,346.297645 L1570.63811,345.638075 L1575.36185,345.638075 L1575.36185,346.297645 C1575.36185,346.62743 1575.62561,346.957232 1576.02144,346.957232 C1576.41713,346.957232 1576.68089,346.693349 1576.68089,346.297645 L1576.68089,345.638075 L1578.68096,345.638075 L1578.68096,347.243822 C1578.68096,347.260936 1578.67417,347.277351 1578.66207,347.289455 C1578.64997,347.301558 1578.63356,347.308358 1578.61644,347.308358 L1578.61644,347.308358 Z" id="形状备份"></path>
        </g>
    </g>
</svg>