<?xml version="1.0" encoding="UTF-8"?>
<svg width="18px" height="18px" viewBox="0 0 18 18" version="1.1" xmlns="http://www.w3.org/2000/svg" xmlns:xlink="http://www.w3.org/1999/xlink">
    <title>jg-public-kapian-baoxianjigou.svg</title>
    <g id="页面-1" stroke="none" stroke-width="1" fill="none" fill-rule="evenodd">
        <g id="保险业" transform="translate(-1383.000000, -184.000000)" fill-rule="nonzero">
            <g id="jg-public-kapian-baoxianjigou.svg" transform="translate(1383.000000, 184.000000)">
                <rect id="矩形" fill="#000000" opacity="0" x="0" y="0" width="17.9955132" height="17.9955132"></rect>
                <path d="M11.2905216,0.917554681 C11.4049355,0.917554681 11.6337633,1.03196859 11.6337633,1.26135726 L11.6337633,4.24228829 C11.6337633,4.35726304 11.5199103,4.58609086 11.2905216,4.58609086 L6.81884463,4.58609086 C6.70443073,4.47167695 6.58945597,4.35670219 6.58945597,4.12787438 L6.58945597,1.14694335 C6.58945597,1.03140774 6.70443073,0.803140772 6.93381941,0.803140772 L11.2905216,0.803140772 L11.2905216,0.917554681 Z M11.2905216,0 L6.81884463,0 C6.13067862,0 5.67246214,0.572630392 5.67246214,1.14694335 L5.67246214,4.12731351 C5.67246214,4.6999439 6.13067862,5.27425688 6.81884463,5.27425688 L11.2905216,5.27425688 C11.9781268,5.27425688 12.4363432,4.69994392 12.4363432,4.12731351 L12.4363432,1.14694335 C12.4363432,0.57319124 11.9775659,0 11.2905216,0 M3.9528884,14.3303421 L3.9528884,17.1979809 L1.08637128,17.1979809 L1.08637128,14.3303421 L3.9528884,14.3303421 L3.9528884,14.3303421 Z M4.29725182,13.4133483 L0.85698261,13.4133483 C0.513180035,13.4133483 0.284352218,13.6416153 0.284352218,13.9859787 L0.284352218,17.4262479 C0.284352218,17.7706113 0.513740884,18 0.85698261,18 L4.29669097,18 C4.64049355,18 4.86932205,17.7706113 4.86932205,17.4262479 L4.86932205,13.9859787 C4.86988221,13.6416152 4.52551879,13.4133483 4.29725182,13.4133483 M10.3718452,14.3303421 L10.3718452,17.1979809 L7.5064498,17.1979809 L7.5064498,14.3303421 L10.3718452,14.3303421 Z M10.6023556,13.4133483 L7.16264723,13.4133483 C6.81884465,13.4133483 6.59001682,13.6416153 6.59001682,13.9859787 L6.59001682,17.4262479 C6.59001682,17.7706113 6.81940548,18 7.16264723,18 L10.6023556,18 C10.9461581,18 11.174987,17.7706113 11.174987,17.4262479 L11.174987,13.9859787 C11.1755468,13.6416152 10.946719,13.4133483 10.6023556,13.4133483 M16.9080202,14.3303421 L16.9080202,17.1979809 L14.0420639,17.1979809 L14.0420639,14.3303421 L16.9080202,14.3303421 Z M17.1379697,13.4133483 L13.6971396,13.4133483 C13.3533371,13.4133483 13.1250701,13.6416153 13.1250701,13.9859787 L13.1250701,17.4262479 C13.1250701,17.7706113 13.3527762,18 13.6971396,18 L17.1379697,18 C17.4812114,18 17.7106001,17.7706113 17.7106001,17.4262479 L17.7106001,13.9859787 C17.7106001,13.6416152 17.4812114,13.4133483 17.1379697,13.4133483 M8.88222098,6.07739765 C8.65283232,6.07739765 8.53897924,6.19068986 8.53897924,6.42120022 L8.53897924,12.1531127 C8.53897924,12.3813797 8.6528323,12.4963545 8.88222098,12.4963545 C9.11160967,12.4963545 9.22602356,12.3813797 9.22602356,12.1531127 L9.22602356,6.42120022 C9.34099831,6.19068984 9.11160965,6.07739765 8.88222098,6.07739765 M15.0734717,8.02523836 L2.46326415,8.02523836 C2.23331462,8.02523836 2.11890073,8.25406617 2.11890073,8.36904095 C2.11890073,8.48513742 2.23331464,8.82893999 2.46326415,8.82893999 L15.0734717,8.82893999 C15.3022995,8.82893999 15.4167134,8.59955133 15.4167134,8.4851374 C15.4167134,8.36904093 15.3022995,8.02523836 15.0734717,8.02523836 Z M2.46326415,8.02523836 C2.23331462,8.02523836 2.11890073,8.25406617 2.11890073,8.36904095 L2.11890073,11.5804823 C2.11890073,11.809871 2.3482894,11.9237241 2.46326415,11.9237241 C2.57711721,11.9237241 2.80706675,11.6943354 2.80706675,11.5804823 L2.80706675,8.4851374 C2.8065059,8.25406617 2.69153114,8.02523836 2.46326415,8.02523836 L2.46326415,8.02523836 Z M15.0734717,8.02523836 C14.844083,8.02523836 14.7296691,8.25406617 14.7296691,8.36904095 L14.7296691,11.5804823 C14.7296691,11.809871 14.9590578,11.9237241 15.0734717,11.9237241 C15.1878856,11.9237241 15.4167134,11.6943354 15.4167134,11.5804823 L15.4167134,8.4851374 C15.4167134,8.25406617 15.3022995,8.02523836 15.0734717,8.02523836 L15.0734717,8.02523836 Z" id="形状" fill="#595959"></path>
            </g>
        </g>
    </g>
</svg>