<?xml version="1.0" encoding="UTF-8"?>
<svg width="20px" height="18px" viewBox="0 0 20 18" version="1.1" xmlns="http://www.w3.org/2000/svg" xmlns:xlink="http://www.w3.org/1999/xlink">
    <title>jg-public-kapian-qiyeleix.svg</title>
    <g id="页面-1" stroke="none" stroke-width="1" fill="none" fill-rule="evenodd">
        <g id="银行业" transform="translate(-285.000000, -540.000000)">
            <g id="jg-public-kapian-qiyeleix.svg" transform="translate(286.000000, 540.000000)">
                <rect id="矩形" fill="#000000" fill-rule="nonzero" opacity="0" x="0" y="0" width="18" height="18"></rect>
                <path d="M17.4,15.4 L16.8,15.4 L16.8,7 C16.8,5.68046875 15.7195312,4.6 14.4,4.6 L10.8,4.6 L10.8,3.4 C10.8,2.08046875 9.71953125,1 8.4,1 L3.6,1 C2.28046875,1 1.2,2.08046875 1.2,3.4 L1.2,15.4 L0.6,15.4 C0.26484375,15.4 0,15.6648437 0,16 C0,16.3351563 0.26484375,16.6 0.6,16.6 L17.4,16.6 C17.7351562,16.6 18,16.3351563 18,16 C18,15.6648437 17.7351563,15.4 17.4,15.4 Z" id="路径" stroke="#595959" stroke-width="0.8" fill-rule="nonzero"></path>
                <rect id="矩形" fill="#595959" x="10.4003225" y="3.97001612" width="1" height="13"></rect>
                <rect id="矩形" stroke="#595959" x="4.1" y="5.07001612" width="3.8" height="1" rx="0.4"></rect>
                <rect id="矩形备份" stroke="#595959" x="4.1" y="8.80396884" width="3.8" height="1" rx="0.4"></rect>
                <rect id="矩形备份-4" stroke="#595959" x="12.4614527" y="8.80396884" width="2.83901303" height="1" rx="0.4"></rect>
                <rect id="矩形备份-2" stroke="#595959" x="4.1" y="12.5379216" width="3.8" height="1" rx="0.4"></rect>
                <rect id="矩形备份-5" stroke="#595959" x="12.4614527" y="12.5379216" width="2.83901303" height="1" rx="0.4"></rect>
            </g>
        </g>
    </g>
</svg>