<?xml version="1.0" encoding="UTF-8"?>
<svg width="18px" height="18px" viewBox="0 0 18 18" version="1.1" xmlns="http://www.w3.org/2000/svg" xmlns:xlink="http://www.w3.org/1999/xlink">
    <title>jg-public-kapian-jianguanzhibiao.svg</title>
    <g id="页面-1" stroke="none" stroke-width="1" fill="none" fill-rule="evenodd">
        <g id="小贷" transform="translate(-1034.000000, -186.000000)" fill="#595959" fill-rule="nonzero">
            <g id="jg-public-kapian-jianguanzhibiao.svg" transform="translate(1034.000000, 186.000000)">
                <path d="M12.8394709,18 L1.43723381,18 C0.644842547,18 0,17.3632693 0,16.5811662 L0,1.41883379 C0,0.636730738 0.644842547,0 1.43723381,0 L12.8394709,0 C13.6318622,0 14.2767047,0.636730738 14.2767047,1.41883379 L14.2767047,3.59941851 C14.2767047,3.9192376 14.0335226,4.17800032 13.7329604,4.17800032 C13.4323982,4.17800032 13.189216,3.9192376 13.189216,3.59941851 L13.189216,1.41883379 C13.189216,1.2938136 13.0443997,1.15425618 12.8394709,1.15425618 L1.43723381,1.15425618 C1.22957265,1.15425618 1.08475632,1.2938136 1.08475632,1.41883379 L1.08475632,16.5782588 C1.08475632,16.703279 1.22957265,16.8428364 1.43723381,16.8428364 L12.8394709,16.8428364 C13.0471321,16.8428364 13.189216,16.703279 13.189216,16.5782588 L13.189216,15.6827653 C13.189216,15.3629462 13.4323982,15.1041835 13.7329604,15.1041835 C14.0335226,15.1041835 14.2767047,15.3629462 14.2767047,15.6827653 L14.2767047,16.5782588 C14.2767047,17.3632693 13.6318622,18 12.8394709,18 Z M10.9404642,5.69277984 L3.33624047,5.69277984 C3.03567826,5.69277984 2.79249612,5.43110968 2.79249612,5.11129058 C2.79249612,4.79147149 3.03567826,4.52980132 3.33624047,4.52980132 L10.9377319,4.52980132 C11.2382941,4.52980132 11.4814762,4.79147149 11.4814762,5.11129058 C11.4814762,5.43110968 11.2382941,5.69277984 10.9404642,5.69277984 Z M8.22447486,9.73413019 L3.33624047,9.73413019 C3.03567826,9.73413019 2.79249612,9.47246002 2.79249612,9.15264093 C2.79249612,8.83282184 3.03567826,8.57115167 3.33624047,8.57115167 L8.22447486,8.57115167 C8.52503707,8.57115167 8.76821922,8.83282184 8.76821922,9.15264093 C8.76821922,9.47246002 8.52503707,9.73413019 8.22447486,9.73413019 Z M8.22447486,13.7754805 L3.33624047,13.7754805 C3.03567826,13.7754805 2.79249612,13.5283476 2.79249612,13.2085285 C2.79249612,12.8887094 3.03567826,12.6415765 3.33624047,12.6415765 L8.22447486,12.6415765 C8.52503707,12.6415765 8.76821922,12.8887094 8.76821922,13.2085285 C8.76821922,13.5283476 8.52503707,13.7754805 8.22447486,13.7754805 Z M17.1019894,13.7842029 L11.2902093,13.7842029 C10.9841824,13.7842029 10.7054792,13.6126635 10.5388038,13.3277338 C10.3611989,13.0195445 10.347537,12.6299467 10.5005505,12.3072202 L13.4078067,6.22193507 C13.5635526,5.89630108 13.8641148,5.69277984 14.1974656,5.69277984 C14.528084,5.69277984 14.8313786,5.89630108 14.9871245,6.22193507 L17.8943807,12.3072202 C18.0473942,12.6299467 18.0337323,13.0195445 17.8561273,13.3277338 C17.6894519,13.6126635 17.4080164,13.7842029 17.1019894,13.7842029 L17.1019894,13.7842029 Z M11.5661801,12.6270393 L16.8260187,12.6270393 L14.1974656,7.12033597 L11.5661801,12.6270393 Z M14.2056627,10.8942013 C13.9051005,10.8942013 13.659186,10.6354385 13.659186,10.3156194 L13.659186,9.16136327 C13.659186,8.84154418 13.9051005,8.58278146 14.2056627,8.58278146 C14.5062249,8.58278146 14.7521395,8.84154418 14.7521395,9.16136327 L14.7521395,10.3156194 C14.7521395,10.6354385 14.5062249,10.8942013 14.2056627,10.8942013 Z M14.1974656,12.3275723 C13.8914386,12.3275723 13.6455241,12.0629947 13.6455241,11.7373607 C13.6455241,11.4117267 13.894171,11.1500565 14.1974656,11.1500565 C14.5034926,11.1500565 14.7521395,11.4146341 14.7521395,11.7373607 C14.7494071,12.0629947 14.5034926,12.3275723 14.1974656,12.3275723 Z" id="形状"></path>
            </g>
        </g>
    </g>
</svg>