<?xml version="1.0" encoding="UTF-8"?>
<svg width="18px" height="18px" viewBox="0 0 18 18" version="1.1" xmlns="http://www.w3.org/2000/svg" xmlns:xlink="http://www.w3.org/1999/xlink">
    <title>jg-public-kapian-rongzizulin.svg</title>
    <g id="页面-1" stroke="none" stroke-width="1" fill="none" fill-rule="evenodd">
        <g id="地方金融" transform="translate(-833.000000, -578.000000)" fill-rule="nonzero">
            <g id="jg-public-kapian-rongzizulin.svg" transform="translate(833.000000, 578.000000)">
                <rect id="矩形" fill="#000000" opacity="0" x="0" y="0" width="18" height="18"></rect>
                <path d="M0,16.6 L0,15.4 L1.2,15.4 L1.2,3.4 C1.2,2.0745166 2.2745166,1 3.6,1 L9.6,1 C10.9254834,1 12,2.0745166 12,3.4 L12,7 L14.4,7 C15.7254834,7 16.8,8.0745166 16.8,9.4 L16.8,15.4 L18,15.4 L18,16.6 L0,16.6 Z M10.8,3.4 C10.8,2.7372583 10.2627417,2.2 9.6,2.2 L3.6,2.2 C2.9372583,2.2 2.4,2.7372583 2.4,3.4 L2.4,15.4 L10.8,15.4 L10.8,3.4 Z M15.6,9.4 C15.6,8.7372583 15.0627417,8.2 14.4,8.2 L12,8.2 L12,15.4 L15.6,15.4 L15.6,9.4 Z M3.6,9.4 L8.4,9.4 L8.4,10.6 L3.6,10.6 L3.6,9.4 Z M3.6,7 L8.4,7 L8.4,8.2 L3.6,8.2 L3.6,7 Z M3.6,4.6 L8.4,4.6 L8.4,5.8 L3.6,5.8 L3.6,4.6 Z" id="形状" fill="#595959"></path>
            </g>
        </g>
    </g>
</svg>