<?xml version="1.0" encoding="UTF-8"?>
<svg width="18px" height="18px" viewBox="0 0 18 18" version="1.1" xmlns="http://www.w3.org/2000/svg" xmlns:xlink="http://www.w3.org/1999/xlink">
    <title>jg-public-kapian-chulijieguo.svg</title>
    <g id="页面-1" stroke="none" stroke-width="1" fill="none" fill-rule="evenodd">
        <g id="非法金融活动" transform="translate(-804.000000, -186.000000)" fill-rule="nonzero">
            <g id="jg-public-kapian-chulijieguo.svg" transform="translate(804.000000, 186.000000)">
                <rect id="矩形" fill="#000000" opacity="0" x="0" y="0" width="18" height="18"></rect>
                <path d="M14.19975,17.1765 L3.77325,17.1765 C2.45025,17.1765 1.37475,16.2045 1.37475,15.0108223 L1.37475,3.6045 C1.37475,2.412 2.45025,1.44 3.77325,1.44 L5.40675,1.44 C5.78582227,1.44 6.093,1.71782227 6.093,2.06217773 C6.093,2.4075 5.78582227,2.68433789 5.40675,2.68433789 L3.77325,2.68433789 C3.20967773,2.68433789 2.75175,3.09833789 2.75175,3.60683789 L2.75175,15.0143379 C2.75175,15.5217656 3.20957227,15.9356777 3.77325,15.9356777 L14.1998379,15.9356777 C14.7645,15.9356777 15.2213379,15.5216777 15.2213379,15.0131777 L15.2213379,3.60567773 C15.2213379,3.096 14.7645879,2.68317773 14.1998379,2.68317773 L12.5674277,2.68317773 C12.1870723,2.68317773 11.88,2.40533789 11.88,2.05992773 C11.88,1.71567773 12.1870898,1.43775 12.56625,1.43775 L14.19975,1.43775 C15.5226621,1.43775 16.5981621,2.40867773 16.5981621,3.60225 L16.5981621,15.00975 C16.5981621,16.2045 15.52275,17.1765 14.19975,17.1765 L14.19975,17.1765 Z M8.47467773,12.9025767 C8.30240327,12.9032101 8.13706669,12.8347441 8.01567773,12.7125 L4.64282227,9.36 C4.39091446,9.10935073 4.3898678,8.70195595 4.64048437,8.45001563 L4.64282227,8.44767773 C4.89721221,8.1953072 5.30752216,8.1953072 5.56191211,8.44767773 L8.47575,11.34 L12.81825,7.02557227 C13.0727859,6.77237519 13.484052,6.77237519 13.7385879,7.02557227 C13.8597461,7.1453644 13.9283461,7.30838583 13.9293021,7.47876358 C13.9302383,7.64914134 13.8634532,7.81291459 13.7436328,7.93404492 L13.7385879,7.93907227 L8.937,12.7125 C8.81395933,12.8336432 8.64841783,12.9018597 8.47575,12.9025767 L8.47467773,12.9025767 L8.47467773,12.9025767 Z M9.08442773,2.16921094 L8.8875,2.16921094 L9.08442773,2.16921094 Z M10.74375,0.30825 L7.23032227,0.30825 C6.20657227,0.30825 5.37632227,1.134 5.37632227,2.14991016 C5.37632227,3.16692773 6.20657227,3.99267773 7.23032227,3.99267773 L10.74375,3.99267773 C11.7675,3.99267773 12.59775,3.16692773 12.59775,2.14992773 C12.59775,1.134 11.7663223,0.30825 10.74375,0.30825 Z M10.74375,1.602 C10.8893468,1.58877835 11.0342305,1.63395312 11.1465116,1.7275811 C11.2587926,1.82120907 11.329268,1.9556162 11.3424258,2.10121875 C11.3572241,2.26409464 11.2989242,2.42513094 11.1832894,2.54078616 C11.0676545,2.65644138 10.9066285,2.71476965 10.74375,2.7 L7.23032227,2.7 C7.0239005,2.71589097 6.8259841,2.61476345 6.71791044,2.43817763 C6.60983678,2.26159181 6.60983678,2.03933593 6.71791044,1.86275011 C6.8259841,1.68616429 7.0239005,1.58503676 7.23032227,1.60092773 L10.74375,1.60092773 L10.74375,1.602 L10.74375,1.602 Z" id="形状" fill="#595959"></path>
            </g>
        </g>
    </g>
</svg>