<?xml version="1.0" encoding="UTF-8"?>
<svg width="16px" height="16px" viewBox="0 0 16 16" version="1.1" xmlns="http://www.w3.org/2000/svg" xmlns:xlink="http://www.w3.org/1999/xlink">
    <title>jg-public-kapian-liebiao.svg</title>
    <g id="页面-1" stroke="none" stroke-width="1" fill="none" fill-rule="evenodd">
        <g id="地方金融监管-全省总览" transform="translate(-1845.000000, -187.000000)" fill="#BABABA" fill-rule="nonzero">
            <path d="M1861,192.716129 L1861,189.286 C1861,188.023484 1859.97652,187 1858.714,187 L1847.286,187 C1846.02348,187 1845,188.023484 1845,189.286 L1845,200.714 C1845,201.976516 1846.02348,203 1847.286,203 L1858.714,203 C1859.97652,203 1861,201.976516 1861,200.714 L1861,192.716129 Z M1846.47742,188.477419 C1846.69172,188.26201 1846.98325,188.141218 1847.2871,188.141932 L1858.7171,188.141932 C1859.02032,188.142294 1859.31095,188.263194 1859.52497,188.477996 C1859.73899,188.692799 1859.85882,188.983877 1859.85807,189.287097 L1859.85807,191.574194 L1846.14193,191.574194 L1846.14193,189.287097 C1846.14122,188.983246 1846.26201,188.69172 1846.47742,188.477419 Z M1851.28387,196.716129 L1851.28387,192.716129 L1854.71613,192.716129 L1854.71613,196.716129 L1851.28387,196.716129 Z M1854.71613,197.858065 L1854.71613,201.858065 L1851.28387,201.858065 L1851.28387,197.858065 L1854.71613,197.858065 Z M1850.14194,196.716129 L1846.14194,196.716129 L1846.14194,192.716129 L1850.14194,192.716129 L1850.14194,196.716129 Z M1846.47742,201.524516 C1846.26211,201.311074 1846.14128,201.020272 1846.14193,200.717097 L1846.14193,197.858065 L1850.14193,197.858065 L1850.14193,201.858078 L1847.2871,201.858078 C1846.98348,201.859517 1846.69191,201.739404 1846.47742,201.524516 Z M1859.85806,200.717097 C1859.85865,201.019879 1859.73863,201.310428 1859.52453,201.524527 C1859.31043,201.738627 1859.01988,201.858648 1858.7171,201.858065 L1855.85806,201.858065 L1855.85806,197.858065 L1859.85806,197.858065 L1859.85806,200.717097 L1859.85806,200.717097 Z M1859.85806,196.716129 L1855.85806,196.716129 L1855.85806,192.716129 L1859.85806,192.716129 L1859.85806,196.716129 Z" id="jg-public-kapian-liebiao.svg"></path>
        </g>
    </g>
</svg>