<?xml version="1.0" encoding="UTF-8"?>
<svg width="20px" height="17px" viewBox="0 0 20 17" version="1.1" xmlns="http://www.w3.org/2000/svg" xmlns:xlink="http://www.w3.org/1999/xlink">
    <title>形状</title>
    <g id="页面-1" stroke="none" stroke-width="1" fill="none" fill-rule="evenodd">
        <g id="首页-监管二处-担保" transform="translate(-1643.000000, -27.000000)" fill="#160A0A" fill-rule="nonzero">
            <path d="M1657.77667,43.15 C1657.47895,43.6759685 1656.92876,44 1656.33333,44 L1644.66667,44 C1644.22464,44 1643.80072,43.8208934 1643.48816,43.5020815 C1643.17559,43.1832697 1643,42.750868 1643,42.3 C1643,39.648 1645.18667,37.4023 1648.20667,36.63305 C1646.15656,35.553948 1645.09642,33.1842409 1645.64076,30.8975624 C1646.1851,28.6108838 1648.1926,27.0009278 1650.49958,27.0009278 C1652.80656,27.0009278 1654.81406,28.6108838 1655.3584,30.8975624 C1655.90275,33.1842409 1654.8426,35.553948 1652.7925,36.63305 C1655.81417,37.4023 1658,39.648 1658,42.3 C1658,42.6094 1657.91917,42.9001 1657.77667,43.15 L1659.33583,43.15 L1657.7775,43.15 L1657.77667,43.15 Z M1644.66667,43.15 L1656.33333,43.15 C1656.79357,43.15 1657.16667,42.769442 1657.16667,42.3 C1657.16667,39.4831 1654.18167,37.2 1650.5,37.2 C1646.81833,37.2 1643.83333,39.4831 1643.83333,42.3 C1643.83333,42.769442 1644.20643,43.15 1644.66667,43.15 L1644.66667,43.15 Z M1650.5,36.35 C1652.80119,36.35 1654.66667,34.4472102 1654.66667,32.1 C1654.66667,29.7527898 1652.80119,27.85 1650.5,27.85 C1648.19881,27.85 1646.33333,29.7527898 1646.33333,32.1 C1646.33333,34.4472102 1648.19881,36.35 1650.5,36.35 L1650.5,36.35 Z M1659.33167,43.1364 C1659.29854,43.1455976 1659.26434,43.1501725 1659.23,43.1500047 C1659.00558,43.143972 1658.82821,42.9539321 1658.83333,42.725 C1658.83079,42.6113598 1658.87399,42.5016161 1658.95287,42.4213198 C1659.03175,42.3410234 1659.13943,42.297181 1659.25083,42.3 L1661.4125,42.3 C1661.85083,42.3 1662.20667,41.9192 1662.20667,41.45 C1662.20667,38.65605 1659.40917,36.38655 1655.94083,36.35 L1655.94083,36.34745 C1655.82594,36.3570916 1655.71242,36.3166432 1655.6284,36.236128 C1655.54438,36.1556128 1655.49773,36.0425656 1655.5,35.925 C1655.49743,35.8109046 1655.54097,35.7007503 1655.6204,35.6203735 C1655.69983,35.5399967 1655.80817,35.4964691 1655.92,35.5 C1657.99107,35.5 1659.67,33.7874891 1659.67,31.675 C1659.67,29.5625109 1657.99107,27.85 1655.92,27.85 L1655.91667,27.85 C1655.76781,27.85 1655.63025,27.7689955 1655.55582,27.6375 C1655.48139,27.5060045 1655.48139,27.3439955 1655.55582,27.2125 C1655.63025,27.0810045 1655.76781,27 1655.91667,27 L1655.92,27 C1658.02067,27.0013022 1659.85156,28.459062 1660.36276,30.5373302 C1660.87397,32.6155984 1659.93459,34.7823023 1658.08333,35.79495 C1660.93833,36.5744 1663,38.81245 1663,41.45 C1663,42.38925 1662.28917,43.1500047 1661.4125,43.1500047 L1659.33583,43.1500047 C1659.33439,43.1454833 1659.333,43.1409496 1659.33167,43.1364 Z" id="形状"></path>
        </g>
    </g>
</svg>