<?xml version="1.0" encoding="UTF-8"?>
<svg width="20px" height="20px" viewBox="0 0 20 20" version="1.1" xmlns="http://www.w3.org/2000/svg" xmlns:xlink="http://www.w3.org/1999/xlink">
    <!-- Generator: Sketch 63.1 (92452) - https://sketch.com -->
    <title>编组</title>
    <desc>Created with Sketch.</desc>
    <defs>
        <path d="M1,0 L13.5857864,0 C13.8510029,-4.87194788e-17 14.1053568,0.10535684 14.2928932,0.292893219 L19.7071068,5.70710678 C19.8946432,5.89464316 20,6.14899707 20,6.41421356 L20,19 C20,19.5522847 19.5522847,20 19,20 L1,20 C0.44771525,20 6.76353751e-17,19.5522847 0,19 L0,1 C-6.76353751e-17,0.44771525 0.44771525,1.01453063e-16 1,0 Z" id="path-1"></path>
    </defs>
    <g id="页面-1" stroke="none" stroke-width="1" fill="none" fill-rule="evenodd">
        <g id="1非法集资案件管理-1台账管理-1案件维护管理-1行政案件-1新增" transform="translate(-423.000000, -1799.000000)">
            <g id="编组" transform="translate(423.000000, 1799.000000)">
                <g id="矩形">
                    <mask id="mask-2" fill="white">
                        <use xlink:href="#path-1"></use>
                    </mask>
                    <use id="蒙版" fill="#409EFF" xlink:href="#path-1"></use>
                    <path d="M14,0 L20,0 L20,6 L15,6 C14.4477153,6 14,5.55228475 14,5 L14,0 L14,0 Z" fill="#A5D1FD" mask="url(#mask-2)"></path>
                </g>
                <text id="Word" font-family="PingFangSC-Semibold, PingFang SC" font-size="6" font-weight="500" letter-spacing="0.2" fill="#FFFFFF">
                    <tspan x="2" y="12">Word</tspan>
                </text>
            </g>
        </g>
    </g>
</svg>