<?xml version="1.0" encoding="UTF-8"?>
<svg width="18px" height="17px" viewBox="0 0 18 17" version="1.1" xmlns="http://www.w3.org/2000/svg" xmlns:xlink="http://www.w3.org/1999/xlink">
    <title>设置</title>
    <g id="页面-1" stroke="none" stroke-width="1" fill="none" fill-rule="evenodd">
        <g id="画板" transform="translate(-210.000000, -14.000000)" fill="#99ADB4" fill-rule="nonzero">
            <g id="设置" transform="translate(210.000000, 14.000000)">
                <path d="M17.819113,6.75510981 C17.6623658,5.93068427 17.0854488,5.38466421 16.3256602,5.38466421 L16.2930045,5.38466421 C15.5245076,5.38466421 14.8975187,4.7609496 14.8975187,3.99479497 C14.8975187,3.82214041 14.9824234,3.56963311 15.0194332,3.48114765 C15.3459899,2.75168211 15.0956298,1.85603656 14.4163917,1.38339469 L12.2872418,0.202869113 L12.20016,0.161863654 C11.9868096,0.0690618256 11.7495117,0.0258981846 11.5143908,0.0258981846 C11.0223786,0.0258981846 10.5260124,0.215818205 10.1929245,0.558969151 C9.87507594,0.88485464 9.30469016,1.2625365 9.04344476,1.2625365 C8.78002232,1.2625365 8.20528246,0.876221912 7.88961094,0.546020058 C7.55652306,0.196394566 7.06015681,0 6.56379056,0 C6.33084674,0 6.09572589,0.043163641 5.87802139,0.135965469 L3.65525849,1.34238923 L3.56817669,1.39850197 C2.90635502,1.85603656 2.65599485,2.74952393 2.98037455,3.47898946 C3.0217384,3.57394947 3.10664316,3.82429859 3.10664316,3.99695315 C3.10664316,4.76310778 2.47965421,5.38682239 1.65673121,5.38682239 L1.6218985,5.38682239 C0.916535928,5.38682239 0.339619014,5.93284245 0.182871777,6.77021709 C0.139330877,7.00545893 0,7.82556811 0,8.50539546 C0,9.18738098 0.139330877,10.005332 0.185048822,10.2556811 C0.341796059,11.0757903 0.920890018,11.6261267 1.62625259,11.6261267 L1.71115734,11.6261267 C2.47965421,11.6261267 3.10664316,12.2498413 3.10664316,13.0138378 C3.10664316,13.1800178 3.02826954,13.4238923 2.9825516,13.5274851 C2.6581719,14.2569506 2.90635502,15.150438 3.57253078,15.6166053 L5.67120212,16.7906563 L5.75610687,16.8316618 C5.96945728,16.9266218 6.20457814,16.9697855 6.44187604,16.9697855 C6.94259638,16.9697855 7.44984785,16.7690745 7.78075869,16.4086581 C8.09207612,16.0741399 8.69511757,15.6597689 8.95418592,15.6597689 C9.2241395,15.6597689 9.81194164,16.0719817 10.1341443,16.4237654 C10.4672322,16.7884982 10.9527132,17 11.4708499,17 C11.7146789,17 11.9454457,16.9546782 12.1609731,16.8618763 L14.3445492,15.6684017 L14.431631,15.6122889 C15.0912757,15.1547543 15.3416358,14.261267 15.0172561,13.5339596 C14.9780693,13.4389996 14.8931646,13.1886505 14.8931646,13.0159959 C14.8931646,12.2498413 15.5201535,11.6282849 16.3474306,11.6282849 C17.0571473,11.6196522 17.6558346,11.0908975 17.816936,10.2448902 C17.8604769,10.0096483 17.999906,9.18953916 17.999906,8.50971182 C18.0041618,7.82556811 17.8626539,7.00330075 17.819113,6.75510981 L17.819113,6.75510981 Z M16.5542499,10.0096483 C16.5237712,10.1736702 16.4366894,10.3484829 16.3321913,10.3484829 C14.8126139,10.3484829 13.6108851,11.5182176 13.6108851,13.0116796 C13.6108851,13.4541069 13.7828716,13.8965342 13.8351207,14.0217088 C13.9222025,14.2159452 13.8525371,14.4576615 13.6979669,14.5634125 L13.6936128,14.5655706 L11.6145349,15.7029326 C11.573171,15.7158817 11.5274531,15.7223562 11.475204,15.7223562 C11.3249879,15.7223562 11.18348,15.6640853 11.0963982,15.5691253 C10.9788377,15.4417926 9.97522001,14.3842834 8.96071706,14.3842834 C7.92879775,14.3842834 6.85116049,15.5324362 6.84027527,15.5432271 C6.75754756,15.6338708 6.59644623,15.6942999 6.44623013,15.6942999 C6.38962696,15.6942999 6.33520083,15.6856671 6.29165994,15.6684017 L6.26988949,15.6576108 L4.28224744,14.546147 C4.14291656,14.4252888 4.08631339,14.2029961 4.16033292,14.0411324 C4.20605086,13.9332233 4.39327673,13.4713723 4.39327673,13.0116796 C4.39327673,11.5441158 3.18937087,10.3484829 1.71115734,10.3484829 L1.62625259,10.3484829 C1.59577396,10.3420084 1.49345284,10.2448902 1.4477349,10.0161229 C1.41072513,9.81541196 1.28663357,9.07299733 1.28663357,8.50323727 C1.28663357,8.05001904 1.36936128,7.42846261 1.4477349,6.99466802 C1.48909875,6.77669163 1.58488873,6.6730989 1.61536736,6.65799162 L1.65673121,6.65799162 C3.18937087,6.65583344 4.39109968,5.48609877 4.39109968,3.99263679 C4.39109968,3.53294401 4.20387382,3.06893487 4.16468701,2.98044941 C4.0819593,2.79484575 4.1450936,2.56176209 4.29095562,2.44953663 L4.31272607,2.43658753 L6.42010559,1.29059287 C6.46146944,1.27764377 6.51154148,1.27116923 6.56161351,1.27116923 C6.71182961,1.27116923 6.86857685,1.33159832 6.9534816,1.42008379 C6.9970225,1.46540561 8.03111886,2.53370573 9.04126772,2.53370573 C10.0383543,2.53370573 11.0702736,1.48698743 11.1138145,1.44166561 C11.1987193,1.35533833 11.3598206,1.29490923 11.5100367,1.29490923 C11.5688169,1.29490923 11.623243,1.30354196 11.6667839,1.32080741 L11.6842003,1.32944014 L13.7066751,2.44953663 C13.8525371,2.57686937 13.9134943,2.79700394 13.8394748,2.96318395 C13.7937569,3.06893487 13.606531,3.52862765 13.606531,3.99263679 C13.606531,5.46235877 14.8082598,6.65583344 16.2886504,6.65583344 C16.4715222,6.65583344 16.5303024,6.8889171 16.5498958,6.98819347 C16.6282694,7.41335534 16.7131742,8.04138631 16.7131742,8.50107909 C16.7175282,8.96724641 16.6304465,9.60391012 16.5542499,10.0096483 Z" id="形状"></path>
                <path d="M9.00111076,5 C7.06839099,5 5.5,6.56616947 5.5,8.49888924 C5.5,10.431609 7.06616947,12 9.00111076,12 C10.9338305,12 12.5,10.4338305 12.5,8.49888924 C12.5,6.56616947 10.9338305,5 9.00111076,5 Z M9.00111076,10.6870835 C7.79482704,10.6870835 6.81291653,9.70739448 6.81291653,8.50111076 C6.81291653,7.29482704 7.79482704,6.31513805 9.00111076,6.31513805 C10.2073945,6.31513805 11.1870835,7.29482704 11.1870835,8.50111076 C11.1870835,9.70517296 10.2073945,10.6870835 9.00111076,10.6870835 Z" id="形状"></path>
            </g>
        </g>
    </g>
</svg>