<?xml version="1.0" encoding="UTF-8"?>
<svg width="7px" height="11px" viewBox="0 0 7 11" version="1.1" xmlns="http://www.w3.org/2000/svg" xmlns:xlink="http://www.w3.org/1999/xlink">
    <!-- Generator: Sketch 63.1 (92452) - https://sketch.com -->
    <title>编组 9</title>
    <desc>Created with Sketch.</desc>
    <g id="页面-1" stroke="none" stroke-width="1" fill="none" fill-rule="evenodd">
        <g id="1非法集资案件管理-1台账管理-1案件维护管理-1行政案件-选中" transform="translate(-858.000000, -562.000000)" fill="#BFBFBF" fill-rule="nonzero">
            <g id="编组-9" transform="translate(858.000000, 562.000000)">
                <path d="M0.085423688,3.50668467 L3.25963128,0.0987675826 C3.39205317,-0.0329225275 3.62398737,-0.0329225275 3.75640926,0.0987675826 L6.91494562,3.50668467 C7.10613462,3.69760049 6.95412369,4 6.66655663,4 L0.333029118,4 C0.0462456136,4 -0.106548877,3.69760049 0.085423688,3.50668467 Z" id="Shape备份-7"></path>
                <path d="M0.085423688,10.5066847 L3.25963128,7.09876758 C3.39205317,6.96707747 3.62398737,6.96707747 3.75640926,7.09876758 L6.91494562,10.5066847 C7.10613462,10.6976005 6.95412369,11 6.66655663,11 L0.333029118,11 C0.0462456136,11 -0.106548877,10.6976005 0.085423688,10.5066847 Z" id="Shape备份-8" transform="translate(3.500000, 9.000000) scale(1, -1) translate(-3.500000, -9.000000) "></path>
            </g>
        </g>
    </g>
</svg>