<?xml version="1.0" encoding="UTF-8"?>
<svg width="17px" height="16px" viewBox="0 0 17 16" version="1.1" xmlns="http://www.w3.org/2000/svg" xmlns:xlink="http://www.w3.org/1999/xlink">
    <title>就诊时间</title>
    <g id="页面-1" stroke="none" stroke-width="1" fill="none" fill-rule="evenodd">
        <g id="画板" transform="translate(-10.000000, -15.000000)" fill="#99ADB4" fill-rule="nonzero">
            <g id="就诊时间" transform="translate(10.000000, 15.000000)">
                <path d="M15.3,16 L1.7,16 C0.761599996,16 0,15.2250811 0,14.2702703 L0,2.5945946 C0,1.63891893 0.760750004,0.864864873 1.7,0.864864873 L2.975,0.864864873 L2.975,1.72972975 L1.7,1.72972973 C1.2308,1.72972973 0.849999991,2.11718919 0.849999991,2.5945946 L0.849999991,4.32432433 L16.15,4.32432433 L16.15,2.5945946 C16.15,2.11718919 15.7692,1.72972973 15.3,1.72972973 L14.025,1.72972973 L14.025,0.864864873 L15.3,0.864864873 C16.23925,0.864864873 17,1.63891893 17,2.5945946 L17,14.2702703 C17,15.2259459 16.23925,16 15.3,16 Z M16.15,5.18918918 L0.849999991,5.18918918 L0.849999991,14.2702703 C0.849999991,14.7476757 1.2308,15.1351351 1.7,15.1351351 L15.3,15.1351351 C15.7692,15.1351351 16.15,14.7476757 16.15,14.2702703 L16.15,5.18918918 Z M12.5375,2.5945946 C12.1856,2.5945946 11.9,2.304 11.9,1.94594595 L11.9,0.64864865 C11.9,0.2905946 12.1856,0 12.5375,0 C12.8894,0 13.175,0.2905946 13.175,0.64864865 L13.175,1.94594595 C13.175,2.304 12.8894,2.5945946 12.5375,2.5945946 Z M5.94999999,0.864864873 L11.05,0.864864873 L11.05,1.72972975 L5.94999999,1.72972975 L5.94999999,0.864864873 Z M4.4625,2.5945946 C4.1106,2.5945946 3.825,2.304 3.825,1.94594595 L3.825,0.64864865 C3.825,0.2905946 4.1106,0 4.4625,0 C4.81439999,0 5.1,0.2905946 5.1,0.64864865 L5.1,1.94594595 C5.1,2.304 4.81439999,2.5945946 4.4625,2.5945946 Z" id="形状"></path>
            </g>
        </g>
    </g>
</svg>