<?xml version="1.0" encoding="UTF-8"?>
<svg width="18px" height="18px" viewBox="0 0 18 18" version="1.1" xmlns="http://www.w3.org/2000/svg" xmlns:xlink="http://www.w3.org/1999/xlink">
    <title>jg-public-kapian-fengxiandianhangye.svg</title>
    <g id="页面-1" stroke="none" stroke-width="1" fill="none" fill-rule="evenodd">
        <g id="金融机构和金融市场风险" transform="translate(-287.000000, -542.000000)" fill-rule="nonzero">
            <g id="jg-public-kapian-fengxiandianhangye.svg" transform="translate(287.000000, 542.000000)">
                <rect id="矩形" fill="#000000" opacity="0" x="0" y="0" width="18" height="18"></rect>
                <g id="编组-4" transform="translate(0.000000, 1.000000)" fill="#595959">
                    <path d="M14.9333333,0 L3.02222222,0 C1.33333333,0 0,1.36 0,3.08266666 L0,13.9173333 C0,15.5946667 1.33333333,17 3.02222222,17 L14.9777778,17 C16.6222222,17 18,15.64 18,13.9173333 L18,3.08266666 C17.9555556,1.36 16.6222222,0 14.9333333,0 Z M16.7111111,13.9173333 C16.7111111,14.9146667 15.9111111,15.6853333 14.9777778,15.6853333 L3.02222222,15.6853333 C2.04444443,15.6853333 1.28888888,14.8693333 1.28888888,13.9173333 L1.28888888,3.08266666 C1.28888888,2.08533332 2.08888888,1.31466666 3.02222222,1.31466666 L14.9777778,1.31466666 C15.9555556,1.31466666 16.7111111,2.13066666 16.7111111,3.08266666 L16.7111111,13.9173333 Z" id="形状"></path>
                    <path d="M15.2,12.4213333 L13.7777778,12.4213333 L13.7777778,5.848 C13.7777778,5.48533334 13.5111111,5.21333334 13.1555556,5.21333334 C12.8,5.21333334 12.5333333,5.48533334 12.5333333,5.848 L12.5333333,12.4213333 L9.68888888,12.4213333 L9.68888888,3.98933334 C9.68888888,3.62666668 9.42222222,3.35466666 9.06666667,3.35466666 C8.71111112,3.35466666 8.4,3.62666666 8.4,3.98933334 L8.4,12.4213333 L5.51111112,12.4213333 L5.51111112,7.70666666 C5.51111112,7.344 5.24444445,7.072 4.88888888,7.072 C4.53333332,7.072 4.26666667,7.344 4.26666667,7.70666666 L4.26666667,12.4213333 L2.75555555,12.4213333 C2.4,12.4213333 2.13333333,12.6933333 2.13333333,13.056 C2.13333333,13.4186667 2.4,13.6906667 2.75555555,13.6906667 L15.2444444,13.6906667 C15.6,13.6906667 15.8666667,13.4186667 15.8666667,13.056 C15.8666667,12.6933333 15.5555556,12.4213333 15.2,12.4213333 L15.2,12.4213333 Z" id="路径"></path>
                </g>
            </g>
        </g>
    </g>
</svg>