<?xml version="1.0" encoding="UTF-8"?>
<svg width="18px" height="18px" viewBox="0 0 18 18" version="1.1" xmlns="http://www.w3.org/2000/svg" xmlns:xlink="http://www.w3.org/1999/xlink">
    <title>形状</title>
    <g id="页面-1" stroke="none" stroke-width="1" fill="none" fill-rule="evenodd">
        <g id="工作台-典当" transform="translate(-287.000000, -1166.000000)" fill="#595959" fill-rule="nonzero">
            <path d="M294.11,1166 L288.53,1166 C287.684,1166 287,1166.684 287,1167.53 L287,1173.11 C287,1173.956 287.684,1174.64 288.53,1174.64 L294.11,1174.64 C294.956,1174.64 295.64,1173.956 295.64,1173.11 L295.64,1167.53 C295.64,1166.684 294.956,1166 294.11,1166 Z M294.47,1173.11 C294.47,1173.308 294.308,1173.47 294.11,1173.47 L288.53,1173.47 C288.332,1173.47 288.17,1173.308 288.17,1173.11 L288.17,1167.53 C288.17,1167.332 288.332,1167.17 288.53,1167.17 L294.11,1167.17 C294.308,1167.17 294.47,1167.332 294.47,1167.53 L294.47,1173.11 Z M294.11,1175.36 L288.53,1175.36 C287.684,1175.36 287,1176.044 287,1176.89 L287,1182.47 C287,1183.316 287.684,1184 288.53,1184 L294.11,1184 C294.956,1184 295.64,1183.316 295.64,1182.47 L295.64,1176.89 C295.64,1176.044 294.956,1175.36 294.11,1175.36 Z M294.47,1182.47 C294.47,1182.668 294.308,1182.83 294.11,1182.83 L288.53,1182.83 C288.332,1182.83 288.17,1182.668 288.17,1182.47 L288.17,1176.89 C288.17,1176.692 288.332,1176.53 288.53,1176.53 L294.11,1176.53 C294.308,1176.53 294.47,1176.692 294.47,1176.89 L294.47,1182.47 Z M303.452,1175.36 L297.872,1175.36 C297.026,1175.36 296.342,1176.044 296.342,1176.89 L296.342,1182.47 C296.342,1183.316 297.026,1184 297.872,1184 L303.452,1184 C304.298,1184 304.982,1183.316 304.982,1182.47 L304.982,1176.89 C304.982,1176.044 304.298,1175.36 303.452,1175.36 L303.452,1175.36 Z M303.812,1182.47 C303.812,1182.668 303.65,1182.83 303.452,1182.83 L297.872,1182.83 C297.674,1182.83 297.512,1182.668 297.512,1182.47 L297.512,1176.89 C297.512,1176.692 297.674,1176.53 297.872,1176.53 L303.452,1176.53 C303.65,1176.53 303.812,1176.692 303.812,1176.89 L303.812,1182.47 L303.812,1182.47 Z M303.227,1168.34 L298.097,1168.34 C297.773,1168.34 297.512,1168.079 297.512,1167.755 C297.512,1167.431 297.773,1167.17 298.097,1167.17 L303.227,1167.17 C303.551,1167.17 303.812,1167.431 303.812,1167.755 C303.812,1168.079 303.551,1168.34 303.227,1168.34 Z M303.227,1173.47 L298.097,1173.47 C297.773,1173.47 297.512,1173.209 297.512,1172.885 C297.512,1172.561 297.773,1172.3 298.097,1172.3 L303.227,1172.3 C303.551,1172.3 303.812,1172.561 303.812,1172.885 C303.812,1173.209 303.551,1173.47 303.227,1173.47 L303.227,1173.47 Z M303.227,1170.905 L298.097,1170.905 C297.773,1170.905 297.512,1170.644 297.512,1170.32 C297.512,1169.996 297.773,1169.735 298.097,1169.735 L303.227,1169.735 C303.551,1169.735 303.812,1169.996 303.812,1170.32 C303.812,1170.644 303.551,1170.905 303.227,1170.905 Z" id="形状"></path>
        </g>
    </g>
</svg>