<?xml version="1.0" encoding="UTF-8"?>
<svg width="16px" height="16px" viewBox="0 0 16 16" version="1.1" xmlns="http://www.w3.org/2000/svg" xmlns:xlink="http://www.w3.org/1999/xlink">
    <!-- Generator: Sketch 63.1 (92452) - https://sketch.com -->
    <title>形状</title>
    <desc>Created with Sketch.</desc>
    <g id="页面-1" stroke="none" stroke-width="1" fill="none" fill-rule="evenodd">
        <g id="1非法集资案件管理-1台账管理-1案件维护管理-1行政案件-1新增" transform="translate(-368.000000, -1181.000000)" fill="#C2C2C2" fill-rule="nonzero">
            <path d="M383.006536,1187.98923 C382.779099,1187.76734 382.409943,1187.76734 382.182507,1187.98923 L376.000571,1194.02038 L369.818636,1187.98923 C369.5912,1187.76734 369.222044,1187.76734 368.994607,1187.98923 L368.170578,1188.79316 C367.943141,1189.01505 367.943141,1189.3752 368.170578,1189.59709 L375.587985,1196.83358 C375.815422,1197.05547 376.184578,1197.05547 376.412015,1196.83358 L383.829422,1189.59709 C384.056859,1189.3752 384.056859,1189.01505 383.829422,1188.79316 L383.006536,1187.98923 L383.006536,1187.98923 Z M375.587985,1190.01188 C375.815422,1190.23377 376.184578,1190.23377 376.412015,1190.01188 L383.829422,1182.77539 C384.056859,1182.5535 384.056859,1182.19335 383.829422,1181.97146 L383.006536,1181.16642 C382.779099,1180.94453 382.409943,1180.94453 382.182507,1181.16642 L376.000571,1187.19757 L369.818636,1181.16642 C369.5912,1180.94453 369.222044,1180.94453 368.994607,1181.16642 L368.170578,1181.97035 C367.943141,1182.19224 367.943141,1182.55239 368.170578,1182.77428 L375.587985,1190.01188 Z" id="形状" transform="translate(376.000000, 1189.000000) scale(1, -1) translate(-376.000000, -1189.000000) "></path>
        </g>
    </g>
</svg>