<?xml version="1.0" encoding="UTF-8"?>
<svg width="18px" height="16px" viewBox="0 0 18 16" version="1.1" xmlns="http://www.w3.org/2000/svg" xmlns:xlink="http://www.w3.org/1999/xlink">
    <title>jg-public-kapian-xiaoedaikuangongsi.svg</title>
    <g id="页面-1" stroke="none" stroke-width="1" fill="none" fill-rule="evenodd">
        <g id="地方金融监管-全省总览" transform="translate(-287.000000, -187.000000)" fill-rule="nonzero">
            <g id="jg-public-kapian-xiaoedaikuangongsi.svg" transform="translate(287.000000, 187.000000)">
                <rect id="矩形" fill="#000000" opacity="0" x="0" y="5.11802403e-07" width="15.9665145" height="15.9999995"></rect>
                <path d="M5.24646977,2.6688496 C6.21517161,0.808943861 8.24003961,-0.240046449 10.3082927,0.0468955259 C12.3763722,0.333837501 14.0428795,1.89480187 14.4748213,3.94861081 C14.9069366,6.00207194 14.0123364,8.10770436 12.2378871,9.21286573 C12.0944811,9.30217761 11.914421,9.30803859 11.7655335,9.22824088 C11.6166461,9.14844318 11.5215509,8.99510997 11.5160694,8.82600039 C11.5105879,8.65689082 11.5955528,8.49769664 11.7389587,8.40838477 C13.1753517,7.51382141 13.8998823,5.80799483 13.5498516,4.14407916 C13.1999944,2.48068521 11.8512393,1.21727099 10.1786581,0.985282746 C8.50625041,0.753120597 6.86855078,1.60159934 6.08449578,3.10708826 C5.30009371,4.61344669 5.5387116,6.45335343 6.68112727,7.7061595 C6.85723998,7.89920926 6.84383731,8.19877397 6.65119157,8.37525603 C6.45854583,8.55173808 6.15960804,8.5383073 5.98349534,8.34525754 C4.57295993,6.79837942 4.27828853,4.52805971 5.24646977,2.66902349 L5.24646977,2.6688496 Z M3.34863325,8.06440221 C3.59846529,8.06440221 3.80517285,8.25919026 3.82048928,8.50907532 L3.82135698,8.53794343 L3.82135698,15.4149862 C3.82322272,15.6722241 3.61981397,15.8839057 3.363227,15.8917489 C3.10664002,15.8995921 2.89073441,15.7007279 2.87695077,15.4438543 L2.87608308,15.4149862 L2.87608308,8.53794343 C2.87608308,8.27641384 3.08765099,8.06440221 3.34863325,8.06440221 L3.34863325,8.06440221 Z M1.35968811,8.06440221 L3.34863325,8.06440221 C3.60407623,8.06430227 3.81335845,8.26764312 3.82114816,8.52350279 C3.82893787,8.77936246 3.63241491,8.99511003 3.37744094,9.01061511 L3.34863325,9.01148465 L1.34944922,9.01148465 C1.10302202,9.00626752 1.0008068,9.14278234 0.993691655,9.45024501 L0.993171028,9.4864171 L0.993171028,14.4404269 C0.993171028,14.5058149 1.05946342,14.639895 1.17278521,14.7586716 C1.28454515,14.8758831 1.4061969,14.941445 1.46329165,14.941445 C1.72432184,14.941445 1.93592861,15.1534955 1.93592861,15.4150731 C1.93592861,15.6766507 1.72432184,15.8887013 1.46329165,15.8887013 C0.787872883,15.8887013 0.0749694124,15.1543037 0.0487648226,14.4785119 L0.0480706535,14.440253 L0.0480706535,9.48659099 C0.0480706535,8.70036997 0.466996896,8.06927152 1.3114439,8.06405439 L1.35968811,8.06457611 L1.35968811,8.06440221 Z M16.052476,9.6098891 C16.7539258,9.32381664 17.5548142,9.6432787 17.8704839,10.3340263 C18.1793856,11.0096442 17.9178604,11.8076907 17.2761085,12.168542 L17.2355001,12.1904539 L9.37412534,15.9144391 C9.29063878,15.9539618 9.19742684,15.968109 9.10600562,15.9551327 L9.07199172,15.9490461 L3.28858832,14.6922402 C3.03667053,14.6403901 2.87238313,14.3961795 2.91890773,14.1427158 C2.96543233,13.8892521 3.20568484,13.7196087 3.4595255,13.760983 L3.48902734,13.766548 L9.11555033,14.9890947 L16.8035583,11.3477141 L16.8261185,11.3351929 C17.0226918,11.2153023 17.1055364,10.9716647 17.0229132,10.7564397 L17.011286,10.728615 C16.9102856,10.5075827 16.6617759,10.4013272 16.4240257,10.481671 L12.1523317,12.0648951 C12.110335,12.0805465 12.0664293,12.0899373 12.022003,12.0932415 L11.9883361,12.0944588 L7.35515772,12.0944588 C7.09845818,12.0963285 6.88721952,11.8924931 6.87939272,11.635368 C6.87156592,11.378243 7.07001402,11.1618845 7.32635003,11.148072 L7.35515772,11.1472025 L11.9036485,11.1470286 L16.052476,9.60971519 L16.052476,9.6098891 Z M9.71183472,9.01287588 C9.96853427,9.01100622 10.1797729,9.21484155 10.1875997,9.47196664 C10.1954265,9.72909174 9.99697842,9.94545015 9.74064242,9.95926269 L9.71183472,9.96013221 L3.34863325,9.96013221 C3.09193371,9.96200186 2.88069507,9.75816653 2.87286827,9.50104144 C2.86504148,9.24391635 3.06348957,9.02755794 3.31982557,9.0137454 L3.34863325,9.01287588 L9.71183472,9.01287588 L9.71183472,9.01287588 Z M9.68458891,7.00776012 C9.83018921,7.00776012 9.92459512,6.98219619 9.96780664,6.93089445 C10.0111917,6.8795927 10.0327107,6.77716311 10.0327107,6.62343177 L10.0327107,5.93755348 L10.8646628,5.93755348 C11.085059,5.93755348 11.1950835,5.82921114 11.1950835,5.61235258 C11.1950835,5.39149421 11.0848854,5.28123894 10.8646628,5.28123892 L10.0327107,5.28123892 L10.0327107,4.97968899 L10.8646628,4.97968899 C11.085059,4.97968899 11.1950835,4.87134665 11.1950835,4.65448808 C11.1950835,4.43362971 11.0848854,4.32337444 10.8646628,4.32337444 L10.4103344,4.32337444 L11.1183787,3.14673841 C11.1813738,3.03630923 11.2087932,2.94674854 11.2009839,2.87770858 C11.1931746,2.80866859 11.1400712,2.74275889 11.0416739,2.67963166 C11.0020452,2.65402917 10.9606366,2.63130545 10.9177661,2.6116351 C10.8783725,2.59389687 10.8391524,2.58798413 10.7997588,2.59389687 C10.7603651,2.59980962 10.7220127,2.61946079 10.6847015,2.6530243 C10.6473904,2.68658782 10.6069555,2.73875908 10.563744,2.80971202 C10.4181437,3.05804726 10.2727169,3.30533906 10.1271166,3.55176137 C9.98151633,3.79818366 9.83608957,4.04547548 9.69048927,4.2938107 L8.79363311,2.79197378 C8.72282868,2.67371891 8.64907405,2.60867873 8.57236924,2.59685324 C8.49566444,2.58502776 8.41201802,2.61076558 8.32160355,2.67371891 C8.24298979,2.72884655 8.1947456,2.79597358 8.17704449,2.8747522 C8.15934338,2.95353082 8.18190361,3.04430882 8.24489874,3.14673841 L8.60482128,3.73505642 C8.72491039,3.93109179 8.8448846,4.12719783 8.96474383,4.32337444 L8.49861463,4.32337444 C8.28620132,4.32337444 8.17999467,4.43380362 8.17999467,4.65448808 C8.17999467,4.87134665 8.29019275,4.97968899 8.51041536,4.97968899 L9.33056674,4.97968899 L9.33056674,5.28123892 L8.49861463,5.28123892 C8.28620132,5.28123892 8.17999467,5.3916681 8.17999467,5.61235258 C8.17999467,5.82921115 8.29019275,5.93755349 8.51041536,5.93755348 L9.33056674,5.93755348 L9.33056674,6.62343177 C9.33056674,6.77716311 9.35815963,6.8795927 9.4131719,6.93089445 C9.46818417,6.98219619 9.5587722,7.00776012 9.68458891,7.00776012 L9.68458891,7.00776012 Z" id="形状" fill="#595959"></path>
            </g>
        </g>
    </g>
</svg>