<?xml version="1.0" encoding="UTF-8"?>
<svg width="17px" height="17px" viewBox="0 0 17 17" version="1.1" xmlns="http://www.w3.org/2000/svg" xmlns:xlink="http://www.w3.org/1999/xlink">
    <!-- Generator: Sketch 63.1 (92452) - https://sketch.com -->
    <title>形状</title>
    <desc>Created with Sketch.</desc>
    <g id="页面-1" stroke="none" stroke-width="1" fill="none" fill-rule="evenodd">
        <g id="1非法集资案件管理-3案件查询-1报表查询-2报送处非联办报表查询" transform="translate(-1051.000000, -280.000000)" fill="#FFFFFF" fill-rule="nonzero">
            <g id="查询" transform="translate(1049.000000, 277.000000)">
                <path d="M9.4375,4.41665286 C12.5172875,4.42163875 15.0927415,6.75845325 15.3962196,9.82325614 C15.6996978,12.888059 13.6325496,15.6845861 10.6135457,16.2934632 C7.59454182,16.9023403 4.60505882,15.1256421 3.69690454,12.1827912 C2.78875026,9.23994024 4.25713509,6.0875584 7.09424479,4.88925781 C7.8355783,4.57567636 8.6325741,4.41493708 9.4375,4.41665286 M9.4375,3 C5.32983073,3 2,6.32983073 2,10.4375 C2,14.5451693 5.32983073,17.875 9.4375,17.875 C13.5451693,17.875 16.875,14.5451693 16.875,10.4375 C16.875,6.32983073 13.5451693,3 9.4375,3 Z M14.8967578,14.8949089 L13.8949089,15.8967578 L17.9983724,20 L19,18.9983724 L14.8967578,14.8949089 Z" id="形状"></path>
            </g>
        </g>
    </g>
</svg>