<?xml version="1.0" encoding="UTF-8"?>
<svg width="18px" height="18px" viewBox="0 0 18 18" version="1.1" xmlns="http://www.w3.org/2000/svg" xmlns:xlink="http://www.w3.org/1999/xlink">
    <title>jg-public-kapian-yinhangyejigou.svg</title>
    <g id="页面-1" stroke="none" stroke-width="1" fill="none" fill-rule="evenodd">
        <g id="金融机构和金融市场风险-银行" transform="translate(-287.000000, -542.000000)" fill-rule="nonzero">
            <g id="jg-public-kapian-yinhangyejigou.svg" transform="translate(287.000000, 542.000000)">
                <rect id="矩形" fill="#000000" opacity="0" x="0" y="0" width="18" height="18"></rect>
                <path d="M9.03459375,1.35922852 C9.65261105,1.31716307 10.2639229,1.50847207 10.7477051,1.89534375 C11.148627,1.7139375 11.7744082,1.51804688 12.3797461,1.68310547 C12.8541245,1.81728831 13.2460089,2.1523744 13.4522402,2.60015625 C14.0105918,3.71991797 13.4462461,4.82932617 12.8081426,5.71267969 C13.8399785,6.36946875 16.6441641,8.52148828 16.5565898,12.4547168 C16.4636367,16.6178145 13.20075,16.6393652 13.1692852,16.6407715 L5.23982812,16.6407715 C3.00902344,16.6407715 1.73645508,15.3174551 1.45750781,12.7076133 L1.45541602,12.682582 C1.21686328,9.02545313 4.0867207,6.64999805 5.31838477,5.80633594 C4.66410937,5.00802539 4.06527539,4.09375195 4.31173828,3.12507422 C4.41944119,2.6480931 4.72505859,2.23949315 5.15218359,2.00142773 C5.81241797,1.64061914 6.65114063,1.73652539 7.32311719,1.92183398 C7.70217188,1.656 8.11369336,1.43741602 9.03459375,1.35922852 Z M10.1853633,3.00847852 C10.1210098,2.93999414 9.70085742,2.51806641 9.13753125,2.56603711 C8.40420703,2.62858008 8.22004102,2.7631582 7.8530625,3.03247266 L7.53858984,3.26181445 L7.24389258,3.16320117 C6.58624219,2.94333398 6.02068359,2.90657812 5.73138281,3.06495703 C5.64667383,3.11125781 5.54189062,3.19405078 5.48291602,3.42523828 C5.36127539,3.90383789 5.86603125,4.58521875 6.42984961,5.25041016 C6.60668024,5.45945224 6.68463141,5.73466972 6.64368709,6.00539325 C6.60274278,6.27611678 6.44689156,6.51597391 6.21615234,6.663375 C5.32949414,7.22954883 2.45518945,9.32916797 2.6602207,12.5911934 C2.81207812,13.9968457 3.24003516,15.4293574 5.23982812,15.4293574 L13.173627,15.4293574 C13.3886426,15.427002 15.2840215,15.3223066 15.3490957,12.4276113 C15.4307637,8.78124023 12.5366484,6.94249805 11.955709,6.61099219 C11.7183414,6.47479739 11.5513273,6.24275831 11.4975342,5.97443262 C11.4437411,5.70610694 11.5084068,5.42762137 11.6749336,5.21045508 C12.408416,4.25151563 12.6169277,3.63295898 12.3721172,3.14193164 C12.2668242,2.93090625 12.151793,2.87625586 12.0634453,2.85210352 C11.7253125,2.76011719 11.182166,3.00900586 10.9861699,3.13662305 L10.537541,3.42905273 L10.1939414,3.01777734 C10.1938887,3.01772461 10.1922363,3.01587891 10.1890547,3.01243359 L10.1853633,3.00847852 Z" id="形状" fill="#595959"></path>
                <path d="M9.0063457,7.28166797 C8.59904297,7.28964844 8.22107813,7.44113672 7.95273047,7.74418359 L7.93321875,7.76673633 L6.27175195,9.42829102 C5.98756641,9.71247656 5.80545703,10.1130996 5.80545703,10.5162363 L5.80579102,10.55025 C5.81375391,10.9575527 5.96525977,11.3355176 6.26830664,11.6038652 L6.29082422,11.6232891 L7.95239648,13.2848437 C8.5141582,13.8466055 9.49786523,13.8466055 10.1031855,13.3085391 L10.1161055,13.2970605 L11.8089668,11.6041992 C12.0931523,11.3199961 12.2752617,10.919373 12.2752617,10.5162363 L12.2749277,10.4822402 C12.2669648,10.0749199 12.115459,9.69697266 11.8124297,9.42860742 L11.7892969,9.40862109 L10.1283223,7.74764648 C9.84411914,7.46344336 9.44347852,7.28133398 9.04035937,7.28133398 L9.0063457,7.28168555 L9.0063457,7.28166797 Z M9.04035937,8.45711719 C9.11620898,8.45711719 9.22398047,8.50610742 9.29691211,8.57903906 L11.000584,10.2827109 L11.026002,10.3030488 C11.0712129,10.339207 11.0994785,10.4083066 11.0994785,10.5162363 L11.0988281,10.5318105 C11.0928516,10.6063066 11.0456367,10.7047266 10.9775391,10.7728066 L9.31292578,12.4373496 L9.32204883,12.4297383 C9.17108789,12.5639297 8.89430273,12.5639297 8.78380664,12.4534336 L7.08013477,10.7497617 L7.0547168,10.7294238 C7.00950586,10.6932656 6.98124023,10.624166 6.98124023,10.5162363 C6.98124023,10.4403867 7.03023047,10.3326152 7.10316211,10.2596836 L8.80683398,8.55601172 L8.82717187,8.53059375 C8.86333008,8.48538281 8.93242969,8.45711719 9.04035937,8.45711719 L9.04035937,8.45711719 Z" id="形状" fill="#595959"></path>
            </g>
        </g>
    </g>
</svg>