<?xml version="1.0" encoding="UTF-8"?>
<svg width="18px" height="18px" viewBox="0 0 18 18" version="1.1" xmlns="http://www.w3.org/2000/svg" xmlns:xlink="http://www.w3.org/1999/xlink">
    <title>jg-public-kapian-baoixanbaozhang.svg</title>
    <g id="页面-1" stroke="none" stroke-width="1" fill="none" fill-rule="evenodd">
        <g id="保险业" transform="translate(-833.000000, -184.000000)" fill-rule="nonzero">
            <g id="jg-public-kapian-baoixanbaozhang.svg" transform="translate(833.000000, 184.000000)">
                <rect id="矩形" fill="#000000" opacity="0" x="0" y="0" width="18" height="18"></rect>
                <g id="编组-5" transform="translate(1.000000, 0.000000)" fill="#595959">
                    <path d="M10.0980188,8.85922837 C10.379562,8.85922837 10.6235662,8.59645464 10.6235662,8.27737226 C10.6235662,7.95828987 10.379562,7.69551615 10.0980188,7.69551617 L8.52137643,7.69551617 L10.173097,6.11887382 C10.379562,5.8936392 10.3983316,5.55578728 10.2106361,5.33055266 C10.1355579,5.21793535 10.004171,5.14285715 9.8540146,5.14285713 C9.72262774,5.12408758 9.57247133,5.18039623 9.47862357,5.27424401 L7.73305527,6.9447341 L5.96871741,5.27424401 C5.87486965,5.18039625 5.72471324,5.14285715 5.59332638,5.14285713 C5.46193952,5.16162668 5.33055266,5.21793535 5.23670489,5.33055266 C5.04900939,5.55578728 5.06777894,5.91240877 5.27424401,6.11887382 L6.9447341,7.69551617 L5.36809176,7.69551617 C5.08654849,7.69551617 4.84254431,7.95828989 4.84254431,8.27737226 C4.84254431,8.59645464 5.08654849,8.85922837 5.36809176,8.85922837 L7.20750782,8.85922837 L7.20750782,9.72262774 L5.36809176,9.72262774 C5.08654849,9.72262774 4.84254431,9.98540146 4.84254431,10.3044838 C4.84254431,10.6235662 5.08654849,10.8863399 5.36809176,10.8863399 L7.20750782,10.8863399 L7.20750782,12.3128259 C7.20750782,12.6319082 7.451512,12.894682 7.73305527,12.894682 C8.01459854,12.894682 8.25860271,12.6319082 8.25860271,12.3128259 L8.25860271,10.8863399 L10.0980188,10.8863399 C10.379562,10.8863399 10.6235662,10.6235662 10.6235662,10.3044838 C10.6235662,9.98540144 10.379562,9.72262772 10.0980188,9.72262774 L8.25860271,9.72262774 L8.25860271,8.85922837 L10.0980188,8.85922837 L10.0980188,8.85922837 Z" id="路径"></path>
                    <path d="M7.73305527,1.1637122 L14.3211679,3.49113659 L14.3211679,9.02815432 C14.3211679,13.0448384 9.12200209,16.0667362 7.71428572,16.8175183 C6.3253389,16.0667362 1.1261731,12.9885297 1.1261731,9.00938477 L1.1261731,3.47236704 L7.73305527,1.1637122 M7.73305527,0 C7.67674662,0 7.62043795,0.0187695487 7.54535976,0.0375390974 L0.375391033,2.55265902 C0.150156409,2.62773723 0,2.85297184 0,3.07820646 L0,9.00938477 C0,13.8706986 6.15641294,17.286757 7.47028154,17.9436914 C7.54535976,17.9812305 7.6392075,18 7.71428572,18 C7.78936393,18 7.88321168,17.9812305 7.95828989,17.9436914 C9.2721585,17.2867571 15.447341,13.8706987 15.447341,9.00938477 L15.447341,3.09697601 C15.447341,2.85297184 15.2971846,2.64650676 15.0719499,2.57142857 L7.92075077,0.0375390974 C7.84567256,0.0187695487 7.78936391,0 7.73305527,0 Z" id="形状"></path>
                </g>
            </g>
        </g>
    </g>
</svg>