<?xml version="1.0" encoding="UTF-8"?>
<svg width="18px" height="18px" viewBox="0 0 18 18" version="1.1" xmlns="http://www.w3.org/2000/svg" xmlns:xlink="http://www.w3.org/1999/xlink">
    <title>jg-public-kapian-weifaweigui.svg</title>
    <g id="页面-1" stroke="none" stroke-width="1" fill="none" fill-rule="evenodd">
        <g id="金融机构和金融市场风险-资本市场" transform="translate(-287.000000, -186.000000)" fill-rule="nonzero">
            <g id="jg-public-kapian-weifaweigui.svg" transform="translate(287.000000, 186.000000)">
                <rect id="矩形" fill="#000000" opacity="0" x="0" y="0" width="18" height="18"></rect>
                <path d="M8.35851506,11.8900135 L8.35851506,6.74510941 C8.35851506,6.39181127 8.6455698,6.10475654 8.99886793,6.10475654 L9.00288268,6.10475654 C9.35618081,6.10475654 9.64323555,6.39181127 9.64323555,6.74510941 L9.64323555,11.8900135 C9.64323555,12.2433116 9.35618081,12.5303663 9.00288268,12.5303663 L8.99886793,12.5303663 C8.6455698,12.5303663 8.35851506,12.2433116 8.35851506,11.8900135 L8.35851506,11.8900135 Z M9.00689743,13.8050499 L9.01091218,13.8050499 C9.36421032,13.8050499 9.65126505,14.0921047 9.65126505,14.4454028 L9.65126505,14.4494175 C9.65126505,14.8027157 9.36421032,15.0897704 9.01091218,15.0897704 L9.00689743,15.0897704 C8.6535993,15.0897704 8.36654457,14.8027157 8.36654457,14.4494175 L8.36654457,14.4454028 C8.36654457,14.0921047 8.6535993,13.8050499 9.00689743,13.8050499 Z M9.00087531,2.96321349 L16.2675755,16.0312296 L1.73417508,16.0312296 L9.00087531,2.96321349 M9.00087531,1 C8.78006397,1 8.56126002,1.11040567 8.4388101,1.331217 L0.0821048345,16.3604393 C-0.15677288,16.7900177 0.154370362,17.3179575 0.644170045,17.3179575 L17.3555732,17.3179575 C17.8473803,17.3179575 18.1565161,16.7900177 17.9176384,16.3604393 L9.56294052,1.331217 C9.4404906,1.11040567 9.22168664,1 9.00087531,1 Z" id="形状" fill="#595959"></path>
            </g>
        </g>
    </g>
</svg>