<?xml version="1.0" encoding="UTF-8"?>
<svg width="15px" height="10px" viewBox="0 0 15 10" version="1.1" xmlns="http://www.w3.org/2000/svg" xmlns:xlink="http://www.w3.org/1999/xlink">
    <!-- Generator: Sketch 63.1 (92452) - https://sketch.com -->
    <title>形状</title>
    <desc>Created with Sketch.</desc>
    <g id="页面-1" stroke="none" stroke-width="1" fill="none" fill-rule="evenodd">
        <g id="1非法集资案件管理-1台账管理-1案件维护管理-1行政案件-1新增" transform="translate(-1783.000000, -1804.000000)" fill="#606266" fill-rule="nonzero">
            <path d="M1790.5,1812.18182 C1788.68783,1812.18182 1787.21878,1810.75727 1787.21878,1809 C1787.21878,1807.24273 1788.68783,1805.81818 1790.5,1805.81818 C1792.31217,1805.81818 1793.78122,1807.24273 1793.78122,1809 C1793.78122,1810.75727 1792.31217,1812.18182 1790.5,1812.18182 Z M1790.5,1811.27273 C1791.7944,1811.27273 1792.84373,1810.25519 1792.84373,1809 C1792.84373,1807.74481 1791.7944,1806.72727 1790.5,1806.72727 C1789.2056,1806.72727 1788.15627,1807.74481 1788.15627,1809 C1788.15627,1810.25519 1789.2056,1811.27273 1790.5,1811.27273 Z M1790.5,1814 C1787.73487,1814 1785.25802,1812.39864 1783.07976,1809.25364 C1782.97341,1809.10027 1782.97341,1808.89973 1783.07976,1808.74636 C1785.25802,1805.60091 1787.7344,1804 1790.5,1804 C1793.26513,1804 1795.74198,1805.60136 1797.92024,1808.74636 C1798.02659,1808.89973 1798.02659,1809.10027 1797.92024,1809.25364 C1795.74198,1812.39909 1793.2656,1814 1790.5,1814 Z M1790.5,1813.09091 C1792.84138,1813.09091 1794.99292,1811.74455 1796.96353,1809 C1794.99292,1806.25545 1792.84138,1804.90909 1790.5,1804.90909 C1788.15862,1804.90909 1786.00708,1806.25545 1784.03647,1809 C1786.00708,1811.74455 1788.15862,1813.09091 1790.5,1813.09091 Z" id="形状"></path>
        </g>
    </g>
</svg>