<?xml version="1.0" encoding="UTF-8"?>
<svg width="19px" height="17px" viewBox="0 0 19 17" version="1.1" xmlns="http://www.w3.org/2000/svg" xmlns:xlink="http://www.w3.org/1999/xlink">
    <!-- Generator: Sketch 63.1 (92452) - https://sketch.com -->
    <title>更多</title>
    <desc>Created with Sketch.</desc>
    <g id="页面-1" stroke="none" stroke-width="1" fill="none" fill-rule="evenodd">
        <g id="大tab" transform="translate(-1780.000000, -242.000000)" fill="#409EFF" fill-rule="nonzero">
            <g id="更多" transform="translate(1780.000000, 242.000000)">
                <path d="M6.03828041,2.99143683 L17.9617196,2.99143683 C18.535146,2.99143683 19,2.54563851 19,1.99571842 C19,1.44579832 18.535146,1 17.9617196,1 L6.03828041,1 C5.46485399,1 5.00000003,1.44579833 5.00000003,1.99571842 C5.00000003,2.5456385 5.46485399,2.99143683 6.03828041,2.99143683 L6.03828041,2.99143683 Z M17.9617196,7.50436457 L6.03828041,7.50436457 C5.46491557,7.50444809 5.0001577,7.95022194 5.0001577,8.50008298 C5.0001577,9.04994401 5.46491557,9.49571787 6.03828041,9.49580138 L17.9617196,9.49580138 C18.5350844,9.49571787 18.9998423,9.04994401 18.9998423,8.50008298 C18.9998423,7.95022194 18.5350844,7.50444809 17.9617196,7.50436457 L17.9617196,7.50436457 Z M17.9617196,14.0085632 L6.03828041,14.0085632 C5.46485398,14.0085632 5,14.4543615 5,15.0042816 C5,15.5542017 5.46485398,16 6.03828041,16 L17.9617196,16 C18.535146,16 19,15.5542017 19,15.0042816 C19,14.4543615 18.535146,14.0085632 17.9617196,14.0085632 L17.9617196,14.0085632 Z" id="形状"></path>
                <path d="M0.5,2 C0.5,2.71453116 0.881197828,3.37478521 1.5,3.7320508 C2.11880215,4.0893164 2.88119785,4.0893164 3.5,3.7320508 C4.11880217,3.37478521 4.5,2.71453116 4.5,2 C4.5,0.895430491 3.6045695,0 2.5,0 C1.3954305,0 0.5,0.895430491 0.5,2 L0.5,2 Z" id="路径"></path>
                <path d="M0.5,8.5 C0.5,9.21453116 0.881197828,9.87478521 1.5,10.2320508 C2.11880215,10.5893164 2.88119785,10.5893164 3.5,10.2320508 C4.11880217,9.87478521 4.5,9.21453116 4.5,8.5 C4.5,7.39543049 3.6045695,6.5 2.5,6.5 C1.3954305,6.5 0.5,7.39543049 0.5,8.5 Z" id="路径"></path>
                <path d="M0.5,15 C0.5,15.7145312 0.881197828,16.3747852 1.5,16.7320508 C2.11880215,17.0893164 2.88119785,17.0893164 3.5,16.7320508 C4.11880217,16.3747852 4.5,15.7145312 4.5,15 C4.5,13.8954305 3.6045695,13 2.5,13 C1.3954305,13 0.5,13.8954305 0.5,15 L0.5,15 Z" id="路径"></path>
            </g>
        </g>
    </g>
</svg>