<?xml version="1.0" encoding="UTF-8"?>
<svg width="18px" height="18px" viewBox="0 0 18 18" version="1.1" xmlns="http://www.w3.org/2000/svg" xmlns:xlink="http://www.w3.org/1999/xlink">
    <title>jg-public-kapian-gujiaozhongxin.svg</title>
    <g id="页面-1" stroke="none" stroke-width="1" fill="none" fill-rule="evenodd">
        <g id="证券期货基金" transform="translate(-287.000000, -542.000000)" fill-rule="nonzero">
            <g id="jg-public-kapian-gujiaozhongxin.svg" transform="translate(287.000000, 542.000000)">
                <rect id="矩形" fill="#000000" opacity="0" x="0" y="0.000692287826" width="17.9993077" height="17.9993077"></rect>
                <path d="M16.6081689,15.1118034 L14.6060921,12.1547248 C15.7549825,10.8230332 16.3860531,9.12223896 16.3838698,7.36344757 C16.3838698,3.29664245 13.0771893,0 8.99861543,0 C4.92038768,0 1.61370716,3.29664243 1.61370716,7.36344757 C1.61158585,9.12222788 2.24264867,10.8230012 3.39148495,12.1547248 L1.3894081,15.1118034 C1.26566248,15.2945716 1.30950206,15.5425871 1.48840429,15.6718588 L2.10972654,16.1218415 C2.20071539,16.1870335 2.31416429,16.2127436 2.42436829,16.1931464 L3.60089997,15.9792316 L3.81066112,17.2101073 C3.82900656,17.315334 3.88750431,17.4094842 3.97403947,17.4721357 L4.59570785,17.9228107 C4.68646982,17.9864273 4.79866145,18.0116767 4.90792662,17.9930772 C5.01730702,17.9736933 5.11457252,17.911388 5.17653168,17.8193146 L7.3894081,14.5510557 C7.91761857,14.6680512 8.45725164,14.7272413 8.99861543,14.7268951 C9.54005335,14.7271297 10.079894,14.6681663 10.6085151,14.5510557 L12.8213915,17.8193146 C12.8975676,17.9321325 13.024828,17.9996539 13.1609553,17.9996539 C13.2467982,17.9996539 13.3312565,17.9726549 13.4018691,17.9228107 L14.0235376,17.4721357 C14.1100568,17.4094739 14.168583,17.3154095 14.1865697,17.2101073 L14.3966771,15.9792316 L15.5728626,16.1931464 C15.6829353,16.2121842 15.7971616,16.1876082 15.8878505,16.1218415 L16.5091727,15.6718588 C16.6880749,15.5425871 16.7319145,15.2945716 16.6081689,15.1118034 L16.6081689,15.1118034 Z M4.73451022,17.0107304 L4.59155418,16.9072343 L4.33991,15.4326757 C4.32176731,15.324721 4.26087296,15.2286377 4.17099343,15.1661475 C4.08099689,15.1038422 3.96988577,15.0796123 3.86223606,15.0989962 L2.44998269,15.3565247 L2.29110419,15.2419522 L3.97300104,12.7580478 C4.71863949,13.4496856 5.59917735,13.9797524 6.5593631,14.3149879 L4.73451022,17.0107304 L4.73451022,17.0107304 Z M8.99861543,13.6666667 C5.50778816,13.6666667 2.67739702,10.8445829 2.67739702,7.36344757 C2.67739702,3.88231223 5.50744202,1.06022846 8.99861543,1.06022846 C12.490135,1.06022846 15.32018,3.88196608 15.32018,7.36344757 C15.32018,10.8445829 12.4897888,13.6666667 8.99861543,13.6666667 Z M15.5475943,15.3565247 L14.1353409,15.0989962 C14.0275907,15.0796395 13.9165613,15.1037872 13.8265836,15.1661475 C13.7365871,15.2287989 13.6756663,15.3246798 13.6573209,15.4326757 L13.4060228,16.9072343 L13.2634129,17.0107304 L11.4382139,14.3149879 C12.3983656,13.9796799 13.2788894,13.4496215 14.024576,12.7580478 L15.7064728,15.2419522 L15.5475943,15.3565247 L15.5475943,15.3565247 Z M6.44271374,3.68189685 C6.13291797,3.68189685 5.92938733,3.67324333 5.66424368,3.637937 C5.70854966,3.91138802 5.71720318,4.22879889 5.71720318,5.14607131 C5.71720318,7.29802701 5.64659051,8.62062999 5.48736587,9.50259605 C5.39010039,10.0581516 5.24852891,10.4461751 4.9743856,10.8785047 C5.15991693,11.0107304 5.26618206,11.1166494 5.42540672,11.3194877 C5.87642783,10.578747 6.04465212,9.89927312 6.1682243,8.32987193 L7.36240914,8.32987193 L7.36240914,10.4461751 C7.36240914,10.6756663 7.31810316,10.7109726 7.05295951,10.7109727 C6.8760817,10.7109727 6.63724472,10.6756663 6.3894081,10.6227068 C6.46902043,10.8341987 6.50432676,10.9840775 6.50432676,11.187262 C6.78746972,11.2135687 6.95569401,11.2222222 7.16787816,11.2222222 C7.70751126,11.2222222 7.87538941,11.0546902 7.87538941,10.5081343 L7.87538941,4.5285566 C7.87538941,4.08757356 7.88438907,3.84942887 7.91069574,3.637937 C7.69851159,3.67324333 7.52163378,3.68189685 7.22983732,3.68189685 L6.44271374,3.68189685 L6.44271374,3.68189685 Z M7.36240914,7.82692974 L6.19487712,7.82692974 C6.20387678,7.61543787 6.21253029,7.51817239 6.21253028,6.90100381 C6.22152993,6.75977847 6.22152993,6.53063345 6.23018345,6.24818277 L7.36240914,6.24818277 L7.36240914,7.82692974 L7.36240914,7.82692974 Z M7.36240914,5.74558672 L6.23018345,5.74558672 L6.2391831,5.46348218 L6.2391831,4.18449291 L7.36240914,4.18449291 L7.36240914,5.74558672 L7.36240914,5.74558672 Z M12.253721,7.73001039 C12.3333333,7.57113189 12.3599861,7.51817239 12.4395985,7.3859467 L12.1211492,7.02457599 C11.9529249,7.05088266 11.7670474,7.05988231 11.4399446,7.05988231 L9.09588093,7.05988231 C8.75977847,7.05988231 8.53894082,7.05088266 8.29110418,7.01557633 L8.29110418,7.58878505 C8.52994114,7.56247837 8.76877812,7.5448252 8.98996191,7.5448252 C9.29941155,8.22395293 9.34371753,8.30321911 9.54724818,8.63828314 C9.75943234,8.97334718 9.9453098,9.21149187 10.2371063,9.52024922 C9.53824853,10.1374178 8.94565593,10.4904811 8.03461405,10.8255452 C8.23814468,11.0107304 8.32641051,11.142956 8.41502249,11.3371409 C9.4143302,10.8608515 9.83904465,10.5874005 10.6175147,9.89927311 C11.2897196,10.5167878 11.9529249,10.913811 12.8906196,11.2928349 C12.9878851,11.0723434 13.0674974,10.9491173 13.2353756,10.7459329 C12.3333333,10.4638283 11.6787816,10.1024576 10.997577,9.52024922 C11.5062448,8.99196515 11.9299861,8.38805499 12.253721,7.73001039 L12.253721,7.73001039 Z M9.53824853,7.5448252 L11.7317411,7.5448252 C11.4046383,8.22395293 11.1481481,8.5943233 10.6175147,9.15853237 C10.1308411,8.66493597 9.90965732,8.32987193 9.53824853,7.5448252 L9.53824853,7.5448252 Z M8.52094149,6.83039114 C8.91034959,6.55694012 9.1401869,6.2834891 9.34371755,5.85150572 C9.56490136,5.38386985 9.67082036,4.86362064 9.67982001,4.14053306 L11.130495,4.14053306 L11.130495,5.88681204 C11.130495,6.3364486 11.325026,6.43336795 12.209415,6.43336795 C12.4749048,6.43336795 12.6694358,6.42471443 13.0321911,6.3894081 L13.0584977,5.84250606 C12.8549671,5.89546556 12.5631706,5.92211839 12.253721,5.92211839 C11.7937002,5.92211839 11.6611284,5.87781241 11.6611284,5.71928003 L11.6611284,4.45794393 C11.6611284,4.08757356 11.6697819,3.85842852 11.6964347,3.62028385 C11.4752509,3.64659052 11.28072,3.65559018 10.9446175,3.65559018 L9.82139147,3.65559018 C9.59120801,3.65559018 9.37037036,3.64659052 9.10488059,3.62028385 C9.13153341,3.81412254 9.14918657,3.97300106 9.14918657,4.16683974 C9.14918657,4.6874351 9.06957424,5.14607129 8.92800276,5.4721357 C8.7421253,5.90446522 8.49463482,6.17791624 8.02596053,6.43336795 C8.23814468,6.53928695 8.35306334,6.62755279 8.52094149,6.83039114 L8.52094149,6.83039114 Z" id="形状" fill="#595959"></path>
            </g>
        </g>
    </g>
</svg>