<?xml version="1.0" encoding="UTF-8"?>
<svg width="18px" height="18px" viewBox="0 0 18 18" version="1.1" xmlns="http://www.w3.org/2000/svg" xmlns:xlink="http://www.w3.org/1999/xlink">
    <title>jg-public-kapian-yinhangyejigou.svg</title>
    <g id="页面-1" stroke="none" stroke-width="1" fill="none" fill-rule="evenodd">
        <g id="金融风险防控--全省总览" transform="translate(-287.000000, -186.000000)" fill-rule="nonzero">
            <g id="jg-public-kapian-yinhangyejigou.svg" transform="translate(287.000000, 186.000000)">
                <rect id="矩形" fill="#000000" opacity="0" x="0" y="0" width="18" height="18"></rect>
                <path d="M15.705,9 L4.005,9 C3.15,9 2.475,8.325 2.475,7.56 L2.475,7.2 C2.475,6.93 2.655,6.75 2.925,6.75 C3.195,6.75 3.375,6.93 3.375,7.2 L3.375,7.56 C3.375,7.875 3.645,8.1 4.005,8.1 L15.705,8.1 C16.065,8.1 16.335,7.83 16.335,7.56 L16.335,1.98 C16.29,1.71 16.02,1.44 15.705,1.44 L4.005,1.44 C3.645,1.44 3.375,1.71 3.375,1.98 L3.375,2.565 C3.375,2.835 3.195,3.015 2.925,3.015 C2.655,3.015 2.475,2.835 2.475,2.565 L2.475,1.98 C2.475,1.215 3.15,0.54 4.005,0.54 L15.705,0.54 C16.56,0.54 17.235,1.17 17.235,1.98 L17.235,7.515 C17.19,8.37 16.515,9 15.705,9 Z M2.925,5.94 C2.655,5.94 2.475,5.76 2.475,5.49 L2.475,4.5 C2.475,4.23 2.655,4.05 2.925,4.05 C3.195,4.05 3.375,4.23 3.375,4.5 L3.375,5.49 C3.375,5.76 3.195,5.94 2.925,5.94 Z M4.275,3.24 L1.845,3.24 C1.575,3.24 1.395,3.06 1.395,2.79 C1.395,2.52 1.575,2.34 1.845,2.34 L4.23,2.34 C4.5,2.34 4.68,2.52 4.68,2.79 C4.68,3.06 4.5,3.24 4.275,3.24 Z M4.005,5.94 L1.35,5.94 C1.08,5.94 0.9,5.76 0.9,5.49 C0.9,5.22 1.08,5.04 1.35,5.04 L4.005,5.04 C4.275,5.04 4.455,5.22 4.455,5.49 C4.455,5.76 4.23,5.94 4.005,5.94 Z M1.17,4.14 L0.54,4.14 C0.27,4.14 0.09,3.96 0.09,3.69 C0.09,3.42 0.27,3.24 0.54,3.24 L1.17,3.24 C1.44,3.24 1.62,3.42 1.62,3.69 C1.62,3.96 1.44,4.14 1.17,4.14 Z M9.855,4.41 C9.72,4.41 9.63,4.365 9.54,4.275 L8.28,3.015 C8.1,2.835 8.1,2.565 8.28,2.385 C8.46,2.205 8.73,2.205 8.91,2.385 L9.855,3.33 L10.845,2.34 C11.025,2.16 11.295,2.16 11.475,2.34 C11.655,2.52 11.655,2.79 11.475,2.97 L10.17,4.32 C10.125,4.365 9.99,4.41 9.855,4.41 Z M11.385,4.59 L8.415,4.59 C8.145,4.59 7.965,4.41 7.965,4.14 C7.965,3.87 8.145,3.69 8.415,3.69 L11.385,3.69 C11.655,3.69 11.835,3.87 11.835,4.14 C11.835,4.41 11.655,4.59 11.385,4.59 Z M11.385,5.94 L8.415,5.94 C8.145,5.94 7.965,5.76 7.965,5.49 C7.965,5.22 8.145,5.04 8.415,5.04 L11.385,5.04 C11.655,5.04 11.835,5.22 11.835,5.49 C11.835,5.76 11.655,5.94 11.385,5.94 Z M9.9,7.245 C9.63,7.245 9.45,7.065 9.45,6.795 L9.45,4.14 C9.45,3.87 9.63,3.69 9.9,3.69 C10.17,3.69 10.35,3.87 10.35,4.14 L10.35,6.795 C10.35,7.065 10.17,7.245 9.9,7.245 Z M10.215,17.415 C9.81,17.415 9.495,17.325 9.495,17.325 L2.295,15.435 C2.115,15.39 1.98,15.21 1.98,14.985 L1.98,11.205 C1.98,10.935 2.16,10.755 2.43,10.755 L10.62,10.755 C12.24,10.755 12.42,11.655 12.42,12.015 C12.42,12.915 11.745,13.365 11.295,13.5 C11.25,13.5 11.205,13.5 11.205,13.5 L8.28,13.77 C8.01,13.77 7.83,13.59 7.785,13.365 C7.74,13.14 7.965,12.915 8.19,12.87 L11.07,12.69 C11.205,12.645 11.52,12.465 11.52,12.06 C11.52,11.835 11.205,11.7 10.62,11.7 L2.835,11.7 L2.835,14.67 L9.675,16.47 C9.675,16.47 10.575,16.695 11.16,16.245 C11.97,15.705 16.335,13.095 16.515,13.005 L16.515,13.005 C16.515,13.005 17.01,12.645 16.83,12.195 C16.785,12.015 16.695,12.015 16.695,12.015 C16.47,11.925 15.975,12.105 15.525,12.24 C15.255,12.33 14.94,12.465 14.58,12.6 C14.355,12.69 14.085,12.555 13.995,12.33 C13.905,12.105 14.04,11.835 14.265,11.745 C14.58,11.61 14.94,11.475 15.21,11.385 C15.84,11.16 16.515,10.935 17.055,11.205 C17.325,11.34 17.55,11.565 17.64,11.925 C17.955,12.825 17.325,13.5 16.92,13.77 C16.875,13.815 12.375,16.47 11.61,17.01 C11.205,17.37 10.62,17.415 10.215,17.415 Z" id="形状" fill="#595959"></path>
            </g>
        </g>
    </g>
</svg>