<?xml version="1.0" encoding="UTF-8"?>
<svg width="18px" height="18px" viewBox="0 0 18 18" version="1.1" xmlns="http://www.w3.org/2000/svg" xmlns:xlink="http://www.w3.org/1999/xlink">
    <!-- Generator: Sketch 63.1 (92452) - https://sketch.com -->
    <title>形状备份 7</title>
    <desc>Created with Sketch.</desc>
    <g id="----" stroke="none" stroke-width="1" fill="none" fill-rule="evenodd">
        <g id="0004监管评级-6评级核查-1区县-3核查机构列表-1评级核查" transform="translate(-592.000000, -441.000000)" fill="#B2B2B2" fill-rule="nonzero">
            <path d="M609.292497,446.496594 C608.839102,445.424726 608.190334,444.462291 607.363918,443.636082 C606.537502,442.809872 605.575068,442.160692 604.503406,441.707503 C603.393412,441.238033 602.21479,441 600.999897,441 C599.785004,441 598.606382,441.238033 597.496388,441.707503 C596.42452,442.160898 595.462085,442.809666 594.635875,443.636082 C593.809666,444.462498 593.160692,445.424726 592.707503,446.496388 C592.238033,447.606382 592,448.785004 592,449.999897 C592,451.21479 592.238033,452.393412 592.707503,453.503406 C593.160898,454.575274 593.809666,455.537709 594.636082,456.363918 C595.462498,457.190128 596.424932,457.839102 597.496594,458.292497 C598.606588,458.761967 599.78521,459 600.999897,459 C602.214584,459 603.393412,458.761967 604.503406,458.292497 C605.575274,457.839102 606.537709,457.190334 607.363918,456.363918 C608.190128,455.537502 608.839102,454.575068 609.292497,453.503406 C609.761967,452.393412 610,451.21479 610,449.999897 C610,448.785004 609.761967,447.606382 609.292497,446.496594 Z M600.999897,457.758521 C596.7217,457.758521 593.241273,454.278094 593.241273,449.999897 C593.241273,445.7217 596.7217,442.241273 600.999897,442.241273 C605.278094,442.241273 608.758521,445.7217 608.758521,449.999897 C608.758521,454.278094 605.278094,457.758521 600.999897,457.758521 Z M600.999897,445.189579 L600.999691,445.189579 C599.374063,445.189785 598.051591,446.512257 598.051591,448.137885 C598.051591,448.48061 598.329399,448.758624 598.67233,448.758624 C599.015262,448.758624 599.29307,448.480817 599.29307,448.137885 C599.29307,447.196677 600.05869,446.431058 600.999897,446.431058 C601.442782,446.431058 601.867737,446.61221 602.196861,446.941127 C602.525778,447.270045 602.707136,447.695206 602.70693,448.138091 C602.70693,448.543674 602.551127,448.932769 602.25642,449.263336 C602.12102,449.415223 601.922969,449.543822 601.713376,449.680047 C601.461124,449.844094 601.175072,450.02978 600.933124,450.29852 C600.47808,450.804055 600.279617,451.572767 600.388432,452.40722 C600.429237,452.719857 600.696122,452.947791 601.003194,452.947791 C601.029986,452.947791 601.056984,452.946142 601.084187,452.942433 C601.424028,452.898123 601.663709,452.586517 601.6194,452.246677 C601.572412,451.885609 601.609714,451.402331 601.855784,451.128851 C601.988299,450.981498 602.183259,450.854959 602.389554,450.720796 C602.645928,450.554276 602.936513,450.365292 603.182583,450.089339 C603.676166,449.535991 603.947997,448.842915 603.947997,448.137885 C603.947997,447.363403 603.637833,446.626636 603.074181,446.063189 C602.51094,445.499742 601.774379,445.189579 600.999897,445.189579 Z M600.068788,454.65503 C600.068788,454.987684 600.246256,455.295068 600.534342,455.461394 C600.822429,455.627721 601.177365,455.627721 601.465452,455.461394 C601.753538,455.295068 601.931006,454.987684 601.931006,454.65503 C601.931006,454.140793 601.514134,453.723921 600.999897,453.723921 C600.48566,453.723921 600.068788,454.140793 600.068788,454.65503 L600.068788,454.65503 Z" id="形状备份-7"></path>
        </g>
    </g>
</svg>