<?xml version="1.0" encoding="UTF-8"?>
<svg width="18px" height="18px" viewBox="0 0 18 18" version="1.1" xmlns="http://www.w3.org/2000/svg" xmlns:xlink="http://www.w3.org/1999/xlink">
    <title>jg-public-kapian-qiyeshuliang.svg</title>
    <g id="页面-1" stroke="none" stroke-width="1" fill="none" fill-rule="evenodd">
        <g id="金融风险防控--全省总览" transform="translate(-834.000000, -542.000000)" fill-rule="nonzero">
            <g id="jg-public-kapian-qiyeshuliang.svg" transform="translate(834.000000, 542.000000)">
                <rect id="矩形" fill="#000000" opacity="0" x="0" y="0" width="18" height="18"></rect>
                <g id="编组-2" transform="translate(0.000000, 1.000000)" fill="#595959">
                    <path d="M9.000989,9.47546881 C8.91527561,9.47546881 8.83057771,9.45578651 8.75272138,9.41775277 L0.345252026,5.30941943 C0.134814127,5.20661801 0,4.983297 0,4.73750585 C0,4.4917147 0.134814127,4.26839369 0.345252026,4.16559227 L8.75272138,0.0572589349 C8.90972075,-0.0190863116 9.09027903,-0.0190863116 9.24727841,0.0572589349 L17.6547478,4.16559227 C17.8651857,4.26839369 18,4.4917147 18,4.73750585 C18,4.983297 17.8651857,5.20661801 17.6547478,5.30941943 L9.24727841,9.41775277 C9.17002825,9.45549165 9.0860351,9.4751748 9.000989,9.47546881 L9.000989,9.47546881 Z M2.01190919,4.73750586 L9.000989,8.15219721 L15.9900688,4.73750586 L9.000989,1.32281449 L2.01190919,4.73750586 Z M17.1117242,11.7127528 L9.000989,15.6762713 L0.890253864,11.7127528 L0.890253864,13.0989873 L8.75272138,16.9418268 C8.90972075,17.0181721 9.09027903,17.0181721 9.24727841,16.9418268 L17.1117242,13.0989873 L17.1117242,11.7127528 Z" id="形状"></path>
                    <path d="M17.1117242,7.9465182 L9.000989,11.9110861 L0.890253864,7.9465182 L0.890253864,9.33904906 L8.75272138,13.1808392 C8.90972075,13.2571844 9.09027903,13.2571844 9.24727841,13.1808392 L17.1117242,9.33904906 L17.1117242,7.9465182 Z" id="路径"></path>
                </g>
            </g>
        </g>
    </g>
</svg>