<?xml version="1.0" encoding="UTF-8"?>
<svg width="18px" height="18px" viewBox="0 0 18 18" version="1.1" xmlns="http://www.w3.org/2000/svg" xmlns:xlink="http://www.w3.org/1999/xlink">
    <title>jg-public-kapian-zhaiquanshichang.svg</title>
    <g id="页面-1" stroke="none" stroke-width="1" fill="none" fill-rule="evenodd">
        <g id="金融机构和金融市场风险-资本市场" transform="translate(-287.000000, -542.000000)" fill-rule="nonzero">
            <g id="jg-public-kapian-zhaiquanshichang.svg" transform="translate(287.000000, 542.000000)">
                <rect id="矩形" fill="#000000" opacity="0" x="0" y="0" width="18" height="18"></rect>
                <path d="M17.325,10.45 L18,10.45 L18,15.175 C18,16.2933755 17.0933755,17.2 15.975,17.2 L2.025,17.2 C0.906624473,17.2 0,16.2933755 0,15.175 L0,10.225 L0.675,10.225 C1.29630802,10.225 1.8,9.72132911 1.8,9.1 C1.8,8.47869198 1.29632911,7.975 0.675,7.975 L0,7.975 L0,3.025 C0,1.90662447 0.906624473,1 2.025,1 L15.975,1 C17.0933755,1 18,1.90662447 18,3.025 L18,8.2 L17.325,8.2 C16.703692,8.2 16.2,8.70367089 16.2,9.325 C16.2,9.94630802 16.7036709,10.45 17.325,10.45 Z M14.85,9.325 C14.85,8.19208861 15.6111814,7.23698312 16.65,6.94316456 L16.65,3.025 C16.65,2.65221519 16.3477848,2.35 15.975,2.35 L2.025,2.35 C1.65221519,2.35 1.35,2.65221519 1.35,3.025 L1.35,6.71816456 C2.38881857,7.01198312 3.15,7.9671097 3.15,9.1 C3.15,10.2329114 2.38881857,11.1880169 1.35,11.4818354 L1.35,15.175 C1.35,15.5477848 1.65221519,15.85 2.025,15.85 L15.975,15.85 C16.3477848,15.85 16.65,15.5477848 16.65,15.175 L16.65,11.7068354 C15.6111814,11.4130169 14.85,10.4578903 14.85,9.325 Z M8.775,11.4045992 L7.425,10.0545992 L5.87729958,11.6022785 L4.92270042,10.6477004 L7.425,8.14540084 L8.775,9.49540084 L10.0704008,8.2 L9.45,8.2 L9.45,6.85 L13.3295992,6.85 L8.775,11.4045992 Z" id="形状" fill="#595959"></path>
            </g>
        </g>
    </g>
</svg>