<?xml version="1.0" encoding="UTF-8"?>
<svg width="18px" height="18px" viewBox="0 0 18 18" version="1.1" xmlns="http://www.w3.org/2000/svg" xmlns:xlink="http://www.w3.org/1999/xlink">
    <title>jg-public-kapian-faren.svg</title>
    <g id="页面-1" stroke="none" stroke-width="1" fill="none" fill-rule="evenodd">
        <g id="金融发展-全省总览" transform="translate(-286.000000, -898.000000)" fill-rule="nonzero">
            <g id="jg-public-kapian-faren.svg" transform="translate(286.000000, 898.000000)">
                <rect id="矩形" fill="#000000" opacity="0" x="0" y="0" width="18" height="18"></rect>
                <path d="M11.2300699,8.89090909 C12.6965035,8.08531469 13.6951049,6.52447552 13.6951049,4.73706294 C13.6951049,2.12517483 11.5699301,0 8.95804196,0 C6.34615385,0 4.22307692,2.12517483 4.22307692,4.73706294 C4.22307692,6.52657343 5.21958042,8.08531469 6.68811189,8.89090909 C2.84475524,9.8979021 0,13.4013986 0,17.5552448 L0,18 L0.887412587,18 L0.887412587,17.5552448 C0.887412587,13.2839161 4.22307692,9.77622378 8.42727273,9.5034965 L7.13286713,15.020979 C7.0993007,15.1636364 7.13076923,15.3125874 7.22307692,15.427972 L7.38461538,15.6104895 L7.44545455,15.6104895 L8.95804196,16.8062937 L10.5398601,15.5538462 C10.5965035,15.5244755 10.6447552,15.4825175 10.6867133,15.4321678 L10.8272727,15.2391608 L9.61258741,9.51188811 C13.7559441,9.84545455 17.0265734,13.3258741 17.0265734,17.5552448 L17.0265734,18 L17.9160839,18 L17.9160839,17.5552448 C17.9160839,13.4013986 15.0713287,9.8979021 11.2300699,8.89090909 Z M5.11048951,4.73706294 C5.11048951,2.61608392 6.83706294,0.88951049 8.95804196,0.88951049 C11.079021,0.88951049 12.8055944,2.61608392 12.8055944,4.73706294 C12.8055944,6.77832168 11.2090909,8.45244755 9.1993007,8.57622378 L9.02937063,8.57412587 L8.89090909,8.58251748 C6.7993007,8.54685315 5.11048951,6.83496503 5.11048951,4.73706294 Z M8.95804196,15.6755245 L8.06013986,14.9643357 L9.00629371,10.9321678 L9.86013986,14.9601399 L8.95804196,15.6755245 L8.95804196,15.6755245 Z" id="形状" fill="#595959"></path>
            </g>
        </g>
    </g>
</svg>