<?xml version="1.0" encoding="UTF-8"?>
<svg width="18px" height="18px" viewBox="0 0 18 18" version="1.1" xmlns="http://www.w3.org/2000/svg" xmlns:xlink="http://www.w3.org/1999/xlink">
    <title>jg-public-kapian-difangjinrong.svg</title>
    <g id="页面-1" stroke="none" stroke-width="1" fill="none" fill-rule="evenodd">
        <g id="地方金融" transform="translate(-286.000000, -184.000000)" fill-rule="nonzero">
            <g id="jg-public-kapian-difangjinrong.svg" transform="translate(286.000000, 184.000000)">
                <rect id="矩形" fill="#000000" opacity="0" x="0" y="0" width="18" height="18"></rect>
                <path d="M11.8405861,8.62240519 L5.79512754,8.62240519 C5.46860376,8.62240519 5.20390393,8.35770536 5.20390393,8.03118158 C5.20390393,7.70465779 5.46860376,7.43995796 5.79512754,7.43995796 L11.8405861,7.43995796 C12.1671099,7.43995796 12.4318097,7.70465779 12.4318097,8.03118158 C12.4318097,8.35770536 12.1671099,8.62240519 11.8405861,8.62240519 Z M11.8405861,11.318779 L5.79512754,11.318779 C5.46860376,11.318779 5.20390393,11.0540792 5.20390393,10.7275554 C5.20390393,10.4010316 5.46860376,10.1363318 5.79512754,10.1363318 L11.8405861,10.1363318 C12.1671099,10.1363318 12.4318097,10.4010316 12.4318097,10.7275554 C12.4318097,11.0540792 12.1671099,11.318779 11.8405861,11.318779 Z" id="形状" fill="#595959"></path>
                <path d="M8.96999836,14.3687046 C8.81319611,14.3687046 8.66281607,14.3064151 8.55194013,14.1955392 C8.44106419,14.0846632 8.37877474,13.9342832 8.37877474,13.777481 L8.37877474,8.03118157 C8.37877474,7.70465778 8.64347456,7.43995796 8.96999835,7.43995796 C9.29652214,7.43995796 9.56122196,7.70465778 9.56122196,8.03118157 L9.56122196,13.777481 C9.56122196,14.1040047 9.29652214,14.3687046 8.96999836,14.3687046 L8.96999836,14.3687046 Z" id="路径" fill="#595959"></path>
                <path d="M8.75124562,8.27437251 C8.59441619,8.27444261 8.44398414,8.21219975 8.33305345,8.1013401 L5.42068594,5.18739599 C5.26699366,5.03895479 5.2053552,4.81913593 5.25946131,4.61242687 C5.31356743,4.40571782 5.47499796,4.24428729 5.68170701,4.19018117 C5.88841606,4.13607506 6.10823493,4.19771352 6.25667613,4.3514058 L9.17062024,7.26534991 C9.33969301,7.43463243 9.39007389,7.68912705 9.2982495,7.91005793 C9.2064251,8.13098881 8.9904986,8.27479942 8.75124562,8.27437251 L8.75124562,8.27437251 Z" id="路径" fill="#595959"></path>
                <path d="M9.18756865,8.31654556 C8.94835777,8.31665394 8.73265298,8.17260566 8.64109627,7.95160968 C8.54953955,7.73061369 8.6001746,7.47622314 8.76937648,7.30712972 L11.6833206,4.39318559 C11.8317618,4.23949347 12.0515806,4.17785512 12.2582896,4.23196126 C12.4649985,4.2860674 12.626429,4.44749786 12.6805351,4.65420682 C12.7346413,4.86091578 12.6730029,5.08073457 12.5193108,5.2291758 L9.60536667,8.14311991 C9.49459709,8.25402754 9.34431807,8.31640751 9.18756865,8.31654556 L9.18756865,8.31654556 Z" id="路径" fill="#595959"></path>
                <path d="M0.824513555,7.9488047 C0.636020361,7.94898512 0.45732834,7.86484096 0.337394859,7.71942543 C0.217461378,7.5740099 0.168861783,7.3825702 0.204911209,7.19755627 C1.01567586,3.0270649 4.69151014,0 8.94832015,0 C13.1765007,0.000249047655 16.8223194,2.97193459 17.6751748,7.11320838 C17.7450509,7.45442573 17.5250854,7.78768282 17.183868,7.85755891 C16.8426507,7.92743499 16.5093936,7.70746943 16.4395175,7.36625208 C15.7068482,3.81185395 12.5774454,1.26153723 8.94832015,1.26127705 C5.29534652,1.26127705 2.13900071,3.8591136 1.4425393,7.4387755 C1.38489224,7.73463609 1.1259376,7.94833973 0.824513555,7.9488047 Z" id="路径" fill="#595959"></path>
                <path d="M0.840279516,7.98861348 C0.54189791,7.98724492 0.285311738,7.77694503 0.225383549,7.48464028 C0.165455359,7.19233553 0.31858861,6.89803515 0.59235975,6.7793641 L2.66873708,5.88464571 C2.87579698,5.79524948 3.11483216,5.82321049 3.29567029,5.95798089 C3.47650842,6.09275129 3.57162853,6.31382096 3.54514804,6.53779478 C3.51866755,6.76176861 3.37461641,6.95456099 3.16733567,7.04344398 L1.08938173,7.9373741 C1.01068885,7.97119296 0.925931626,7.98861348 0.840279516,7.98861348 L0.840279516,7.98861348 Z M9.05079892,18 C4.82261835,17.999751 1.17679967,15.0280654 0.323944225,10.8867916 C0.278742321,10.6660627 0.35473152,10.4379858 0.523287427,10.2884754 C0.691843333,10.1389649 0.927358295,10.0907351 1.1411161,10.1619535 C1.35487391,10.233172 1.51439968,10.413019 1.55960158,10.6337479 C2.29227086,14.1881461 5.42167364,16.7384628 9.05079892,16.7387229 C12.7037725,16.7387229 15.8601184,14.1408864 16.5561856,10.5612245 C16.5974941,10.3383889 16.7551955,10.1548543 16.9692726,10.0804694 C17.1833497,10.0060846 17.4208782,10.0522896 17.5914606,10.2014999 C17.7620431,10.3507103 17.8394445,10.5799781 17.7942079,10.8020496 C16.9834432,14.9729351 13.3060323,18 9.05079892,18 L9.05079892,18 Z" id="形状" fill="#595959"></path>
                <path d="M15.0816739,12.1665939 C14.7822829,12.166829 14.5239917,11.9565301 14.4635324,11.6633071 C14.403073,11.3700841 14.5571118,11.0747673 14.8321776,10.956556 L16.9101315,10.0626259 C17.1177421,9.96975948 17.3592734,9.99587466 17.5422359,10.1309712 C17.7251984,10.2660677 17.8212449,10.4892144 17.7935963,10.7149618 C17.7659477,10.9407092 17.6188878,11.1340812 17.4087301,11.22103 L15.3307762,12.1149602 C15.2521117,12.1489143 15.1673534,12.1664829 15.0816739,12.1665939 L15.0816739,12.1665939 Z" id="路径" fill="#595959"></path>
            </g>
        </g>
    </g>
</svg>