<?xml version="1.0" encoding="UTF-8"?>
<svg width="19px" height="18px" viewBox="0 0 19 18" version="1.1" xmlns="http://www.w3.org/2000/svg" xmlns:xlink="http://www.w3.org/1999/xlink">
    <title>形状结合</title>
    <g id="页面-1" stroke="none" stroke-width="1" fill="none" fill-rule="evenodd">
        <g id="首页-监管二处-担保" transform="translate(-1354.000000, -26.000000)" fill="#160A0A">
            <path d="M1363.50017,26 C1366.02435,26 1368.4103,26.8461374 1370.21779,28.3831705 C1372.0122,29.9083157 1373,31.9072279 1373,34.0120821 C1373,37.276704 1370.63117,40.151823 1366.96484,41.3388629 C1366.62394,41.4479517 1365.68211,41.8930479 1365.17144,42.3199627 C1364.4883,42.8916299 1364.11318,43.3821798 1363.80919,43.8279754 C1363.73437,43.9367145 1363.62163,44 1363.4995,44 C1363.41494,44 1363.33475,43.969581 1363.26832,43.9122395 C1363.09586,43.7678367 1363.06163,43.4954643 1363.19182,43.3042093 C1363.51359,42.8325402 1363.94541,42.2643694 1364.70673,41.6276685 C1365.3033,41.1283775 1366.33807,40.6402751 1366.74977,40.5070609 C1370.07553,39.430858 1372.22459,36.8812572 1372.22459,34.0117325 C1372.22459,32.1337969 1371.31464,30.3495659 1369.66249,28.9877042 C1368.00263,27.6188497 1365.81398,26.8657174 1363.5005,26.8657174 C1361.1867,26.8657174 1358.99838,27.6188497 1357.33851,28.9877042 C1355.68603,30.3495659 1354.77641,32.1337969 1354.77641,34.0117325 C1354.77641,36.8812572 1356.92514,39.430858 1360.25124,40.5070609 C1360.52805,40.5955207 1361.36989,40.8643966 1362.11745,41.9804588 C1362.24663,42.1724131 1362.21006,42.4447855 1362.03659,42.58744 C1361.96948,42.6430334 1361.8903,42.6720538 1361.80675,42.6720538 C1361.68294,42.6720538 1361.56886,42.6087683 1361.49505,42.4979313 C1360.90351,41.6150813 1360.26433,41.4112391 1360.05496,41.3437579 C1356.37655,40.1546202 1354,37.276704 1354,34.0120821 C1354,31.9072279 1354.98813,29.9083157 1356.78221,28.3831705 C1358.5897,26.8461374 1360.97565,26 1363.50017,26 Z M1363.56239,33.56997 C1364.09078,33.56997 1364.51883,34.0037087 1364.51883,34.5387286 C1364.51883,35.0741249 1364.09078,35.5078637 1363.56239,35.5078637 C1363.03438,35.5078637 1362.60632,35.0741249 1362.60632,34.5387286 C1362.60632,34.0037087 1363.03438,33.56997 1363.56239,33.56997 Z M1367.38761,33.56997 C1367.91589,33.56997 1368.34386,34.0037087 1368.34386,34.5387286 C1368.34386,35.0741249 1367.91589,35.5078637 1367.38761,35.5078637 C1366.8597,35.5078637 1366.43135,35.0741249 1366.43135,34.5387286 C1366.43135,34.0037087 1366.8597,33.56997 1367.38761,33.56997 Z M1358.78147,33.56997 C1359.30949,33.56997 1359.73755,34.0037087 1359.73755,34.5387286 C1359.73755,35.0741249 1359.30949,35.5078637 1358.78147,35.5078637 C1358.25309,35.5078637 1357.82503,35.0741249 1357.82503,34.5387286 C1357.82503,34.0037087 1358.25309,33.56997 1358.78147,33.56997 Z" id="形状结合"></path>
        </g>
    </g>
</svg>