<?xml version="1.0" encoding="UTF-8"?>
<svg width="18px" height="18px" viewBox="0 0 18 18" version="1.1" xmlns="http://www.w3.org/2000/svg" xmlns:xlink="http://www.w3.org/1999/xlink">
    <title>jg-public-kapian-feifajizianjian.svg</title>
    <g id="页面-1" stroke="none" stroke-width="1" fill="none" fill-rule="evenodd">
        <g id="金融风险防控--全省总览" transform="translate(-1381.000000, -186.000000)" fill-rule="nonzero">
            <g id="jg-public-kapian-feifajizianjian.svg" transform="translate(1381.000000, 186.000000)">
                <rect id="矩形" fill="#000000" opacity="0" x="0" y="0" width="17.8630379" height="18"></rect>
                <path d="M14.0603527,8.83184173 L18,11.1238813 L18,15.7079604 L14.0603527,18 L10.1207053,15.7079604 L10.1207053,11.1238813 L14.0603527,8.83184173 Z M3.94011479,8.83184173 L7.87976212,11.1238813 L7.87976212,15.7079604 L3.93964733,18 L0,15.7079604 L0,11.1238813 L3.93964733,8.83184173 L3.94011479,8.83184173 Z M14.0603527,10.4634951 L11.5225803,11.939708 L11.5225803,14.8916628 L14.0603527,16.3678756 L16.5976576,14.8916628 L16.5976576,11.939708 L14.0603527,10.4634951 Z M3.93964733,10.4634951 L1.40234243,11.939708 L1.40234243,14.8916628 L3.93964733,16.3678756 L6.47695225,14.8916628 L6.47695225,11.939708 L3.93964733,10.4634951 L3.93964733,10.4634951 Z M9.00023372,0 L12.939881,2.29203957 L12.939881,6.8761187 L9.00023372,9.16815827 L5.06058639,6.8761187 L5.06058639,2.29203957 L9.00023372,0 Z M8.99976628,1.63165333 L6.46246136,3.10786624 L6.46246136,6.05982102 L8.99976628,7.53603391 L11.5370712,6.05982102 L11.5370712,3.10786624 L8.99976628,1.63165333 Z" id="形状" fill="#595959"></path>
            </g>
        </g>
    </g>
</svg>