<?xml version="1.0" encoding="UTF-8"?>
<svg width="18px" height="18px" viewBox="0 0 18 18" version="1.1" xmlns="http://www.w3.org/2000/svg" xmlns:xlink="http://www.w3.org/1999/xlink">
    <title>形状</title>
    <g id="页面-1" stroke="none" stroke-width="1" fill="none" fill-rule="evenodd">
        <g id="工作台-典当" transform="translate(-1070.000000, -840.000000)" fill="#595959" fill-rule="nonzero">
            <path d="M1082.19739,858 C1082.17328,858 1082.12924,857.992973 1082.10513,857.946162 L1082.09881,857.935001 L1079.59225,853.763095 L1078.40761,853.763095 L1075.89784,857.940581 L1075.89484,857.946265 C1075.87565,857.983363 1075.82765,858 1075.78853,858 C1075.75778,858 1075.73153,857.99039 1075.71802,857.974269 C1075.26956,857.441982 1074.42011,856.493869 1073.53091,855.572829 L1073.48579,855.526121 L1073.42107,855.512067 C1072.42867,855.296714 1071.45535,855.116908 1070.74467,854.985567 C1070.49381,854.939169 1070.27563,854.898868 1070.10086,854.86518 L1070.08918,854.863217 C1070.07728,854.86146 1070.04095,854.856603 1070.01684,854.812272 C1069.99536,854.770778 1069.99438,854.722168 1070.01416,854.679898 L1072.74747,850.067054 L1072.69357,849.967024 C1072.28101,849.202023 1072.04783,848.37285 1071.98053,847.432487 L1071.97957,847.41926 L1071.97689,847.406239 C1071.94763,847.264771 1071.94763,847.151514 1071.94763,846.994649 C1071.94763,845.462374 1072.48697,844.011011 1073.50723,842.797632 C1074.87993,841.0437 1076.9316,840 1078.99998,840 C1080.804,840 1082.6076,840.748054 1083.94848,842.052265 C1085.27971,843.347073 1086.03433,845.077238 1086.0189,846.799137 L1086.0189,846.994649 C1086.0189,847.892541 1085.77308,848.857912 1085.26739,849.945633 L1085.22206,850.04308 L1086.04858,851.394516 C1086.16013,851.588272 1086.08566,851.857258 1085.87991,851.989529 C1085.80645,852.031334 1085.72282,852.053652 1085.63752,852.054217 C1085.47699,852.054217 1085.33394,851.972168 1085.24489,851.829047 L1084.68659,850.886823 L1084.49006,851.130388 C1083.54417,852.303259 1082.22922,853.148862 1080.78761,853.51147 L1080.51296,853.580603 L1082.34409,856.574885 L1082.53966,856.370485 C1082.54748,856.362218 1083.32224,855.552162 1084.07203,854.706145 C1084.84633,854.547244 1085.62358,854.401997 1086.40338,854.270478 L1086.688,854.223356 L1086.55887,853.974315 C1086.47207,853.807116 1086.5129,853.643328 1086.66464,853.542265 C1086.74222,853.513227 1086.80212,853.473546 1086.84713,853.443682 C1086.86513,853.431798 1086.88142,853.420017 1086.89835,853.411957 L1086.90885,853.40648 C1086.95065,853.383436 1086.9979,853.371346 1087.0458,853.371346 C1087.16132,853.371346 1087.25648,853.440891 1087.30673,853.562209 L1087.31284,853.576779 L1087.98623,854.680828 C1088.00563,854.721956 1088.00445,854.773004 1087.98323,854.812272 C1087.95912,854.856603 1087.92279,854.861563 1087.91079,854.863217 L1087.89911,854.86518 C1087.72808,854.898145 1087.51773,854.937412 1087.27641,854.982571 C1086.57077,855.114428 1085.6043,855.294957 1084.57997,855.511861 L1084.51021,855.526638 L1084.46359,855.578823 C1083.60943,856.534273 1082.75526,857.48435 1082.29255,857.962385 C1082.26898,857.98481 1082.2334,858 1082.19739,858 L1082.19739,858 Z M1073.89407,854.738283 C1074.61386,855.555262 1075.41884,856.394459 1075.42709,856.402932 L1075.62072,856.604646 L1077.48668,853.618527 L1077.21654,853.544848 C1075.73421,853.140905 1074.44005,852.316072 1073.47411,851.159839 L1073.2793,850.926711 L1071.25774,854.252084 L1071.56315,854.302616 C1071.57461,854.304476 1072.7,854.491205 1073.89407,854.738283 Z M1078.93301,840.878361 C1075.7012,840.878361 1072.75797,843.824385 1072.75797,847.059235 C1072.75797,850.217099 1075.58579,852.884837 1078.93301,852.884837 C1082.33788,852.884837 1085.10805,850.170081 1085.10805,846.833134 C1085.10805,843.660907 1082.22247,840.878361 1078.93301,840.878361 Z M1076.92378,850.540336 C1076.79476,850.540336 1076.64999,850.493214 1076.48142,850.396284 C1076.24117,850.220509 1076.13562,849.965164 1076.19167,849.695145 L1076.53693,847.830746 L1075.12329,846.500804 C1074.9259,846.310458 1074.85882,846.029279 1074.94916,845.767837 C1075.03724,845.513009 1075.27567,845.315946 1075.5291,845.288872 L1077.49729,845.022573 L1078.35949,843.326406 C1078.47222,843.081911 1078.72994,842.932177 1079.03352,842.932177 C1079.32585,842.932177 1079.55967,843.070131 1079.71002,843.331159 L1080.56965,845.022573 L1082.53473,845.288562 C1082.80659,845.314809 1083.02295,845.493892 1083.11767,845.76794 C1083.20801,846.029279 1083.14093,846.310458 1082.94258,846.501837 L1081.53001,847.830746 L1081.87484,849.692975 C1081.93153,849.966714 1081.82437,850.223506 1081.58123,850.399488 C1081.45832,850.488254 1081.31622,850.533412 1081.15892,850.533412 C1081.03633,850.533412 1080.91052,850.506131 1080.78493,850.452293 L1078.99955,849.558224 L1077.23722,850.457873 L1077.23272,850.460767 C1077.15406,850.511298 1077.04154,850.540336 1076.92378,850.540336 Z M1081.01864,849.73369 L1080.62237,847.579225 L1082.24379,846.050359 L1080.00899,845.737559 L1078.99998,843.756906 L1077.99108,845.737559 L1075.75628,846.050359 L1077.3776,847.579225 L1076.98121,849.73369 L1078.99998,848.725538 L1081.01864,849.73369 Z" id="形状"></path>
        </g>
    </g>
</svg>