<?xml version="1.0" encoding="UTF-8"?>
<svg width="18px" height="18px" viewBox="0 0 18 18" version="1.1" xmlns="http://www.w3.org/2000/svg" xmlns:xlink="http://www.w3.org/1999/xlink">
    <title>jg-public-kapian-zibenshichang.svg</title>
    <g id="页面-1" stroke="none" stroke-width="1" fill="none" fill-rule="evenodd">
        <g id="证券期货基金" transform="translate(-287.000000, -186.000000)" fill-rule="nonzero">
            <g id="jg-public-kapian-zibenshichang.svg" transform="translate(287.000000, 186.000000)">
                <rect id="矩形" fill="#000000" opacity="0" x="0" y="0" width="18" height="18"></rect>
                <path d="M6.1875,1.03125 C9.396,1.03125 12.034125,2.51175 12.344625,4.40625 C12.416625,4.834875 11.38725,5.253375 11.097,4.40625 C10.7865,2.99775 8.7075,2.28 6.1875,2.28 C3.45375,2.28 1.2375,3.12375 1.2375,4.77975 C1.2375,5.286 1.443375,5.71575 1.809,6.069 C2.0475,6.263625 2.22975,6.39975 2.354625,6.47625 C2.475,6.5505 2.66175,6.641625 2.912625,6.7485 C3.785625,7.10175 4.932,7.280625 6.1875,7.280625 C6.780375,7.280625 7.349625,7.240125 7.87725,7.161375 C8.199,7.23225 8.346375,7.438125 8.371125,7.662 C9.387,7.042125 10.80675,6.65625 12.375,6.65625 C15.481125,6.65625 18,8.167125 18,10.03125 C18,10.646625 17.7255,11.222625 17.24625,11.71875 C17.7255,12.21375 18,12.790875 18,13.40625 C18,15.270375 15.481125,16.78125 12.375,16.78125 C9.268875,16.78125 6.75,15.270375 6.75,13.40625 C6.75,12.792 7.023375,12.216 7.5015,11.71875 C7.0245,11.22375 6.75,10.64775 6.75,10.03125 C6.75,9.463125 6.984,8.92875 7.39575,8.459625 C6.99480998,8.50785202 6.59133,8.53189552 6.1875,8.531625 C4.4775,8.531625 2.928375,8.110875 1.807875,7.43025 C1.443375,7.7835 1.2375,8.21325 1.2375,8.718375 C1.2375,10.3755 3.45375,11.21925 6.1875,11.21925 C6.37875,11.21925 6.566625,11.21475 6.751125,11.206875 C7.35525,11.350875 7.25175,12.3825 6.751125,12.453375 C6.56342859,12.4637592 6.37548341,12.4690112 6.1875,12.469125 C4.597875,12.469125 3.14775,12.10575 2.050875,11.50725 C1.57725,11.955 1.2375,12.511875 1.2375,13.031625 C1.2375,14.687625 3.45375,15.531375 6.1875,15.531375 L6.55875,15.531375 C6.86475,15.528 7.02,15.519 7.3395,15.481875 C7.941375,15.7305 7.659,16.575375 7.3395,16.638375 C6.802875,16.730625 6.7725,16.78125 6.1875,16.78125 C2.76975,16.78125 0,15.10275 0,13.031625 C0,12.35325 0.35775,11.260875 1.119375,10.867125 C0.414,10.26075 0,9.519375 0,8.718375 C0,7.996125 0.3375,7.32225 0.921375,6.749625 C0.336375,6.178125 0,5.503125 0,4.780875 C0,2.710875 2.76975,1.03125 6.1875,1.03125 Z M16.45875,12.352125 L16.444125,12.361125 C15.420375,13.00575 13.975875,13.40625 12.375,13.40625 C10.767375,13.40625 9.31725,13.00125 8.29125,12.35325 C8.024625,12.649125 7.875,13.000125 7.875,13.40625 C7.875,14.896875 9.88875,15.65625 12.375,15.65625 C14.86125,15.65625 16.875,14.896875 16.875,13.40625 C16.875,13.00125 16.725375,12.649125 16.45875,12.352125 Z M12.375,7.78125 C9.88875,7.78125 7.875,8.540625 7.875,10.03125 C7.875,10.77825 8.38125,11.341875 9.198,11.717625 L9.203625,11.717625 C10.0125,12.09225 11.13525,12.28125 12.375,12.28125 C13.61475,12.28125 14.7375,12.09225 15.54975,11.71875 L15.546375,11.717625 C16.369875,11.341875 16.875,10.77825 16.875,10.03125 C16.875,8.540625 14.86125,7.78125 12.375,7.78125 L12.375,7.78125 Z" id="形状" fill="#595959"></path>
            </g>
        </g>
    </g>
</svg>