<?xml version="1.0" encoding="UTF-8"?>
<svg width="18px" height="18px" viewBox="0 0 18 18" version="1.1" xmlns="http://www.w3.org/2000/svg" xmlns:xlink="http://www.w3.org/1999/xlink">
    <title>jg-public-kapian-diandangfenleigoucheng.svg</title>
    <g id="页面-1" stroke="none" stroke-width="1" fill="none" fill-rule="evenodd">
        <g id="典当" transform="translate(-287.000000, -754.000000)" fill="#595959" fill-rule="nonzero">
            <path d="M294.117117,754 L288.531532,754 C287.684685,754 287,754.684 287,755.53 L287,761.11 C287,761.956 287.684685,762.64 288.531532,762.64 L294.117117,762.64 C294.963964,762.64 295.648649,761.956 295.648649,761.11 L295.648649,755.53 C295.648649,754.684 294.963964,754 294.117117,754 Z M294.477477,761.11 C294.477477,761.308 294.315315,761.47 294.117117,761.47 L288.531532,761.47 C288.333333,761.47 288.171171,761.308 288.171171,761.11 L288.171171,755.53 C288.171171,755.332 288.333333,755.17 288.531532,755.17 L294.117117,755.17 C294.315315,755.17 294.477477,755.332 294.477477,755.53 L294.477477,761.11 Z M294.117117,763.36 L288.531532,763.36 C287.684685,763.36 287,764.044 287,764.89 L287,770.47 C287,771.316 287.684685,772 288.531532,772 L294.117117,772 C294.963964,772 295.648649,771.316 295.648649,770.47 L295.648649,764.89 C295.648649,764.044 294.963964,763.36 294.117117,763.36 Z M294.477477,770.47 C294.477477,770.668 294.315315,770.83 294.117117,770.83 L288.531532,770.83 C288.333333,770.83 288.171171,770.668 288.171171,770.47 L288.171171,764.89 C288.171171,764.692 288.333333,764.53 288.531532,764.53 L294.117117,764.53 C294.315315,764.53 294.477477,764.692 294.477477,764.89 L294.477477,770.47 Z M297.882883,763.36 C297.036036,763.36 296.351351,764.044 296.351351,764.89 L296.351351,770.47 C296.351351,771.316 297.036036,772 297.882883,772 L303.468468,772 C304.315315,772 305,771.316 305,770.47 L305,764.89 C305,764.044 304.315315,763.36 303.468468,763.36 L297.882883,763.36 Z M303.468468,770.83 L297.882883,770.83 C297.684685,770.83 297.522523,770.668 297.522523,770.47 L297.522523,764.89 C297.522523,764.692 297.684685,764.53 297.882883,764.53 L303.468468,764.53 C303.666667,764.53 303.828829,764.692 303.828829,764.89 L303.828829,770.47 C303.828829,770.668 303.666667,770.83 303.468468,770.83 Z M303.243243,756.34 L298.108108,756.34 C297.783784,756.34 297.522523,756.079 297.522523,755.755 C297.522523,755.431 297.783784,755.17 298.108108,755.17 L303.243243,755.17 C303.567568,755.17 303.828829,755.431 303.828829,755.755 C303.828829,756.079 303.567568,756.34 303.243243,756.34 Z M298.108108,761.47 C297.783784,761.47 297.522523,761.209 297.522523,760.885 C297.522523,760.561 297.783784,760.3 298.108108,760.3 L303.243243,760.3 C303.567568,760.3 303.828829,760.561 303.828829,760.885 C303.828829,761.209 303.567568,761.47 303.243243,761.47 L298.108108,761.47 Z M303.243243,758.905 L298.108108,758.905 C297.783784,758.905 297.522523,758.644 297.522523,758.32 C297.522523,757.996 297.783784,757.735 298.108108,757.735 L303.243243,757.735 C303.567568,757.735 303.828829,757.996 303.828829,758.32 C303.828829,758.644 303.567568,758.905 303.243243,758.905 Z" id="jg-public-kapian-diandangfenleigoucheng.svg"></path>
        </g>
    </g>
</svg>