<?xml version="1.0" encoding="UTF-8"?>
<svg width="14px" height="16px" viewBox="0 0 14 16" version="1.1" xmlns="http://www.w3.org/2000/svg" xmlns:xlink="http://www.w3.org/1999/xlink">
    <!-- Generator: Sketch 63.1 (92452) - https://sketch.com -->
    <title>0005现场检查-1立项登记-13详情-2</title>
    <desc>Created with Sketch.</desc>
    <g id="页面-1" stroke="none" stroke-width="1" fill="none" fill-rule="evenodd">
        <g id="0005现场检查-1立项登记-13详情" transform="translate(-537.000000, -1515.000000)" fill="#2C63AC" fill-rule="nonzero">
            <path d="M548.565217,1515 C549.904348,1515 551,1516.06667 551,1517.37037 L551,1517.37037 L551,1526.28889 C551,1526.94074 550.756522,1527.53333 550.3,1527.97778 L550.3,1527.97778 L547.895652,1530.31852 C547.408696,1530.76296 546.8,1531 546.16087,1531 L546.16087,1531 L539.434783,1531 C538.095652,1531 537,1529.93333 537,1528.62963 L537,1528.62963 L537,1517.37037 C537,1516.06667 538.095652,1515 539.434783,1515 L539.434783,1515 Z M548.565217,1516.18519 L539.434783,1516.18519 C538.765217,1516.18519 538.217391,1516.71852 538.217391,1517.37037 L538.217391,1517.37037 L538.217391,1528.62963 C538.217391,1529.28148 538.765217,1529.81481 539.434783,1529.81481 L539.434783,1529.81481 L545.521739,1529.81481 L545.521739,1528.33333 C545.521739,1527.02963 546.617391,1525.96296 547.956522,1525.96296 L547.956522,1525.96296 L549.782609,1525.96296 L549.782609,1517.37037 C549.782609,1516.71852 549.234783,1516.18519 548.565217,1516.18519 L548.565217,1516.18519 Z M549.386957,1527.14815 L547.956522,1527.14815 C547.286957,1527.14815 546.73913,1527.68148 546.73913,1528.33333 L546.73913,1528.33333 L546.73913,1529.66667 C546.830435,1529.60741 546.921739,1529.54815 547.013043,1529.45926 L547.013043,1529.45926 L549.386957,1527.14815 Z M543.416667,1524.42857 C543.7375,1524.42857 544,1524.68571 544,1525 C544,1525.31429 543.7375,1525.57143 543.416667,1525.57143 L543.416667,1525.57143 L541.083333,1525.57143 C540.7625,1525.57143 540.5,1525.31429 540.5,1525 C540.5,1524.68571 540.7625,1524.42857 541.083333,1524.42857 L541.083333,1524.42857 Z M546.333333,1521.57143 C546.654167,1521.57143 546.916667,1521.82857 546.916667,1522.14286 C546.916667,1522.45714 546.654167,1522.71429 546.333333,1522.71429 L546.333333,1522.71429 L541.083333,1522.71429 C540.7625,1522.71429 540.5,1522.45714 540.5,1522.14286 C540.5,1521.82857 540.7625,1521.57143 541.083333,1521.57143 L541.083333,1521.57143 Z M546.333333,1518.71429 C546.654167,1518.71429 546.916667,1518.97143 546.916667,1519.28571 C546.916667,1519.6 546.654167,1519.85714 546.333333,1519.85714 L546.333333,1519.85714 L541.083333,1519.85714 C540.7625,1519.85714 540.5,1519.6 540.5,1519.28571 C540.5,1518.97143 540.7625,1518.71429 541.083333,1518.71429 L541.083333,1518.71429 Z" id="0005现场检查-1立项登记-13详情-2"></path>
        </g>
    </g>
</svg>