<?xml version="1.0" encoding="UTF-8"?>
<svg width="15px" height="19px" viewBox="0 0 15 19" version="1.1" xmlns="http://www.w3.org/2000/svg" xmlns:xlink="http://www.w3.org/1999/xlink">
    <!-- Generator: Sketch 63.1 (92452) - https://sketch.com -->
    <title>0002行政备案-3小贷行政备案申请-3附件弹窗-1</title>
    <desc>Created with Sketch.</desc>
    <g id="页面-1" stroke="none" stroke-width="1" fill="none" fill-rule="evenodd">
        <g id="0002行政备案-3小贷行政备案申请-3附件弹窗" transform="translate(-977.000000, -844.000000)" fill="#999999" fill-rule="nonzero">
            <path d="M985.181818,845.357143 L979.045455,845.357143 C978.636364,845.357143 978.363636,845.628571 978.363636,846.035714 L978.363636,860.964286 C978.363636,861.371429 978.636364,861.642857 979.045455,861.642857 L989.954545,861.642857 C990.363636,861.642857 990.636364,861.371429 990.636364,860.964286 L990.636364,850.785714 L986.545455,850.785714 C985.795455,850.785714 985.181818,850.175 985.181818,849.428571 L985.181818,845.357143 Z M986.545455,845.628571 L986.545455,849.428571 L990.363636,849.428571 L986.545455,845.628571 Z M979.045455,844 L986.545455,844 C986.75,844 986.886364,844.067857 987.022727,844.203571 L991.795455,848.953571 C991.931818,849.089286 992,849.225 992,849.428571 L992,860.964286 C992,862.117857 991.113636,863 989.954545,863 L979.045455,863 C977.886364,863 977,862.117857 977,860.964286 L977,846.035714 C977,844.882143 977.886364,844 979.045455,844 Z M980.409091,851.464286 L983.818182,851.464286 C984.227273,851.464286 984.5,851.735714 984.5,852.142857 C984.5,852.55 984.227273,852.821429 983.818182,852.821429 L980.409091,852.821429 C980,852.821429 979.727273,852.55 979.727273,852.142857 C979.727273,851.735714 980,851.464286 980.409091,851.464286 Z M980.409091,854.178571 L988.590909,854.178571 C989,854.178571 989.272727,854.45 989.272727,854.857143 C989.272727,855.264286 989,855.535714 988.590909,855.535714 L980.409091,855.535714 C980,855.535714 979.727273,855.264286 979.727273,854.857143 C979.727273,854.45 980,854.178571 980.409091,854.178571 Z M980.409091,856.892857 L988.590909,856.892857 C989,856.892857 989.272727,857.164286 989.272727,857.571429 C989.272727,857.978571 989,858.25 988.590909,858.25 L980.409091,858.25 C980,858.25 979.727273,857.978571 979.727273,857.571429 C979.727273,857.164286 980,856.892857 980.409091,856.892857 Z" id="0002行政备案-3小贷行政备案申请-3附件弹窗-1"></path>
        </g>
    </g>
</svg>