<?xml version="1.0" encoding="UTF-8"?>
<svg width="14px" height="12px" viewBox="0 0 14 12" version="1.1" xmlns="http://www.w3.org/2000/svg" xmlns:xlink="http://www.w3.org/1999/xlink">
    <!-- Generator: Sketch 63.1 (92452) - https://sketch.com -->
    <title>0005现场检查-1立项登记-7现场检查实施-已审核-1</title>
    <desc>Created with Sketch.</desc>
    <g id="页面-1" stroke="none" stroke-width="1" fill="none" fill-rule="evenodd">
        <g id="0005现场检查-1立项登记-7现场检查实施-已审核" transform="translate(-507.000000, -251.000000)" fill="#2C63AC" fill-rule="nonzero">
            <path d="M511.325589,251 C511.770975,251 512.199528,251.165274 512.523537,251.462046 L512.539639,251.476992 L513.292447,252.184455 C513.437508,252.320765 513.630257,252.398796 513.832063,252.40291 L513.848876,252.403064 L517.112014,252.403064 C517.911025,252.403064 518.608007,252.929714 518.804023,253.681555 L518.960677,254.282338 L519.727343,254.282353 C520.430219,254.282353 521,254.835412 521,255.517647 C521,255.645681 520.979491,255.772936 520.939212,255.894849 L518.875366,262.141908 C518.706433,262.653197 518.216639,263 517.663481,263 L508.282975,263 C507.580099,263 507.010318,262.446941 507.010318,261.764706 C507.010318,261.750834 507.010555,261.736992 507.011045,261.723151 L507,261.723151 L507,252.694118 C507,251.7649 507.732772,251.01513 508.680221,251.00023 L508.708995,251 L511.325589,251 Z M519.727327,255.2 L510.58302,255.2 C510.448552,255.2 510.327756,255.279841 510.278481,255.401345 L510.274847,255.410752 L507.974817,261.657811 C507.962186,261.692115 507.955729,261.728275 507.955729,261.764706 C507.955729,261.937003 508.097072,262.077258 508.273336,262.082215 L508.282991,262.082353 L517.663497,262.082353 C517.802067,262.082353 517.925627,261.99763 517.971955,261.870803 L517.975115,261.861703 L520.038977,255.614645 C520.049339,255.583295 520.054621,255.550572 520.054621,255.517647 C520.054621,255.34535 519.913278,255.205095 519.737014,255.200138 L519.727359,255.2 L519.727327,255.2 Z M511.325589,251.917647 L508.708995,251.917647 C508.282786,251.917647 507.952079,252.24754 507.945506,252.680951 L507.945395,252.694118 L507.945395,259.010829 L509.384582,255.101928 C509.56554,254.610419 510.045253,254.282353 510.583005,254.282353 L517.985465,254.282338 L517.887528,253.906685 C517.798804,253.566404 517.486174,253.326772 517.125729,253.320834 L517.112014,253.320726 L513.848876,253.320726 C513.40349,253.320744 512.974937,253.155452 512.650928,252.85868 L512.634826,252.843734 L511.882034,252.136271 C511.736973,251.999962 511.544224,251.92193 511.342418,251.917816 L511.325589,251.917647 Z" id="0005现场检查-1立项登记-7现场检查实施-已审核-1"></path>
        </g>
    </g>
</svg>