<?xml version="1.0" encoding="UTF-8"?>
<svg width="18px" height="18px" viewBox="0 0 18 18" version="1.1" xmlns="http://www.w3.org/2000/svg" xmlns:xlink="http://www.w3.org/1999/xlink">
    <title>建筑建材</title>
    <g id="页面-1" stroke="none" stroke-width="1" fill="none" fill-rule="evenodd">
        <g id="知识视图" transform="translate(-287.000000, -754.000000)" fill="#595959" fill-rule="nonzero">
            <g id="建筑建材" transform="translate(287.000000, 754.000000)">
                <path d="M16.875,16.875 L16.875,6.1875 C16.875,5.9625 16.7625,5.7375 16.5375,5.7375 L12.0375,3.4875 C11.8125,3.375 11.475,3.4875 11.25,3.7125 C11.1375,3.9375 11.25,4.275 11.475,4.5 L15.75,6.525 L15.75,16.875 L10.125,16.875 L10.125,0.5625 C10.125,0.3375 10.0125,0.225 9.9,0.1125 C9.675,0 9.5625,0 9.3375,0 L1.4625,3.375 C1.2375,3.4875 1.125,3.7125 1.125,3.9375 L1.125,16.875 L0,16.875 L0,18 L18,18 L18,16.875 L16.875,16.875 Z M9,16.875 L2.25,16.875 L2.25,4.275 L9,1.35 L9,16.875 Z M3.9375,10.125 L6.1875,10.125 C6.525,10.125 6.75,9.9 6.75,9.5625 C6.75,9.225 6.525,9 6.1875,9 L3.9375,9 C3.6,9 3.375,9.225 3.375,9.5625 C3.375,9.9 3.6,10.125 3.9375,10.125 Z M3.9375,12.375 L6.1875,12.375 C6.525,12.375 6.75,12.15 6.75,11.8125 C6.75,11.475 6.525,11.25 6.1875,11.25 L3.9375,11.25 C3.6,11.25 3.375,11.475 3.375,11.8125 C3.375,12.15 3.6,12.375 3.9375,12.375 Z M3.9375,14.625 L6.1875,14.625 C6.525,14.625 6.75,14.4 6.75,14.0625 C6.75,13.725 6.525,13.5 6.1875,13.5 L3.9375,13.5 C3.6,13.5 3.375,13.725 3.375,14.0625 C3.375,14.4 3.6,14.625 3.9375,14.625 Z M11.8125,10.125 L14.0625,10.125 C14.4,10.125 14.625,9.9 14.625,9.5625 C14.625,9.225 14.4,9 14.0625,9 L11.8125,9 C11.475,9 11.25,9.225 11.25,9.5625 C11.25,9.9 11.475,10.125 11.8125,10.125 Z M11.8125,12.375 L14.0625,12.375 C14.4,12.375 14.625,12.15 14.625,11.8125 C14.625,11.475 14.4,11.25 14.0625,11.25 L11.8125,11.25 C11.475,11.25 11.25,11.475 11.25,11.8125 C11.25,12.15 11.475,12.375 11.8125,12.375 Z M11.8125,14.625 L14.0625,14.625 C14.4,14.625 14.625,14.4 14.625,14.0625 C14.625,13.725 14.4,13.5 14.0625,13.5 L11.8125,13.5 C11.475,13.5 11.25,13.725 11.25,14.0625 C11.25,14.4 11.475,14.625 11.8125,14.625 Z" id="形状"></path>
            </g>
        </g>
    </g>
</svg>