<?xml version="1.0" encoding="UTF-8"?>
<svg width="44px" height="40px" viewBox="0 0 44 40" version="1.1" xmlns="http://www.w3.org/2000/svg" xmlns:xlink="http://www.w3.org/1999/xlink">
    <!-- Generator: Sketch 63.1 (92452) - https://sketch.com -->
    <title>0001证照管理-1纸质证照管理-7我的证照-1证照详情</title>
    <desc>Created with Sketch.</desc>
    <g id="页面-1" stroke="none" stroke-width="1" fill="none" fill-rule="evenodd">
        <path d="M22.0563019,0 C25.61377,0 28.5783267,2.63473054 29.2898203,5.98802394 L29.2898203,5.98802394 L40.3179713,5.98802394 C42.4524522,5.98802394 44.1126039,7.66467064 43.9940217,9.82035926 L43.9940217,9.82035926 L43.9940217,36.1676647 C43.9940216,38.3233533 42.3338699,40 40.199389,40 L40.199389,40 L3.79463258,40 C1.66015175,40 0,38.3233533 0,36.1676647 L0,36.1676647 L0,9.82035926 C0,7.66467064 1.66015175,5.98802394 3.79463258,5.98802394 L3.79463258,5.98802394 L14.8227836,5.98802394 C15.5342772,2.63473054 18.4988339,0 22.0563019,0 Z M14.8227836,8.86227542 L3.79463258,8.86227542 C3.3203035,8.86227542 2.84597442,9.22155685 2.84597442,9.82035926 L2.84597442,9.82035926 L2.84597442,36.1676647 C2.84597442,36.6467066 3.20172122,37.1257485 3.79463258,37.1257485 L3.79463258,37.1257485 L40.3179713,37.1257485 C40.7923004,37.1257485 41.2666295,36.7664671 41.2666295,36.1676647 L41.2666295,36.1676647 L41.2666295,9.82035926 C41.2666295,9.34131734 40.9108827,8.86227542 40.3179713,8.86227542 L40.3179713,8.86227542 L29.2898203,8.86227542 C29.1712381,8.98203596 29.1712381,9.1017964 29.1712381,9.2215569 L29.1712381,9.2215569 L33.4401997,13.5329341 C33.9145288,14.011976 34.0331111,14.6107784 33.7959465,15.0898203 C33.6773643,15.6886228 33.2030352,16.0479042 32.6101239,16.0479042 L32.6101239,16.0479042 L30.2384785,16.2874251 L30.001314,18.6826347 C29.8827317,19.1616767 29.5269849,19.6407186 29.0526558,19.8802395 C28.9340735,20 28.696909,20 28.5783267,20 C28.2225799,20 27.8668331,19.760479 27.6296686,19.5209581 L27.6296686,19.5209581 L22.8863778,14.7305389 C22.6492133,14.8502994 22.2934665,14.8502994 21.9377197,14.8502994 C21.7005551,14.8502994 21.3448083,14.7305389 20.9890615,14.7305389 L20.9890615,14.7305389 L16.2457708,19.5209581 C16.0086063,19.8802395 15.6528595,20 15.2971127,20 L15.2971127,20 L14.9413658,20 C14.3484545,19.8802396 13.9927077,19.4011976 13.9927077,18.8023952 L13.9927077,18.8023952 L13.7555431,16.4071856 L11.3838978,16.1676647 C10.9095687,16.0479042 10.4352396,15.6886228 10.1980751,15.2095808 C9.96091051,14.6107784 10.0794928,14.011976 10.5538219,13.7724551 L10.5538219,13.7724551 L14.9413658,9.2215569 C14.8227836,9.10179635 14.8227836,8.98203591 14.8227836,8.86227542 L14.8227836,8.86227542 Z M16.7961905,27.8868814 C17.6228571,27.8868814 18.2133333,28.4367635 18.2133333,29.2065986 C18.2133333,29.9764336 17.6228572,30.5263158 16.7961905,30.5263158 L16.7961905,30.5263158 L7.70285716,30.5263158 C6.87619049,30.5263158 6.28571429,29.9764336 6.28571429,29.2065986 C6.28571429,28.4367635 6.87619049,27.8868814 7.70285716,27.8868814 L7.70285716,27.8868814 Z M37.3447619,23.1578947 C38.1714286,23.1578947 38.7619048,23.707777 38.7619048,24.477612 C38.7619048,25.2474469 38.1714286,25.7973291 37.3447619,25.7973291 L37.3447619,25.7973291 L7.70285716,25.7973291 C6.87619049,25.7973291 6.28571429,25.247447 6.28571429,24.477612 C6.28571429,23.7077769 6.87619049,23.1578947 7.70285716,23.1578947 L7.70285716,23.1578947 Z M27.8668331,11.9760479 C27.3925041,12.5748502 26.6810104,13.1736527 25.9695168,13.6526946 L25.9695168,13.6526946 L27.6296686,15.3293413 L27.6296686,14.8502994 C27.6296686,14.1317366 28.2225799,13.5329341 28.9340735,13.5329341 L28.9340735,13.5329341 L29.4084026,13.5329341 Z M16.2457708,11.9760479 L14.7042013,13.5329341 L15.1785304,13.5329341 C15.890024,13.5329341 16.4829353,14.1317366 16.4829353,14.8502994 L16.4829353,14.8502994 L16.4829353,15.3293413 L18.1430871,13.6526946 C17.4315934,13.1736527 16.7200998,12.5748503 16.2457708,11.9760479 L16.2457708,11.9760479 Z M22.0563019,2.87425148 C19.5660743,2.87425148 17.5501757,4.91017966 17.5501757,7.4251497 C17.5501757,9.94011975 19.5660743,11.9760479 22.0563019,11.9760479 C24.5465296,11.9760479 26.5624282,9.9401198 26.5624282,7.4251497 C26.5624282,4.9101796 24.5465296,2.87425148 22.0563019,2.87425148 Z" id="0001证照管理-1纸质证照管理-7我的证照-1证照详情" fill="#999999" fill-rule="nonzero"></path>
    </g>
</svg>