<?xml version="1.0" encoding="UTF-8"?>
<svg width="23px" height="23px" viewBox="0 0 23 23" version="1.1" xmlns="http://www.w3.org/2000/svg" xmlns:xlink="http://www.w3.org/1999/xlink">
    <!-- Generator: Sketch 63.1 (92452) - https://sketch.com -->
    <title>机构信息-监管端-许可证信息-6打印</title>
    <desc>Created with Sketch.</desc>
    <g id="页面-1" stroke="none" stroke-width="1" fill="none" fill-rule="evenodd">
        <g id="0001证照管理-1纸质证照管理-7我的证照-改" transform="translate(-808.000000, -968.000000)" fill="#FFFFFF" fill-rule="nonzero">
            <path d="M827.166667,973.52 L829.466667,973.52 C830.313503,973.52 831,974.226111 831,975.097143 L831,982.982857 C831,983.853889 830.313503,984.56 829.466667,984.56 L828.7,984.56 L828.7,982.982857 C828.7,982.146289 828.376906,981.343984 827.801794,980.75244 C827.226683,980.160897 826.446664,979.828571 825.633333,979.828571 L813.366667,979.828571 C812.553336,979.828571 811.773317,980.160897 811.198206,980.75244 C810.623094,981.343984 810.3,982.146289 810.3,982.982857 L810.3,984.56 L809.533333,984.56 C808.686497,984.56 808,983.853889 808,982.982857 L808,975.097143 C808,974.226111 808.686497,973.52 809.533333,973.52 L827.166667,973.52 Z M827.32,972.6 L811.68,972.6 L811.68,969.533333 C811.68,968.686497 812.380227,968 813.244,968 L825.756,968 C826.619773,968 827.32,968.686497 827.32,969.533333 L827.32,972.6 Z M813.244,981.8 L825.756,981.8 C826.619773,981.8 827.32,982.486497 827.32,983.333333 L827.32,989.466667 C827.32,990.313503 826.619773,991 825.756,991 L813.244,991 C812.380227,991 811.68,990.313503 811.68,989.466667 L811.68,983.333333 C811.68,982.486497 812.380227,981.8 813.244,981.8 L813.244,981.8 Z M825.25,976.28 C824.868924,976.28 824.56,976.691898 824.56,977.2 C824.56,977.708102 824.868924,978.12 825.25,978.12 L826.63,978.12 C827.011076,978.12 827.32,977.708102 827.32,977.2 C827.32,976.691898 827.011076,976.28 826.63,976.28 L825.25,976.28 L825.25,976.28 Z M815.176,984.56 C814.769518,984.56 814.44,984.971898 814.44,985.48 C814.44,985.988102 814.769518,986.4 815.176,986.4 L821.064,986.4 C821.470482,986.4 821.8,985.988102 821.8,985.48 C821.8,984.971898 821.470482,984.56 821.064,984.56 L815.176,984.56 L815.176,984.56 Z" id="机构信息-监管端-许可证信息-6打印"></path>
        </g>
    </g>
</svg>