<?xml version="1.0" encoding="UTF-8"?>
<svg width="18px" height="16px" viewBox="0 0 18 16" version="1.1" xmlns="http://www.w3.org/2000/svg" xmlns:xlink="http://www.w3.org/1999/xlink">
    <title>知识库-02</title>
    <g id="页面-1" stroke="none" stroke-width="1" fill="none" fill-rule="evenodd">
        <g id="知识视图" transform="translate(-735.000000, -471.000000)" fill="#595959" fill-rule="nonzero">
            <g id="知识库-02" transform="translate(735.000000, 471.000000)">
                <path d="M9,9.77777778 C8.87142857,9.77777778 8.77499999,9.7438566 8.64642858,9.70993544 L0.482142857,5.63939482 C0.192857143,5.50371012 0,5.19841958 0,4.85920787 C0,4.51999614 0.192857143,4.2147056 0.482142857,4.0790209 L8.64642858,0.0763226367 C8.87142858,-0.0254408789 9.12857143,-0.0254408789 9.32142858,0.0763226367 L17.5178571,4.11294208 C17.8071429,4.24862678 18,4.55391732 18,4.89312903 C18,5.23234075 17.8071429,5.5376313 17.5178571,5.67331599 L9.35357142,9.67601426 C9.22499999,9.7438566 9.12857142,9.77777778 9,9.77777778 Z M1.15714286,4.85920787 L9,8.72622146 L16.8428571,4.85920787 L9,1.02611544 L1.15714286,4.85920787 Z" id="形状"></path>
                <path d="M9.09227613,16 C6.82843471,16 4.89268626,15.1083591 3.87559808,14.5799794 C3.28503075,14.249742 2.9241285,13.622291 2.9241285,12.9618163 L2.9241285,6.81940145 L3.90840738,6.81940145 L3.90840738,12.9287926 C3.90840738,13.2590299 4.07245385,13.5232198 4.36773752,13.6883385 C5.84415584,14.5139319 9.65003416,16.1651187 13.2262474,13.7213622 C13.4559125,13.5562436 13.5871497,13.2920537 13.5871497,13.0278638 L13.5871497,6.81940145 L14.5714286,6.81940145 L14.5714286,12.9948401 C14.5714286,13.622291 14.2761449,14.1836945 13.7840055,14.5139319 C12.17635,15.6037152 10.5686945,16 9.09227613,16 L9.09227613,16 Z M1.3492823,11.8390093 C1.08680794,11.8390093 0.857142857,11.6078431 0.857142857,11.3436532 L0.857142857,5.82868937 C0.857142857,5.56449949 1.08680794,5.33333333 1.3492823,5.33333333 C1.61175666,5.33333333 1.84142174,5.53147575 1.84142174,5.82868937 L1.84142174,11.3436532 C1.84142174,11.6078431 1.61175666,11.8390093 1.3492823,11.8390093 Z" id="形状"></path>
            </g>
        </g>
    </g>
</svg>