<?xml version="1.0" encoding="UTF-8"?>
<svg width="18px" height="18px" viewBox="0 0 18 18" version="1.1" xmlns="http://www.w3.org/2000/svg" xmlns:xlink="http://www.w3.org/1999/xlink">
    <title>上移一层2</title>
    <g id="页面-1" stroke="none" stroke-width="1" fill="none" fill-rule="evenodd">
        <g id="知识视图" transform="translate(-735.000000, -186.000000)" fill="#595959" fill-rule="nonzero">
            <g id="上移一层2" transform="translate(735.000000, 186.000000)">
                <path d="M0.366612385,13.419 C0.30788842,13.3878435 0.254083226,13.3493835 0.206707744,13.3047 C0.161681199,13.262563 0.1229847,13.2150388 0.091654392,13.1634 C0.031347998,13.0625462 -0.000190695534,12.9491961 8.67464564e-07,12.834 C-0.000190695534,12.7188039 0.031347998,12.6054537 0.091654392,12.5046 C0.122974811,12.4529552 0.16167226,12.4054299 0.206707744,12.3633 C0.254083226,12.3186165 0.30788842,12.2801565 0.366612385,12.249 L8.99366318,7.66799999 L17.620714,12.249 C17.6797676,12.2801067 17.733902,12.3185676 17.7815937,12.3633 C17.8263578,12.405429 17.8647328,12.4529612 17.895672,12.5046 C17.9559784,12.6054537 17.9875171,12.7188039 17.9873255,12.834 C17.9875171,12.9491961 17.9559784,13.0625462 17.895672,13.1634 C17.8647429,13.2150448 17.8263669,13.2625782 17.7815937,13.3047 C17.733902,13.3494324 17.6797676,13.3878933 17.620714,13.419 L8.99366318,18 L0.366612385,13.419 Z M1.97053402,12.825 L8.9907381,16.551 L16.0109422,12.825 L8.9907381,9.09899999 L1.97053402,12.825 Z M0.644495463,9.69839999 L0.36953747,9.55259999 C0.310504438,9.5214648 0.256373982,9.4830068 0.208657793,9.43830001 C0.1639119,9.39615663 0.125538808,9.34862685 0.094579477,9.297 C0.034273083,9.19614625 0.0027343895,9.08279606 0.0029259525,8.9676 C0.0027343895,8.85240395 0.034273083,8.73905375 0.094579477,8.6382 C0.125647506,8.58663796 0.164010254,8.53912099 0.208657793,8.49689999 C0.256382124,8.4522017 0.310511248,8.41374464 0.36953747,8.38260001 L8.99658827,3.8016 L9.00633856,3.807 L9.00633856,5.2713 L0.644495463,9.69839999 Z M13.1872601,8.7678 L13.1872601,2.4057 L10.6911875,4.7097 L9.72590948,3.8187 L13.8629547,0 L18,3.8187 L17.0347219,4.7097 L14.5532748,2.4192 L14.5532748,8.76870001 L13.1872601,8.7678 Z M0.644495463,5.89590001 L0.36953747,5.75010001 C0.310504436,5.71896481 0.256373981,5.6805068 0.208657793,5.6358 C0.1639119,5.59365663 0.125538808,5.54612684 0.094579477,5.4945 C0.0334131277,5.39416401 0.000869044949,5.28112757 8.67464564e-07,5.166 C-0.000190695534,5.05080395 0.031347998,4.93745375 0.091654392,4.8366 C0.122673432,4.78500874 0.161040823,4.73748601 0.205732708,4.6953 C0.253457039,4.6506017 0.307586163,4.61214465 0.366612385,4.58100001 L8.99366318,0 L9.00341347,0.0054 L9.00341347,1.46970001 L0.644495463,5.89590001 Z" id="形状"></path>
            </g>
        </g>
    </g>
</svg>