<?xml version="1.0" encoding="UTF-8"?>
<svg width="16px" height="18px" viewBox="0 0 16 18" version="1.1" xmlns="http://www.w3.org/2000/svg" xmlns:xlink="http://www.w3.org/1999/xlink">
    <title>知识库</title>
    <g id="页面-1" stroke="none" stroke-width="1" fill="none" fill-rule="evenodd">
        <g id="知识视图" transform="translate(-1182.000000, -186.000000)" fill="#595959" fill-rule="nonzero">
            <g id="知识库" transform="translate(1182.000000, 186.000000)">
                <path d="M0,1 L0,17 C6.76353751e-17,17.5522847 0.44771525,18 1,18 L15,18 C15.5522847,18 16,17.5522847 16,17 L16,1 C16,0.44771525 15.5522847,3.42636147e-16 15,0 L1,0 C0.44771525,1.01453063e-16 -6.76353751e-17,0.44771525 0,1 Z M3.25925926,1.01123596 L7.01234568,1.01123596 L7.01234568,5.64876404 L5.73234568,4.65573034 L5.13580247,4.1905618 L4.53925926,4.65370787 L3.25925926,5.64876404 L3.25925926,1.01123596 Z M0.987654321,15.988764 L0.987654321,2.01123596 C0.987654321,1.45895121 1.43536957,1.01123596 1.98765432,1.01123596 L2.27160494,1.01123596 L2.27160494,1.01123596 L2.27160494,7.68539326 L5.13580247,5.46067416 L8,7.68539326 L8,1.01123596 L14.0123457,1.01123596 C14.5646304,1.01123596 15.0123457,1.45895121 15.0123457,2.01123596 L15.0123457,15.988764 C15.0123457,16.5410488 14.5646304,16.988764 14.0123457,16.988764 L1.98765432,16.988764 C1.43536957,16.988764 0.987654321,16.5410488 0.987654321,15.988764 Z" id="形状"></path>
            </g>
        </g>
    </g>
</svg>