<?xml version="1.0" encoding="UTF-8"?>
<svg width="18px" height="18px" viewBox="0 0 18 18" version="1.1" xmlns="http://www.w3.org/2000/svg" xmlns:xlink="http://www.w3.org/1999/xlink">
    <title>系统维护</title>
    <g id="页面-1" stroke="none" stroke-width="1" fill="none" fill-rule="evenodd">
        <g id="知识视图" transform="translate(-287.000000, -470.000000)" fill="#595959" fill-rule="nonzero">
            <g id="系统维护" transform="translate(287.000000, 470.000000)">
                <path d="M6.40646894,2.43961772 L6.40646894,7.67183815 L1.19996296,7.67183815 L1.19996296,2.43961772 L6.40646894,2.43961772 M6.78423505,1.2399156 L0.822196846,1.2399156 C0.371099657,1.2399156 0.00666646091,1.60630508 0.00666646091,2.05982376 L0.00666646091,8.0538662 C0.00666646091,8.50738488 0.371099657,8.87377436 0.822196846,8.87377436 L6.78423505,8.87377436 C7.23533224,8.87377436 7.59976544,8.50738488 7.59976544,8.0538662 L7.59976544,2.05982376 C7.59976544,1.60853916 7.23533224,1.2399156 6.78423505,1.2399156 Z M6.39758032,11.5680774 L6.39758032,16.8002979 L1.1932965,16.8002979 L1.1932965,11.5680774 L6.39758032,11.5680774 M6.77534644,10.3661412 L0.815530385,10.3661412 C0.364433197,10.3661412 1.33226763e-15,10.7325307 1.33226763e-15,11.1860494 L1.33226763e-15,17.1800918 C1.33226763e-15,17.6336105 0.364433197,18 0.815530385,18 L6.77534644,18 C7.22644363,18 7.59087682,17.6336105 7.59087682,17.1800918 L7.59087682,11.1860494 C7.59087682,10.7347648 7.22644363,10.3661412 6.77534644,10.3661412 L6.77534644,10.3661412 Z M15.5684084,11.5680774 L15.5684084,16.8002979 L10.3641246,16.8002979 L10.3641246,11.5680774 L15.5684084,11.5680774 M15.9461745,10.3661412 L9.98635845,10.3661412 C9.53526126,10.3661412 9.17082806,10.7325307 9.17082806,11.1860494 L9.17082806,17.1800918 C9.17082806,17.6336105 9.53526126,18 9.98635845,18 L15.9483967,18 C16.3994938,18 16.763927,17.6336105 16.763927,17.1800918 L16.763927,11.1860494 C16.7617049,10.7347648 16.3972717,10.3661412 15.9461745,10.3661412 L15.9461745,10.3661412 Z M12.9662665,1.35608787 L16.6461529,5.05572794 L12.9662665,8.75760209 L9.28638005,5.05796202 L12.9662665,1.35608787 M12.9662665,0 C12.757384,0 12.5485016,0.0804269579 12.3885065,0.239046792 L8.17530323,4.47710066 C7.85753526,4.79657441 7.85753526,5.31711555 8.17530323,5.6365893 L12.3907287,9.87464317 C12.5507237,10.0354971 12.7596062,10.11369 12.9684886,10.11369 C13.1773711,10.11369 13.3862535,10.033263 13.5462486,9.87464317 L17.761674,5.6365893 C18.079442,5.31711555 18.079442,4.79657441 17.761674,4.47710066 L13.5418043,0.239046792 C13.3840314,0.0781928758 13.1751489,0 12.9662665,0 Z" id="形状"></path>
            </g>
        </g>
    </g>
</svg>