<?xml version="1.0" encoding="UTF-8"?>
<svg width="44px" height="44px" viewBox="0 0 44 44" version="1.1" xmlns="http://www.w3.org/2000/svg" xmlns:xlink="http://www.w3.org/1999/xlink">
    <!-- Generator: Sketch 63.1 (92452) - https://sketch.com -->
    <title>0001证照管理-1纸质证照管理-7我的证照-4证照换发</title>
    <desc>Created with Sketch.</desc>
    <g id="页面-1" stroke="none" stroke-width="1" fill="none" fill-rule="evenodd">
        <g id="0001证照管理-1纸质证照管理-7我的证照-改" transform="translate(-1583.000000, -701.000000)" fill="#999999" fill-rule="nonzero">
            <path d="M1618.84724,721 C1619.44581,721 1620.02664,721.242602 1620.45673,721.69252 L1620.45673,721.69252 L1626.3715,727.907554 C1627.2095,728.785334 1627.2095,730.165962 1626.3715,731.048153 L1626.3715,731.048153 L1620.45673,737.254365 C1620.02221,737.704282 1619.44137,737.946885 1618.84724,737.946885 C1618.57234,737.946885 1618.29744,737.893953 1618.03141,737.78809 C1617.1668,737.444036 1616.60814,736.614777 1616.60814,735.670833 L1616.60814,735.670833 L1616.60814,734.413711 L1608.97746,734.413711 C1608.19267,734.413711 1607.55863,733.782944 1607.55863,733.002205 L1607.55863,733.002205 L1607.55863,731.793604 L1603.04495,736.530969 L1607.55419,741.268333 L1607.55419,740.064143 C1607.55419,739.283404 1608.18823,738.652637 1608.97303,738.652637 L1608.97303,738.652637 L1612.18314,738.652637 C1612.96794,738.652637 1613.60198,739.283404 1613.60198,740.064143 C1613.60198,740.844881 1612.96794,741.475648 1612.18314,741.475648 L1612.18314,741.475648 L1610.39186,741.475648 L1610.39186,742.723948 C1610.39186,743.667892 1609.8332,744.497151 1608.96859,744.841206 C1608.70256,744.947069 1608.42766,745 1608.15276,745 C1607.55863,745 1606.97336,744.761808 1606.54327,744.30748 L1606.54327,744.30748 L1600.6285,738.101268 C1599.7905,737.223488 1599.7905,735.84286 1600.6285,734.960669 L1600.6285,734.960669 L1606.54771,728.750046 C1606.98222,728.300129 1607.56306,728.057526 1608.1572,728.057526 C1608.4321,728.057526 1608.707,728.110458 1608.97303,728.216321 C1609.83763,728.560375 1610.3963,729.389634 1610.3963,730.333578 L1610.3963,730.333578 L1610.3963,731.5907 L1618.02697,731.5907 C1618.81177,731.5907 1619.44581,732.221467 1619.44581,733.002205 L1619.44581,733.002205 L1619.44581,734.210807 L1623.95948,729.473442 L1619.44581,724.736078 L1619.44581,725.940268 C1619.44581,726.721007 1618.81177,727.351774 1618.02697,727.351774 L1618.02697,727.351774 L1614.81686,727.351774 C1614.03206,727.351774 1613.39802,726.721007 1613.39802,725.940268 C1613.39802,725.159529 1614.03206,724.528763 1614.81686,724.528763 L1614.81686,724.528763 L1616.60814,724.528763 L1616.60814,723.276052 C1616.60814,722.332108 1617.1668,721.502849 1618.03141,721.158794 C1618.29744,721.052931 1618.57234,721 1618.84724,721 Z M1618.98551,701 C1620.64348,701 1622,702.386949 1622,704.082109 L1622,704.082109 L1622,714.932195 C1622,715.764624 1621.32518,716.439441 1620.49275,716.439441 C1619.66032,716.439441 1618.98551,715.764624 1618.98551,714.932195 L1618.98551,714.932195 L1618.98551,704.086925 L1618.9808,704.082109 L1586.0192,704.082109 L1586.01449,704.086925 L1586.01449,737.913075 L1586.0192,737.917891 L1596.27489,737.917891 C1597.12599,737.917891 1597.81594,738.607844 1597.81594,739.458945 C1597.81594,740.310046 1597.12599,741 1596.27489,741 L1596.27489,741 L1586.01449,741 C1584.35652,741 1583,739.613051 1583,737.917891 L1583,737.917891 L1583,704.082109 C1583,702.386949 1584.35652,701 1586.01449,701 L1586.01449,701 Z M1600.59014,715.003587 C1601.41534,715.003587 1602.08203,715.6743 1602.08203,716.504483 C1602.08203,717.334667 1601.41534,718.00538 1600.59014,718.00538 L1600.59014,718.00538 L1590.49189,718.00538 C1589.66669,718.00538 1589,717.334667 1589,716.504483 C1589,715.6743 1589.66669,715.003587 1590.49189,715.003587 L1590.49189,715.003587 Z M1613.6442,709 C1614.4694,709 1615.14076,709.670713 1615.14076,710.500897 C1615.14076,711.33108 1614.47407,712.001793 1613.64886,712.001793 L1613.64886,712.001793 L1590.49189,712.001793 C1589.66669,712.001793 1589,711.33108 1589,710.500897 C1589,709.670713 1589.66669,709 1590.49189,709 L1590.49189,709 Z" id="0001证照管理-1纸质证照管理-7我的证照-4证照换发"></path>
        </g>
    </g>
</svg>