<?xml version="1.0" encoding="UTF-8"?>
<svg width="44px" height="44px" viewBox="0 0 44 44" version="1.1" xmlns="http://www.w3.org/2000/svg" xmlns:xlink="http://www.w3.org/1999/xlink">
    <!-- Generator: Sketch 63.1 (92452) - https://sketch.com -->
    <title>0001证照管理-1纸质证照管理-7我的证照-3证照挂失</title>
    <desc>Created with Sketch.</desc>
    <g id="页面-1" stroke="none" stroke-width="1" fill="none" fill-rule="evenodd">
        <g id="0001证照管理-1纸质证照管理-7我的证照-改" transform="translate(-1583.000000, -587.000000)" fill="#999999" fill-rule="nonzero">
            <path d="M1615.5,606.5 C1619.28545,606.5 1622.3691,609.504783 1622.49594,613.25935 L1622.5,613.5 L1622.5,615 L1624,615 C1625.65685,615 1627,616.343146 1627,618 L1627,628 C1627,629.656854 1625.65685,631 1624,631 L1607,631 C1605.34315,631 1604,629.656854 1604,628 L1604,618 C1604,616.343146 1605.34315,615 1607,615 L1608.5,615 L1608.5,613.5 C1608.5,609.634007 1611.63401,606.5 1615.5,606.5 Z M1624,618 L1607,618 L1607,628 L1624,628 L1624,618 Z M1618.98551,587 C1620.64348,587 1622,588.386949 1622,590.082109 L1622,590.082109 L1622,600.932195 C1622,601.764624 1621.32518,602.439441 1620.49275,602.439441 C1619.66032,602.439441 1618.98551,601.764624 1618.98551,600.932195 L1618.98551,600.932195 L1618.98551,590.086925 L1618.9808,590.082109 L1586.0192,590.082109 L1586.01449,590.086925 L1586.01449,623.913075 L1586.0192,623.917891 L1596.27489,623.917891 C1597.12599,623.917891 1597.81594,624.607844 1597.81594,625.458945 C1597.81594,626.310046 1597.12599,627 1596.27489,627 L1596.27489,627 L1586.01449,627 C1584.35652,627 1583,625.613051 1583,623.917891 L1583,623.917891 L1583,590.082109 C1583,588.386949 1584.35652,587 1586.01449,587 L1586.01449,587 Z M1615.5,620.5 C1616.27665,620.5 1616.91544,621.046527 1616.99226,621.746883 L1617,621.888889 L1617,624.111111 C1617,624.878173 1616.32843,625.5 1615.5,625.5 C1614.72335,625.5 1614.08456,624.953473 1614.00774,624.253117 L1614,624.111111 L1614,621.888889 C1614,621.121827 1614.67157,620.5 1615.5,620.5 Z M1615.5,609.5 C1613.3578,609.5 1611.60892,611.183968 1611.5049,613.30036 L1611.5,613.5 L1611.5,615 L1619.5,615 L1619.5,613.5 C1619.5,611.290861 1617.70914,609.5 1615.5,609.5 Z M1600.59014,601.003587 C1601.41534,601.003587 1602.08203,601.6743 1602.08203,602.504483 C1602.08203,603.334667 1601.41534,604.00538 1600.59014,604.00538 L1600.59014,604.00538 L1590.49189,604.00538 C1589.66669,604.00538 1589,603.334667 1589,602.504483 C1589,601.6743 1589.66669,601.003587 1590.49189,601.003587 L1590.49189,601.003587 Z M1613.6442,595 C1614.4694,595 1615.14076,595.670713 1615.14076,596.500897 C1615.14076,597.33108 1614.47407,598.001793 1613.64886,598.001793 L1613.64886,598.001793 L1590.49189,598.001793 C1589.66669,598.001793 1589,597.33108 1589,596.500897 C1589,595.670713 1589.66669,595 1590.49189,595 L1590.49189,595 Z" id="0001证照管理-1纸质证照管理-7我的证照-3证照挂失"></path>
        </g>
    </g>
</svg>