<?xml version="1.0" encoding="UTF-8"?>
<svg width="18px" height="18px" viewBox="0 0 18 18" version="1.1" xmlns="http://www.w3.org/2000/svg" xmlns:xlink="http://www.w3.org/1999/xlink">
    <title>任务发布</title>
    <g id="页面-1" stroke="none" stroke-width="1" fill="none" fill-rule="evenodd">
        <g id="知识视图" transform="translate(-287.000000, -186.000000)" fill="#69A1B9" fill-rule="nonzero">
            <g id="任务发布" transform="translate(287.000668, 186.000000)">
                <path d="M17.9547215,0.475862377 C18.0150928,0.639435641 18.0150928,0.819183959 17.9547215,0.982757224 L11.8110363,17.52539 C11.724333,17.7578436 11.5254262,17.9303048 11.2830155,17.983208 C11.0406049,18.0361111 10.7879211,17.962204 10.6122378,17.7870132 L6.8472809,14.022407 L4.24464278,16.4549992 C3.74776407,16.9191287 2.95904774,16.5090847 3.02194378,15.8600581 L3.03326506,15.7808165 L3.85091358,11.6300646 C3.87607199,11.5030265 3.93393635,11.3860507 4.01947496,11.2904576 L4.06601803,11.2401455 L0.213006653,7.39000871 C0.0377994939,7.21434176 -0.0361144812,6.96168156 0.0167936101,6.71929351 C0.0697017014,6.47690547 0.242178995,6.27801715 0.474654177,6.19132189 L17.0188284,0.0456935488 C17.3960492,-0.0941457649 17.8152898,0.0977303327 17.9559794,0.474604573 L17.9547215,0.475862377 Z M13.8954111,3.87570548 L4.96668932,10.5923767 L5.94157793,11.6527051 L13.8954111,3.87570548 Z" id="形状"></path>
            </g>
        </g>
    </g>
</svg>