<?xml version="1.0" encoding="UTF-8"?>
<svg width="44px" height="42px" viewBox="0 0 44 42" version="1.1" xmlns="http://www.w3.org/2000/svg" xmlns:xlink="http://www.w3.org/1999/xlink">
    <!-- Generator: Sketch 63.1 (92452) - https://sketch.com -->
    <title>0001证照管理-1纸质证照管理-7我的证照-2证照变更</title>
    <desc>Created with Sketch.</desc>
    <g id="页面-1" stroke="none" stroke-width="1" fill="none" fill-rule="evenodd">
        <g id="0001证照管理-1纸质证照管理-7我的证照-改" transform="translate(-1583.000000, -478.000000)" fill="#999999" fill-rule="nonzero">
            <path d="M1610.5,501.111111 C1611.34706,501.111111 1611.92837,501.625943 1611.99383,502.413332 L1612,502.564103 L1612,508.376068 C1612,509.247863 1611.4,509.82906 1610.5,509.82906 C1609.65294,509.82906 1609.07163,509.314228 1609.00617,508.526839 L1609,508.376068 L1609,505.470085 C1608.1,506.632479 1607.5,508.376068 1607.5,509.82906 C1607.5,513.897436 1610.8,517.094017 1615,517.094017 C1615.9,517.094017 1616.5,517.675214 1616.5,518.547009 C1616.5,519.418803 1615.9,520 1615,520 C1609.3,520 1604.5,515.350427 1604.5,509.82906 C1604.5,507.91453 1605.03149,506 1606.09446,504.327744 L1606.3,504.017094 L1604.5,504.017094 C1603.6,504.017094 1603,503.435897 1603,502.564103 C1603,501.74359 1603.53149,501.180493 1604.34435,501.117085 L1604.5,501.111111 L1610.5,501.111111 Z M1615,500 C1616.2,500 1617.4,500.290598 1618.6,500.581197 C1622.8,502.034188 1625.5,505.811966 1625.5,510.17094 C1625.5,512.08547 1624.96851,514 1623.90554,515.672256 L1623.7,515.982906 L1625.5,515.982906 C1626.4,515.982906 1627,516.564103 1627,517.435897 C1627,518.25641 1626.46851,518.819507 1625.65565,518.882915 L1625.5,518.888889 L1619.5,518.888889 C1618.65294,518.888889 1618.07163,518.374057 1618.00617,517.586668 L1618,517.435897 L1618,511.623932 C1618,510.752137 1618.6,510.17094 1619.5,510.17094 C1620.34706,510.17094 1620.92837,510.685772 1620.99383,511.473161 L1621,511.623932 L1621,514.529915 C1621.9,513.367521 1622.5,511.623932 1622.5,510.17094 C1622.5,506.974359 1620.4,504.358974 1617.4,503.196581 C1616.8,502.905983 1615.9,502.905983 1615,502.905983 C1614.1,502.905983 1613.5,502.324786 1613.5,501.452991 C1613.5,500.581197 1614.1,500 1615,500 Z M1618.98551,478 C1620.64348,478 1622,479.386949 1622,481.082109 L1622,481.082109 L1622,491.932195 C1622,492.764624 1621.32518,493.439441 1620.49275,493.439441 C1619.66032,493.439441 1618.98551,492.764624 1618.98551,491.932195 L1618.98551,491.932195 L1618.98551,481.086925 L1618.9808,481.082109 L1586.0192,481.082109 L1586.01449,481.086925 L1586.01449,514.913075 L1586.0192,514.917891 L1596.27489,514.917891 C1597.12599,514.917891 1597.81594,515.607844 1597.81594,516.458945 C1597.81594,517.310046 1597.12599,518 1596.27489,518 L1596.27489,518 L1586.01449,518 C1584.35652,518 1583,516.613051 1583,514.917891 L1583,514.917891 L1583,481.082109 C1583,479.386949 1584.35652,478 1586.01449,478 L1586.01449,478 Z M1600.59014,492.003587 C1601.41534,492.003587 1602.08203,492.6743 1602.08203,493.504483 C1602.08203,494.334667 1601.41534,495.00538 1600.59014,495.00538 L1600.59014,495.00538 L1590.49189,495.00538 C1589.66669,495.00538 1589,494.334667 1589,493.504483 C1589,492.6743 1589.66669,492.003587 1590.49189,492.003587 L1590.49189,492.003587 Z M1613.6442,486 C1614.4694,486 1615.14076,486.670713 1615.14076,487.500897 C1615.14076,488.33108 1614.47407,489.001793 1613.64886,489.001793 L1613.64886,489.001793 L1590.49189,489.001793 C1589.66669,489.001793 1589,488.33108 1589,487.500897 C1589,486.670713 1589.66669,486 1590.49189,486 L1590.49189,486 Z" id="0001证照管理-1纸质证照管理-7我的证照-2证照变更"></path>
        </g>
    </g>
</svg>