<?xml version="1.0" encoding="UTF-8"?>
<svg width="44px" height="44px" viewBox="0 0 44 44" version="1.1" xmlns="http://www.w3.org/2000/svg" xmlns:xlink="http://www.w3.org/1999/xlink">
    <!-- Generator: Sketch 63.1 (92452) - https://sketch.com -->
    <title>0001证照管理-1纸质证照管理-7我的证照-5证照注销</title>
    <desc>Created with Sketch.</desc>
    <g id="页面-1" stroke="none" stroke-width="1" fill="none" fill-rule="evenodd">
        <g id="0001证照管理-1纸质证照管理-7我的证照-改" transform="translate(-1583.000000, -813.000000)" fill="#999999" fill-rule="nonzero">
            <path d="M1615,833 C1621.62742,833 1627,838.372583 1627,845 C1627,851.627417 1621.62742,857 1615,857 C1608.37258,857 1603,851.627417 1603,845 C1603,838.372583 1608.37258,833 1615,833 Z M1615,836 C1610.02944,836 1606,840.029437 1606,845 C1606,849.970563 1610.02944,854 1615,854 C1619.97056,854 1624,849.970563 1624,845 C1624,840.029437 1619.97056,836 1615,836 Z M1618.98551,813 C1620.58427,813 1621.90272,814.28965 1621.99486,815.901714 L1622,816.082109 L1622,826.932195 C1622,827.764624 1621.32518,828.439441 1620.49275,828.439441 C1619.70657,828.439441 1619.06097,827.837521 1618.99167,827.069385 L1618.98551,826.932195 L1618.98551,816.086925 L1618.9808,816.082109 L1586.0192,816.082109 L1586.01449,816.086925 L1586.01449,849.913075 L1586.0192,849.917891 L1596.27489,849.917891 C1597.12599,849.917891 1597.81594,850.607844 1597.81594,851.458945 C1597.81594,852.262763 1597.20052,852.922841 1596.41515,852.993702 L1596.27489,853 L1586.01449,853 C1584.41573,853 1583.09728,851.71035 1583.00514,850.098286 L1583,849.917891 L1583,816.082109 C1583,814.447491 1584.26136,813.099461 1585.83805,813.005258 L1586.01449,813 L1618.98551,813 Z M1612.25341,840.494774 L1612.34835,840.580583 L1615,843.232233 L1617.65165,840.580583 C1618.13981,840.092427 1618.93126,840.092427 1619.41942,840.580583 C1619.87706,841.038228 1619.90567,841.762447 1619.50523,842.253414 L1619.41942,842.34835 L1616.76777,845 L1619.41942,847.65165 C1619.90757,848.139806 1619.90757,848.931262 1619.41942,849.419417 C1618.96177,849.877063 1618.23755,849.905666 1617.74659,849.505226 L1617.65165,849.419417 L1615,846.767767 L1612.34835,849.419417 C1611.86019,849.907573 1611.06874,849.907573 1610.58058,849.419417 C1610.12294,848.961772 1610.09433,848.237553 1610.49477,847.746586 L1610.58058,847.65165 L1613.23223,845 L1610.58058,842.34835 C1610.09243,841.860194 1610.09243,841.068738 1610.58058,840.580583 C1611.03823,840.122937 1611.76245,840.094334 1612.25341,840.494774 Z M1600.59014,827.003587 C1601.41534,827.003587 1602.08203,827.6743 1602.08203,828.504483 C1602.08203,829.285833 1601.49147,829.925921 1600.73402,829.998522 L1600.59014,830.00538 L1590.49189,830.00538 C1589.66669,830.00538 1589,829.334667 1589,828.504483 C1589,827.723134 1589.59056,827.083046 1590.34802,827.010445 L1590.49189,827.003587 L1600.59014,827.003587 Z M1613.6442,821 C1614.4694,821 1615.14076,821.670713 1615.14076,822.500897 C1615.14076,823.282246 1614.55019,823.922334 1613.79274,823.994935 L1613.64886,824.001793 L1590.49189,824.001793 C1589.66669,824.001793 1589,823.33108 1589,822.500897 C1589,821.719548 1589.59056,821.079459 1590.34802,821.006858 L1590.49189,821 L1613.6442,821 Z" id="0001证照管理-1纸质证照管理-7我的证照-5证照注销"></path>
        </g>
    </g>
</svg>