<?xml version="1.0" encoding="UTF-8"?>
<svg width="7px" height="14px" viewBox="0 0 7 14" version="1.1" xmlns="http://www.w3.org/2000/svg" xmlns:xlink="http://www.w3.org/1999/xlink">
    <title>向下 copy 13备份 2</title>
    <g id="页面-1" stroke="none" stroke-width="1" fill="none" fill-rule="evenodd">
        <g id="机构管理-默认" transform="translate(-354.000000, -565.000000)" fill="#999999">
            <path d="M364,569.390179 C364,569.182927 363.799096,569.012207 363.555104,569 L351.473481,569 C351.215267,569 351,569.182927 351,569.402386 C351,569.51219 351.057346,569.621964 351.143558,569.68291 L357.083935,574.804866 C357.083935,574.804866 357.327787,575 357.485707,575 C357.614727,575 357.729559,574.951291 357.815631,574.878019 L363.813459,569.707354 C363.84222,569.68291 363.885168,569.658496 363.899531,569.634201 L363.928291,569.609757 C363.928291,569.609757 364,569.475539 364,569.390179 Z" id="向下-copy-13备份-2" transform="translate(357.500000, 572.000000) rotate(-90.000000) translate(-357.500000, -572.000000) "></path>
        </g>
    </g>
</svg>