<?xml version="1.0" encoding="UTF-8"?>
<svg width="19px" height="19px" viewBox="0 0 19 19" version="1.1" xmlns="http://www.w3.org/2000/svg" xmlns:xlink="http://www.w3.org/1999/xlink">
    <title>打开文件夹</title>
    <g id="页面-1" stroke="none" stroke-width="1" fill="none" fill-rule="evenodd" opacity="0.5">
        <g id="机构管理-默认" transform="translate(-340.000000, -443.000000)" fill-rule="nonzero">
            <g id="打开文件夹" transform="translate(340.000000, 443.000000)">
                <rect id="矩形" fill="#000000" opacity="0" x="0" y="0" width="19" height="19"></rect>
                <path d="M17.6993164,5.57939453 C17.1946289,4.80009766 5.50888672,5.21201172 4.40859375,6.22138672 C3.30830078,7.23076172 2.48447266,15.7083984 2.89638672,16.0293945 C3.30830078,16.3503906 16.0498047,16.3503906 16.4617188,15.7083984 C16.8754883,15.0664063 18.2040039,6.35869141 17.6993164,5.57939453 L17.6993164,5.57939453 Z" id="路径" fill="#1D1D1B"></path>
                <path d="M10.6466797,4.68320313 C10.3368164,3.94287109 9.90449219,3.14873047 9.40351563,2.92050781 C8.39599609,2.46220703 2.16162109,3.0578125 1.38232422,3.79072266 C0.732910156,4.40302734 1.86845703,11.4222656 2.26181641,13.7360352 C2.39726562,11.1161133 3.05410156,6.40693359 3.85566406,5.6703125 C4.40488281,5.17119141 7.55175781,4.81865234 10.6466797,4.68320313 Z" id="路径" fill="#1D1D1B"></path>
            </g>
        </g>
    </g>
</svg>