<?xml version="1.0" encoding="UTF-8"?>
<svg width="29px" height="39px" viewBox="0 0 29 39" version="1.1" xmlns="http://www.w3.org/2000/svg" xmlns:xlink="http://www.w3.org/1999/xlink">
    <title>新密码</title>
    <g id="页面-1" stroke="none" stroke-width="1" fill="none" fill-rule="evenodd">
        <g id="登录页-密码登录" transform="translate(-1162.000000, -429.000000)" fill="#98ACC2" fill-rule="nonzero">
            <g id="新密码" transform="translate(1162.000000, 429.000000)">
                <path d="M24.6506926,16.0886747 L7.59512816,16.0886747 C7.89062251,13.6453012 5.76213979,3.72144578 13.6204426,3.48180723 C21.0909091,3.19987952 19.9274001,12.5363855 19.9274001,12.5363855 L23.5841427,12.5598795 C23.5841427,12.5598795 24.6460755,0.0610843373 13.6158255,0 C1.57904792,0.610843373 4.40009553,14.1574699 4.03534469,16.0886747 L4.34930744,16.0886747 C1.94841586,16.0886747 0,18.0151807 0,20.3833735 L0,34.7053012 C0,37.0781928 1.94841586,39 4.34930744,39 L24.6506926,39 C27.0515841,39 29,37.073494 29,34.7053012 L29,20.3880723 C29,18.0151807 27.0515841,16.0886747 24.6506926,16.0886747 Z M15.9474606,28.5827711 L15.9474606,31.8437349 C15.9474606,32.6331325 15.2964496,33.2768675 14.4976915,33.2768675 C13.6989333,33.2768675 13.0479223,32.6331325 13.0479223,31.8437349 L13.0479223,28.5827711 C12.1845248,28.0846988 11.5981532,27.1731325 11.5981532,26.1159036 C11.5981532,24.5324096 12.895558,23.2496386 14.4976915,23.2496386 C16.0998249,23.2496386 17.3972297,24.5324096 17.3972297,26.1159036 C17.3972297,27.1731325 16.8108581,28.0893976 15.9474606,28.5827711 Z" id="形状"></path>
            </g>
        </g>
    </g>
</svg>