<?xml version="1.0" encoding="UTF-8"?>
<svg width="18px" height="18px" viewBox="0 0 18 18" version="1.1" xmlns="http://www.w3.org/2000/svg" xmlns:xlink="http://www.w3.org/1999/xlink">
    <title>search</title>
    <g id="页面-1" stroke="none" stroke-width="1" fill="none" fill-rule="evenodd" fill-opacity="0.65">
        <g id="首页" transform="translate(-1481.000000, -23.000000)" fill="#000000" fill-rule="nonzero">
            <g id="search" transform="translate(1481.000000, 23.000000)">
                <path d="M17.7890625,16.7645089 L13.6566964,12.6341518 C14.7636161,11.2982143 15.4285714,9.58459821 15.4285714,7.71428571 C15.4285714,3.45334821 11.9752232,0 7.71428571,0 C3.45334821,0 0,3.45334821 0,7.71428571 C0,11.9752232 3.45334821,15.4285714 7.71428571,15.4285714 C9.58459821,15.4285714 11.2982143,14.7636161 12.6341518,13.6566964 L16.7665179,17.7890625 C16.9071429,17.9296875 17.0919643,18 17.2787946,18 C17.465625,18 17.6484375,17.9296875 17.7910714,17.7890625 C18.0703125,17.5058036 18.0703125,17.0477679 17.7890625,16.7645089 Z M10.153125,13.4899554 C9.38169643,13.8174107 8.56205357,13.9821429 7.71428571,13.9821429 C6.86651786,13.9821429 6.046875,13.8174107 5.27544643,13.4899554 C4.53013393,13.1745536 3.85915179,12.7225446 3.28258929,12.1459821 C2.70602679,11.5694196 2.25401786,10.8984375 1.93861607,10.153125 C1.61116071,9.38169643 1.44642857,8.56205357 1.44642857,7.71428571 C1.44642857,6.86651786 1.61116071,6.046875 1.93861607,5.27544643 C2.25401786,4.53013393 2.70602679,3.85915179 3.28258929,3.28258929 C3.85915179,2.70602679 4.53013393,2.25401786 5.27544643,1.93861607 C6.046875,1.61116071 6.86651786,1.44642857 7.71428571,1.44642857 C8.56205357,1.44642857 9.38169643,1.61116071 10.153125,1.93861607 C10.8984375,2.25401786 11.5694196,2.70602679 12.1459821,3.28258929 C12.7225446,3.85915179 13.1745536,4.53013393 13.4899554,5.27544643 C13.8174107,6.046875 13.9821429,6.86651786 13.9821429,7.71428571 C13.9821429,8.56205357 13.8174107,9.38169643 13.4899554,10.153125 C13.1745536,10.8984375 12.7225446,11.5694196 12.1459821,12.1459821 C11.5694196,12.7225446 10.9004464,13.1745536 10.153125,13.4899554 Z" id="Shape"></path>
            </g>
        </g>
    </g>
</svg>