<?xml version="1.0" encoding="UTF-8"?>
<svg width="16px" height="13px" viewBox="0 0 16 13" version="1.1" xmlns="http://www.w3.org/2000/svg" xmlns:xlink="http://www.w3.org/1999/xlink">
    <title>错误列表备份 2</title>
    <g id="页面-1" stroke="none" stroke-width="1" fill="none" fill-rule="evenodd">
        <g id="机构管理-默认" transform="translate(-530.000000, -329.000000)" fill="#A7A7A7" fill-rule="nonzero">
            <g id="错误列表备份-2" transform="translate(530.000000, 329.000000)">
                <path d="M15.4729701,7.15006556 L7.52694369,7.15006556 C7.23569904,7.15006556 7,6.85934421 7,6.50007087 C7,6.14108103 7.23569903,5.85004074 7.52694369,5.85004074 L15.4729701,5.85004074 C15.7643297,5.85004074 16,6.1410633 16,6.50007087 C16,6.85934421 15.7643297,7.15006556 15.4729701,7.15006556 L15.4729701,7.15006556 Z M15.3308935,1.95003721 L5.24277815,1.95003721 C4.8730198,1.95003721 4.57378104,1.65899693 4.57378104,1.30002482 C4.57378104,0.941070416 4.87301978,0.650030129 5.24277815,0.650030129 L15.3308935,0.650030129 C15.7007977,0.650030129 16,0.941070416 16,1.30002482 C16,1.65899693 15.7007977,1.95003721 15.3308935,1.95003721 L15.3308935,1.95003721 Z M3,6 L6,6 C5.00003408,7.33333333 4.50005111,8 4.50005111,8 C4.50005111,8 4.00003408,7.33333333 3,6 Z M3,11 L6,11 C5.00003408,12.3333333 4.50005111,13 4.50005111,13 C4.50005111,13 4.00003408,12.3333333 3,11 Z M1.33810364,2.60001417 C0.599170488,2.60001417 0,2.01796904 0,1.3000248 C0,0.582062844 0.59917047,0 1.33810364,0 C2.07696385,0 2.67611609,0.582045131 2.67611609,1.3000248 C2.67611609,2.01798677 2.07696384,2.60001417 1.33810364,2.60001417 L1.33810364,2.60001417 Z M7.52694369,11.0499982 L15.4729701,11.0499982 C15.7643297,11.0499982 16,11.3407373 16,11.7000106 C16,12.059284 15.7643297,12.350023 15.4729701,12.350023 L7.52694369,12.350023 C7.23569904,12.350023 7,12.059284 7,11.7000106 C7,11.3407373 7.23568468,11.0499982 7.52694369,11.0499982 L7.52694369,11.0499982 Z" id="形状"></path>
            </g>
        </g>
    </g>
</svg>