<?xml version="1.0" encoding="UTF-8"?>
<svg width="17px" height="18px" viewBox="0 0 17 18" version="1.1" xmlns="http://www.w3.org/2000/svg" xmlns:xlink="http://www.w3.org/1999/xlink">
    <title>日期</title>
    <g id="页面-1" stroke="none" stroke-width="1" fill="none" fill-rule="evenodd">
        <g id="首页" transform="translate(-1575.000000, -23.000000)" fill="#595959" fill-rule="nonzero">
            <g id="日期" transform="translate(1575.000000, 23.000000)">
                <path d="M15.3129771,2.23218997 L13.9287532,2.23218997 L13.9287532,0.712401055 C13.9287532,0.322955145 13.6346056,0 13.2798982,0 C12.9251908,0 12.6310433,0.322955145 12.6310433,0.712401055 L12.6310433,2.23218997 L4.41221374,2.23218997 L4.41221374,0.712401055 C4.41221374,0.322955145 4.11806616,0 3.76335878,0 C3.4086514,0 3.11450382,0.322955145 3.11450382,0.712401055 L3.11450382,2.23218997 L1.7302799,2.23218997 C0.795928753,2.23218997 0.0432569975,3.0585752 0.0432569975,4.08443272 L0.0432569975,6.96253298 C0.017302799,7.03852243 0,7.12401055 0,7.21899736 C0,7.31398417 0.017302799,7.38997361 0.0432569975,7.47546174 L0.0432569975,16.1477573 C0.0432569975,17.1736148 0.795928753,18 1.7302799,18 L15.3129771,18 C16.2473282,18 17,17.1736148 17,16.1477573 L17,4.08443272 C17,3.0585752 16.2473282,2.23218997 15.3129771,2.23218997 Z M1.7302799,3.65699208 L3.11450382,3.65699208 L3.11450382,4.98680739 C3.11450382,5.3762533 3.4086514,5.69920844 3.76335878,5.69920844 C4.11806616,5.69920844 4.41221374,5.3762533 4.41221374,4.98680739 L4.41221374,3.65699208 L12.6310433,3.65699208 L12.6310433,4.98680739 C12.6310433,5.3762533 12.9251908,5.69920844 13.2798982,5.69920844 C13.6346056,5.69920844 13.9287532,5.3762533 13.9287532,4.98680739 L13.9287532,3.65699208 L15.3129771,3.65699208 C15.5292621,3.65699208 15.7022901,3.8469657 15.7022901,4.08443272 L15.7022901,6.50659631 L1.34096692,6.50659631 L1.34096692,4.08443272 C1.34096692,3.8469657 1.51399491,3.65699208 1.7302799,3.65699208 Z M15.3129771,16.5751979 L1.7302799,16.5751979 C1.51399491,16.5751979 1.34096692,16.3852243 1.34096692,16.1477573 L1.34096692,7.93139842 L15.7022901,7.93139842 L15.7022901,16.1477573 C15.7022901,16.3852243 15.5292621,16.5751979 15.3129771,16.5751979 Z" id="形状"></path>
            </g>
        </g>
    </g>
</svg>