<?xml version="1.0" encoding="UTF-8"?>
<svg width="18px" height="16px" viewBox="0 0 18 16" version="1.1" xmlns="http://www.w3.org/2000/svg" xmlns:xlink="http://www.w3.org/1999/xlink">
    <title>消息</title>
    <g id="页面-1" stroke="none" stroke-width="1" fill="none" fill-rule="evenodd">
        <g id="首页" transform="translate(-306.000000, -398.000000)" fill="#595959" fill-rule="nonzero">
            <g id="消息" transform="translate(306.000000, 398.000000)">
                <path d="M14.0000434,7.99999883 C14.0016671,9.40576382 13.4393418,10.7541989 12.4375385,11.7468274 L13.3802498,12.6835345 C14.6305067,11.4412495 15.3328946,9.75634404 15.3328946,7.99948131 C15.3328946,6.24261859 14.6305067,4.5577131 13.3802498,3.31542811 L12.4375385,4.25317028 C13.4393418,5.24579874 14.0016671,6.59423384 14.0000434,7.99999883 L14.0000434,7.99999883 Z M16.6667183,7.99999883 C16.6694858,10.1087721 15.8262154,12.1316661 14.323586,13.6208627 L15.2662973,14.5575698 C17.016657,12.8183708 18,10.4595031 18,7.99989533 C18,5.54028751 17.016657,3.18141982 15.2662973,1.44222084 L14.323586,2.37892797 C15.8262666,3.86817521 16.6695413,5.89115389 16.6667183,7.99999883 Z M12.4380446,12.6841046 C12.6064617,12.8514491 12.851935,12.9168045 13.0819971,12.8555522 C13.3120592,12.7942999 13.4917582,12.6157454 13.5534031,12.3871486 C13.6150481,12.1585518 13.5492737,11.9146419 13.3808565,11.7472974 C13.2124394,11.5799529 12.9669661,11.5145974 12.736904,11.5758497 C12.5068419,11.6371021 12.3271429,11.8156565 12.265498,12.0442533 C12.203853,12.2728502 12.2696274,12.5167601 12.4380446,12.6841046 Z M14.3236967,14.5575285 C14.4921138,14.724873 14.7375871,14.7902284 14.9676492,14.7289761 C15.1977113,14.6677238 15.3774103,14.4891693 15.4390552,14.2605725 C15.5007002,14.0319757 15.4349258,13.7880658 15.2665086,13.6207213 C15.0061583,13.3620291 14.584047,13.3620291 14.3236967,13.6207213 C14.0633463,13.8794134 14.0633463,14.2988363 14.3236967,14.5575285 Z M12.4379663,4.25260033 C12.6063834,4.41994482 12.8518568,4.48530028 13.0819188,4.42404794 C13.3119809,4.36279561 13.4916799,4.18424117 13.5533248,3.95564434 C13.6149698,3.72704752 13.5491954,3.48313761 13.3807783,3.31579312 C13.1204279,3.05710095 12.6983166,3.05710095 12.4379663,3.31579312 C12.177616,3.57448529 12.177616,3.99390816 12.4379663,4.25260033 L12.4379663,4.25260033 Z M14.3235971,2.37897904 C14.4920143,2.54632354 14.7374876,2.61167901 14.9675497,2.55042668 C15.1976118,2.48917435 15.3773107,2.3106199 15.4389557,2.08202307 C15.5006006,1.85342624 15.4348262,1.60951633 15.2664091,1.44217184 C15.097992,1.27482734 14.8525186,1.20947187 14.6224565,1.2707242 C14.3923944,1.33197653 14.2126955,1.51053098 14.1510505,1.73912781 C14.0894056,1.96772464 14.15518,2.21163456 14.3235971,2.37897904 L14.3235971,2.37897904 Z M9.33336224,1.17433138e-06 L8.93065266,1.17433138e-06 C8.59132543,-0.000448276618 8.26468583,0.128131099 8.01773317,0.359366684 L4.09063767,4.02546247 L0.666668731,4.02546247 C0.298477758,4.02546247 0,4.32203922 0,4.68788519 L0,11.3121125 C0,11.6779584 0.298477758,11.9745352 0.666668731,11.9745352 L4.09063767,11.9745352 L8.01773317,15.640631 C8.26468583,15.8718666 8.59132543,16.0004459 8.93065266,16.0000012 L9.33336224,16.0000012 C10.069411,15.9991967 10.665896,15.4065107 10.6666997,14.6751499 L10.6666997,1.32484781 C10.665896,0.593486922 10.069411,0.000800971285 9.33336224,1.17433138e-06 L9.33336224,1.17433138e-06 Z M3.33333746,10.9809011 L1.33333746,10.9809011 L1.33333746,5.35030792 L3.33333746,5.35030792 L3.33333746,10.9809011 Z M9.33336224,14.6751499 L8.93065266,14.6751499 L4.66668112,10.6944033 L4.66668112,5.30559439 L8.93065266,1.32484781 L9.33336224,1.32484781 L9.33336224,14.6751499 Z" id="形状"></path>
            </g>
        </g>
    </g>
</svg>