<?xml version="1.0" encoding="UTF-8"?>
<svg width="78px" height="56px" viewBox="0 0 78 56" version="1.1" xmlns="http://www.w3.org/2000/svg" xmlns:xlink="http://www.w3.org/1999/xlink">
    <title>编组 18</title>
    <defs>
        <linearGradient x1="51.1606671%" y1="40.0845449%" x2="48.547137%" y2="62.4586879%" id="linearGradient-1">
            <stop stop-color="#70EDDA" offset="0%"></stop>
            <stop stop-color="#B6FDF2" offset="100%"></stop>
        </linearGradient>
        <linearGradient x1="0.135137003%" y1="50.0221151%" x2="100.216135%" y2="50.0221151%" id="linearGradient-2">
            <stop stop-color="#70EDDA" offset="0%"></stop>
            <stop stop-color="#40DEBF" offset="0%"></stop>
            <stop stop-color="#40DEBF" offset="100%"></stop>
        </linearGradient>
        <linearGradient x1="70.4667002%" y1="53.3241914%" x2="10.6826125%" y2="43.5866241%" id="linearGradient-3">
            <stop stop-color="#37E2C5" offset="13%"></stop>
            <stop stop-color="#B6FDF2" offset="69%"></stop>
        </linearGradient>
        <ellipse id="path-4" cx="18.2848812" cy="9.66197183" rx="9.25182792" ry="15.2419412"></ellipse>
        <filter x="-170.2%" y="-67.2%" width="327.0%" height="227.9%" filterUnits="objectBoundingBox" id="filter-5">
            <feOffset dx="-12" dy="-1" in="SourceAlpha" result="shadowOffsetOuter1"></feOffset>
            <feGaussianBlur stdDeviation="4.5" in="shadowOffsetOuter1" result="shadowBlurOuter1"></feGaussianBlur>
            <feColorMatrix values="0 0 0 0 0.094184711   0 0 0 0 0.666326993   0 0 0 0 0.562927785  0 0 0 0.39 0" type="matrix" in="shadowBlurOuter1"></feColorMatrix>
        </filter>
    </defs>
    <g id="页面-1" stroke="none" stroke-width="1" fill="none" fill-rule="evenodd">
        <g id="首页-监管二处-担保" transform="translate(-1011.000000, -368.000000)" fill-rule="nonzero">
            <g id="编组-18" transform="translate(1019.000000, 368.000000)">
                <path d="M67.3018784,26.2464035 C70.1190625,27.9668543 70.1302864,30.7433059 67.3018784,32.4518915 L40.0167207,49.241118 C36.8428595,50.946808 33.0891249,50.946808 29.9152637,49.241118 L2.39440529,32.4518915 C-0.422778829,30.7314407 -0.43400267,27.9549891 2.39440529,26.2464035 L29.679563,9.45717705 C32.8534242,7.75148707 36.6071588,7.75148707 39.78102,9.45717705 L67.3018784,26.2464035 Z" id="路径" fill="url(#linearGradient-1)"></path>
                <path d="M69.4144076,30.0926691 C69.4205009,30.1716827 69.4205009,30.2510899 69.4144076,30.3301035 C69.4144076,30.4013339 69.4144076,30.4606925 69.4144076,30.5319228 C69.4144076,30.6031531 69.4144076,30.6743835 69.4144076,30.7574855 L69.3358427,30.9355614 L69.2348307,31.1729958 L69.1338187,31.3391999 C69.0882007,31.4333342 69.0316451,31.5210726 68.9654653,31.6003778 C68.930798,31.6539912 68.8933278,31.7055155 68.8532298,31.7547102 C68.7612086,31.8779701 68.6598625,31.9931096 68.5501938,32.0989901 L68.4267347,32.2295791 L68.2134871,32.4195266 L68.0114631,32.5857307 L67.7645449,32.7638066 L67.483956,32.9537541 L40.0311395,49.7522411 C39.7080486,49.9397327 39.374466,50.1062448 39.032243,50.2508534 L38.7516542,50.3576989 L38.0894644,50.5832616 C37.8537697,50.5832616 37.6180751,50.7138506 37.3711568,50.7613375 C37.1242386,50.8088244 36.7987555,50.8800547 36.4957195,50.9275416 L36.2936955,50.9275416 C35.8879011,50.9833197 35.4794731,51.0150272 35.070328,51.0225154 L34.8795275,51.0225154 C34.4820113,51.022448 34.084815,50.9986668 33.6898307,50.951285 L33.5102538,50.951285 C33.1286529,50.951285 32.7358284,50.8325678 32.3878982,50.737594 L32.1746507,50.737594 C31.8406225,50.6527585 31.5109592,50.549733 31.1869778,50.4289292 L31.0074009,50.3576989 C30.6186706,50.2113398 30.2430627,50.028582 29.8850454,49.8115997 L2.4097817,32.9537541 C1.21569478,32.393475 0.400391042,31.1952095 0.277306169,29.8196195 L0.277306169,34.2477719 C0.395948714,35.6216008 1.20727887,36.8203353 2.39855814,37.3819065 L29.8962689,54.1685217 C30.2279061,54.3725485 30.5729852,54.5510848 30.928836,54.7027492 L30.9849538,54.7027492 L31.1645307,54.7739796 L31.8042733,54.9995423 L32.1522036,55.0945161 L32.3654511,55.0945161 L32.545028,55.0945161 C32.7807227,55.0945161 33.0164173,55.1894898 33.2633356,55.225105 L33.5102538,55.225105 L33.6898307,55.225105 L33.959196,55.225105 L34.66628,55.225105 L35.3958111,55.225105 L36.1926835,55.225105 L36.282472,55.225105 L36.484496,55.225105 L37.1017915,55.1301312 L37.3599333,55.1301312 L38.0782408,54.9401837 C38.2016999,54.9401837 38.3363826,54.9401837 38.4598417,54.8333382 L38.7404306,54.714621 L39.0210195,54.6077755 C39.3652521,54.4680973 39.6991455,54.30143 40.0199159,54.1091631 L67.3492734,37.3819065 L67.4390618,37.3819065 C67.5031524,37.3452756 67.563354,37.3014968 67.6186387,37.2513176 L67.8767805,37.0732417 L68.0788045,36.9070376 L68.292052,36.7170901 L68.292052,36.7170901 L68.3706169,36.633988 L68.6736529,36.2897081 L68.7409942,36.206606 L68.7409942,36.1353757 C68.8048865,36.0499951 68.8612403,35.9585957 68.9093476,35.8623261 C68.9356073,35.8295709 68.958204,35.7937183 68.9766889,35.7554806 L68.9766889,35.696122 L69.0777009,35.4586875 C69.1030455,35.4187046 69.1220042,35.3745868 69.1338187,35.3280986 C69.1338187,35.3280986 69.1338187,35.3280986 69.1338187,35.3280986 C69.1338187,35.3280986 69.1338187,35.1737662 69.1899365,35.1025359 L69.1899365,34.9482035 L69.1899365,34.9482035 C69.1949303,34.8691468 69.1949303,34.7898257 69.1899365,34.710769 C69.1953425,34.6555152 69.1953425,34.5998187 69.1899365,34.5445649 L69.1899365,29.8908498 C69.2721075,29.9484049 69.3474676,30.0161603 69.4144076,30.0926691 Z" id="路径" fill="#25CBAD"></path>
                <path d="M42.1476718,32.6488146 C42.513819,32.487258 42.7635334,32.117607 42.7927575,31.6938972 C42.7927575,31.3238668 42.6036807,31.0015822 42.1699161,30.7270434 L32.8940288,24.985603 C32.4193989,24.700974 31.8800368,24.5645306 31.3369255,24.5916996 C30.8009503,24.5797397 30.2715193,24.7197293 29.8020664,24.9975394 C29.3794241,25.2601417 29.1569807,25.5704898 29.1681029,25.9405203 C29.197327,26.3642301 29.4470413,26.7338811 29.8131886,26.8954376 L39.0890759,32.6488146 C39.5561161,32.9320914 40.0880098,33.0685956 40.6239349,33.042718 C41.1555507,33.0602288 41.6817923,32.9241893 42.1476718,32.6488146 M32.9385175,36.4923568 C33.4126248,36.766103 33.946585,36.898029 34.4844987,36.8743238 C35.0241669,36.8878284 35.5575525,36.7478078 36.0304799,36.4684839 C36.4087769,36.3299624 36.6630564,35.9485092 36.6630564,35.5195348 C36.6630564,35.0905604 36.4087769,34.7091072 36.0304799,34.5705857 L26.776837,28.8172088 C26.3063197,28.5435493 25.7769499,28.4076928 25.2419779,28.4233054 C24.7134699,28.4012813 24.1896919,28.5376795 23.7293632,28.8172088 C23.3682674,28.9880379 23.1185531,29.3514235 23.0731553,29.7721261 C23.0936908,30.1984179 23.340164,30.5743127 23.7071189,30.7389799 L32.9830062,36.4923568 M46.7300046,25.9524568 C46.4088952,26.1526523 46.116654,26.4019538 45.8624756,26.6925177 C45.6212663,26.9419595 45.4449118,27.2546599 45.3508559,27.5996892 C45.2562069,27.9191651 45.2801126,28.2655204 45.4175889,28.566543 C45.6113534,28.9587771 45.9147331,29.27602 46.2851179,29.4737144 L49.8998222,31.7058337 L36.0193578,40.3478356 C35.539782,40.654567 35.0121222,40.864904 34.4622544,40.9685318 C33.8987704,41.0897226 33.323254,41.1338407 32.7494407,41.099833 C32.1909284,41.0723414 31.6360737,40.988415 31.0922378,40.8491672 C30.6266636,40.7247361 30.1780513,40.5361654 29.7575777,40.2881532 L17.523194,32.7443063 C17.2119299,32.5497243 16.9546855,32.2695255 16.7780088,31.9326266 C16.5913627,31.6024492 16.4772541,31.2309783 16.4443438,30.8464081 C16.4216624,30.4589657 16.4945519,30.0719528 16.655665,29.7243802 C16.8408767,29.3236226 17.1410745,28.997262 17.5120718,28.7933358 L34.1953224,18.360864 C34.6007608,18.1136903 35.0398859,17.9364585 35.4966159,17.8356594 C36.044288,17.6987548 36.6029784,17.6188088 37.164941,17.5969301 C37.7333579,17.5706005 38.3028305,17.5985624 38.8666325,17.6804854 C39.3571812,17.7528017 39.8317587,17.9185339 40.2680256,18.1698805 L49.7218676,24.0306856 L46.7300046,25.9524568 M52.3578212,27.6832444 C52.3578212,28.208449 52.3578212,28.6381618 52.3578212,28.9723828 C52.3607706,29.2452426 52.3346494,29.51757 52.279966,29.7840626 C52.2476437,29.9584346 52.1706043,30.11966 52.0575226,30.2495848 C51.9657236,30.3405323 51.8650403,30.4205729 51.7572241,30.4883141 L51.3679483,30.7270434 L47.7087553,28.4710512 C47.5696657,28.3972288 47.473811,28.2541016 47.4529455,28.0890843 C47.4553206,27.9251337 47.497489,27.7646813 47.5752893,27.6235621 C47.6633595,27.4646991 47.7719524,27.3200246 47.8978322,27.1938493 C48.0032242,27.0823156 48.1187257,26.9823496 48.2426193,26.8954376 L51.2900931,24.9975394 L51.3679483,24.9975394 C51.4964095,25.0726336 51.6128169,25.1693536 51.7127355,25.2840146 C51.8182387,25.4143522 51.9011124,25.5639352 51.9574231,25.7256639 C52.0435812,25.9648627 52.1069305,26.2128165 52.1465,26.4657248 C52.1465,26.7641365 52.2577216,27.1461034 52.3133325,27.6593715" id="形状" fill="url(#linearGradient-2)"></path>
                <path d="M33.5012262,10.1547592 L33.5012262,13.051095 C33.5012262,15.4251408 32.0210479,17.7991866 29.0606915,19.5678507 C23.1286794,23.2001407 13.4679741,23.2001407 7.49076575,19.5678507 C4.48521298,17.7517057 2.97113752,15.3539194 2.97113752,12.9680034 L2.97113752,10.0597974 C2.97113752,12.4338431 4.46261484,14.8078889 7.49076575,16.6715148 C13.4679741,20.3038049 23.1286794,20.2325835 29.0606915,16.6715148 C32.0097489,14.8672401 33.4899271,12.5169348 33.5012262,10.1547592 Z" id="路径" fill="#25CBAD"></path>
                <g id="椭圆形" transform="translate(18.284881, 9.661972) rotate(-89.840000) translate(-18.284881, -9.661972) ">
                    <use fill="black" fill-opacity="1" filter="url(#filter-5)" xlink:href="#path-4"></use>
                    <use fill="url(#linearGradient-3)" xlink:href="#path-4"></use>
                </g>
                <path d="M28.5434872,10.1040148 C28.192186,9.89199577 27.7996762,9.78452247 27.4022965,9.79154485 L16.8462832,9.79154485 C16.4485159,9.8026536 16.0551134,9.69493586 15.7050925,9.47907487 C15.4457871,9.3271825 15.2764279,9.02992396 15.2600282,8.69789991 L15.2600282,5.4950826 C15.2329782,5.15932171 15.0499577,4.86600202 14.7807281,4.72692722 C14.429427,4.51490816 14.0369172,4.40743486 13.6395375,4.41445724 C12.7494088,4.41445724 12.0190468,4.88316222 12.0190468,5.46904343 L11.9505754,10.130054 C11.9866167,10.6986622 12.2934539,11.1987529 12.7494088,11.4320123 C13.3311615,11.7871138 13.9842937,11.9621776 14.6437853,11.939776 L27.4022965,11.939776 C28.2924252,11.939776 29.0227872,11.471071 29.0115073,10.8851898 C28.9872426,10.5551926 28.8081157,10.2660955 28.5434872,10.130054" id="路径" fill="#DCFFFF"></path>
            </g>
        </g>
    </g>
</svg>