<?xml version="1.0" encoding="UTF-8"?>
<svg width="18px" height="17px" viewBox="0 0 18 17" version="1.1" xmlns="http://www.w3.org/2000/svg" xmlns:xlink="http://www.w3.org/1999/xlink">
    <title>更多</title>
    <g id="页面-1" stroke="none" stroke-width="1" fill="none" fill-rule="evenodd">
        <g id="菜单样式" transform="translate(-1739.000000, -202.000000)" fill="#4DA1FF" fill-rule="nonzero">
            <g id="更多" transform="translate(1739.000000, 202.000000)">
                <path d="M5.96411753,2.99143683 L17.0358824,2.99143683 C17.5683499,2.99143683 18,2.54563851 18,1.99571842 C18,1.44579832 17.5683499,1 17.0358824,1 L5.96411753,1 C5.43165013,1 5.00000003,1.44579833 5.00000003,1.99571842 C5.00000003,2.5456385 5.43165013,2.99143683 5.96411753,2.99143683 L5.96411753,2.99143683 Z M5.96411753,7.7 C5.43170731,7.70008351 5.00014643,8.14585737 5.00014643,8.6957184 C5.00014643,9.24557944 5.43170731,9.69135329 5.96411753,9.69143681 L17.0358824,9.69143681 C17.5682927,9.69135329 17.9998535,9.24557944 17.9998535,8.6957184 C17.9998535,8.14585737 17.5682927,7.70008351 17.0358824,7.7 L5.96411753,7.7 Z M17.0358824,14.0085632 L5.96411753,14.0085632 C5.43165012,14.0085632 5,14.4543615 5,15.0042816 C5,15.5542017 5.43165012,16 5.96411753,16 L17.0358824,16 C17.5683499,16 18,15.5542017 18,15.0042816 C18,14.4543615 17.5683499,14.0085632 17.0358824,14.0085632 L17.0358824,14.0085632 Z" id="形状"></path>
                <path d="M0,2 C0,2.71453116 0.381197828,3.37478521 1,3.7320508 C1.61880215,4.0893164 2.38119785,4.0893164 3,3.7320508 C3.61880217,3.37478521 4,2.71453116 4,2 C4,0.895430491 3.1045695,0 2,0 C0.8954305,0 0,0.895430491 0,2 L0,2 Z" id="路径"></path>
                <path d="M0,8.6 C0,9.31453116 0.381197828,9.97478521 1,10.3320508 C1.61880215,10.6893164 2.38119785,10.6893164 3,10.3320508 C3.61880217,9.97478521 4,9.31453116 4,8.6 C4,7.49543049 3.1045695,6.6 2,6.6 C0.8954305,6.6 0,7.49543049 0,8.6 Z" id="路径"></path>
                <path d="M0,15 C0,15.7145312 0.381197828,16.3747852 1,16.7320508 C1.61880215,17.0893164 2.38119785,17.0893164 3,16.7320508 C3.61880217,16.3747852 4,15.7145312 4,15 C4,13.8954305 3.1045695,13 2,13 C0.8954305,13 0,13.8954305 0,15 L0,15 Z" id="路径"></path>
            </g>
        </g>
    </g>
</svg>