<?xml version="1.0" encoding="UTF-8"?>
<svg width="17px" height="17px" viewBox="0 0 17 17" version="1.1" xmlns="http://www.w3.org/2000/svg" xmlns:xlink="http://www.w3.org/1999/xlink">
    <title>刷新备份 5</title>
    <g id="页面-1" stroke="none" stroke-width="1" fill="none" fill-rule="evenodd">
        <g id="首页-监管二处-担保" transform="translate(-1051.000000, -188.000000)" fill="#BABABA" fill-rule="nonzero">
            <g id="刷新备份-5" transform="translate(1051.000000, 188.000000)">
                <path d="M17,6.53628167 L11.7696748,6.40551928 L14.1128605,4.07402587 C12.7710518,2.33281497 10.6989126,1.310713 8.50072149,1.30578608 C4.95951136,1.2890784 1.93316556,3.85284607 1.36745338,7.34873138 C0.801741207,10.8446167 2.86504882,14.2320574 6.23078606,15.3331206 C9.59652329,16.4341838 13.2628669,14.9211342 14.8725652,11.7667773 L16.3462093,11.7667773 C14.877667,15.2943628 11.2357009,17.4083234 7.44432423,16.9338312 C3.6529475,16.4593389 0.644233271,13.513043 0.0902665088,9.73233973 C-0.463700253,5.95163641 1.57326781,2.26597486 5.06913108,0.723651724 C8.56499435,-0.818671408 12.6603288,0.161509061 15.0791631,3.11946042 L16.8993162,1.30578608 L17,6.53628167 Z" id="路径"></path>
            </g>
        </g>
    </g>
</svg>