<?xml version="1.0" encoding="UTF-8"?>
<svg width="16px" height="14px" viewBox="0 0 16 14" version="1.1" xmlns="http://www.w3.org/2000/svg" xmlns:xlink="http://www.w3.org/1999/xlink">
    <title>个人中心-公司信息</title>
    <g id="页面-1" stroke="none" stroke-width="1" fill="none" fill-rule="evenodd">
        <g id="机构管理-默认" transform="translate(-384.000000, -505.000000)" fill="#8E8E8D" fill-rule="nonzero">
            <g id="个人中心-公司信息" transform="translate(384.000000, 505.000000)">
                <path d="M15.4271693,12.9237237 L14.8775374,12.9237237 L14.8775374,6.46102102 C14.8775374,5.86906907 14.3635958,5.38474474 13.735445,5.38474474 L10.3073834,5.38474474 C10.3002454,5.38474474 10.2931073,5.38642643 10.2859692,5.38642643 L10.2859692,1.07627628 C10.2859692,0.484324324 9.77202766,0 9.14387687,0 L2.2841847,0 C1.65603391,0 1.14209235,0.484324324 1.14209235,1.07627628 L1.14209235,12.9237237 L0.571046174,12.9237237 C0.256970778,12.9237237 0,13.1658859 0,13.4618619 C0,13.7578378 0.256970778,14 0.571046174,14 L15.4289538,14 C15.7430292,14 16,13.7578378 16,13.4618619 C16,13.1658859 15.7412447,12.9237237 15.4271693,12.9237237 Z M10.3073834,6.46102102 L13.735445,6.46102102 L13.735445,12.9237237 L10.3073834,12.9237237 L10.3073834,6.46102102 Z M2.2841847,12.9237237 L2.2841847,1.07627628 L9.14209235,1.07627628 L9.14209235,12.9237237 L2.2841847,12.9237237 Z M7.42716931,3.27423423 L3.99910774,3.27423423 C3.68324783,3.27423423 3.42806157,3.5163964 3.42806157,3.81237237 C3.42806157,4.10834835 3.68503234,4.35051051 3.99910774,4.35051051 L7.42716931,4.35051051 C7.74302922,4.35051051 7.99822472,4.10834835 7.99822472,3.81237237 C8,3.51471471 7.74302922,3.27423423 7.42716931,3.27423423 Z M7.42716931,5.95987988 L3.99910774,5.95987988 C3.68324783,5.95987988 3.42806157,6.20204204 3.42806157,6.49801802 C3.42806157,6.79567568 3.68503234,7.03615616 3.99910774,7.03615616 L7.42716931,7.03615616 C7.74302922,7.03615616 7.99822472,6.79399399 7.99822472,6.49801802 C8,6.20036036 7.74302922,5.95987988 7.42716931,5.95987988 L7.42716931,5.95987988 Z M7.42716931,8.61525526 L3.99910774,8.61525526 C3.68324783,8.61525526 3.42806157,8.85741742 3.42806157,9.15339339 C3.42806157,9.45105105 3.68503234,9.69153153 3.99910774,9.69153153 L7.42716931,9.69153153 C7.74302922,9.69153153 7.99822472,9.44936937 7.99822472,9.15339339 C8,8.85741742 7.74302922,8.61525526 7.42716931,8.61525526 Z" id="形状"></path>
            </g>
        </g>
    </g>
</svg>