<?xml version="1.0" encoding="UTF-8"?>
<svg width="18px" height="18px" viewBox="0 0 18 18" version="1.1" xmlns="http://www.w3.org/2000/svg" xmlns:xlink="http://www.w3.org/1999/xlink">
    <title>形状</title>
    <g id="页面-1" stroke="none" stroke-width="1" fill="none" fill-rule="evenodd">
        <g id="首页-监管二处-担保" transform="translate(-287.000000, -188.000000)" fill="#595959" fill-rule="nonzero">
            <path d="M304.804583,192.456446 L299.430106,200.651041 L299.381161,200.758524 L299.283321,200.812057 L297.279873,201.617475 L296.791223,201.83244 L296.791223,201.295495 L296.840575,199.040284 L296.840575,198.932828 L296.889088,198.825762 L302.410446,190.523683 L302.606174,190.201287 L302.899048,190.416227 L304.707079,191.919553 L305,192.134076 L304.804583,192.456446 Z M303.081899,193.94139 L301.762853,192.899526 L297.5227,199.218875 L297.487376,200.845255 L298.935604,200.263161 L303.081899,193.94139 Z M302.180833,192.276683 L303.493643,193.313782 L304.056585,192.455248 L302.775428,191.390185 L302.180833,192.276683 Z M290.390934,201.909094 L290.014152,201.909094 C289.597995,201.909094 289.260614,201.542747 289.260614,201.090945 C289.260614,200.63909 289.598019,200.272743 290.014152,200.272743 L290.390934,200.272743 C290.807066,200.272743 291.144472,200.639064 291.144472,201.090945 C291.144472,201.542747 290.807067,201.909094 290.390934,201.909094 Z M290.390934,193.727231 L290.014152,193.727231 C289.597995,193.727231 289.260614,193.36091 289.260614,192.909055 C289.260614,192.457227 289.598019,192.090879 290.014152,192.090879 L290.390934,192.090879 C290.807066,192.090879 291.144472,192.457227 291.144472,192.909055 C291.144472,193.360936 290.807067,193.727231 290.390934,193.727231 Z M290.390934,197.818241 L290.014152,197.818241 C289.597995,197.818241 289.260614,197.451841 289.260614,197.000013 C289.260614,196.548158 289.598019,196.181837 290.014152,196.181837 L290.390934,196.181837 C290.807066,196.181837 291.144472,196.548132 291.144472,197.000013 C291.144472,197.451815 290.807067,197.818241 290.390934,197.818241 Z M293.028305,200.272743 L294.535381,200.272743 C294.951538,200.272743 295.288919,200.639064 295.288919,201.090945 C295.288919,201.542747 294.951538,201.909094 294.535381,201.909094 L293.028305,201.909094 C292.612148,201.909094 292.274767,201.542747 292.274767,201.090945 C292.274767,200.63909 292.612172,200.272743 293.028305,200.272743 Z M292.274767,192.909081 C292.274767,192.457253 292.612172,192.090906 293.028305,192.090906 L298.30312,192.090906 C298.719253,192.090906 299.056682,192.457253 299.056682,192.909081 C299.056682,193.360936 298.719253,193.727257 298.30312,193.727257 L293.028305,193.727257 C292.612172,193.727231 292.274767,193.360936 292.274767,192.909081 Z M295.665724,197.818241 L293.028305,197.818241 C292.612148,197.818241 292.274767,197.451841 292.274767,197.000013 C292.274767,196.548158 292.612172,196.181837 293.028305,196.181837 L295.665724,196.181837 C296.081857,196.181837 296.419262,196.548132 296.419262,197.000013 C296.419262,197.451815 296.081857,197.818241 295.665724,197.818241 Z M301.882444,189.636378 C301.815466,189.636378 301.753261,189.617995 301.694077,189.594848 L301.694077,189.636378 L301.589211,189.636378 C301.458925,189.392693 301.218689,189.227277 300.940155,189.227277 L288.883857,189.227277 C288.4677,189.227277 288.130319,189.593624 288.130319,190.045453 L288.130319,203.954547 C288.130319,204.406376 288.4677,204.772723 288.883857,204.772723 L300.940131,204.772723 C301.356624,204.772723 301.694053,204.406376 301.694053,203.954547 L301.694053,199.454567 L301.731894,199.454567 C301.710576,199.389838 301.694053,199.322296 301.694053,199.250042 C301.694053,198.911243 301.946831,198.636417 302.259201,198.636417 C302.571187,198.636417 302.824348,198.911269 302.824348,199.250042 C302.824348,199.322296 302.807754,199.389838 302.786435,199.454567 L302.824348,199.454567 L302.824348,203.954547 C302.824348,205.083923 301.98062,206 300.940491,206 L288.883857,206 C287.843297,206 287,205.083923 287,203.954547 L287,190.045453 C287,188.915686 287.843321,188 288.883857,188 L300.940539,188 C301.41034,188 301.835346,188.191766 302.163902,188.502185 C302.260328,188.564102 302.339823,188.649974 302.38836,188.759852 C302.403803,188.780604 302.424402,188.796591 302.439102,188.81815 L302.409702,188.81815 C302.431021,188.882879 302.447591,188.949978 302.447591,189.0227 C302.447591,189.361526 302.194454,189.636378 301.882444,189.636378 Z" id="形状"></path>
        </g>
    </g>
</svg>