<?xml version="1.0" encoding="UTF-8"?>
<svg width="18px" height="18px" viewBox="0 0 18 18" version="1.1" xmlns="http://www.w3.org/2000/svg" xmlns:xlink="http://www.w3.org/1999/xlink">
    <title>余额提现备份</title>
    <g id="页面-1" stroke="none" stroke-width="1" fill="none" fill-rule="evenodd">
        <g id="首页-监管二处-担保" transform="translate(-1070.000000, -840.000000)" fill="#595959" fill-rule="nonzero">
            <g id="余额提现备份" transform="translate(1070.000000, 840.000000)">
                <path d="M16.6654335,8.07636163 L15.0475786,8.07636163 L15.0475786,7.2955488 L16.6654335,7.2955488 C16.7924392,7.29568085 16.9142966,7.24979147 17.00418,7.16798278 C17.0940634,7.08617408 17.1446043,6.97515257 17.1446766,6.85935858 L17.1446766,1.21675422 C17.1445319,1.10100336 17.0939591,0.990045773 17.0040835,0.908290888 C16.914208,0.826536003 16.7923919,0.780680768 16.6654335,0.780812828 L1.33456652,0.780812828 C1.07061546,0.781087074 0.856715876,0.976104124 0.856415077,1.21675422 L0.856415077,6.85935858 C0.856715876,7.10000868 1.07061546,7.29502573 1.33456652,7.29529997 L2.82196683,7.29529997 L2.82196683,8.0761128 L1.33456652,8.0761128 C0.598128581,8.07474393 0.00150140719,7.53078556 0,6.85935858 L0,1.21675422 C0.00150140719,0.545327239 0.598128581,0.0013688666 1.33456652,0 L16.6654335,0 C17.4018714,0.0013688666 17.9984986,0.545327239 18,1.21675422 L18,6.85935858 C17.9986487,7.53088273 17.4019777,8.0749923 16.6654335,8.07636163 L16.6654335,8.07636163 Z M2.15277314,3.96975394 L15.8480456,3.96975394 C16.1209631,3.96975394 16.2574218,4.09416644 16.2574218,4.34299143 L16.2574218,4.42286425 C16.2574218,4.67168925 16.1209631,4.79610174 15.8480456,4.79610174 L2.15277314,4.79610174 C1.87985566,4.79610174 1.74339691,4.67168925 1.74339691,4.42286425 L1.74339691,4.34299143 C1.74339691,4.09416644 1.87985566,3.96975394 2.15277314,3.96975394 Z M14.1409467,18 L3.86014495,18 C3.12360044,17.998768 2.52680743,17.4547697 2.52530552,16.7832458 L2.52530552,4.02001659 L15.4757862,4.02001659 L15.4757862,16.7832458 C15.4742842,17.4547697 14.8774912,17.998768 14.1409467,18 L14.1409467,18 Z M3.38172059,4.80082942 L3.38172059,16.7832458 C3.38202164,17.0239929 3.59608732,17.2190501 3.86014495,17.2191872 L14.1409467,17.2191872 C14.4047469,17.2187756 14.6184022,17.0237586 14.6185523,16.7832458 L14.6185523,4.80082942 L3.38172059,4.80082942 Z M8.69624284,9.97411384 L9.24617157,9.97411384 L10.958183,6.68374767 C11.0111172,6.58161005 11.0822487,6.49413786 11.1666919,6.42733885 C11.2520241,6.35874949 11.3599175,6.34336496 11.4903721,6.38118527 C11.6208266,6.41900557 11.7050672,6.49282994 11.7430937,6.60265838 C11.7792245,6.69642608 11.7945295,6.79941841 11.7875792,6.90201568 C11.7812749,6.98140864 11.7616084,7.05854098 11.7297207,7.12893748 L10.204112,9.9757164 L11.9251296,9.9757164 C11.9958153,9.9757164 12.0667738,10.0167418 12.1380053,10.0994337 C12.2080178,10.1793984 12.2479115,10.2889091 12.2488098,10.4035986 C12.2520643,10.5224812 12.2171956,10.6384664 12.1511053,10.7285968 C12.0831489,10.8247501 12.0078236,10.8728268 11.9251296,10.8728268 L9.84959214,10.8728268 L9.48606605,11.4817977 L11.9423234,11.4817977 C12.0181912,11.4841936 12.0906969,11.5190743 12.1461928,11.5798741 C12.2111472,11.6452583 12.2451709,11.7414116 12.2482639,11.868334 C12.2530381,11.9893788 12.2144377,12.1072416 12.1418261,12.1933322 C12.0679565,12.2826479 11.9951785,12.3273058 11.9234921,12.3273058 L9.41265124,12.3273058 L9.41265124,14.3077434 C9.41265124,14.50005 9.36971222,14.6530406 9.28383419,14.7667152 C9.19795615,14.8803898 9.08123844,14.944492 8.93368105,14.9590218 C8.78575977,14.9729106 8.66895109,14.9144708 8.583255,14.7837023 C8.49594514,14.6472152 8.4506293,14.4799897 8.45471086,14.309346 L8.45471086,12.3257032 L5.89365315,12.3257032 C5.7962428,12.330078 5.70159088,12.2871912 5.63192528,12.2071141 C5.56469641,12.1306807 5.53049024,12.0226541 5.53886042,11.9132055 C5.53886042,11.7480355 5.58316402,11.6345746 5.67177123,11.5728228 C5.75162744,11.5140137 5.84362276,11.4818792 5.93786579,11.4798746 L8.41268157,11.4798746 L8.07562847,10.8709037 L5.91958031,10.8709037 C5.78967159,10.8709037 5.6847803,10.8348996 5.60490645,10.7628915 C5.52494163,10.690456 5.48809777,10.5686618 5.49382903,10.3965474 C5.49983322,10.2386423 5.54277224,10.1286002 5.62264609,10.066421 C5.70920327,10.0022477 5.81017917,9.9700891 5.91248446,9.97411384 L7.68644813,9.97411384 L6.1518331,7.15810399 C6.09168346,7.0572238 6.06208531,6.93556482 6.06777451,6.8125931 C6.06966139,6.68055167 6.12789956,6.55845357 6.22279164,6.48759493 C6.30932204,6.41041337 6.41575403,6.37037054 6.52436547,6.37413402 C6.62507202,6.38823651 6.69875974,6.42060812 6.74624738,6.4722104 C6.79373503,6.52381267 6.86442066,6.63567102 6.95912303,6.80746493 L8.69624284,9.97411384 Z" id="形状"></path>
            </g>
        </g>
    </g>
</svg>